<?xml version="1.0" encoding="iso-8859-1"?>
<!-- Generator: Adobe Illustrator 17.1.0, SVG Export Plug-In . SVG Version: 6.00 Build 0)  -->
<!DOCTYPE svg PUBLIC "-//W3C//DTD SVG 1.1//EN" "http://www.w3.org/Graphics/SVG/1.1/DTD/svg11.dtd">
<svg version="1.1" id="Capa_1" xmlns="http://www.w3.org/2000/svg" xmlns:xlink="http://www.w3.org/1999/xlink" x="0px" y="0px"
	 viewBox="0 0 100 100" style="enable-background:new 0 0 100 100;" xml:space="preserve">
<g>
	<path d="M3.667,96.333h92.667V3.667H3.667V96.333z M12.951,49.986l7.117-7.119c0.883-0.883,1.93-1.325,3.14-1.325
		c1.209,0,2.256,0.442,3.14,1.325L41.069,57.59l32.583-32.583c0.883-0.883,1.93-1.327,3.14-1.327c1.209,0,2.256,0.444,3.14,1.327
		l7.117,7.116c0.883,0.886,1.326,1.932,1.326,3.14c0,1.21-0.443,2.257-1.326,3.14l-42.84,42.839
		c-0.884,0.886-1.931,1.327-3.14,1.327c-1.21,0-2.257-0.442-3.14-1.327L12.951,56.266c-0.884-0.883-1.326-1.93-1.326-3.14
		C11.625,51.916,12.066,50.869,12.951,49.986z"/>
</g>
</svg>
