<?xml version="1.0" encoding="iso-8859-1"?>
<!-- Generator: Adobe Illustrator 17.1.0, SVG Export Plug-In . SVG Version: 6.00 Build 0)  -->
<!DOCTYPE svg PUBLIC "-//W3C//DTD SVG 1.1//EN" "http://www.w3.org/Graphics/SVG/1.1/DTD/svg11.dtd">
<svg version="1.1" id="Capa_1" xmlns="http://www.w3.org/2000/svg" xmlns:xlink="http://www.w3.org/1999/xlink" x="0px" y="0px"
	 viewBox="0 0 100 100" style="enable-background:new 0 0 100 100;" xml:space="preserve">
<g>
	<path d="M87.378,41.496L52.225,76.648c-1.476,1.553-3.35,2.329-5.622,2.329h-1.591l-0.34-0.229
		c-1.401-0.339-2.669-1.038-3.805-2.101L17.81,53.478c-1.59-1.588-2.385-3.481-2.385-5.679c0-2.232,0.795-4.106,2.385-5.621
		l6.815-6.872c1.552-1.551,3.445-2.327,5.679-2.327c2.158,0,4.032,0.794,5.622,2.385l10.677,10.677l22.602-22.661L54.156,8.33
		c-2.007-2.005-4.43-3.008-7.269-3.008s-5.263,1.003-7.27,3.008L6.282,41.667c-2.008,2.005-3.01,4.428-3.01,7.267
		c0,2.839,1.003,5.264,3.01,7.27l33.335,33.335c2.006,2.005,4.439,3.01,7.298,3.01c2.858,0,5.271-1.005,7.241-3.01l33.336-33.335
		c2.006-2.005,3.01-4.43,3.01-7.27c0-2.84-1.004-5.262-3.01-7.267L87.378,41.496z"/>
	<path d="M88.39,15.655c-0.568-0.568-1.249-0.852-2.045-0.852c-0.795,0-1.476,0.284-2.044,0.852L46.432,53.309L32.121,38.996
		c-0.531-0.568-1.212-0.852-2.045-0.852c-0.833,0-1.496,0.284-1.988,0.852l-6.871,6.815c-0.531,0.532-0.795,1.193-0.795,1.988
		c0,0.796,0.265,1.477,0.795,2.045l23.114,23.171c0.454,0.455,1.022,0.721,1.704,0.794c0.075,0.04,0.189,0.058,0.34,0.058
		c0.757,0,1.457-0.284,2.101-0.852l46.729-46.457C95.735,25.99,96,25.309,96,24.513c0-0.794-0.265-1.475-0.795-2.043L88.39,15.655z"
		/>
</g>
</svg>
