<?xml version="1.0" encoding="iso-8859-1"?>
<!-- Generator: Adobe Illustrator 17.1.0, SVG Export Plug-In . SVG Version: 6.00 Build 0)  -->
<!DOCTYPE svg PUBLIC "-//W3C//DTD SVG 1.1//EN" "http://www.w3.org/Graphics/SVG/1.1/DTD/svg11.dtd">
<svg version="1.1" id="Capa_1" xmlns="http://www.w3.org/2000/svg" xmlns:xlink="http://www.w3.org/1999/xlink" x="0px" y="0px"
	 viewBox="0 0 100 100" style="enable-background:new 0 0 100 100;" xml:space="preserve">
<g>
	<path style="fill:#1D1D1B;" d="M56.364,69.345h-8.644V6.316c0-1.006-0.815-1.822-1.822-1.822H17.771
		c-1.006,0-1.822,0.816-1.822,1.822v63.029H7.306c-2.515,0-3.112,1.442-1.333,3.221l22.642,22.642c1.779,1.779,4.662,1.779,6.441,0
		l22.643-22.642C59.477,70.787,58.879,69.345,56.364,69.345z"/>
	<path style="fill:#1D1D1B;" d="M82.597,4.122c-0.152-0.379-0.52-0.628-0.928-0.628h-5.327c-0.412,0-0.782,0.253-0.932,0.637
		l-9.718,24.95c-0.12,0.308-0.08,0.655,0.106,0.927c0.187,0.273,0.496,0.436,0.826,0.436h5.344c0.42,0,0.796-0.263,0.94-0.658
		l1.82-5.009h8.585l1.932,5.026c0.148,0.386,0.52,0.641,0.934,0.641h5.48c0.332,0,0.642-0.165,0.828-0.44
		c0.186-0.275,0.224-0.624,0.1-0.932L82.597,4.122z M80.945,18.573h-3.941l1.951-5.36L80.945,18.573z"/>
	<path style="fill:#1D1D1B;" d="M89.276,64.597H77.182l12.343-15.202c0.145-0.178,0.224-0.401,0.224-0.63v-3.914
		c0-0.552-0.448-1-1-1H70.487c-0.552,0-1,0.448-1,1v4.221c0,0.552,0.448,1,1,1h9.528L68.229,64.628
		c-0.144,0.178-0.223,0.4-0.223,0.629v4.544c0,0.552,0.448,1,1,1h20.27c0.552,0,1-0.448,1-1v-4.204
		C90.276,65.045,89.828,64.597,89.276,64.597z"/>
</g>
</svg>
