<?xml version="1.0" encoding="iso-8859-1"?>
<!-- Generator: Adobe Illustrator 17.1.0, SVG Export Plug-In . SVG Version: 6.00 Build 0)  -->
<!DOCTYPE svg PUBLIC "-//W3C//DTD SVG 1.1//EN" "http://www.w3.org/Graphics/SVG/1.1/DTD/svg11.dtd">
<svg version="1.1" id="Capa_1" xmlns="http://www.w3.org/2000/svg" xmlns:xlink="http://www.w3.org/1999/xlink" x="0px" y="0px"
	 viewBox="0 0 100 100" style="enable-background:new 0 0 100 100;" xml:space="preserve">
<g>
	<path style="fill:#1D1D1B;" d="M93.188,65.289H75.593c-0.733,0-1.233,0.334-1.5,1c-0.267,0.635-0.15,1.216,0.35,1.75l4.999,4.999
		c-2.233,3.034-5.391,5.59-9.472,7.674c-4.083,2.083-8.606,3.458-13.571,4.124V27.361c1.932-1.133,3.481-2.673,4.648-4.624
		c1.166-1.949,1.75-4.089,1.75-6.422c0-3.532-1.25-6.549-3.749-9.048C56.548,4.768,53.532,3.518,50,3.518
		c-3.533,0-6.548,1.25-9.047,3.749c-2.5,2.499-3.749,5.516-3.749,9.048c0,2.333,0.583,4.473,1.75,6.422
		c1.166,1.951,2.716,3.491,4.648,4.624v57.474c-4.966-0.666-9.489-2.04-13.571-4.124c-4.082-2.083-7.24-4.639-9.472-7.674
		l4.999-4.999c0.5-0.533,0.616-1.115,0.35-1.75c-0.267-0.666-0.767-1-1.5-1H6.812c-0.467,0-0.85,0.15-1.15,0.451
		c-0.3,0.299-0.45,0.683-0.45,1.148v17.597c0,0.732,0.333,1.232,1,1.5c0.267,0.064,0.466,0.1,0.6,0.1c0.466,0,0.85-0.15,1.149-0.451
		l4.649-4.647c3.965,4.764,9.272,8.537,15.92,11.321C35.179,95.09,42.335,96.482,50,96.482c7.664,0,14.821-1.392,21.469-4.175
		c6.648-2.784,11.955-6.557,15.92-11.321l4.649,4.647c0.333,0.301,0.716,0.451,1.149,0.451c0.133,0,0.333-0.035,0.6-0.1
		c0.666-0.268,1-0.767,1-1.5V66.888c0-0.465-0.15-0.849-0.45-1.148C94.038,65.44,93.654,65.289,93.188,65.289z M52.25,18.565
		c-0.633,0.633-1.383,0.949-2.25,0.949c-0.867,0-1.617-0.316-2.25-0.949c-0.633-0.633-0.95-1.382-0.95-2.249
		c0-0.867,0.316-1.617,0.95-2.249c0.633-0.633,1.382-0.951,2.25-0.951c0.866,0,1.616,0.318,2.25,0.951
		c0.632,0.633,0.95,1.382,0.95,2.249C53.199,17.182,52.882,17.932,52.25,18.565z"/>
</g>
</svg>
