<?xml version="1.0" encoding="iso-8859-1"?>
<!-- Generator: Adobe Illustrator 17.1.0, SVG Export Plug-In . SVG Version: 6.00 Build 0)  -->
<!DOCTYPE svg PUBLIC "-//W3C//DTD SVG 1.1//EN" "http://www.w3.org/Graphics/SVG/1.1/DTD/svg11.dtd">
<svg version="1.1" id="Capa_1" xmlns="http://www.w3.org/2000/svg" xmlns:xlink="http://www.w3.org/1999/xlink" x="0px" y="0px"
	 viewBox="0 0 100 100" style="enable-background:new 0 0 100 100;" xml:space="preserve">
<g>
	<path d="M17.361,34.088c-1.557,0-2.878,0.543-3.964,1.629c-1.086,1.086-1.629,2.389-1.629,3.91v23.352
		c0,1.559,0.543,2.879,1.629,3.965c1.086,1.086,2.407,1.629,3.964,1.629c1.556,0,2.869-0.543,3.938-1.629
		c1.067-1.086,1.602-2.406,1.602-3.965V39.627c0-1.521-0.543-2.824-1.629-3.91S18.882,34.088,17.361,34.088z"/>
	<path d="M62.328,13.125l3.856-7.113c0.253-0.471,0.163-0.832-0.271-1.086c-0.471-0.219-0.833-0.108-1.086,0.325l-3.91,7.17
		c-3.44-1.521-7.079-2.283-10.916-2.283c-3.838,0-7.477,0.762-10.916,2.283l-3.91-7.17c-0.254-0.433-0.616-0.543-1.086-0.325
		c-0.435,0.255-0.525,0.615-0.271,1.086l3.856,7.113c-3.91,1.994-7.024,4.771-9.341,8.337c-2.317,3.568-3.476,7.467-3.476,11.704
		H75.09c0-4.236-1.159-8.135-3.476-11.704C69.297,17.896,66.201,15.119,62.328,13.125z M40.035,23.471
		c-0.417,0.418-0.915,0.626-1.494,0.626c-0.58,0-1.068-0.208-1.466-0.626c-0.398-0.416-0.597-0.912-0.597-1.493
		c0-0.579,0.199-1.076,0.597-1.493c0.398-0.416,0.887-0.624,1.466-0.624c0.579,0,1.077,0.208,1.494,0.624
		c0.416,0.418,0.625,0.914,0.625,1.493C40.659,22.558,40.45,23.055,40.035,23.471z M62.925,23.471
		c-0.399,0.418-0.888,0.626-1.466,0.626c-0.58,0-1.078-0.208-1.494-0.626c-0.417-0.416-0.625-0.912-0.625-1.493
		c0-0.579,0.208-1.076,0.625-1.493c0.416-0.416,0.914-0.624,1.494-0.624c0.579,0,1.067,0.208,1.466,0.624
		c0.398,0.418,0.597,0.914,0.597,1.493C63.522,22.558,63.323,23.055,62.925,23.471z"/>
	<path d="M25.073,71.288c0,1.667,0.579,3.078,1.737,4.236c1.159,1.158,2.57,1.737,4.236,1.737h4.019L35.12,89.59
		c0,1.557,0.543,2.879,1.629,3.965c1.086,1.086,2.39,1.629,3.91,1.629c1.556,0,2.878-0.543,3.964-1.629
		c1.086-1.086,1.629-2.408,1.629-3.965V77.262h7.494V89.59c0,1.557,0.543,2.879,1.629,3.965c1.086,1.086,2.407,1.629,3.964,1.629
		c1.556,0,2.878-0.543,3.964-1.629c1.086-1.086,1.629-2.408,1.629-3.965V77.262h4.073c1.629,0,3.022-0.579,4.182-1.737
		c1.158-1.158,1.737-2.569,1.737-4.236V35.119H25.073V71.288z"/>
	<path d="M82.639,34.088c-1.521,0-2.824,0.535-3.91,1.602c-1.086,1.069-1.629,2.382-1.629,3.937v23.352
		c0,1.559,0.543,2.879,1.629,3.965c1.086,1.086,2.39,1.629,3.91,1.629c1.556,0,2.878-0.543,3.964-1.629
		c1.086-1.086,1.629-2.406,1.629-3.965V39.627c0-1.555-0.543-2.868-1.629-3.937C85.517,34.623,84.195,34.088,82.639,34.088z"/>
</g>
</svg>
