<?xml version="1.0" encoding="iso-8859-1"?>
<!-- Generator: Adobe Illustrator 17.1.0, SVG Export Plug-In . SVG Version: 6.00 Build 0)  -->
<!DOCTYPE svg PUBLIC "-//W3C//DTD SVG 1.1//EN" "http://www.w3.org/Graphics/SVG/1.1/DTD/svg11.dtd">
<svg version="1.1" id="Capa_1" xmlns="http://www.w3.org/2000/svg" xmlns:xlink="http://www.w3.org/1999/xlink" x="0px" y="0px"
	 viewBox="0 0 100 100" style="enable-background:new 0 0 100 100;" xml:space="preserve">
<g>
	<path d="M60.718,22.054c2.268-2.267,3.942-4.75,5.022-7.45c1.044-2.7,1.566-5.147,1.566-7.344c0-0.143-0.009-0.325-0.027-0.54
		c-0.019-0.215-0.027-0.394-0.027-0.54c-0.036-0.108-0.081-0.306-0.135-0.595c-0.054-0.287-0.099-0.485-0.135-0.593
		c-6.336,1.476-10.835,4.14-13.499,7.992c-2.7,3.887-4.104,8.513-4.212,13.877c2.411-0.217,4.283-0.521,5.616-0.917
		C56.831,25.294,58.774,23.999,60.718,22.054z"/>
	<path d="M79.077,63.794c-2.484-3.562-3.726-7.576-3.726-12.042c0-4.067,1.169-7.792,3.51-11.177
		c1.26-1.835,3.312-3.959,6.156-6.372c-1.872-2.303-3.744-4.102-5.616-5.4c-3.384-2.337-7.218-3.51-11.501-3.51
		c-2.556,0-5.67,0.614-9.342,1.837c-3.528,1.225-6.102,1.835-7.721,1.835c-1.224,0-3.708-0.54-7.452-1.62
		c-3.78-1.08-6.965-1.62-9.557-1.62c-6.192,0-11.304,2.592-15.335,7.777c-4.068,5.256-6.102,11.987-6.102,20.194
		c0,8.711,2.646,17.764,7.938,27.161c5.363,9.323,10.781,13.984,16.253,13.984c1.836,0,4.211-0.612,7.127-1.835
		c2.916-1.188,5.471-1.782,7.667-1.782c2.34,0,5.057,0.576,8.154,1.727c3.275,1.152,5.795,1.727,7.559,1.727
		c4.607,0,9.233-3.527,13.877-10.582c3.024-4.499,5.238-9,6.642-13.499C84.404,69.626,81.561,67.358,79.077,63.794z"/>
</g>
</svg>
