<?xml version="1.0" encoding="iso-8859-1"?>
<!-- Generator: Adobe Illustrator 17.1.0, SVG Export Plug-In . SVG Version: 6.00 Build 0)  -->
<!DOCTYPE svg PUBLIC "-//W3C//DTD SVG 1.1//EN" "http://www.w3.org/Graphics/SVG/1.1/DTD/svg11.dtd">
<svg version="1.1" id="Capa_1" xmlns="http://www.w3.org/2000/svg" xmlns:xlink="http://www.w3.org/1999/xlink" x="0px" y="0px"
	 viewBox="0 0 100 100" style="enable-background:new 0 0 100 100;" xml:space="preserve">
<g>
	<path style="fill:#1D1D1B;" d="M89.885,5.617h-79.77c-2.994,0-5.421,2.427-5.421,5.421v79.77c0,2.994,2.427,5.421,5.421,5.421
		h79.77c2.994,0,5.421-2.427,5.421-5.421v-79.77C95.306,8.044,92.879,5.617,89.885,5.617z M76.643,62.362l-6.71-6.71L45.07,80.516
		c-0.781,0.781-2.047,0.781-2.828,0L20.407,58.681c-0.781-0.781-0.781-2.047,0-2.828L45.271,30.99l-6.709-6.71
		c-1.953-1.953-1.297-3.535,1.465-3.535l35.153,0c2.762,0,5,2.239,5,5l0,35.153C80.178,63.659,78.595,64.314,76.643,62.362z"/>
</g>
</svg>
