<?xml version="1.0" encoding="iso-8859-1"?>
<!-- Generator: Adobe Illustrator 17.1.0, SVG Export Plug-In . SVG Version: 6.00 Build 0)  -->
<!DOCTYPE svg PUBLIC "-//W3C//DTD SVG 1.1//EN" "http://www.w3.org/Graphics/SVG/1.1/DTD/svg11.dtd">
<svg version="1.1" id="Capa_1" xmlns="http://www.w3.org/2000/svg" xmlns:xlink="http://www.w3.org/1999/xlink" x="0px" y="0px"
	 viewBox="0 0 100 100" style="enable-background:new 0 0 100 100;" xml:space="preserve">
<g>
	<path style="fill:#1D1D1B;" d="M13.786,9.709h-1.623c-1.194,0-2.163,0.969-2.163,2.163v76.255c0,1.195,0.969,2.163,2.163,2.163
		h1.623c1.195,0,2.164-0.969,2.164-2.163V11.872C15.949,10.678,14.98,9.709,13.786,9.709z"/>
	<path style="fill:#1D1D1B;" d="M28.929,9.709h-5.949c-1.195,0-2.163,0.969-2.163,2.163v76.255c0,1.195,0.968,2.163,2.163,2.163
		h5.949c1.194,0,2.163-0.969,2.163-2.163V11.872C31.092,10.678,30.123,9.709,28.929,9.709z"/>
	<path style="fill:#1D1D1B;" d="M42.99,9.709h-5.949c-1.195,0-2.164,0.969-2.164,2.163v76.255c0,1.195,0.969,2.163,2.164,2.163
		h5.949c1.195,0,2.164-0.969,2.164-2.163V11.872C45.153,10.678,44.185,9.709,42.99,9.709z"/>
	<path style="fill:#1D1D1B;" d="M51.643,9.709h-0.541c-1.195,0-2.163,0.969-2.163,2.163v76.255c0,1.195,0.968,2.163,2.163,2.163
		h0.541c1.194,0,2.163-0.969,2.163-2.163V11.872C53.806,10.678,52.837,9.709,51.643,9.709z"/>
	<path style="fill:#1D1D1B;" d="M87.337,9.709h-0.541c-1.195,0-2.163,0.969-2.163,2.163v76.255c0,1.195,0.968,2.163,2.163,2.163
		h0.541c1.194,0,2.163-0.969,2.163-2.163V11.872C89.5,10.678,88.531,9.709,87.337,9.709z"/>
	<path style="fill:#1D1D1B;" d="M78.684,9.709H59.755c-1.194,0-2.163,0.969-2.163,2.163v76.255c0,1.195,0.969,2.163,2.163,2.163
		h18.929c1.195,0,2.163-0.969,2.163-2.163V11.872C80.847,10.678,79.878,9.709,78.684,9.709z"/>
</g>
</svg>
