<?xml version="1.0" encoding="iso-8859-1"?>
<!-- Generator: Adobe Illustrator 17.1.0, SVG Export Plug-In . SVG Version: 6.00 Build 0)  -->
<!DOCTYPE svg PUBLIC "-//W3C//DTD SVG 1.1//EN" "http://www.w3.org/Graphics/SVG/1.1/DTD/svg11.dtd">
<svg version="1.1" id="Capa_1" xmlns="http://www.w3.org/2000/svg" xmlns:xlink="http://www.w3.org/1999/xlink" x="0px" y="0px"
	 viewBox="0 0 100 100" style="enable-background:new 0 0 100 100;" xml:space="preserve">
<g>
	<path style="fill:#000100;" d="M23.202,25.928H12.408C10.526,25.928,9,27.454,9,29.337v61.352h17.61V29.337
		C26.61,27.454,25.084,25.928,23.202,25.928z"/>
	<path style="fill:#000100;" d="M87.842,37.29H77.048c-1.883,0-3.409,1.526-3.409,3.408v49.991h17.61V40.698
		C91.25,38.816,89.724,37.29,87.842,37.29z"/>
	<path style="fill:#000100;" d="M66.105,7.75H55.312c-1.882,0-3.409,1.526-3.409,3.408v79.531h17.61V11.158
		C69.513,9.276,67.987,7.75,66.105,7.75z"/>
	<path style="fill:#000100;" d="M44.789,53.196H33.995c-1.882,0-3.408,1.526-3.408,3.408v34.085h17.61V56.604
		C48.197,54.722,46.671,53.196,44.789,53.196z"/>
</g>
</svg>
