<?xml version="1.0" encoding="iso-8859-1"?>
<!-- Generator: Adobe Illustrator 17.1.0, SVG Export Plug-In . SVG Version: 6.00 Build 0)  -->
<!DOCTYPE svg PUBLIC "-//W3C//DTD SVG 1.1//EN" "http://www.w3.org/Graphics/SVG/1.1/DTD/svg11.dtd">
<svg version="1.1" id="Capa_1" xmlns="http://www.w3.org/2000/svg" xmlns:xlink="http://www.w3.org/1999/xlink" x="0px" y="0px"
	 viewBox="0 0 100 100" style="enable-background:new 0 0 100 100;" xml:space="preserve">
<g>
	<path d="M72.297,11.536C65.491,7.566,58.059,5.58,50,5.58c-8.06,0-15.492,1.986-22.297,5.956
		c-6.806,3.974-12.195,9.363-16.166,16.168C7.565,34.509,5.58,41.942,5.58,49.999c0,8.061,1.986,15.492,5.958,22.297
		c3.971,6.807,9.36,12.196,16.166,16.165C34.508,92.434,41.94,94.42,50,94.42c8.059,0,15.491-1.986,22.297-5.958
		c6.805-3.97,12.194-9.358,16.166-16.165c3.971-6.805,5.958-14.236,5.958-22.297c0-8.057-1.987-15.49-5.958-22.295
		C84.491,20.899,79.102,15.51,72.297,11.536z M50,12.058c9.562,0,17.91,3.163,25.044,9.485c-0.193,0.271-0.434,0.608-0.723,1.012
		c-0.289,0.404-1.012,1.186-2.169,2.343s-2.42,2.255-3.788,3.296c-1.369,1.042-3.23,2.228-5.582,3.558
		c-2.352,1.328-4.858,2.497-7.519,3.497c-4.435-8.172-9.177-15.537-14.228-22.094C44.081,12.424,47.069,12.058,50,12.058z
		 M20.271,26.459c3.702-4.666,8.213-8.251,13.534-10.757c4.781,6.362,9.486,13.649,14.113,21.861
		c-11.723,3.086-23.406,4.627-35.051,4.627C14.101,36.371,16.569,31.127,20.271,26.459z M14.603,63.679
		c-1.697-4.338-2.545-8.897-2.545-13.68c0-0.538,0.019-0.942,0.058-1.213c13.958,0,26.933-1.794,38.926-5.379
		c1.234,2.39,2.256,4.532,3.065,6.421c-0.155,0.077-0.405,0.163-0.752,0.26c-0.347,0.097-0.598,0.165-0.752,0.201l-2.14,0.752
		c-1.466,0.54-3.384,1.466-5.755,2.777c-2.371,1.313-4.887,2.874-7.548,4.686c-2.661,1.812-5.408,4.211-8.242,7.2
		c-2.834,2.989-5.215,6.2-7.143,9.629C18.689,71.903,16.299,68.017,14.603,63.679z M50,87.942c-9.023,0-17.083-2.892-24.177-8.676
		l0.868,0.637c1.349-2.969,3.335-5.822,5.957-8.561c2.622-2.736,5.148-4.946,7.577-6.622c2.429-1.679,5.07-3.258,7.924-4.745
		c2.853-1.482,4.801-2.429,5.842-2.833c1.041-0.404,1.87-0.723,2.487-0.953l0.116-0.059h0.115
		c3.779,9.909,6.478,19.512,8.097,28.804C60.025,86.941,55.09,87.942,50,87.942z M81.927,70.505c-2.854,4.415-6.42,8.068-10.7,10.96
		c-1.582-8.868-4.049-17.91-7.403-27.128c7.673-1.193,15.559-0.635,23.656,1.679C86.631,61.259,84.78,66.09,81.927,70.505z
		 M87.364,49.479c-0.386-0.077-0.868-0.163-1.446-0.26c-0.579-0.097-1.282-0.212-2.111-0.348c-0.829-0.133-1.755-0.26-2.776-0.375
		c-1.022-0.115-2.111-0.221-3.268-0.319c-1.157-0.095-2.391-0.174-3.702-0.23c-1.311-0.059-2.641-0.088-3.991-0.088
		c-1.35,0-2.767,0.041-4.251,0.115c-1.485,0.079-2.921,0.215-4.309,0.407c-0.116-0.192-0.26-0.511-0.434-0.956
		c-0.174-0.443-0.299-0.779-0.376-1.012c-0.733-1.62-1.582-3.45-2.545-5.495c2.661-1.078,5.196-2.323,7.606-3.73
		c2.409-1.405,4.338-2.661,5.784-3.76c1.446-1.098,2.814-2.264,4.106-3.5c1.292-1.231,2.13-2.09,2.516-2.573
		c0.385-0.481,0.752-0.953,1.099-1.417l0.058-0.059c5.629,6.866,8.502,14.769,8.618,23.714L87.364,49.479z"/>
</g>
</svg>
