<?xml version="1.0" encoding="iso-8859-1"?>
<!-- Generator: Adobe Illustrator 17.1.0, SVG Export Plug-In . SVG Version: 6.00 Build 0)  -->
<!DOCTYPE svg PUBLIC "-//W3C//DTD SVG 1.1//EN" "http://www.w3.org/Graphics/SVG/1.1/DTD/svg11.dtd">
<svg version="1.1" id="Capa_1" xmlns="http://www.w3.org/2000/svg" xmlns:xlink="http://www.w3.org/1999/xlink" x="0px" y="0px"
	 viewBox="0 0 100 100" style="enable-background:new 0 0 100 100;" xml:space="preserve">
<g>
	<path style="fill:#000100;" d="M52.118,23.5c0.603,1.279,1.221,2.772,1.919,4.465c0.099,0.239,0.197,0.478,0.295,0.714H87
		c1.256,0,2.441,0.299,3.5,0.817V28.5c0-2.761-2.239-5-5-5H52.118z"/>
	<path style="fill:#000100;" d="M87,31.68H52.341c-1.138-2.631-2.394-5.966-3.538-8.084c-0.677-1.254-1.316-2.083-1.867-2.083
		H12.665c-3.128,0-5.665,2.239-5.665,5V36.68v4.57v34.5c0,2.761,2.239,5,5,5h75c2.761,0,5-2.239,5-5V36.68
		c0-1.397-0.576-2.658-1.5-3.565C89.598,32.229,88.364,31.68,87,31.68z"/>
</g>
</svg>
