<?xml version="1.0" encoding="iso-8859-1"?>
<!-- Generator: Adobe Illustrator 17.1.0, SVG Export Plug-In . SVG Version: 6.00 Build 0)  -->
<!DOCTYPE svg PUBLIC "-//W3C//DTD SVG 1.1//EN" "http://www.w3.org/Graphics/SVG/1.1/DTD/svg11.dtd">
<svg version="1.1" id="Capa_1" xmlns="http://www.w3.org/2000/svg" xmlns:xlink="http://www.w3.org/1999/xlink" x="0px" y="0px"
	 viewBox="0 0 100 100" style="enable-background:new 0 0 100 100;" xml:space="preserve">
<g>
	<path d="M93.354,11.75H6.646c-0.979,0-1.826,0.357-2.54,1.072c-0.715,0.717-1.073,1.563-1.073,2.54v7.063
		c0,0.979,0.357,1.826,1.073,2.54c0.714,0.714,1.561,1.072,2.54,1.072h86.709c0.978,0,1.825-0.357,2.54-1.072
		c0.715-0.714,1.073-1.561,1.073-2.54v-7.063c0-0.977-0.358-1.824-1.073-2.54C95.179,12.107,94.333,11.75,93.354,11.75z"/>
	<path d="M89.742,29.649H10.258c-0.979,0-1.826,0.359-2.54,1.074c-0.715,0.717-1.073,1.563-1.073,2.54v54.193
		c0,0.977,0.357,1.824,1.073,2.54c0.714,0.714,1.561,1.072,2.54,1.072h79.483c0.978,0,1.825-0.357,2.54-1.072
		c0.715-0.717,1.073-1.563,1.073-2.54V33.263c0-0.977-0.358-1.824-1.073-2.54C91.567,30.008,90.72,29.649,89.742,29.649z
		 M68.21,50.089c0,0.583-0.473,1.056-1.056,1.056H32.845c-0.583,0-1.056-0.473-1.056-1.056V38.477c0-0.583,0.473-1.056,1.056-1.056
		h34.309c0.583,0,1.056,0.473,1.056,1.056V50.089z"/>
</g>
</svg>
