<?xml version="1.0" encoding="iso-8859-1"?>
<!-- Generator: Adobe Illustrator 17.1.0, SVG Export Plug-In . SVG Version: 6.00 Build 0)  -->
<!DOCTYPE svg PUBLIC "-//W3C//DTD SVG 1.1//EN" "http://www.w3.org/Graphics/SVG/1.1/DTD/svg11.dtd">
<svg version="1.1" id="Capa_1" xmlns="http://www.w3.org/2000/svg" xmlns:xlink="http://www.w3.org/1999/xlink" x="0px" y="0px"
	 viewBox="0 0 100 100" style="enable-background:new 0 0 100 100;" xml:space="preserve">
<g>
	<path style="fill:#1D1D1B;" d="M62.603,94.213c0,0.415-0.05,0.812-0.132,1.196h22.361c0.906,0,1.69-0.332,2.353-0.994
		c0.662-0.663,0.994-1.447,0.994-2.353V5.047c0-0.905-0.332-1.689-0.994-2.353c-0.663-0.662-1.447-0.993-2.353-0.993H17.897
		c-0.907,0-1.691,0.331-2.353,0.993c-0.663,0.664-0.994,1.448-0.994,2.353v87.016c0,0.906,0.331,1.69,0.994,2.353
		c0.662,0.662,1.446,0.994,2.353,0.994h22.361c-0.082-0.384-0.132-0.781-0.132-1.196v-5.497v-9.742c0-1.519,0.554-2.836,1.668-3.951
		c1.111-1.108,2.428-1.667,3.951-1.667h11.239c1.52,0,2.837,0.559,3.951,1.667c1.111,1.115,1.669,2.432,1.669,3.951v9.742V94.213z
		 M79.189,64.911c-0.403,0.402-0.878,0.602-1.428,0.602H73.7c-0.55,0-1.026-0.201-1.428-0.602c-0.402-0.402-0.603-0.877-0.603-1.428
		v-4.061c0-0.549,0.2-1.025,0.603-1.428c0.402-0.4,0.877-0.604,1.428-0.604h4.061c0.549,0,1.025,0.203,1.428,0.604
		c0.401,0.403,0.603,0.879,0.603,1.428v4.061C79.792,64.033,79.59,64.509,79.189,64.911z M79.792,75.666v4.061
		c0,0.552-0.201,1.027-0.603,1.428c-0.403,0.403-0.878,0.602-1.428,0.602H73.7c-0.55,0-1.026-0.2-1.428-0.602
		c-0.402-0.4-0.603-0.876-0.603-1.428v-4.061c0-0.549,0.2-1.025,0.603-1.428c0.402-0.4,0.877-0.602,1.428-0.602h4.061
		c0.549,0,1.025,0.202,1.428,0.602C79.59,74.641,79.792,75.117,79.792,75.666z M79.189,48.666c-0.403,0.403-0.878,0.604-1.428,0.604
		H73.7c-0.55,0-1.026-0.201-1.428-0.604c-0.402-0.4-0.603-0.876-0.603-1.428v-4.06c0-0.55,0.2-1.026,0.603-1.428
		c0.402-0.402,0.877-0.604,1.428-0.604h4.061c0.549,0,1.025,0.202,1.428,0.604c0.401,0.401,0.603,0.877,0.603,1.428v4.06
		C79.792,47.789,79.59,48.265,79.189,48.666z M79.189,32.422c-0.403,0.403-0.878,0.604-1.428,0.604H73.7
		c-0.55,0-1.026-0.201-1.428-0.604c-0.402-0.4-0.603-0.876-0.603-1.428v-4.061c0-0.549,0.2-1.025,0.603-1.428
		c0.402-0.4,0.877-0.602,1.428-0.602h4.061c0.549,0,1.025,0.202,1.428,0.602c0.401,0.403,0.603,0.879,0.603,1.428v4.061
		C79.792,31.546,79.59,32.022,79.189,32.422z M79.189,16.178c-0.403,0.403-0.878,0.602-1.428,0.602H73.7
		c-0.55,0-1.026-0.2-1.428-0.602c-0.402-0.4-0.603-0.876-0.603-1.428v-4.061c0-0.549,0.2-1.025,0.603-1.428
		c0.402-0.4,0.877-0.602,1.428-0.602h4.061c0.549,0,1.025,0.202,1.428,0.602c0.401,0.403,0.603,0.879,0.603,1.428v4.061
		C79.792,15.302,79.59,15.778,79.189,16.178z M62.945,32.422c-0.403,0.403-0.879,0.604-1.428,0.604h-4.061
		c-0.55,0-1.026-0.201-1.428-0.604c-0.402-0.4-0.603-0.876-0.603-1.428v-4.061c0-0.549,0.2-1.025,0.603-1.428
		c0.402-0.4,0.877-0.602,1.428-0.602h4.061c0.549,0,1.025,0.202,1.428,0.602c0.401,0.403,0.603,0.879,0.603,1.428v4.061
		C63.547,31.546,63.346,32.022,62.945,32.422z M63.547,43.178v4.06c0,0.552-0.201,1.027-0.603,1.428
		c-0.403,0.403-0.879,0.604-1.428,0.604h-4.061c-0.55,0-1.026-0.201-1.428-0.604c-0.402-0.4-0.603-0.876-0.603-1.428v-4.06
		c0-0.55,0.2-1.026,0.603-1.428c0.402-0.402,0.877-0.604,1.428-0.604h4.061c0.549,0,1.025,0.202,1.428,0.604
		C63.346,42.152,63.547,42.628,63.547,43.178z M62.945,16.178c-0.403,0.403-0.879,0.602-1.428,0.602h-4.061
		c-0.55,0-1.026-0.2-1.428-0.602c-0.402-0.4-0.603-0.876-0.603-1.428v-4.061c0-0.549,0.2-1.025,0.603-1.428
		c0.402-0.4,0.877-0.602,1.428-0.602h4.061c0.549,0,1.025,0.202,1.428,0.602c0.401,0.403,0.603,0.879,0.603,1.428v4.061
		C63.547,15.302,63.346,15.778,62.945,16.178z M30.457,64.911c-0.403,0.402-0.878,0.602-1.428,0.602h-4.061
		c-0.55,0-1.026-0.201-1.428-0.602c-0.403-0.402-0.603-0.877-0.603-1.428v-4.061c0-0.549,0.2-1.025,0.603-1.428
		c0.402-0.4,0.877-0.604,1.428-0.604h4.061c0.549,0,1.025,0.203,1.428,0.604c0.401,0.403,0.603,0.879,0.603,1.428v4.061
		C31.059,64.033,30.858,64.509,30.457,64.911z M31.059,75.666v4.061c0,0.552-0.201,1.027-0.603,1.428
		c-0.403,0.403-0.878,0.602-1.428,0.602h-4.061c-0.55,0-1.026-0.2-1.428-0.602c-0.403-0.4-0.603-0.876-0.603-1.428v-4.061
		c0-0.549,0.2-1.025,0.603-1.428c0.402-0.4,0.877-0.602,1.428-0.602h4.061c0.549,0,1.025,0.202,1.428,0.602
		C30.858,74.641,31.059,75.117,31.059,75.666z M30.457,48.666c-0.403,0.403-0.878,0.604-1.428,0.604h-4.061
		c-0.55,0-1.026-0.201-1.428-0.604c-0.403-0.4-0.603-0.876-0.603-1.428v-4.06c0-0.55,0.2-1.026,0.603-1.428
		c0.402-0.402,0.877-0.604,1.428-0.604h4.061c0.549,0,1.025,0.202,1.428,0.604c0.401,0.401,0.603,0.877,0.603,1.428v4.06
		C31.059,47.789,30.858,48.265,30.457,48.666z M30.457,32.422c-0.403,0.403-0.878,0.604-1.428,0.604h-4.061
		c-0.55,0-1.026-0.201-1.428-0.604c-0.403-0.4-0.603-0.876-0.603-1.428v-4.061c0-0.549,0.2-1.025,0.603-1.428
		c0.402-0.4,0.877-0.602,1.428-0.602h4.061c0.549,0,1.025,0.202,1.428,0.602c0.401,0.403,0.603,0.879,0.603,1.428v4.061
		C31.059,31.546,30.858,32.022,30.457,32.422z M30.457,16.178c-0.403,0.403-0.878,0.602-1.428,0.602h-4.061
		c-0.55,0-1.026-0.2-1.428-0.602c-0.403-0.4-0.603-0.876-0.603-1.428v-4.061c0-0.549,0.2-1.025,0.603-1.428
		c0.402-0.4,0.877-0.602,1.428-0.602h4.061c0.549,0,1.025,0.202,1.428,0.602c0.401,0.403,0.603,0.879,0.603,1.428v4.061
		C31.059,15.302,30.858,15.778,30.457,16.178z M47.303,63.483c0,0.55-0.201,1.026-0.603,1.428c-0.403,0.402-0.879,0.602-1.428,0.602
		h-4.061c-0.55,0-1.026-0.201-1.428-0.602c-0.402-0.402-0.603-0.877-0.603-1.428v-4.061c0-0.549,0.2-1.025,0.603-1.428
		c0.401-0.4,0.877-0.604,1.428-0.604h4.061c0.549,0,1.025,0.203,1.428,0.604c0.401,0.403,0.603,0.879,0.603,1.428V63.483z
		 M47.303,47.238c0,0.552-0.201,1.027-0.603,1.428c-0.403,0.403-0.879,0.604-1.428,0.604h-4.061c-0.55,0-1.026-0.201-1.428-0.604
		c-0.402-0.4-0.603-0.876-0.603-1.428v-4.06c0-0.55,0.2-1.026,0.603-1.428c0.401-0.402,0.877-0.604,1.428-0.604h4.061
		c0.549,0,1.025,0.202,1.428,0.604c0.401,0.401,0.603,0.877,0.603,1.428V47.238z M47.303,30.994c0,0.552-0.201,1.027-0.603,1.428
		c-0.403,0.403-0.879,0.604-1.428,0.604h-4.061c-0.55,0-1.026-0.201-1.428-0.604c-0.402-0.4-0.603-0.876-0.603-1.428v-4.061
		c0-0.549,0.2-1.025,0.603-1.428c0.401-0.4,0.877-0.602,1.428-0.602h4.061c0.549,0,1.025,0.202,1.428,0.602
		c0.401,0.403,0.603,0.879,0.603,1.428V30.994z M47.303,14.75c0,0.552-0.201,1.027-0.603,1.428
		c-0.403,0.403-0.879,0.602-1.428,0.602h-4.061c-0.55,0-1.026-0.2-1.428-0.602c-0.402-0.4-0.603-0.876-0.603-1.428v-4.061
		c0-0.549,0.2-1.025,0.603-1.428c0.401-0.4,0.877-0.602,1.428-0.602h4.061c0.549,0,1.025,0.202,1.428,0.602
		c0.401,0.403,0.603,0.879,0.603,1.428V14.75z M61.517,65.513h-4.061c-0.55,0-1.026-0.201-1.428-0.602
		c-0.402-0.402-0.603-0.877-0.603-1.428v-4.061c0-0.549,0.2-1.025,0.603-1.428c0.402-0.4,0.877-0.604,1.428-0.604h4.061
		c0.549,0,1.025,0.203,1.428,0.604c0.401,0.403,0.603,0.879,0.603,1.428v4.061c0,0.55-0.201,1.026-0.603,1.428
		C62.542,65.312,62.066,65.513,61.517,65.513z"/>
</g>
</svg>
