<?xml version="1.0" encoding="iso-8859-1"?>
<!-- Generator: Adobe Illustrator 17.1.0, SVG Export Plug-In . SVG Version: 6.00 Build 0)  -->
<!DOCTYPE svg PUBLIC "-//W3C//DTD SVG 1.1//EN" "http://www.w3.org/Graphics/SVG/1.1/DTD/svg11.dtd">
<svg version="1.1" id="Capa_1" xmlns="http://www.w3.org/2000/svg" xmlns:xlink="http://www.w3.org/1999/xlink" x="0px" y="0px"
	 viewBox="0 0 100 100" style="enable-background:new 0 0 100 100;" xml:space="preserve">
<g>
	<path style="fill:#000100;" d="M89.862,4.025H10.138c-2.761,0-5,2.239-5,5V88.75c0,2.761,2.239,5,5,5h79.725c2.761,0,5-2.239,5-5
		V9.025C94.862,6.264,92.624,4.025,89.862,4.025z M79.193,53.129c-2.635,4.269-6.229,8.679-10.781,13.232
		c-4.552,4.552-8.962,8.147-13.232,10.781c-8.731,5.387-20.937,10.395-30.816,5.231c-5.832-2.281-9.969-7.943-9.969-14.582
		c0-8.653,7.014-15.667,15.667-15.667c8.552,0,15.491,6.854,15.653,15.367c0.237-0.122,0.621-0.346,1.161-0.68
		c0.567-0.351,0.884-0.542,0.95-0.576c4.57-2.534,8.488-5.435,11.757-8.705c3.269-3.268,6.17-7.187,8.705-11.756
		c0.033-0.067,0.225-0.383,0.575-0.951c0.089-0.144,0.169-0.276,0.244-0.399c-7.695-0.995-13.644-7.557-13.644-15.522
		c0-8.653,7.014-15.667,15.667-15.667c8.614,0,14.602,6.503,15.395,14.722c0.031,0.32,0.056,0.64,0.076,0.959
		C87.124,37.494,83.62,45.958,79.193,53.129z"/>
</g>
</svg>
