<?xml version="1.0" encoding="iso-8859-1"?>
<!-- Generator: Adobe Illustrator 17.1.0, SVG Export Plug-In . SVG Version: 6.00 Build 0)  -->
<!DOCTYPE svg PUBLIC "-//W3C//DTD SVG 1.1//EN" "http://www.w3.org/Graphics/SVG/1.1/DTD/svg11.dtd">
<svg version="1.1" id="Capa_1" xmlns="http://www.w3.org/2000/svg" xmlns:xlink="http://www.w3.org/1999/xlink" x="0px" y="0px"
	 viewBox="0 0 100 100" style="enable-background:new 0 0 100 100;" xml:space="preserve">
<g>
	<path style="fill:#1D1D1B;" d="M71.482,9.115c-9.67,0-17.51,7.84-17.51,17.51c0,8.902,6.649,16.236,15.249,17.348
		c-0.083,0.137-0.173,0.285-0.272,0.445c-0.392,0.635-0.605,0.988-0.644,1.063c-2.833,5.107-6.075,9.486-9.729,13.139
		c-3.653,3.654-8.033,6.896-13.14,9.729c-0.074,0.037-0.429,0.251-1.062,0.643c-0.603,0.372-1.032,0.623-1.297,0.76
		c-0.181-9.514-7.936-17.175-17.494-17.175c-9.671,0-17.511,7.84-17.511,17.51c0,7.421,4.625,13.748,11.142,16.297
		c3.371,1.762,6.707,2.652,10.009,2.652c1.006,0,1.984-0.064,2.935-0.195c0.951-0.13,2.022-0.364,3.216-0.699
		s2.077-0.606,2.655-0.811c0.578-0.204,1.613-0.586,3.103-1.146c1.492-0.559,2.405-0.894,2.739-1.007
		c3.654-1.304,6.915-2.851,9.785-4.64c4.772-2.944,9.701-6.962,14.789-12.05c5.088-5.088,9.104-10.017,12.05-14.788
		c1.789-2.87,3.336-6.132,4.64-9.785c0.112-0.336,0.447-1.249,1.006-2.74c0.561-1.491,0.943-2.525,1.147-3.104
		c0.205-0.578,0.475-1.462,0.811-2.656c0.335-1.193,0.568-2.264,0.699-3.215c0.131-0.95,0.195-1.929,0.195-2.935
		c0-0.48-0.023-0.961-0.062-1.442c0.027-0.398,0.062-0.795,0.062-1.199C88.993,16.955,81.153,9.115,71.482,9.115z"/>
</g>
</svg>
