<?xml version="1.0" encoding="iso-8859-1"?>
<!-- Generator: Adobe Illustrator 17.1.0, SVG Export Plug-In . SVG Version: 6.00 Build 0)  -->
<!DOCTYPE svg PUBLIC "-//W3C//DTD SVG 1.1//EN" "http://www.w3.org/Graphics/SVG/1.1/DTD/svg11.dtd">
<svg version="1.1" id="Layer_1" xmlns="http://www.w3.org/2000/svg" xmlns:xlink="http://www.w3.org/1999/xlink" x="0px" y="0px"
	 viewBox="0 0 64 64" style="enable-background:new 0 0 64 64;" xml:space="preserve">
<g>
	<path d="M17.452,38.165c-3.149,0-5.701,2.553-5.701,5.701s2.553,5.701,5.701,5.701s5.701-2.553,5.701-5.701
		S20.601,38.165,17.452,38.165z M17.44,45.538c-0.895,0-1.62-0.725-1.62-1.62c0-0.895,0.725-1.62,1.62-1.62s1.62,0.725,1.62,1.62
		C19.06,44.812,18.335,45.538,17.44,45.538z"/>
	<path d="M58.586,41h-4.173C53.633,41,53,41.633,53,42.414v0.173C53,43.367,53.633,44,54.414,44h4.173
		C59.367,44,60,43.367,60,42.586v-0.173C60,41.633,59.367,41,58.586,41z"/>
	<path d="M10,43.659c0-3.785,3.668-6.83,7.452-6.83c3.785,0,7.048,2.17,7.157,6.264c0,0.159-0.045,1.906-0.056,1.906h25.924
		C51.779,45,52,43.076,52,41.774V15.616C52,14.315,51.779,14,50.477,14H22.25H22C14,14,2.727,24.732,2.727,33.021
		C2.727,40.264,5,42.706,10,43.67C10,43.666,10,43.663,10,43.659z M35,23.644C35,22.635,36.209,22,37.016,22h6.817
		C44.64,22,45,22.635,45,23.644v15.832C45,40.485,44.64,41,43.833,41h-6.817C36.209,41,35,40.485,35,39.476V23.644z M14,23.885
		C14,22.844,14.844,22,15.885,22h9.23C26.156,22,27,22.844,27,23.885v5.23C27,30.156,26.156,31,25.115,31h-9.23
		C14.844,31,14,30.156,14,29.115V23.885z"/>
</g>
</svg>
