<?xml version="1.0" encoding="iso-8859-1"?>
<!-- Generator: Adobe Illustrator 17.1.0, SVG Export Plug-In . SVG Version: 6.00 Build 0)  -->
<!DOCTYPE svg PUBLIC "-//W3C//DTD SVG 1.1//EN" "http://www.w3.org/Graphics/SVG/1.1/DTD/svg11.dtd">
<svg version="1.1" id="Capa_1" xmlns="http://www.w3.org/2000/svg" xmlns:xlink="http://www.w3.org/1999/xlink" x="0px" y="0px"
	 viewBox="0 0 100 100" style="enable-background:new 0 0 100 100;" xml:space="preserve">
<g>
	<path style="fill:#1D1D1B;" d="M30.75,20.625h42c2.347,0,4.25-1.903,4.25-4.25c0-2.347-1.903-4.25-4.25-4.25h-42
		c-2.347,0-4.25,1.903-4.25,4.25C26.5,18.722,28.403,20.625,30.75,20.625z"/>
	<path style="fill:#1D1D1B;" d="M21.75,42.625h59c2.347,0,4.25-1.903,4.25-4.25c0-2.347-1.903-4.25-4.25-4.25h-59
		c-2.347,0-4.25,1.903-4.25,4.25C17.5,40.722,19.403,42.625,21.75,42.625z"/>
	<path style="fill:#1D1D1B;" d="M32.75,56.125c-2.347,0-4.25,1.903-4.25,4.25c0,2.347,1.903,4.25,4.25,4.25h37
		c2.347,0,4.25-1.903,4.25-4.25c0-2.347-1.903-4.25-4.25-4.25H32.75z"/>
	<path style="fill:#1D1D1B;" d="M84.75,79.375h-68c-2.347,0-4.25,1.903-4.25,4.25c0,2.347,1.903,4.25,4.25,4.25h68
		c2.347,0,4.25-1.903,4.25-4.25C89,81.278,87.097,79.375,84.75,79.375z"/>
</g>
</svg>
