<?xml version="1.0" encoding="iso-8859-1"?>
<!-- Generator: Adobe Illustrator 17.1.0, SVG Export Plug-In . SVG Version: 6.00 Build 0)  -->
<!DOCTYPE svg PUBLIC "-//W3C//DTD SVG 1.1//EN" "http://www.w3.org/Graphics/SVG/1.1/DTD/svg11.dtd">
<svg version="1.1" id="Capa_1" xmlns="http://www.w3.org/2000/svg" xmlns:xlink="http://www.w3.org/1999/xlink" x="0px" y="0px"
	 viewBox="0 0 100 100" style="enable-background:new 0 0 100 100;" xml:space="preserve">
<g>
	<path style="fill:#1D1D1B;" d="M10.833,3.118L5.176,15.563c-0.325,0.751-0.508,1.578-0.508,2.448c0,1.663,0.662,3.169,1.732,4.278
		v70.879c0,1.721,1.396,3.117,3.117,3.117h2.632c1.722,0,3.117-1.396,3.117-3.117V22.289c1.07-1.109,1.732-2.615,1.732-4.278
		c0-0.87-0.182-1.697-0.507-2.447L10.833,3.118z"/>
	<path style="fill:#1D1D1B;" d="M91.883,21.648H21.847c-1.722,0-3.117,1.396-3.117,3.117v37.059c0,1.721,1.396,3.117,3.117,3.117
		h70.036c1.722,0,3.117-1.396,3.117-3.117V24.765C95,23.043,93.604,21.648,91.883,21.648z M40.347,43.294v16.646H23.729V43.294
		H40.347V26.648h16.852v16.647H74.05V26.648H90v16.647H74.05v16.646H57.199V43.294H40.347z"/>
</g>
</svg>
