<?xml version="1.0" encoding="iso-8859-1"?>
<!-- Generator: Adobe Illustrator 17.1.0, SVG Export Plug-In . SVG Version: 6.00 Build 0)  -->
<!DOCTYPE svg PUBLIC "-//W3C//DTD SVG 1.1//EN" "http://www.w3.org/Graphics/SVG/1.1/DTD/svg11.dtd">
<svg version="1.1" id="Capa_1" xmlns="http://www.w3.org/2000/svg" xmlns:xlink="http://www.w3.org/1999/xlink" x="0px" y="0px"
	 viewBox="0 0 100 100" style="enable-background:new 0 0 100 100;" xml:space="preserve">
<g>
	<path style="fill:#1D1D1B;" d="M94.545,52.58H87.77c0.634-11.671-3.648-23.182-12.214-31.749
		C67.654,12.93,57.149,8.578,45.975,8.578S24.296,12.93,16.395,20.831c-16.311,16.311-16.311,42.851,0,59.162
		c8.013,8.012,18.601,12.284,29.489,12.284c4.489,0,9.031-0.727,13.461-2.218c3.141-1.057,4.83-4.459,3.773-7.6
		c-1.057-3.141-4.456-4.834-7.6-3.773c-10.826,3.641-22.566,0.891-30.638-7.179c-11.632-11.633-11.632-30.56,0-42.191
		c5.635-5.635,13.126-8.738,21.095-8.738s15.46,3.104,21.095,8.738c6.261,6.26,9.303,14.728,8.661,23.263h-7.59
		c-2.57,0-3.181,1.473-1.363,3.291l11.74,13.601c1.817,1.817,4.764,1.817,6.582,0L95.908,55.87
		C97.726,54.053,97.115,52.58,94.545,52.58z"/>
</g>
</svg>
