<?xml version="1.0" encoding="iso-8859-1"?>
<!-- Generator: Adobe Illustrator 17.1.0, SVG Export Plug-In . SVG Version: 6.00 Build 0)  -->
<!DOCTYPE svg PUBLIC "-//W3C//DTD SVG 1.1//EN" "http://www.w3.org/Graphics/SVG/1.1/DTD/svg11.dtd">
<svg version="1.1" id="Capa_1" xmlns="http://www.w3.org/2000/svg" xmlns:xlink="http://www.w3.org/1999/xlink" x="0px" y="0px"
	 viewBox="0 0 100 100" style="enable-background:new 0 0 100 100;" xml:space="preserve">
<g>
	<path style="fill:#1D1D1B;" d="M72.043,32.476c-2.181,0.003-4.282,0.332-6.277,0.91c-4.169-6.963-11.769-11.633-20.473-11.62
		c-13.16,0.021-23.811,10.706-23.79,23.866c0,0.305,0.035,0.601,0.047,0.903c-0.21-0.008-0.415-0.031-0.627-0.031
		c-8.666,0.014-15.68,7.05-15.667,15.716c0.014,8.666,7.05,15.68,15.716,15.667l51.143-0.081
		c12.518-0.02,22.649-10.184,22.63-22.701C94.725,42.588,84.561,32.456,72.043,32.476z"/>
</g>
</svg>
