<?xml version="1.0" encoding="iso-8859-1"?>
<!-- Generator: Adobe Illustrator 17.1.0, SVG Export Plug-In . SVG Version: 6.00 Build 0)  -->
<!DOCTYPE svg PUBLIC "-//W3C//DTD SVG 1.1//EN" "http://www.w3.org/Graphics/SVG/1.1/DTD/svg11.dtd">
<svg version="1.1" id="Layer_1" xmlns="http://www.w3.org/2000/svg" xmlns:xlink="http://www.w3.org/1999/xlink" x="0px" y="0px"
	 viewBox="0 0 64 64" style="enable-background:new 0 0 64 64;" xml:space="preserve">
<g>
	<path d="M18,37h-2.272h-0.291h-0.291C15.882,45.176,22.679,51.618,31,51.802v-0.291V51.22V48c0-0.552,0.447-1,1-1s1,0.448,1,1
		v3.152v0.295v0.291C40.733,50.962,46.881,44.755,47.579,37h-0.29h-0.292H45c-0.553,0-1-0.448-1-1s0.447-1,1-1h2.044h0.291h0.291
		C47.362,26.812,41.043,20.128,33,19.321v0.291v0.295V23c0,0.552-0.447,1-1,1s-1-0.448-1-1v-3.161v-0.291v-0.291
		C22.363,19.448,15.377,26.385,15.098,35h0.291h0.291H18c0.553,0,1,0.448,1,1S18.553,37,18,37z M36.928,28.833
		c0.551-0.367,0.775-0.176,0.502,0.427l-3.651,8.049c-0.176,0.424-0.466,0.564-0.839,0.459c-0.552-0.155-1.375-0.482-2.18-1.287
		c-0.708-0.708-1.048-1.481-1.208-1.994c-0.098-0.316,0.088-0.734,0.362-0.919L36.928,28.833z"/>
	<path d="M31.659,60.5c13.919,0,25.242-11.324,25.242-25.242c0-11.997-8.416-22.06-19.653-24.611
		c0.538-0.787,0.844-1.698,0.844-2.677c0-3.067-2.981-5.47-6.788-5.47s-6.789,2.402-6.789,5.47c0,1.039,0.349,1.998,0.949,2.817
		C14.531,13.556,6.417,23.476,6.417,35.258C6.417,49.176,17.74,60.5,31.659,60.5z M31.305,6.5c1.676,0,2.788,0.885,2.788,1.47
		c0,0.585-1.112,1.47-2.788,1.47c-1.677,0-2.789-0.885-2.789-1.47C28.516,7.385,29.628,6.5,31.305,6.5z M31.659,14.016
		c11.713,0,21.242,9.529,21.242,21.242S43.372,56.5,31.659,56.5s-21.242-9.529-21.242-21.242S19.946,14.016,31.659,14.016z"/>
</g>
</svg>
