<?xml version="1.0" encoding="iso-8859-1"?>
<!-- Generator: Adobe Illustrator 17.1.0, SVG Export Plug-In . SVG Version: 6.00 Build 0)  -->
<!DOCTYPE svg PUBLIC "-//W3C//DTD SVG 1.1//EN" "http://www.w3.org/Graphics/SVG/1.1/DTD/svg11.dtd">
<svg version="1.1" id="Capa_1" xmlns="http://www.w3.org/2000/svg" xmlns:xlink="http://www.w3.org/1999/xlink" x="0px" y="0px"
	 viewBox="0 0 100 100" style="enable-background:new 0 0 100 100;" xml:space="preserve">
<g>
	<path d="M73.25,21.285c-7.306,0-13.25,5.944-13.25,13.25c0,3.097,1.076,5.942,2.863,8.2c0.423,0.534,0.887,1.032,1.386,1.495
		c-3.873,4.666-10.066,8.472-16.361,10.327C46.925,54.842,45.96,55.082,45,55.27V28.403c4.833-1.978,8.25-6.726,8.25-12.263
		c0-7.306-5.944-13.25-13.25-13.25S26.75,8.834,26.75,16.14c0,5.537,3.417,10.285,8.25,12.263v43.084
		c-4.833,1.978-8.25,6.726-8.25,12.263C26.75,91.056,32.694,97,40,97s13.25-5.944,13.25-13.25c0-5.537-3.417-10.285-8.25-12.263
		v-6.069c11.245-1.61,22.991-8.392,29.06-17.674c6.928-0.422,12.44-6.176,12.44-13.209C86.5,27.229,80.556,21.285,73.25,21.285z
		 M73.25,37.785c-0.11,0-0.213-0.022-0.32-0.032c-0.899-0.09-1.686-0.541-2.219-1.214C70.273,35.985,70,35.295,70,34.535
		c0-1.792,1.458-3.25,3.25-3.25s3.25,1.458,3.25,3.25S75.042,37.785,73.25,37.785z M43.25,16.14c0,1.792-1.458,3.25-3.25,3.25
		s-3.25-1.458-3.25-3.25s1.458-3.25,3.25-3.25S43.25,14.348,43.25,16.14z M36.75,83.75c0-1.792,1.458-3.25,3.25-3.25
		s3.25,1.458,3.25,3.25S41.792,87,40,87S36.75,85.542,36.75,83.75z"/>
</g>
</svg>
