<?xml version="1.0" encoding="iso-8859-1"?>
<!-- Generator: Adobe Illustrator 17.1.0, SVG Export Plug-In . SVG Version: 6.00 Build 0)  -->
<!DOCTYPE svg PUBLIC "-//W3C//DTD SVG 1.1//EN" "http://www.w3.org/Graphics/SVG/1.1/DTD/svg11.dtd">
<svg version="1.1" id="Capa_1" xmlns="http://www.w3.org/2000/svg" xmlns:xlink="http://www.w3.org/1999/xlink" x="0px" y="0px"
	 viewBox="0 0 100 100" style="enable-background:new 0 0 100 100;" xml:space="preserve">
<g>
	<path style="fill:#1D1D1B;" d="M91.75,38.75H55.062c-0.422-5.089,9.912-8.864,12.761-12.337c3.106-3.785,3.657-8.663,2.755-13.313
		c-0.859-4.429-7.606-2.549-6.75,1.861c1.538,7.926-5.785,9.643-10.571,13.688c-3.264,2.758-5.251,6.092-5.151,10.101H8.25
		c-1.657,0-3,1.343-3,3v32.5c0,1.657,1.343,3,3,3h83.5c1.657,0,3-1.343,3-3v-32.5C94.75,40.093,93.407,38.75,91.75,38.75z
		 M34.5,59.25c0,1.105-0.896,2-2,2h-4.75V66c0,1.105-0.896,2-2,2h-2.5c-1.104,0-2-0.895-2-2v-4.75H16.5c-1.104,0-2-0.895-2-2v-2.5
		c0-1.105,0.896-2,2-2h4.75V50c0-1.105,0.896-2,2-2h2.5c1.104,0,2,0.895,2,2v4.75h4.75c1.104,0,2,0.895,2,2V59.25z M68.531,68
		c-2.779,0-5.031-2.253-5.031-5.031s2.253-5.031,5.031-5.031s5.031,2.253,5.031,5.031S71.31,68,68.531,68z M78.188,58.188
		c-2.692,0-4.875-2.183-4.875-4.875s2.183-4.875,4.875-4.875s4.875,2.183,4.875,4.875S80.88,58.188,78.188,58.188z"/>
</g>
</svg>
