<?xml version="1.0" encoding="iso-8859-1"?>
<!-- Generator: Adobe Illustrator 17.1.0, SVG Export Plug-In . SVG Version: 6.00 Build 0)  -->
<!DOCTYPE svg PUBLIC "-//W3C//DTD SVG 1.1//EN" "http://www.w3.org/Graphics/SVG/1.1/DTD/svg11.dtd">
<svg version="1.1" id="Capa_1" xmlns="http://www.w3.org/2000/svg" xmlns:xlink="http://www.w3.org/1999/xlink" x="0px" y="0px"
	 viewBox="0 0 100 100" style="enable-background:new 0 0 100 100;" xml:space="preserve">
<g>
	<path d="M93.728,67.395H81.485v-0.009H67.491v0.009H36.968c-1.105,0-2.551-0.551-3.23-1.23c-0.679-0.679-1.23-2.125-1.23-3.23
		V34.167H32.5V16.833h0.009V6.175c0-0.508-0.164-0.929-0.492-1.258c-0.328-0.327-0.747-0.491-1.258-0.491H20.265
		c-0.511,0-0.929,0.164-1.258,0.491c-0.328,0.329-0.492,0.749-0.492,1.258v12.243H6.272c-0.511,0-0.929,0.164-1.257,0.493
		c-0.328,0.327-0.492,0.747-0.492,1.258v10.494c0,0.51,0.164,0.929,0.492,1.258c0.328,0.327,0.746,0.491,1.257,0.491h12.244v47.226
		c0,0.512,0.164,0.931,0.492,1.258c0.328,0.329,0.747,0.493,1.258,0.493h47.226v12.243c0,0.508,0.164,0.929,0.492,1.258
		c0.328,0.327,0.746,0.491,1.257,0.491h10.495c0.51,0,0.929-0.164,1.257-0.491c0.328-0.329,0.492-0.749,0.492-1.258V81.389h12.244
		c0.51,0,0.929-0.164,1.257-0.493c0.328-0.327,0.492-0.745,0.492-1.258V69.143c0-0.508-0.164-0.929-0.492-1.258
		C94.658,67.559,94.238,67.395,93.728,67.395z"/>
	<path d="M66.261,33.642c0.679,0.679,1.23,2.125,1.23,3.23v27.514h13.993V22.878c0-1.105-0.551-2.551-1.23-3.23
		c-0.679-0.679-2.125-1.23-3.23-1.23H35.5v13.994h27.532C64.136,32.412,65.582,32.963,66.261,33.642z"/>
</g>
</svg>
