<?xml version="1.0" encoding="iso-8859-1"?>
<!-- Generator: Adobe Illustrator 17.1.0, SVG Export Plug-In . SVG Version: 6.00 Build 0)  -->
<!DOCTYPE svg PUBLIC "-//W3C//DTD SVG 1.1//EN" "http://www.w3.org/Graphics/SVG/1.1/DTD/svg11.dtd">
<svg version="1.1" id="Capa_1" xmlns="http://www.w3.org/2000/svg" xmlns:xlink="http://www.w3.org/1999/xlink" x="0px" y="0px"
	 viewBox="0 0 100 100" style="enable-background:new 0 0 100 100;" xml:space="preserve">
<g>
	<path d="M22.303,90.792h55.393c0.541,0,0.985-0.174,1.333-0.523c0.348-0.346,0.521-0.79,0.521-1.331V67.671
		c0-0.5-0.174-0.935-0.521-1.304c-0.348-0.364-0.792-0.55-1.333-0.55H68.31c-0.541,0-0.985,0.186-1.333,0.55
		c-0.348,0.369-0.521,0.804-0.521,1.304V78.16H42.468V56.2H60.14c0.502,0,0.936-0.183,1.304-0.552
		c0.367-0.364,0.551-0.799,0.551-1.304v-7.589c0-0.541-0.184-0.985-0.551-1.333c-0.367-0.349-0.802-0.521-1.304-0.521H42.468V32.444
		c0-2.936,1.004-5.312,3.013-7.127c2.008-1.815,4.654-2.723,7.938-2.723c1.738,0,3.534,0.346,5.389,1.041
		c1.854,0.697,3.187,1.315,3.998,1.856c0.811,0.541,1.313,0.908,1.507,1.1c0.385,0.349,0.83,0.484,1.333,0.405
		c0.502-0.038,0.927-0.269,1.275-0.695l5.968-7.358c0.309-0.387,0.444-0.822,0.406-1.304c-0.039-0.482-0.232-0.878-0.58-1.188
		c-5.794-4.828-12.265-7.243-19.411-7.243c-7.379,0-13.453,2.143-18.223,6.433c-4.771,4.287-7.156,9.733-7.156,16.339v12.922h-5.505
		c-0.542,0-0.985,0.172-1.333,0.521c-0.348,0.349-0.521,0.792-0.521,1.333v7.589c0,0.505,0.174,0.939,0.521,1.304
		c0.348,0.369,0.791,0.552,1.333,0.552h5.505v22.19h-5.621c-0.502,0-0.937,0.186-1.304,0.552c-0.367,0.367-0.551,0.801-0.551,1.304
		v8.691c0,0.541,0.174,0.985,0.522,1.331C21.318,90.618,21.762,90.792,22.303,90.792z"/>
</g>
</svg>
