<?xml version="1.0" encoding="iso-8859-1"?>
<!-- Generator: Adobe Illustrator 17.1.0, SVG Export Plug-In . SVG Version: 6.00 Build 0)  -->
<!DOCTYPE svg PUBLIC "-//W3C//DTD SVG 1.1//EN" "http://www.w3.org/Graphics/SVG/1.1/DTD/svg11.dtd">
<svg version="1.1" id="Capa_1" xmlns="http://www.w3.org/2000/svg" xmlns:xlink="http://www.w3.org/1999/xlink" x="0px" y="0px"
	 viewBox="0 0 100 100" style="enable-background:new 0 0 100 100;" xml:space="preserve">
<g>
	<path d="M91.741,25.179c-0.225-0.272-0.475-0.523-0.747-0.747c-0.272-0.225-0.567-0.424-0.879-0.594
		c-0.312-0.17-0.643-0.31-0.989-0.417c-0.518-0.161-1.068-0.248-1.639-0.248h-5.473v-7.482c0-4.97-4.044-9.014-9.014-9.014
		s-9.014,4.044-9.014,9.014v7.482h-4.972v-7.482c0-4.97-4.044-9.014-9.014-9.014s-9.014,4.044-9.014,9.014v7.482h-4.972v-7.482
		c0-4.97-4.044-9.014-9.014-9.014s-9.014,4.044-9.014,9.014v7.482h-5.473c-0.571,0-1.121,0.087-1.639,0.248
		c-0.345,0.107-0.676,0.248-0.989,0.417c-0.625,0.339-1.177,0.796-1.626,1.341c-0.225,0.272-0.424,0.566-0.594,0.879
		C7.241,26.839,7,27.734,7,28.686v8.253V84.81c0,3.045,2.468,5.513,5.513,5.513h74.974c3.045,0,5.513-2.468,5.513-5.513V36.938
		v-8.253c0-0.951-0.241-1.847-0.665-2.628C92.165,25.746,91.966,25.451,91.741,25.179z M23.986,23.173v-7.482
		c0-1.662,1.352-3.014,3.014-3.014s3.014,1.352,3.014,3.014v7.482v3v3v0.163c0,1.662-1.352,3.015-3.014,3.015
		s-3.014-1.353-3.014-3.015v-0.163v-3V23.173z M46.986,23.173v-7.482c0-1.662,1.352-3.014,3.014-3.014s3.014,1.352,3.014,3.014
		v7.482v3v3v0.163c0,1.662-1.352,3.015-3.014,3.015s-3.014-1.353-3.014-3.015v-0.163v-3V23.173z M69.986,23.173v-7.482
		c0-1.662,1.352-3.014,3.014-3.014s3.014,1.352,3.014,3.014v7.482v3v3v0.163c0,1.662-1.352,3.015-3.014,3.015
		s-3.014-1.353-3.014-3.015v-0.163v-3V23.173z M13,42.451h74v41.872H13V42.451z"/>
</g>
</svg>
