<?xml version="1.0" encoding="iso-8859-1"?>
<!-- Generator: Adobe Illustrator 17.1.0, SVG Export Plug-In . SVG Version: 6.00 Build 0)  -->
<!DOCTYPE svg PUBLIC "-//W3C//DTD SVG 1.1//EN" "http://www.w3.org/Graphics/SVG/1.1/DTD/svg11.dtd">
<svg version="1.1" id="Layer_1" xmlns="http://www.w3.org/2000/svg" xmlns:xlink="http://www.w3.org/1999/xlink" x="0px" y="0px"
	 viewBox="0 0 64 64" style="enable-background:new 0 0 64 64;" xml:space="preserve">
<g>
	<path d="M32.944,60.31c11.824,0,21.444-9.62,21.444-21.444c0-10.43-7.488-19.134-17.368-21.045l0.398-0.138
		c0.284-0.098,0.634-0.391,0.781-0.653l4.039-7.188c0.147-0.262,0.039-0.561-0.242-0.667l-9.269-3.506
		c-0.159-0.06-0.297-0.114-0.385-0.149l-0.049-0.018c-0.027-0.01-0.07-0.01-0.096,0S32.15,5.518,32.15,5.518
		c-0.087,0.035-0.226,0.089-0.386,0.15l-9.269,3.506c-0.281,0.106-0.39,0.405-0.243,0.667l4.039,7.201
		c0.147,0.262,0.497,0.554,0.781,0.652l0.933,0.322C18.558,20.256,11.5,28.743,11.5,38.865C11.5,50.689,21.12,60.31,32.944,60.31z
		 M32.944,22.42c9.067,0,16.444,7.377,16.444,16.445c0,9.067-7.377,16.444-16.444,16.444S16.5,47.933,16.5,38.865
		C16.5,29.797,23.877,22.42,32.944,22.42z"/>
</g>
</svg>
