<?xml version="1.0" encoding="iso-8859-1"?>
<!-- Generator: Adobe Illustrator 17.1.0, SVG Export Plug-In . SVG Version: 6.00 Build 0)  -->
<!DOCTYPE svg PUBLIC "-//W3C//DTD SVG 1.1//EN" "http://www.w3.org/Graphics/SVG/1.1/DTD/svg11.dtd">
<svg version="1.1" id="Layer_1" xmlns="http://www.w3.org/2000/svg" xmlns:xlink="http://www.w3.org/1999/xlink" x="0px" y="0px"
	 viewBox="0 0 64 64" style="enable-background:new 0 0 64 64;" xml:space="preserve">
<g>
	<path d="M50.707,9H12.293C10.474,9,9,10.474,9,12.293v38.415C9,52.526,10.474,54,12.293,54h38.415C52.526,54,54,52.526,54,50.707
		V12.293C54,10.474,52.526,9,50.707,9z M16.25,20.5c-1.795,0-3.25-1.455-3.25-3.25S14.455,14,16.25,14s3.25,1.455,3.25,3.25
		S18.045,20.5,16.25,20.5z M31.25,34.5c-1.795,0-3.25-1.455-3.25-3.25S29.455,28,31.25,28s3.25,1.455,3.25,3.25
		S33.045,34.5,31.25,34.5z M47.25,50.5c-1.795,0-3.25-1.455-3.25-3.25S45.455,44,47.25,44s3.25,1.455,3.25,3.25
		S49.045,50.5,47.25,50.5z"/>
</g>
</svg>
