<?xml version="1.0" encoding="iso-8859-1"?>
<!-- Generator: Adobe Illustrator 17.1.0, SVG Export Plug-In . SVG Version: 6.00 Build 0)  -->
<!DOCTYPE svg PUBLIC "-//W3C//DTD SVG 1.1//EN" "http://www.w3.org/Graphics/SVG/1.1/DTD/svg11.dtd">
<svg version="1.1" id="Capa_1" xmlns="http://www.w3.org/2000/svg" xmlns:xlink="http://www.w3.org/1999/xlink" x="0px" y="0px"
	 viewBox="0 0 100 100" style="enable-background:new 0 0 100 100;" xml:space="preserve">
<g>
	<path d="M50,4.534c-24.981,0-45.233,20.252-45.233,45.233C4.767,74.748,25.019,95,50,95s45.233-20.252,45.233-45.233
		C95.233,24.786,74.981,4.534,50,4.534z M64.744,67.617c-1.597,4.929-4.528,8.978-8.713,12.033
		c-4.186,3.057-8.919,4.606-14.07,4.606c-4.294,0-8.322-1.083-11.974-3.218c-3.649-2.134-6.581-5.065-8.713-8.712
		c-2.135-3.649-3.218-7.679-3.218-11.976c0-4.984,1.459-9.592,4.337-13.695c2.878-4.103,6.711-7.049,11.393-8.756
		c0.142-0.053,0.302-0.036,0.431,0.042c0.13,0.079,0.217,0.213,0.236,0.363l0.69,5.322c0.028,0.22-0.091,0.432-0.294,0.521
		c-3.198,1.416-5.791,3.616-7.708,6.542c-1.913,2.923-2.884,6.173-2.884,9.66c0,4.852,1.749,9.06,5.197,12.508
		s7.655,5.196,12.506,5.196c3.304,0,6.395-0.864,9.187-2.568c2.795-1.705,4.99-4.039,6.523-6.938c1.533-2.896,2.19-6.038,1.954-9.34
		c-0.017-0.238,0.137-0.455,0.367-0.519c0.229-0.062,0.473,0.045,0.579,0.259l4.145,8.289
		C64.774,67.356,64.784,67.492,64.744,67.617z M82.836,63.011l2.357,4.632c0.061,0.118,0.071,0.257,0.029,0.383
		c-0.041,0.127-0.132,0.231-0.251,0.291l-10.402,5.201c-0.409,0.221-0.886,0.337-1.402,0.337c-1.269,0-2.225-0.589-2.766-1.704
		l-9.57-19.1h-18.87c-0.773,0-1.466-0.268-2.06-0.797c-0.592-0.528-0.94-1.187-1.036-1.958l-3.901-31.652
		c-0.064-0.51,0.021-1.137,0.263-1.916c0.403-1.471,1.245-2.69,2.497-3.608c1.248-0.913,2.674-1.376,4.237-1.376
		c1.915,0,3.579,0.691,4.945,2.056c1.364,1.365,2.057,3.029,2.057,4.945c0,2.006-0.765,3.734-2.272,5.141
		c-1.351,1.259-2.91,1.89-4.645,1.854l1.372,10.709h16.747c0.276,0,0.5,0.224,0.5,0.5v5.201c0,0.276-0.224,0.5-0.5,0.5H44.193
		l0.525,4.2h18.047c1.267,0,2.223,0.589,2.765,1.703l9.039,18.036l7.598-3.799C82.415,62.668,82.713,62.766,82.836,63.011z"/>
</g>
</svg>
