<?xml version="1.0" encoding="iso-8859-1"?>
<!-- Generator: Adobe Illustrator 17.1.0, SVG Export Plug-In . SVG Version: 6.00 Build 0)  -->
<!DOCTYPE svg PUBLIC "-//W3C//DTD SVG 1.1//EN" "http://www.w3.org/Graphics/SVG/1.1/DTD/svg11.dtd">
<svg version="1.1" id="Capa_1" xmlns="http://www.w3.org/2000/svg" xmlns:xlink="http://www.w3.org/1999/xlink" x="0px" y="0px"
	 viewBox="0 0 100 100" style="enable-background:new 0 0 100 100;" xml:space="preserve">
<g>
	<path style="fill:#000100;" d="M20.704,13.719h-5.365c-3.704,0-6.707,3.003-6.707,6.707v36.887c0,3.704,3.002,6.707,6.707,6.707
		h5.365c3.704,0,6.707-3.003,6.707-6.707V20.426C27.411,16.722,24.408,13.719,20.704,13.719z"/>
	<path style="fill:#000100;" d="M87.789,23.077c-0.227-1.464-1.197-3.559-2.167-4.678l-2.298-2.652
		c-0.971-1.12-2.958-2.027-4.44-2.027H34.989c-1.481,0-2.683,1.201-2.683,2.683v44.935c0,1.482,0.982,3.372,2.151,4.284
		c3.002,2.343,8.509,7.044,12.309,12.661c0.83,1.227,1.974,3.358,2.958,4.467c3.771,4.25,9.35,4.223,12.603,3.749
		c1.466-0.214,2.215-1.7,1.717-3.095l-6.02-16.856c-0.499-1.395,0.299-2.526,1.78-2.526h24.893c1.482,0,3.757-0.537,5.082-1.2
		l1.461-0.73c1.325-0.663,2.216-2.387,1.989-3.851L87.789,23.077z"/>
</g>
</svg>
