<?xml version="1.0" encoding="iso-8859-1"?>
<!-- Generator: Adobe Illustrator 17.1.0, SVG Export Plug-In . SVG Version: 6.00 Build 0)  -->
<!DOCTYPE svg PUBLIC "-//W3C//DTD SVG 1.1//EN" "http://www.w3.org/Graphics/SVG/1.1/DTD/svg11.dtd">
<svg version="1.1" id="Capa_1" xmlns="http://www.w3.org/2000/svg" xmlns:xlink="http://www.w3.org/1999/xlink" x="0px" y="0px"
	 viewBox="0 0 100 100" style="enable-background:new 0 0 100 100;" xml:space="preserve">
<g>
	<path style="fill:#1D1D1B;" d="M54.26,40.869c-4.869-1.347-11.093-2.384-14.214-6.822c-1.082-1.539-1.623-3.204-1.623-4.996
		c0-1.961,0.592-3.754,1.775-5.377c1.136-1.558,2.877-2.658,4.827-3.262c4.375-1.353,8.981-0.302,11.438,3.709
		c0.266,0.434,2.364,4.317,1.944,4.372c0.007-0.001,12.833-1.674,12.833-1.674c-0.879-5.072-2.908-9.122-6.087-12.148
		s-7.456-4.861-12.833-5.504V4.145h-7.355v5.022c-5.816,0.575-10.475,2.748-13.975,6.518s-5.25,8.429-5.25,13.975
		c0,5.478,1.547,10.136,4.641,13.974c3.657,4.529,9.082,6.884,14.56,8.673c1.603,0.523,3.209,0.998,4.777,1.465
		c3.297,0.981,6.866,1.59,9.171,4.42c1.335,1.64,2.003,3.593,2.003,5.858c0,2.536-0.794,4.743-2.384,6.62
		c-4.753,5.613-14.323,4.079-18.515-1.445c-1.488-1.961-2.502-4.295-3.043-7l-13.239,1.42c1.014,6.662,3.348,11.819,7,15.471
		c3.652,3.652,8.403,5.833,14.253,6.543v9.232h7.355v-9.485c6.594-0.947,11.743-3.517,15.445-7.71
		c3.703-4.193,5.555-9.35,5.555-15.471c0-5.478-1.471-9.967-4.413-13.467C65.298,44.463,59.505,42.32,54.26,40.869z"/>
</g>
</svg>
