<?xml version="1.0" encoding="iso-8859-1"?>
<!-- Generator: Adobe Illustrator 17.1.0, SVG Export Plug-In . SVG Version: 6.00 Build 0)  -->
<!DOCTYPE svg PUBLIC "-//W3C//DTD SVG 1.1//EN" "http://www.w3.org/Graphics/SVG/1.1/DTD/svg11.dtd">
<svg version="1.1" id="Capa_1" xmlns="http://www.w3.org/2000/svg" xmlns:xlink="http://www.w3.org/1999/xlink" x="0px" y="0px"
	 viewBox="0 0 100 100" style="enable-background:new 0 0 100 100;" xml:space="preserve">
<g>
	<path style="fill:#1D1D1B;" d="M94.439,33.694H4.91c-0.818,0-1.526,0.298-2.123,0.896c-0.598,0.598-0.896,1.305-0.896,2.123v45.341
		c0,0.818,0.299,1.526,0.896,2.123c0.597,0.598,1.305,0.896,2.123,0.896h89.53c0.817,0,1.525-0.298,2.123-0.896
		c0.597-0.597,0.896-1.305,0.896-2.123V36.712c0-0.817-0.299-1.525-0.896-2.123C95.965,33.993,95.257,33.694,94.439,33.694z
		 M91.421,66.959c-3.334,0-6.179,1.179-8.538,3.538c-2.358,2.359-3.538,5.204-3.538,8.538H20.004c0-3.333-1.179-6.179-3.538-8.538
		c-2.358-2.359-5.205-3.538-8.538-3.538V51.807c3.333,0,6.179-1.179,8.538-3.538c2.359-2.359,3.538-5.203,3.538-8.538h59.341
		c0,3.334,1.179,6.179,3.538,8.538c2.358,2.359,5.204,3.538,8.538,3.538V66.959z"/>
	<path style="fill:#1D1D1B;" d="M51.968,55.411v-6.415c0.704,0.524,1.151,1.306,1.358,2.369c0.052,0.26,0.307,0.43,0.556,0.4
		l4.952-0.646c0.136-0.018,0.258-0.089,0.338-0.199c0.081-0.109,0.113-0.248,0.09-0.382c-0.355-2.056-1.195-3.727-2.496-4.965
		c-1.212-1.154-2.824-1.892-4.798-2.197v-1.502c0-0.276-0.224-0.5-0.5-0.5H48.63c-0.276,0-0.5,0.224-0.5,0.5v1.494
		c-2.154,0.298-3.921,1.178-5.259,2.619c-1.434,1.544-2.16,3.473-2.16,5.733c0,2.222,0.64,4.142,1.901,5.707
		c1.197,1.484,3.052,2.62,5.518,3.377v6.932c-0.36-0.279-0.701-0.63-1.02-1.05c-0.525-0.692-0.89-1.533-1.083-2.497
		c-0.05-0.253-0.271-0.422-0.544-0.399l-5.109,0.548c-0.136,0.015-0.259,0.084-0.343,0.192c-0.083,0.108-0.118,0.246-0.098,0.38
		c0.406,2.667,1.362,4.769,2.842,6.249c1.392,1.391,3.191,2.267,5.354,2.606v3.127c0,0.276,0.224,0.5,0.5,0.5h2.838
		c0.276,0,0.5-0.224,0.5-0.5v-3.233c2.453-0.43,4.415-1.462,5.836-3.071c1.505-1.705,2.269-3.825,2.269-6.301
		c0-2.226-0.612-4.083-1.82-5.519C57.084,57.378,55.026,56.279,51.968,55.411z M54.276,64.991c0,0.864-0.262,1.594-0.802,2.231
		c-0.412,0.487-0.909,0.83-1.507,1.037v-6.294c0.742,0.285,1.295,0.647,1.647,1.081C54.061,63.592,54.276,64.229,54.276,64.991z
		 M46.604,51.485c0-0.654,0.192-1.237,0.59-1.781c0.257-0.353,0.566-0.635,0.936-0.853v5.179c-0.418-0.261-0.749-0.563-0.989-0.906
		C46.779,52.613,46.604,52.076,46.604,51.485z"/>
</g>
</svg>
