<?xml version="1.0" encoding="iso-8859-1"?>
<!-- Generator: Adobe Illustrator 17.1.0, SVG Export Plug-In . SVG Version: 6.00 Build 0)  -->
<!DOCTYPE svg PUBLIC "-//W3C//DTD SVG 1.1//EN" "http://www.w3.org/Graphics/SVG/1.1/DTD/svg11.dtd">
<svg version="1.1" id="Capa_1" xmlns="http://www.w3.org/2000/svg" xmlns:xlink="http://www.w3.org/1999/xlink" x="0px" y="0px"
	 viewBox="0 0 100 100" style="enable-background:new 0 0 100 100;" xml:space="preserve">
<g>
	<path style="fill:#1D1D1B;" d="M86.194,72.582H59.651l-3.585,3.585c-1.511,1.511-3.52,2.343-5.657,2.343
		c-2.137,0-4.146-0.832-5.657-2.343l-3.585-3.585H14.625c-1.274,0-2.306,1.032-2.306,2.306v9.225c0,1.274,1.032,2.306,2.306,2.306
		h71.568c1.274,0,2.306-1.033,2.306-2.306v-9.225C88.5,73.614,87.468,72.582,86.194,72.582z"/>
	<path style="fill:#1D1D1B;" d="M45.411,72.582l1.463,1.463c0.976,0.976,2.256,1.464,3.536,1.464c1.28,0,2.559-0.488,3.535-1.464
		l1.463-1.463l23.393-23.393c1.953-1.953,1.297-3.536-1.464-3.536h-9.489V10.491c0-1.105-0.896-2-2-2H34.97c-1.104,0-2,0.895-2,2
		v35.162h-9.489c-2.761,0-3.417,1.583-1.464,3.536L45.411,72.582z"/>
</g>
</svg>
