<?xml version="1.0" encoding="iso-8859-1"?>
<!-- Generator: Adobe Illustrator 17.1.0, SVG Export Plug-In . SVG Version: 6.00 Build 0)  -->
<!DOCTYPE svg PUBLIC "-//W3C//DTD SVG 1.1//EN" "http://www.w3.org/Graphics/SVG/1.1/DTD/svg11.dtd">
<svg version="1.1" id="Capa_1" xmlns="http://www.w3.org/2000/svg" xmlns:xlink="http://www.w3.org/1999/xlink" x="0px" y="0px"
	 viewBox="0 0 100 100" style="enable-background:new 0 0 100 100;" xml:space="preserve">
<g>
	<path style="fill:#1D1D1B;" d="M50,3.046c-25.392,0-45.976,20.584-45.976,45.976c0,25.392,20.584,45.976,45.976,45.976
		s45.976-20.584,45.976-45.976C95.976,23.63,75.392,3.046,50,3.046z M78.392,56.21L53.536,81.067c-1.953,1.953-5.118,1.953-7.071,0
		L21.608,56.21c-1.953-1.953-1.297-3.536,1.464-3.536h9.489V17.513c0-1.105,0.896-2,2-2h30.878c1.104,0,2,0.895,2,2v35.162h9.489
		C79.689,52.675,80.345,54.258,78.392,56.21z"/>
</g>
</svg>
