<?xml version="1.0" encoding="iso-8859-1"?>
<!-- Generator: Adobe Illustrator 17.1.0, SVG Export Plug-In . SVG Version: 6.00 Build 0)  -->
<!DOCTYPE svg PUBLIC "-//W3C//DTD SVG 1.1//EN" "http://www.w3.org/Graphics/SVG/1.1/DTD/svg11.dtd">
<svg version="1.1" id="Capa_1" xmlns="http://www.w3.org/2000/svg" xmlns:xlink="http://www.w3.org/1999/xlink" x="0px" y="0px"
	 viewBox="0 0 100 100" style="enable-background:new 0 0 100 100;" xml:space="preserve">
<g>
	<path style="fill:#1D1D1B;" d="M72.25,59.747V80h-58V22h58v6.634l0.045-0.045l0.084-0.084l2.121-2.121l2.749-2.749l4.671-4.671
		C80.848,14.96,77.199,12,72.863,12H13.637c-5.176,0-9.387,4.211-9.387,9.387v59.226C4.25,85.789,8.461,90,13.637,90h59.226
		c5.176,0,9.387-4.211,9.387-9.387V49.747l-5,5L72.25,59.747z"/>
	<polygon style="fill:#1D1D1B;" points="77.25,33.544 74.417,30.71 72.25,32.877 42.432,62.695 40.736,75.705 53.746,74.009 
		72.25,55.504 77.25,50.504 82.25,45.504 85.73,42.024 82.25,38.544 	"/>
	<path style="fill:#1D1D1B;" d="M87.228,20.728c-0.38-0.381-0.882-0.57-1.391-0.57c-0.535,0-1.078,0.21-1.494,0.626l-2.093,2.093
		l-5,5l-0.628,0.628l0.628,0.628l5,5l5.686,5.686l7.72-7.72c0.812-0.812,0.837-2.104,0.056-2.885L87.228,20.728z"/>
</g>
</svg>
