<?xml version="1.0" encoding="iso-8859-1"?>
<!-- Generator: Adobe Illustrator 17.1.0, SVG Export Plug-In . SVG Version: 6.00 Build 0)  -->
<!DOCTYPE svg PUBLIC "-//W3C//DTD SVG 1.1//EN" "http://www.w3.org/Graphics/SVG/1.1/DTD/svg11.dtd">
<svg version="1.1" id="Capa_1" xmlns="http://www.w3.org/2000/svg" xmlns:xlink="http://www.w3.org/1999/xlink" x="0px" y="0px"
	 viewBox="0 0 100 100" style="enable-background:new 0 0 100 100;" xml:space="preserve">
<g>
	<path style="fill:#000100;" d="M53.381,6.631c-1.867-1.867-4.895-1.867-6.763,0L6.631,46.619c-1.867,1.867-1.867,4.895,0,6.763
		l39.987,39.987c1.867,1.867,4.895,1.867,6.763,0l39.987-39.987c1.867-1.867,1.867-4.895,0-6.763L53.381,6.631z M55.29,76.637
		c0,0.476-0.386,0.863-0.863,0.863H45.61c-0.476,0-0.863-0.386-0.863-0.863V67.82c0-0.476,0.386-0.863,0.863-0.863h8.817
		c0.476,0,0.863,0.386,0.863,0.863V76.637z M55.703,35.406L53.084,62.46c-0.046,0.474-0.469,0.859-0.946,0.859h-4.24
		c-0.477,0-0.9-0.384-0.947-0.859l-2.654-27.054V23.363c0-0.476,0.386-0.863,0.863-0.863h9.68c0.476,0,0.863,0.386,0.863,0.863
		V35.406z"/>
</g>
</svg>
