<?xml version="1.0" encoding="iso-8859-1"?>
<!-- Generator: Adobe Illustrator 17.1.0, SVG Export Plug-In . SVG Version: 6.00 Build 0)  -->
<!DOCTYPE svg PUBLIC "-//W3C//DTD SVG 1.1//EN" "http://www.w3.org/Graphics/SVG/1.1/DTD/svg11.dtd">
<svg version="1.1" id="Capa_1" xmlns="http://www.w3.org/2000/svg" xmlns:xlink="http://www.w3.org/1999/xlink" x="0px" y="0px"
	 viewBox="0 0 100 100" style="enable-background:new 0 0 100 100;" xml:space="preserve">
<g>
	<path style="fill:#000100;" d="M43.755,5.329h-9.306c-7.12,0-12.234,1.69-15.342,5.069c-3.109,3.38-4.662,8.358-4.662,14.936v6.27
		c0,1.657-1.343,3-3,3H8.229c-1.657,0-3,1.343-3,3V47c0,1.657,1.343,3,3,3h3.216c1.657,0,3,1.343,3,3v38.671c0,1.657,1.343,3,3,3
		h12.486c1.657,0,3-1.343,3-3V53c0-1.657,1.343-3,3-3h6.306c1.657,0,3.141-1.336,3.315-2.983l0.996-9.43
		c0.174-1.648-1.028-2.983-2.685-2.983h-7.933c-1.657,0-3-1.343-3-3v-4.698c0-1.156,0.054-2.051,0.163-2.684
		c0.108-0.632,0.352-1.255,0.732-1.87c0.379-0.614,0.994-1.039,1.843-1.274c0.849-0.235,1.979-0.353,3.388-0.353h4.698
		c1.657,0,3-1.343,3-3V8.329C46.755,6.672,45.412,5.329,43.755,5.329z"/>
</g>
</svg>
