<?xml version="1.0" encoding="iso-8859-1"?>
<!-- Generator: Adobe Illustrator 17.1.0, SVG Export Plug-In . SVG Version: 6.00 Build 0)  -->
<!DOCTYPE svg PUBLIC "-//W3C//DTD SVG 1.1//EN" "http://www.w3.org/Graphics/SVG/1.1/DTD/svg11.dtd">
<svg version="1.1" id="Capa_1" xmlns="http://www.w3.org/2000/svg" xmlns:xlink="http://www.w3.org/1999/xlink" x="0px" y="0px"
	 viewBox="0 0 100 100" style="enable-background:new 0 0 100 100;" xml:space="preserve">
<g>
	<path d="M68.086,32.016c-2.392-3.504-5.276-5.258-8.65-5.258H40.564c-3.375,0-6.259,1.755-8.65,5.258L19.332,50.89
		c-0.525,0.785-0.787,1.655-0.787,2.603c0,1.313,0.458,2.427,1.376,3.342c0.917,0.92,2.031,1.377,3.342,1.377
		c1.671,0,2.981-0.703,3.932-2.114l11.156-16.758l2.212-0.048L28.424,71.026c-0.295,0.491-0.442,1.033-0.442,1.622
		c0,0.852,0.311,1.59,0.934,2.212c0.622,0.624,1.359,0.935,2.212,0.935h9.436v13.368c0,1.507,0.541,2.801,1.622,3.882
		c1.081,1.081,2.375,1.622,3.883,1.622h7.864c1.507,0,2.801-0.541,3.883-1.622s1.622-2.375,1.622-3.882V75.795h9.437
		c0.852,0,1.589-0.311,2.212-0.935c0.622-0.622,0.934-1.359,0.934-2.212c0-0.589-0.147-1.131-0.442-1.622l-12.14-31.734l2.212,0.048
		l11.157,16.758c0.95,1.411,2.261,2.114,3.932,2.114c1.31,0,2.424-0.457,3.342-1.377c0.917-0.916,1.376-2.029,1.376-3.342
		c0-0.948-0.263-1.818-0.786-2.603L68.086,32.016z"/>
	<path d="M42.21,6.387c-2.146,2.146-3.219,4.742-3.219,7.789c0,3.049,1.073,5.644,3.219,7.791c2.146,2.146,4.743,3.22,7.79,3.22
		s5.644-1.073,7.79-3.22c2.146-2.146,3.219-4.742,3.219-7.791c0-3.047-1.073-5.642-3.219-7.789c-2.146-2.146-4.743-3.22-7.79-3.22
		S44.356,4.24,42.21,6.387z"/>
</g>
</svg>
