<?xml version="1.0" encoding="iso-8859-1"?>
<!-- Generator: Adobe Illustrator 17.1.0, SVG Export Plug-In . SVG Version: 6.00 Build 0)  -->
<!DOCTYPE svg PUBLIC "-//W3C//DTD SVG 1.1//EN" "http://www.w3.org/Graphics/SVG/1.1/DTD/svg11.dtd">
<svg version="1.1" id="Capa_1" xmlns="http://www.w3.org/2000/svg" xmlns:xlink="http://www.w3.org/1999/xlink" x="0px" y="0px"
	 viewBox="0 0 100 100" style="enable-background:new 0 0 100 100;" xml:space="preserve">
<g>
	<path d="M24.465,97.875h34.727c0.011,0,0.022-0.002,0.033-0.002c0.013,0,0.026,0.002,0.039,0.002c2.603,0,5.16-1.016,7.073-2.929
		l5.094-5.094L81.842,79.59c1.803-1.778,2.849-4.171,2.958-6.69c0.002-0.048,0.006-0.096,0.007-0.145
		c0.003-0.096,0.014-0.191,0.014-0.287V14.346c0-5.523-4.477-10-10-10H24.465c-5.523,0-10,4.477-10,10v73.53
		C14.465,93.398,18.942,97.875,24.465,97.875z M64.39,82.751l-5.124,5.124v-0.073V72.32h15.556L64.39,82.751z M24.465,14.346h50.357
		V62.32H59.266c-5.523,0-10,4.477-10,10v15.556H24.465V14.346z"/>
	<path d="M39.021,35.5h21.245c2.762,0,5-2.239,5-5s-2.238-5-5-5H39.021c-2.762,0-5,2.239-5,5S36.259,35.5,39.021,35.5z"/>
	<path d="M65.266,44.5c0-2.761-2.238-5-5-5H39.021c-2.762,0-5,2.239-5,5s2.238,5,5,5h21.245C63.027,49.5,65.266,47.261,65.266,44.5z
		"/>
</g>
</svg>
