<?xml version="1.0" encoding="iso-8859-1"?>
<!-- Generator: Adobe Illustrator 17.1.0, SVG Export Plug-In . SVG Version: 6.00 Build 0)  -->
<!DOCTYPE svg PUBLIC "-//W3C//DTD SVG 1.1//EN" "http://www.w3.org/Graphics/SVG/1.1/DTD/svg11.dtd">
<svg version="1.1" id="Capa_1" xmlns="http://www.w3.org/2000/svg" xmlns:xlink="http://www.w3.org/1999/xlink" x="0px" y="0px"
	 viewBox="0 0 100 100" style="enable-background:new 0 0 100 100;" xml:space="preserve">
<g>
	<path style="fill:#000100;" d="M50.652,67.422c0-1.657,1.343-3,3-3H79.48V7.158H20.52V93.25h30.132V67.422z M36.262,22.667h27.477
		c1.657,0,3,1.343,3,3s-1.343,3-3,3H36.262c-1.657,0-3-1.343-3-3S34.604,22.667,36.262,22.667z M33.262,38.667c0-1.657,1.343-3,3-3
		h27.477c1.657,0,3,1.343,3,3s-1.343,3-3,3H36.262C34.604,41.667,33.262,40.323,33.262,38.667z"/>
	<polygon style="fill:#000100;" points="53.652,93.164 53.652,93.25 62.188,84.715 79.48,67.422 53.652,67.422 	"/>
</g>
</svg>
