<?xml version="1.0" encoding="iso-8859-1"?>
<!-- Generator: Adobe Illustrator 17.1.0, SVG Export Plug-In . SVG Version: 6.00 Build 0)  -->
<!DOCTYPE svg PUBLIC "-//W3C//DTD SVG 1.1//EN" "http://www.w3.org/Graphics/SVG/1.1/DTD/svg11.dtd">
<svg version="1.1" id="Capa_1" xmlns="http://www.w3.org/2000/svg" xmlns:xlink="http://www.w3.org/1999/xlink" x="0px" y="0px"
	 viewBox="0 0 100 100" style="enable-background:new 0 0 100 100;" xml:space="preserve">
<g>
	<path style="fill:#000100;" d="M37.841,23.628C16.1,40.175,23.679,63.134,23.679,63.134C27.267,78.131,42.333,87.38,57.33,83.791
		c12.577-3.009,21.107-14.092,21.417-26.436c0.749-9.591-5.521-22.848-8.303-28.194c-0.689-1.324-0.858-1.159-1.207,0.292
		c-0.851,3.542-5.293,5.349-8.535-8.98C57.913,8.147,51.569,5.118,47.935,4.421c-1.466-0.281-1.46,0.063-0.209,0.877
		C50.584,7.155,53.111,12.006,37.841,23.628z"/>
	<path style="fill:#000100;" d="M80.833,87.5H20.375c-1.933,0-3.5,1.567-3.5,3.5s1.567,3.5,3.5,3.5h60.458
		c1.933,0,3.5-1.567,3.5-3.5S82.766,87.5,80.833,87.5z"/>
</g>
</svg>
