<?xml version="1.0" encoding="iso-8859-1"?>
<!-- Generator: Adobe Illustrator 17.1.0, SVG Export Plug-In . SVG Version: 6.00 Build 0)  -->
<!DOCTYPE svg PUBLIC "-//W3C//DTD SVG 1.1//EN" "http://www.w3.org/Graphics/SVG/1.1/DTD/svg11.dtd">
<svg version="1.1" id="Capa_1" xmlns="http://www.w3.org/2000/svg" xmlns:xlink="http://www.w3.org/1999/xlink" x="0px" y="0px"
	 viewBox="0 0 100 100" style="enable-background:new 0 0 100 100;" xml:space="preserve">
<g>
	<path style="fill:#000100;" d="M92.815,29.193H78.013c-4.05-11.219-14.79-19.239-27.405-19.239
		c-12.615,0-23.355,8.02-27.405,19.239H8.401c-1.727,0-3.126,1.4-3.126,3.126v55.008c0,1.727,1.4,3.126,3.126,3.126h84.414
		c1.727,0,3.126-1.4,3.126-3.126V32.32C95.941,30.593,94.542,29.193,92.815,29.193z M50.608,19.954
		c6.926,0,12.986,3.712,16.344,9.239H34.264C37.622,23.666,43.682,19.954,50.608,19.954z M72.166,63.152
		c0,1.576-1.277,2.853-2.853,2.853l-7.568,0H56.79v1.546v10.977c0,1.576-1.277,2.853-2.854,2.853h-6.657
		c-1.576,0-2.853-1.277-2.853-2.853V67.551v-1.546h-4.954l-7.568,0c-1.576,0-2.853-1.277-2.853-2.853v-4.476v-2.182
		c0-1.576,1.277-2.853,2.853-2.853l6.324,0h6.199V41.119c0-1.576,1.277-2.853,2.853-2.853h6.657c1.576,0,2.854,1.277,2.854,2.853
		v12.522h6.199l6.324,0c1.576,0,2.853,1.277,2.853,2.853v2.182V63.152z"/>
</g>
</svg>
