<?xml version="1.0" encoding="iso-8859-1"?>
<!-- Generator: Adobe Illustrator 17.1.0, SVG Export Plug-In . SVG Version: 6.00 Build 0)  -->
<!DOCTYPE svg PUBLIC "-//W3C//DTD SVG 1.1//EN" "http://www.w3.org/Graphics/SVG/1.1/DTD/svg11.dtd">
<svg version="1.1" id="Capa_1" xmlns="http://www.w3.org/2000/svg" xmlns:xlink="http://www.w3.org/1999/xlink" x="0px" y="0px"
	 viewBox="0 0 100 100" style="enable-background:new 0 0 100 100;" xml:space="preserve">
<g>
	<path style="fill:#1D1D1B;" d="M16.4,4.333L10.956,16.31c-0.313,0.723-0.489,1.519-0.489,2.356c0,1.6,0.637,3.05,1.667,4.117V91
		c0,1.657,1.343,3,3,3h2.533c1.657,0,3-1.343,3-3V22.784c1.03-1.067,1.667-2.517,1.667-4.117c0-0.837-0.175-1.633-0.488-2.355
		L16.4,4.333z"/>
	<path style="fill:#1D1D1B;" d="M86,22.167H27c-1.657,0-3,1.343-3,3v35.667c0,1.657,1.343,3,3,3h59c1.657,0,3-1.343,3-3V25.167
		C89,23.51,87.657,22.167,86,22.167z"/>
</g>
</svg>
