<?xml version="1.0" encoding="iso-8859-1"?>
<!-- Generator: Adobe Illustrator 17.1.0, SVG Export Plug-In . SVG Version: 6.00 Build 0)  -->
<!DOCTYPE svg PUBLIC "-//W3C//DTD SVG 1.1//EN" "http://www.w3.org/Graphics/SVG/1.1/DTD/svg11.dtd">
<svg version="1.1" id="Capa_1" xmlns="http://www.w3.org/2000/svg" xmlns:xlink="http://www.w3.org/1999/xlink" x="0px" y="0px"
	 viewBox="0 0 100 100" style="enable-background:new 0 0 100 100;" xml:space="preserve">
<g>
	<path style="fill:#1D1D1B;" d="M89.384,80.327l-3.32,0.303l-0.335,0.07c-0.025,0.008-0.26,0.08-0.89,0.08
		c-1.547,0-2.675-0.403-3.453-1.24c-0.626-0.664-1.691-2.334-3.203-6.516L57.846,16.666c-1.349-3.772-4.235-5.766-8.345-5.766
		c-4.171,0-7.131,1.991-8.564,5.771L19.799,74.017c-1.409,3.934-1.937,4.803-2.109,5.039c-0.782,1.177-1.866,1.725-3.411,1.725
		h-0.983c-0.511-0.301-1.132-0.453-1.856-0.453c-3.698,0-5.818,1.996-5.818,5.476c0,3.333,2.162,5.245,5.931,5.245
		c1.09,0,2.718-0.131,4.834-0.39l4.776-0.564c0.996-0.121,2.809-0.183,5.388-0.183c2.873,0,4.329,0.104,5.04,0.191l5.66,0.709
		c1.143,0.159,2.028,0.236,2.708,0.236c5.754,0,6.613-3.286,6.613-5.245c0-3.479-2.245-5.476-6.16-5.476
		c-0.738,0-1.81,0.075-3.29,0.231c-1.297,0.145-2.359,0.222-3.072,0.222c-2.705,0-2.931-1.054-2.931-2.134
		c0-0.581,0.123-1.215,0.357-1.865l3.292-8.736c1.174-3.034,1.744-3.672,1.835-3.759c0.044-0.04,0.474-0.396,2.106-0.396h20.224
		c1.789,0,2.219,0.227,2.21,0.221c0.018,0.014,0.343,0.273,0.813,1.525l4.087,11.126c0.709,1.959,0.812,2.44,0.821,2.447
		c0,0.663,0,1.57-2.25,1.57c-0.444,0-1.297-0.038-2.846-0.223c-1.398-0.155-2.437-0.23-3.176-0.23c-5.656,0-6.5,3.355-6.5,5.355
		c0,3.41,2.203,5.365,6.045,5.365c0.885,0,2.119-0.074,3.781-0.229c6.204-0.603,10.743-0.908,13.489-0.908
		c2.276,0,5.807,0.295,10.499,0.877c1.437,0.175,2.575,0.26,3.477,0.26c3.698,0,5.818-1.996,5.818-5.476
		C95.202,82.239,93.081,80.327,89.384,80.327z M57.799,53.392H40.072l8.96-26.885L57.799,53.392z"/>
</g>
</svg>
