<?xml version="1.0" encoding="iso-8859-1"?>
<!-- Generator: Adobe Illustrator 17.1.0, SVG Export Plug-In . SVG Version: 6.00 Build 0)  -->
<!DOCTYPE svg PUBLIC "-//W3C//DTD SVG 1.1//EN" "http://www.w3.org/Graphics/SVG/1.1/DTD/svg11.dtd">
<svg version="1.1" id="Capa_1" xmlns="http://www.w3.org/2000/svg" xmlns:xlink="http://www.w3.org/1999/xlink" x="0px" y="0px"
	 viewBox="0 0 100 100" style="enable-background:new 0 0 100 100;" xml:space="preserve">
<g>
	<path style="fill:#1D1D1B;" d="M83.5,11.25h-67c-2.347,0-4.25,1.903-4.25,4.25c0,2.347,1.903,4.25,4.25,4.25h67
		c2.347,0,4.25-1.903,4.25-4.25C87.75,13.153,85.847,11.25,83.5,11.25z"/>
	<path style="fill:#1D1D1B;" d="M83.5,33.25h-67c-2.347,0-4.25,1.903-4.25,4.25c0,2.347,1.903,4.25,4.25,4.25h67
		c2.347,0,4.25-1.903,4.25-4.25C87.75,35.153,85.847,33.25,83.5,33.25z"/>
	<path style="fill:#1D1D1B;" d="M83.5,55.25h-67c-2.347,0-4.25,1.903-4.25,4.25c0,2.347,1.903,4.25,4.25,4.25h67
		c2.347,0,4.25-1.903,4.25-4.25C87.75,57.153,85.847,55.25,83.5,55.25z"/>
	<path style="fill:#1D1D1B;" d="M83.5,78.5h-67c-2.347,0-4.25,1.903-4.25,4.25c0,2.347,1.903,4.25,4.25,4.25h67
		c2.347,0,4.25-1.903,4.25-4.25C87.75,80.403,85.847,78.5,83.5,78.5z"/>
</g>
</svg>
