<?xml version="1.0" encoding="iso-8859-1"?>
<!-- Generator: Adobe Illustrator 17.1.0, SVG Export Plug-In . SVG Version: 6.00 Build 0)  -->
<!DOCTYPE svg PUBLIC "-//W3C//DTD SVG 1.1//EN" "http://www.w3.org/Graphics/SVG/1.1/DTD/svg11.dtd">
<svg version="1.1" id="Capa_1" xmlns="http://www.w3.org/2000/svg" xmlns:xlink="http://www.w3.org/1999/xlink" x="0px" y="0px"
	 viewBox="0 0 100 100" style="enable-background:new 0 0 100 100;" xml:space="preserve">
<g>
	<path style="fill:#000100;" d="M83.655,21.835h-4.399C80.6,20.245,81,18.681,81,17.399C81,9.338,75.42,5.25,64.415,5.25
		c-5.684,0-10.706,2.877-13.696,7.248c-2.99-4.371-8.012-7.248-13.696-7.248c-11.005,0-16.585,4.088-16.585,12.149
		c0,1.282,0.4,2.845,1.744,4.435h-7.838c-3.062,0-5.545,2.483-5.545,5.545v10.535c0,3.062,2.482,5.545,5.545,5.545h0.159
		c-0.041,0.272-0.069,0.549-0.069,0.833v44.913c0,3.062,2.482,5.545,5.545,5.545h58.041c3.062,0,5.545-2.483,5.545-5.545V44.293
		c0-0.284-0.028-0.56-0.069-0.833h0.159c3.062,0,5.545-2.483,5.545-5.545V27.38C89.2,24.317,86.718,21.835,83.655,21.835z
		 M64.415,11.25C74.183,11.25,75,14.288,75,17.399c0,0.357-1.093,1.77-4.609,3.156c-1.282,0.506-2.71,0.937-4.188,1.279H53.973
		c-0.055-0.035-0.108-0.07-0.143-0.1C53.884,15.944,58.611,11.25,64.415,11.25z M26.438,17.399c0-3.111,0.817-6.149,10.585-6.149
		c5.803,0,10.53,4.693,10.584,10.485c-0.034,0.029-0.088,0.065-0.142,0.1H35.127C29.868,20.569,26.438,18.28,26.438,17.399z
		 M73.229,58.151c0.59,1.073,0.092,1.768-1.114,1.552l-5.892-1.056c-1.206-0.216-2.665,0.477-3.259,1.548l-2.561,4.615
		c-0.594,1.071-1.501,1.042-2.026-0.065L49,44.952l-9.377,19.793c-0.525,1.107-1.432,1.136-2.026,0.065l-2.561-4.615
		c-0.594-1.071-2.053-1.764-3.259-1.548l-5.892,1.056c-1.206,0.216-1.705-0.479-1.114-1.552l8.08-14.691h15.442h1.414h15.442
		L73.229,58.151z"/>
</g>
</svg>
