<?xml version="1.0" encoding="iso-8859-1"?>
<!-- Generator: Adobe Illustrator 17.1.0, SVG Export Plug-In . SVG Version: 6.00 Build 0)  -->
<!DOCTYPE svg PUBLIC "-//W3C//DTD SVG 1.1//EN" "http://www.w3.org/Graphics/SVG/1.1/DTD/svg11.dtd">
<svg version="1.1" id="Capa_1" xmlns="http://www.w3.org/2000/svg" xmlns:xlink="http://www.w3.org/1999/xlink" x="0px" y="0px"
	 viewBox="0 0 100 100" style="enable-background:new 0 0 100 100;" xml:space="preserve">
<g>
	<path style="fill:#1D1D1B;" d="M93.899,19.062h-9.966c-1.105,0-2-0.895-2-2V7.096c0-1.105-0.895-2-2-2h-2.983c-1.105,0-2,0.895-2,2
		v9.966c0,1.105-0.895,2-2,2h-9.966c-1.105,0-2,0.895-2,2v2.983c0,1.105,0.895,2,2,2h9.966c1.105,0,2,0.895,2,2v9.966
		c0,1.105,0.895,2,2,2h2.983c1.105,0,2-0.895,2-2v-9.966c0-1.105,0.895-2,2-2h9.966c1.105,0,2-0.895,2-2v-2.983
		C95.899,19.957,95.004,19.062,93.899,19.062z"/>
	<path style="fill:#1D1D1B;" d="M10.959,90.336c1.709,1.255,3.682,2.309,5.919,3.165c2.237,0.853,4.455,1.463,6.655,1.827
		c2.2,0.363,4.373,0.546,6.519,0.546c9.746,0,17.384-2.382,22.913-7.146c5.091-4.438,7.638-9.565,7.638-15.384
		c0-2.072-0.3-4.01-0.9-5.81c-0.6-1.8-1.383-3.346-2.346-4.637c-0.964-1.29-2.028-2.49-3.191-3.6
		c-1.164-1.109-2.328-2.118-3.491-3.027c-1.164-0.909-2.228-1.781-3.191-2.619c-0.964-0.836-1.746-1.709-2.346-2.619
		c-0.6-0.908-0.9-1.836-0.9-2.782c0-1.31,0.418-2.537,1.255-3.682c0.836-1.145,1.855-2.255,3.055-3.328
		c1.2-1.072,2.4-2.245,3.601-3.518c1.2-1.273,2.218-2.955,3.055-5.046c0.836-2.092,1.255-4.483,1.255-7.174
		c0-3.2-0.709-6.274-2.128-9.22c-1.107-2.299-2.568-4.199-4.383-5.7c-0.851-0.704-0.722-1.174,0.382-1.174h3.365
		c1.105,0,2.773-0.452,3.726-1.01l3.913-2.29c0.953-0.558,0.831-1.01-0.274-1.01h-21.84c-3.382,0-6.784,0.364-10.202,1.091
		c-5.056,1.127-9.31,3.702-12.765,7.72c-3.456,4.019-5.183,8.574-5.183,13.665c0,5.383,1.937,9.857,5.81,13.421
		c3.873,3.564,8.519,5.346,13.938,5.346c0.586,0,1.223-0.026,1.913-0.078c1.055-0.08,1.836,0.073,1.729,0.397
		c-0.058,0.175-0.127,0.369-0.206,0.582c-0.182,0.491-0.327,0.882-0.436,1.173c-0.109,0.291-0.2,0.646-0.273,1.063
		c-0.074,0.419-0.109,0.846-0.109,1.282c0,1.961,0.776,4.128,2.33,6.502c0.605,0.924,0.266,1.648-0.836,1.71
		c-2.083,0.119-4.144,0.336-6.185,0.653c-2.692,0.419-5.51,1.074-8.456,1.965c-2.946,0.891-5.583,2.182-7.91,3.873
		c-2.328,1.691-4.074,3.701-5.237,6.028c-1.346,2.693-2.018,5.147-2.018,7.364c0,2.438,0.546,4.646,1.637,6.629
		C7.85,87.463,9.249,89.081,10.959,90.336z M31.035,41.647c-1.673-0.945-3.092-2.173-4.255-3.682
		c-1.164-1.509-2.182-3.209-3.055-5.101c-0.873-1.891-1.519-3.783-1.937-5.674c-0.418-1.89-0.627-3.691-0.627-5.401
		c0-3.492,0.928-6.492,2.782-9.001c1.855-2.509,4.473-3.764,7.856-3.764c2.4,0,4.573,0.746,6.519,2.238
		c1.945,1.492,3.472,3.382,4.582,5.673c1.109,2.292,1.964,4.665,2.564,7.12c0.6,2.455,0.9,4.773,0.9,6.956
		c0,2.758-0.455,5.102-1.364,7.033c-0.47,0.999-1.518,2.481-2.381,3.169c-1.551,1.236-3.649,1.854-6.293,1.854
		C34.472,43.066,32.707,42.594,31.035,41.647z M16.687,70.507c0.982-1.709,2.237-3.073,3.764-4.092
		c1.527-1.018,3.309-1.855,5.346-2.509c2.036-0.655,4-1.109,5.892-1.364c1.891-0.255,3.819-0.383,5.783-0.383
		c0.508,0,0.963,0.007,1.366,0.02c0.754,0.025,1.736,0.343,2.195,0.66c0.233,0.161,0.51,0.353,0.831,0.575
		c0.891,0.619,1.491,1.037,1.8,1.254c0.308,0.218,0.873,0.637,1.691,1.255c0.818,0.619,1.4,1.083,1.746,1.392
		c0.345,0.309,0.846,0.773,1.5,1.391c0.655,0.619,1.136,1.155,1.446,1.61c0.308,0.455,0.69,1.009,1.146,1.663
		c0.454,0.655,0.772,1.282,0.955,1.883c0.181,0.6,0.355,1.254,0.518,1.964c0.164,0.709,0.246,1.446,0.246,2.208
		c0,2.292-0.501,4.292-1.5,6.001c-1.001,1.709-2.355,3.046-4.064,4.011c-1.71,0.963-3.537,1.672-5.483,2.127
		c-1.946,0.455-3.992,0.682-6.137,0.682c-2.328,0-4.637-0.273-6.928-0.818c-2.291-0.546-4.483-1.372-6.573-2.482
		c-2.092-1.11-3.783-2.637-5.074-4.583c-1.291-1.946-1.937-4.154-1.937-6.628C15.214,74.161,15.705,72.217,16.687,70.507z"/>
</g>
</svg>
