<?xml version="1.0" encoding="iso-8859-1"?>
<!-- Generator: Adobe Illustrator 17.1.0, SVG Export Plug-In . SVG Version: 6.00 Build 0)  -->
<!DOCTYPE svg PUBLIC "-//W3C//DTD SVG 1.1//EN" "http://www.w3.org/Graphics/SVG/1.1/DTD/svg11.dtd">
<svg version="1.1" id="Capa_1" xmlns="http://www.w3.org/2000/svg" xmlns:xlink="http://www.w3.org/1999/xlink" x="0px" y="0px"
	 viewBox="0 0 100 100" style="enable-background:new 0 0 100 100;" xml:space="preserve">
<g>
	<path style="fill:#000100;" d="M73.058,37.728c-1.214,0-2.391-0.154-3.526-0.419c0.056,0.616,0.095,1.237,0.095,1.867
		c0,4.109-1.221,7.931-3.298,11.151h3.99c3.916,0,7.102,3.186,7.102,7.102v6.487h12.015c1.739,0,3.149-1.41,3.149-3.149V36.2
		c0-1.739-1.41-3.149-3.149-3.149h-5.283C81.329,35.933,77.402,37.728,73.058,37.728z"/>
	<path style="fill:#000100;" d="M68.699,33.051c0.215,0.691,0.389,1.4,0.531,2.119c1.215,0.358,2.498,0.558,3.829,0.558
		c3.023,0,5.805-1.003,8.059-2.677c3.322-2.468,5.484-6.409,5.484-10.866c0-7.479-6.063-13.543-13.543-13.543
		c-7.241,0-13.138,5.688-13.507,12.837C63.866,24.064,67.176,28.161,68.699,33.051z"/>
	<path style="fill:#000100;" d="M8.786,63.916h11.773v-6.487c0-3.916,3.186-7.102,7.102-7.102h3.99
		c-2.078-3.22-3.298-7.042-3.298-11.151c0-0.433,0.039-0.856,0.065-1.282c-1.051,0.218-2.14,0.333-3.254,0.333
		c-4.652,0-8.835-2.003-11.769-5.177H8.786c-1.74,0-3.15,1.41-3.15,3.149v24.566C5.637,62.506,7.047,63.916,8.786,63.916z"/>
	<path style="fill:#000100;" d="M17.104,33.051c2.254,1.674,5.036,2.677,8.059,2.677c1.24,0,2.436-0.181,3.577-0.493
		c0.144-0.742,0.319-1.473,0.541-2.184c1.551-4.979,4.952-9.139,9.382-11.714c-0.44-7.082-6.307-12.694-13.5-12.694
		c-7.479,0-13.543,6.063-13.543,13.543C11.621,26.641,13.783,30.583,17.104,33.051z"/>
	<path style="fill:#000100;" d="M63.972,53.328c-2.768,2.929-6.374,5.049-10.44,5.966c-1.464,0.33-2.98,0.52-4.542,0.52
		c-1.475,0-2.912-0.162-4.3-0.458c-4.165-0.887-7.858-3.041-10.682-6.029h-6.347c-2.265,0-4.102,1.836-4.102,4.102v6.487v25.507
		c0,2.265,1.836,4.102,4.102,4.102h42.658c2.265,0,4.102-1.836,4.102-4.102V63.916v-6.487c0-2.265-1.836-4.102-4.102-4.102H63.972z"
		/>
	<path style="fill:#000100;" d="M32.468,33.051c-0.084,0.225-0.173,0.447-0.248,0.677c-0.178,0.547-0.329,1.106-0.453,1.675
		c-0.108,0.495-0.188,0.999-0.253,1.508c-0.096,0.744-0.162,1.496-0.162,2.266c0,4.231,1.493,8.112,3.977,11.151
		c0.432,0.528,0.898,1.026,1.387,1.5c0.557,0.54,1.155,1.036,1.779,1.5c1.827,1.357,3.921,2.366,6.196,2.936
		c1.379,0.346,2.814,0.55,4.3,0.55c1.573,0,3.09-0.226,4.542-0.612c2.181-0.581,4.192-1.565,5.954-2.874
		c0.624-0.464,1.222-0.96,1.778-1.5c0.489-0.475,0.955-0.972,1.387-1.5c2.484-3.039,3.977-6.92,3.977-11.151
		c0-1.021-0.106-2.016-0.272-2.99c-0.072-0.419-0.159-0.831-0.259-1.239c-0.118-0.477-0.25-0.948-0.405-1.409
		c-0.056-0.165-0.118-0.326-0.179-0.488c-1.137-3.065-3.092-5.726-5.613-7.716c-0.384-0.303-0.777-0.596-1.186-0.868
		c-0.362-0.24-0.734-0.464-1.114-0.677c-2.547-1.429-5.48-2.251-8.609-2.251c-2.822,0-5.48,0.68-7.845,1.858
		c-0.456,0.227-0.9,0.474-1.333,0.739c-0.494,0.302-0.971,0.627-1.432,0.975C35.717,27.123,33.649,29.867,32.468,33.051z"/>
</g>
</svg>
