<?xml version="1.0" encoding="iso-8859-1"?>
<!-- Generator: Adobe Illustrator 17.1.0, SVG Export Plug-In . SVG Version: 6.00 Build 0)  -->
<!DOCTYPE svg PUBLIC "-//W3C//DTD SVG 1.1//EN" "http://www.w3.org/Graphics/SVG/1.1/DTD/svg11.dtd">
<svg version="1.1" id="Capa_1" xmlns="http://www.w3.org/2000/svg" xmlns:xlink="http://www.w3.org/1999/xlink" x="0px" y="0px"
	 viewBox="0 0 100 100" style="enable-background:new 0 0 100 100;" xml:space="preserve">
<g>
	<path style="fill:#000100;" d="M14.829,80.507c3.359,0,6.081-2.723,6.081-6.081V40.978c0-3.359-2.723-6.081-6.081-6.081H9.963
		c-3.359,0-6.082,2.723-6.082,6.081v33.448c0,3.359,2.723,6.081,6.082,6.081H14.829z"/>
	<path style="fill:#000100;" d="M89.405,34.896H69.228h-5.15H50.283c-1.343,0-2.066-1.026-1.614-2.291l5.458-15.284
		c0.452-1.265-0.228-2.613-1.557-2.807c-2.95-0.43-8.009-0.454-11.428,3.399c-0.892,1.005-1.929,2.938-2.682,4.05
		c-3.446,5.093-8.438,9.356-11.161,11.481c-1.059,0.827-1.951,2.541-1.951,3.884v40.746c0,1.344,1.089,2.433,2.433,2.433h36.176
		c1.344,0,3.146-0.823,4.026-1.838l2.084-2.405c0.88-1.015,1.76-2.915,1.965-4.242l3.386-21.887h13.987
		c3.708,0,6.713-3.411,6.713-7.619C96.118,38.308,93.113,34.896,89.405,34.896z"/>
</g>
</svg>
