<?xml version="1.0" encoding="iso-8859-1"?>
<!-- Generator: Adobe Illustrator 17.1.0, SVG Export Plug-In . SVG Version: 6.00 Build 0)  -->
<!DOCTYPE svg PUBLIC "-//W3C//DTD SVG 1.1//EN" "http://www.w3.org/Graphics/SVG/1.1/DTD/svg11.dtd">
<svg version="1.1" id="Capa_1" xmlns="http://www.w3.org/2000/svg" xmlns:xlink="http://www.w3.org/1999/xlink" x="0px" y="0px"
	 viewBox="0 0 100 100" style="enable-background:new 0 0 100 100;" xml:space="preserve">
<g>
	<path style="fill:#000100;" d="M89.66,35.884h-4.865c-3.359,0-6.082,2.723-6.082,6.081v33.448c0,3.359,2.723,6.081,6.082,6.081
		h4.865c3.358,0,6.082-2.723,6.082-6.081V41.965C95.741,38.606,93.018,35.884,89.66,35.884z"/>
	<path style="fill:#000100;" d="M72.324,34.432c-2.723-2.125-7.715-6.387-11.161-11.481c-0.753-1.113-1.791-3.045-2.682-4.05
		c-3.419-3.854-8.478-3.829-11.428-3.399c-1.329,0.194-2.009,1.542-1.557,2.807l5.458,15.284c0.452,1.265-0.271,2.291-1.614,2.291
		H35.545h-5.15H10.218c-3.708,0-6.713,3.411-6.713,7.619c0,4.208,3.005,7.619,6.713,7.619h13.987l3.386,21.887
		c0.205,1.328,1.085,3.227,1.965,4.242l2.084,2.405c0.88,1.015,2.682,1.838,4.026,1.838h36.176c1.343,0,2.433-1.089,2.433-2.433
		V38.316C74.274,36.973,73.383,35.259,72.324,34.432z"/>
</g>
</svg>
