<?xml version="1.0" encoding="iso-8859-1"?>
<!-- Generator: Adobe Illustrator 17.1.0, SVG Export Plug-In . SVG Version: 6.00 Build 0)  -->
<!DOCTYPE svg PUBLIC "-//W3C//DTD SVG 1.1//EN" "http://www.w3.org/Graphics/SVG/1.1/DTD/svg11.dtd">
<svg version="1.1" id="Capa_1" xmlns="http://www.w3.org/2000/svg" xmlns:xlink="http://www.w3.org/1999/xlink" x="0px" y="0px"
	 viewBox="0 0 100 100" style="enable-background:new 0 0 100 100;" xml:space="preserve">
<g>
	<path style="fill:#000100;" d="M70.172,10.172c-8.313,0-15.666,5.09-20.172,11.363c-4.506-6.273-11.859-11.363-20.172-11.363
		c-7.1,0-13.968,3.111-18.655,8.444c-9.023,10.267-7.04,27.184-0.388,38.146c6.048,9.966,15.332,17.841,24.832,24.396
		c4.59,3.167,9.377,6.193,14.383,8.669c16.322-7.798,34.443-20.801,41.826-37.789c2.322-5.344,3.28-11.305,2.866-17.014
		C93.744,21.939,85.595,10.172,70.172,10.172z M82.655,48.052c-4.823,11.097-16.549,22.054-32.516,30.513
		c-2.703-1.552-5.596-3.398-8.843-5.638C30.727,65.635,23.748,58.85,19.334,51.575c-2.549-4.2-4.093-9.462-4.237-14.435
		c-0.1-3.462,0.441-8.341,3.588-11.922c2.777-3.159,6.943-5.046,11.144-5.046c5.073,0,9.551,3.718,12.051,7.197
		c1.879,2.615,4.902,7.166,8.122,7.166s6.243-4.551,8.122-7.166c2.499-3.479,6.977-7.197,12.051-7.197
		c4.374,0,7.719,1.366,10.225,4.176c2.453,2.749,3.987,6.797,4.32,11.398C85.021,39.924,84.288,44.294,82.655,48.052z"/>
</g>
</svg>
