<?xml version="1.0" encoding="iso-8859-1"?>
<!-- Generator: Adobe Illustrator 17.1.0, SVG Export Plug-In . SVG Version: 6.00 Build 0)  -->
<!DOCTYPE svg PUBLIC "-//W3C//DTD SVG 1.1//EN" "http://www.w3.org/Graphics/SVG/1.1/DTD/svg11.dtd">
<svg version="1.1" id="Capa_1" xmlns="http://www.w3.org/2000/svg" xmlns:xlink="http://www.w3.org/1999/xlink" x="0px" y="0px"
	 viewBox="0 0 100 100" style="enable-background:new 0 0 100 100;" xml:space="preserve">
<g>
	<path d="M91.77,11.613H18.88c-0.552,0-1.087,0.439-1.195,0.981l-2.546,12.817c-0.108,0.542,0.253,0.981,0.805,0.981h58.111
		c0.552,0,0.913,0.439,0.805,0.981l-1.5,7.544c-0.108,0.542-0.643,0.981-1.195,0.981H14.003c-0.552,0-1.086,0.439-1.191,0.981
		l-2.503,12.815c-0.106,0.542,0.256,0.982,0.808,0.982h58.111c0.552,0,0.912,0.439,0.803,0.98l-2.99,14.907
		c-0.109,0.542-0.622,1.121-1.146,1.295L43.61,75.241c-0.524,0.174-1.367,0.155-1.883-0.042L22.596,67.9
		c-0.516-0.197-0.848-0.796-0.741-1.338l1.056-5.352c0.107-0.542-0.254-0.981-0.806-0.981H9.326c-0.552,0-1.088,0.439-1.196,0.981
		L4.989,76.964c-0.108,0.542,0.223,1.141,0.739,1.338l32.865,12.571c0.516,0.197,1.359,0.216,1.883,0.042l38.11-12.656
		c0.524-0.174,1.037-0.754,1.145-1.296l12.845-64.37C92.683,12.052,92.323,11.613,91.77,11.613z"/>
</g>
</svg>
