<?xml version="1.0" encoding="iso-8859-1"?>
<!-- Generator: Adobe Illustrator 17.1.0, SVG Export Plug-In . SVG Version: 6.00 Build 0)  -->
<!DOCTYPE svg PUBLIC "-//W3C//DTD SVG 1.1//EN" "http://www.w3.org/Graphics/SVG/1.1/DTD/svg11.dtd">
<svg version="1.1" id="Layer_1" xmlns="http://www.w3.org/2000/svg" xmlns:xlink="http://www.w3.org/1999/xlink" x="0px" y="0px"
	 viewBox="0 0 64 64" style="enable-background:new 0 0 64 64;" xml:space="preserve">
<g>
	<path d="M22.515,15.127c-3.269,1.028-5.64,4.077-5.64,7.685c0,4.453,3.61,8.062,8.062,8.062c2.027,0,3.874-0.752,5.289-1.989
		c0.416-0.363,1.005-0.363,1.421,0c1.415,1.236,3.262,1.989,5.289,1.989c4.453,0,8.062-3.61,8.062-8.062
		c0-3.608-2.372-6.657-5.64-7.685c-0.527-0.166-0.792-0.653-0.646-1.186C38.9,13.263,39,12.55,39,11.812
		c0-4.453-3.61-8.062-8.062-8.062s-8.062,3.61-8.062,8.062c0,0.737,0.1,1.451,0.286,2.129
		C23.308,14.474,23.042,14.962,22.515,15.127z"/>
	<path d="M40.093,32.385c-1.531,0.709-6,0.365-8.328-1.51c-0.43-0.346-1.123-0.336-1.583-0.03c-1.744,1.158-4.245,2.437-7.56,1.284
		c-0.522-0.181-0.864,0.142-0.748,0.682c1.064,4.941,5.975,27.939,9.063,27.939c3.109,0,8.831-22.624,9.92-27.525
		C40.977,32.686,40.595,32.153,40.093,32.385z"/>
</g>
</svg>
