<?xml version="1.0" encoding="iso-8859-1"?>
<!-- Generator: Adobe Illustrator 17.1.0, SVG Export Plug-In . SVG Version: 6.00 Build 0)  -->
<!DOCTYPE svg PUBLIC "-//W3C//DTD SVG 1.1//EN" "http://www.w3.org/Graphics/SVG/1.1/DTD/svg11.dtd">
<svg version="1.1" id="Capa_1" xmlns="http://www.w3.org/2000/svg" xmlns:xlink="http://www.w3.org/1999/xlink" x="0px" y="0px"
	 viewBox="0 0 100 100" style="enable-background:new 0 0 100 100;" xml:space="preserve">
<g>
	<path d="M22.663,96.157h56.404h4.798H95.25V84.77v-2.918V21.69V18.77V7.385H83.865h-4.798H22.663h-4.798H6.479V18.77v2.921v60.161
		v2.918v11.387h11.385H22.663z M67.163,21.255c0-1.079,0.384-2.011,1.156-2.804c0.77-0.788,1.713-1.183,2.832-1.183h10.056
		c1.117,0,2.061,0.395,2.832,1.183c0.77,0.792,1.156,1.725,1.156,2.804v9.536c0,1.117-0.386,2.063-1.156,2.831
		c-0.771,0.772-1.715,1.156-2.832,1.156H71.15c-1.118,0-2.062-0.384-2.832-1.156c-0.771-0.768-1.156-1.714-1.156-2.831V21.255z
		 M63.55,42.777c3.486,3.371,5.23,7.445,5.23,12.222c0,4.779-1.744,8.854-5.23,12.223c-3.488,3.373-7.697,5.057-12.628,5.057
		c-4.894,0-9.083-1.684-12.57-5.057c-3.488-3.368-5.23-7.443-5.23-12.223c0-4.777,1.743-8.852,5.23-12.222
		c3.487-3.371,7.677-5.057,12.57-5.057C55.854,37.72,60.062,39.407,63.55,42.777z M30.344,21.255c0-1.079,0.384-2.011,1.156-2.804
		c0.77-0.788,1.714-1.183,2.832-1.183h2.117c1.117,0,2.061,0.395,2.832,1.183c0.771,0.792,1.156,1.725,1.156,2.804v9.536
		c0,1.117-0.385,2.063-1.156,2.831c-0.771,0.772-1.715,1.156-2.832,1.156h-2.117c-1.118,0-2.062-0.384-2.832-1.156
		c-0.771-0.768-1.156-1.714-1.156-2.831V21.255z M16.362,21.255c0-1.079,0.385-2.011,1.156-2.804
		c0.77-0.788,1.713-1.183,2.832-1.183h2.117c1.117,0,2.061,0.395,2.832,1.183c0.771,0.792,1.156,1.725,1.156,2.804v9.536
		c0,1.117-0.385,2.063-1.156,2.831c-0.771,0.772-1.715,1.156-2.832,1.156h-2.117c-1.118,0-2.062-0.384-2.832-1.156
		c-0.771-0.768-1.156-1.714-1.156-2.831V21.255z M16.362,84.67V47.219h8.149c-0.771,2.427-1.156,4.953-1.156,7.572
		c0,7.396,2.696,13.708,8.091,18.927c5.394,5.22,11.886,7.829,19.477,7.829c5.008,0,9.631-1.192,13.87-3.583
		c4.238-2.386,7.59-5.635,10.056-9.737c2.465-4.104,3.698-8.583,3.698-13.437c0-2.619-0.385-5.145-1.156-7.572h7.802V84.67
		c0,1.002-0.347,1.84-1.04,2.513c-0.693,0.677-1.522,1.011-2.485,1.011H19.887c-1.002,0-1.84-0.334-2.514-1.011
		C16.699,86.51,16.362,85.672,16.362,84.67z"/>
</g>
</svg>
