<?xml version="1.0" encoding="iso-8859-1"?>
<!-- Generator: Adobe Illustrator 17.1.0, SVG Export Plug-In . SVG Version: 6.00 Build 0)  -->
<!DOCTYPE svg PUBLIC "-//W3C//DTD SVG 1.1//EN" "http://www.w3.org/Graphics/SVG/1.1/DTD/svg11.dtd">
<svg version="1.1" id="Capa_1" xmlns="http://www.w3.org/2000/svg" xmlns:xlink="http://www.w3.org/1999/xlink" x="0px" y="0px"
	 viewBox="0 0 100 100" style="enable-background:new 0 0 100 100;" xml:space="preserve">
<g>
	<path style="fill:#1D1D1B;" d="M69.273,8.296c-2.179,0.276-4.384,0.469-6.617,0.581c-2.572,0.13-4.573,0.194-6.001,0.194
		c-1.645,0-3.609-0.084-5.894-0.258c-1.998-0.15-4.131-0.335-6.399-0.552c-0.55-0.053-1.137,0.329-1.275,0.864
		c-0.172,0.668-0.257,1.212-0.257,1.63c0,1.123,0.785,1.813,2.357,2.072c2.072,0.258,3.376,0.821,3.912,1.684
		c0.536,0.863,0.66,2.071,0.375,3.626L38.973,84.051c-0.287,1.641-0.895,2.872-1.823,3.691c-0.929,0.821-2.322,1.405-4.179,1.748
		c-0.787,0.174-1.305,0.435-1.553,0.777c-0.252,0.346-0.375,0.863-0.375,1.555c0,0.419,0.04,0.87,0.119,1.353
		c0.089,0.545,0.648,0.931,1.197,0.875c2.083-0.214,4.127-0.396,6.132-0.544c2.32-0.174,4.195-0.258,5.625-0.258
		c1.643,0,3.751,0.084,6.323,0.258c2.249,0.151,4.523,0.335,6.827,0.553c0.55,0.052,1.109-0.338,1.198-0.883
		c0.079-0.483,0.119-0.933,0.119-1.353c0-1.208-0.68-1.985-2.036-2.332c-1.929-0.431-3.251-0.971-3.965-1.618
		c-0.715-0.647-0.929-1.834-0.643-3.561l10.288-65.917c0.284-1.726,0.838-2.978,1.661-3.755c0.82-0.777,2.232-1.337,4.233-1.684
		c1-0.172,1.662-0.431,1.982-0.777c0.322-0.344,0.482-0.862,0.482-1.554c0-0.44-0.043-0.933-0.131-1.479
		C70.368,8.601,69.821,8.226,69.273,8.296z"/>
</g>
</svg>
