<?xml version="1.0" encoding="iso-8859-1"?>
<!-- Generator: Adobe Illustrator 17.1.0, SVG Export Plug-In . SVG Version: 6.00 Build 0)  -->
<!DOCTYPE svg PUBLIC "-//W3C//DTD SVG 1.1//EN" "http://www.w3.org/Graphics/SVG/1.1/DTD/svg11.dtd">
<svg version="1.1" id="Capa_1" xmlns="http://www.w3.org/2000/svg" xmlns:xlink="http://www.w3.org/1999/xlink" x="0px" y="0px"
	 viewBox="0 0 100 100" style="enable-background:new 0 0 100 100;" xml:space="preserve">
<g>
	<path style="fill:#1D1D1B;" d="M14.51,93.5H72c1.657,0,3-1.343,3-3V79c0-1.589-1.239-2.876-2.802-2.98v-6.758h5.361
		c8.271,0,15-6.729,15-15V32.441c0-8.271-6.729-15-15-15h-5.361V9.322c0-1.612-1.307-2.919-2.919-2.919H17.231
		c-1.612,0-2.919,1.307-2.919,2.919V76.02C12.75,76.124,11.51,77.411,11.51,79v11.5C11.51,92.157,12.853,93.5,14.51,93.5z
		 M72.198,27.441h5.361c2.757,0,5,2.243,5,5v21.821c0,2.757-2.243,5-5,5h-5.361V27.441z"/>
</g>
</svg>
