<?xml version="1.0" encoding="iso-8859-1"?>
<!-- Generator: Adobe Illustrator 17.1.0, SVG Export Plug-In . SVG Version: 6.00 Build 0)  -->
<!DOCTYPE svg PUBLIC "-//W3C//DTD SVG 1.1//EN" "http://www.w3.org/Graphics/SVG/1.1/DTD/svg11.dtd">
<svg version="1.1" id="Capa_1" xmlns="http://www.w3.org/2000/svg" xmlns:xlink="http://www.w3.org/1999/xlink" x="0px" y="0px"
	 viewBox="0 0 100 100" style="enable-background:new 0 0 100 100;" xml:space="preserve">
<g>
	<path d="M72.448,55.47c-1.996,0.036-4.017,0.379-6.064,1.032c-2.047,0.655-3.759,1.377-5.135,2.167
		c-1.376,0.792-2.709,1.695-3.999,2.709c-1.29,1.016-2.142,1.721-2.555,2.117c-0.413,0.397-0.722,0.714-0.929,0.953
		c1.72-4.677,2.975-9.547,3.767-14.603l0.877,0.153c0.585,0.105,1.384,0.181,2.4,0.234c1.014,0.05,2.175,0.069,3.483,0.05
		c1.307-0.016,2.683-0.179,4.128-0.49c1.445-0.31,2.898-0.722,4.36-1.238c1.462-0.516,2.864-1.298,4.206-2.349
		c1.342-1.048,2.537-2.28,3.586-3.691c1.049-1.409,1.91-3.207,2.58-5.392c0.671-2.183,1.04-4.618,1.11-7.301
		c-2.34-0.79-4.619-1.203-6.838-1.24c-2.219-0.032-4.146,0.218-5.78,0.75c-1.635,0.532-3.208,1.298-4.722,2.296
		c-1.514,0.998-2.735,1.953-3.664,2.865c-0.929,0.911-1.798,1.909-2.606,2.992c-0.809,1.085-1.333,1.824-1.574,2.219
		c-0.241,0.397-0.413,0.716-0.516,0.956c0.034-0.893,0.052-2.125,0.052-3.691c0-1.564-0.018-2.433-0.052-2.604l0.361-0.774
		c0.275-0.516,0.568-1.24,0.877-2.169c0.31-0.927,0.636-1.994,0.98-3.199c0.344-1.203,0.568-2.518,0.671-3.947
		c0.103-1.427,0.111-2.899,0.026-4.413c-0.086-1.512-0.439-3.044-1.058-4.592c-0.619-1.548-1.445-3.01-2.477-4.386
		s-2.486-2.693-4.361-3.949c-1.875-1.254-4.069-2.312-6.58-3.173c-1.755,2.34-2.959,4.721-3.612,7.146
		c-0.654,2.427-0.86,4.612-0.619,6.556c0.24,1.943,0.808,3.879,1.703,5.806c0.894,1.927,1.823,3.526,2.787,4.798
		c0.963,1.274,2.055,2.504,3.277,3.691c1.221,1.187,2.064,1.953,2.529,2.296c0.464,0.345,0.834,0.619,1.109,0.827
		c0,2.512-0.206,5.866-0.619,10.063l-0.206-0.826c-0.173-0.516-0.448-1.195-0.826-2.038c-0.379-0.843-0.852-1.806-1.419-2.891
		c-0.568-1.083-1.29-2.167-2.167-3.252c-0.877-1.083-1.841-2.131-2.89-3.147c-1.05-1.014-2.314-1.875-3.793-2.58
		c-1.48-0.706-3.063-1.222-4.748-1.548c-1.686-0.327-3.621-0.345-5.806-0.052c-2.185,0.294-4.481,0.921-6.889,1.885
		c0.206,2.409,0.696,4.602,1.47,6.58c0.774,1.978,1.711,3.604,2.813,4.876c1.101,1.274,2.391,2.391,3.87,3.354
		c1.479,0.964,2.924,1.695,4.335,2.193c1.41,0.5,2.933,0.895,4.567,1.187c1.634,0.292,3.036,0.464,4.206,0.516
		c1.169,0.05,2.365,0.06,3.587,0.024c1.221-0.032,2.021-0.077,2.4-0.129c0.378-0.05,0.688-0.093,0.929-0.129
		c-0.895,5.507-2.254,10.513-4.077,15.018c-0.86-1.512-1.832-2.923-2.916-4.231c-1.084-1.306-2.606-2.633-4.567-3.973
		c-1.961-1.343-4.103-2.314-6.425-2.917c-2.322-0.601-5.204-0.73-8.644-0.387c-3.44,0.345-7.121,1.326-11.044,2.941
		c1.135,2.856,2.417,5.368,3.845,7.535c1.427,2.167,2.881,3.889,4.361,5.161c1.478,1.274,3.061,2.288,4.747,3.044
		c1.685,0.758,3.285,1.25,4.799,1.472c1.513,0.224,3.078,0.268,4.696,0.129c1.617-0.137,3.045-0.361,4.283-0.671
		c1.239-0.308,2.477-0.704,3.715-1.187c-3.509,6.469-7.836,11.534-12.979,15.199c-5.144,3.663-10.691,5.511-16.643,5.548
		c-0.654,0-1.205,0.214-1.651,0.645c-0.448,0.427-0.671,0.97-0.671,1.625c0,0.653,0.223,1.203,0.671,1.651
		c0.446,0.448,0.997,0.671,1.651,0.671c7.156-0.036,13.77-2.314,19.842-6.838c6.072-4.526,11.052-10.708,14.94-18.551l0.877,0.516
		c0.55,0.345,1.342,0.732,2.374,1.161c1.032,0.429,2.227,0.903,3.587,1.419c1.359,0.516,2.846,0.895,4.464,1.135
		c1.617,0.242,3.277,0.387,4.98,0.439c1.703,0.05,3.449-0.198,5.238-0.75c1.789-0.548,3.491-1.349,5.109-2.399
		c1.617-1.048,3.182-2.57,4.696-4.568c1.514-1.994,2.821-4.368,3.922-7.12c-2.271-1.822-4.628-3.157-7.07-3.999
		C76.662,55.841,74.443,55.436,72.448,55.47z"/>
</g>
</svg>
