<?xml version="1.0" encoding="iso-8859-1"?>
<!-- Generator: Adobe Illustrator 17.1.0, SVG Export Plug-In . SVG Version: 6.00 Build 0)  -->
<!DOCTYPE svg PUBLIC "-//W3C//DTD SVG 1.1//EN" "http://www.w3.org/Graphics/SVG/1.1/DTD/svg11.dtd">
<svg version="1.1" id="Capa_1" xmlns="http://www.w3.org/2000/svg" xmlns:xlink="http://www.w3.org/1999/xlink" x="0px" y="0px"
	 viewBox="0 0 100 100" style="enable-background:new 0 0 100 100;" xml:space="preserve">
<g>
	<path style="fill:#000100;" d="M7.171,66.494c0,10.914,8.847,19.761,19.761,19.761c10.914,0,19.761-8.847,19.761-19.761
		s-8.847-19.761-19.761-19.761c-2.243,0-4.39,0.391-6.4,1.08c4.447-25.505,24.336-41.953,5.899-28.416
		C5.987,34.408,7.149,65.89,7.172,66.467C7.172,66.476,7.171,66.484,7.171,66.494z"/>
	<path style="fill:#000100;" d="M50.645,66.494c0,10.914,8.847,19.761,19.761,19.761c10.914,0,19.761-8.847,19.761-19.761
		s-8.847-19.761-19.761-19.761c-2.243,0-4.39,0.391-6.4,1.08c4.447-25.505,24.336-41.953,5.899-28.416
		C49.461,34.408,50.623,65.89,50.646,66.467C50.646,66.476,50.645,66.484,50.645,66.494z"/>
</g>
</svg>
