<?xml version="1.0" encoding="iso-8859-1"?>
<!-- Generator: Adobe Illustrator 17.1.0, SVG Export Plug-In . SVG Version: 6.00 Build 0)  -->
<!DOCTYPE svg PUBLIC "-//W3C//DTD SVG 1.1//EN" "http://www.w3.org/Graphics/SVG/1.1/DTD/svg11.dtd">
<svg version="1.1" id="Capa_1" xmlns="http://www.w3.org/2000/svg" xmlns:xlink="http://www.w3.org/1999/xlink" x="0px" y="0px"
	 viewBox="0 0 100 100" style="enable-background:new 0 0 100 100;" xml:space="preserve">
<g>
	<path d="M83.032,4.979H16.968c-6.611,0-11.989,5.378-11.989,11.989v66.064c0,6.611,5.378,11.989,11.989,11.989h66.064
		c6.611,0,11.989-5.378,11.989-11.989V16.968C95.021,10.356,89.643,4.979,83.032,4.979z M80.021,80.021H19.979V19.979h60.043V80.021
		z"/>
	<path d="M31.563,53.229L57.45,73.585c0.567,0.397,1.577,0.827,2.264,0.913c2.225,0.28,6.672,0.502,6.672-2.195V27.699
		c0-2.698-4.445-2.477-6.669-2.197c-0.687,0.086-1.697,0.515-2.263,0.913l-25.89,20.357C28.438,48.555,28.438,51.446,31.563,53.229z
		"/>
</g>
</svg>
