<?xml version="1.0" encoding="iso-8859-1"?>
<!-- Generator: Adobe Illustrator 17.1.0, SVG Export Plug-In . SVG Version: 6.00 Build 0)  -->
<!DOCTYPE svg PUBLIC "-//W3C//DTD SVG 1.1//EN" "http://www.w3.org/Graphics/SVG/1.1/DTD/svg11.dtd">
<svg version="1.1" id="Capa_1" xmlns="http://www.w3.org/2000/svg" xmlns:xlink="http://www.w3.org/1999/xlink" x="0px" y="0px"
	 viewBox="0 0 100 100" style="enable-background:new 0 0 100 100;" xml:space="preserve">
<g>
	<path style="fill:#1D1D1B;" d="M13.5,21.057h33c2.347,0,4.25-1.903,4.25-4.25s-1.903-4.25-4.25-4.25h-33
		c-2.347,0-4.25,1.903-4.25,4.25S11.153,21.057,13.5,21.057z"/>
	<path style="fill:#1D1D1B;" d="M13.5,43.057h59c2.347,0,4.25-1.903,4.25-4.25s-1.903-4.25-4.25-4.25h-59
		c-2.347,0-4.25,1.903-4.25,4.25S11.153,43.057,13.5,43.057z"/>
	<path style="fill:#1D1D1B;" d="M13.5,65.057h51c2.347,0,4.25-1.903,4.25-4.25s-1.903-4.25-4.25-4.25h-51
		c-2.347,0-4.25,1.903-4.25,4.25S11.153,65.057,13.5,65.057z"/>
	<path style="fill:#1D1D1B;" d="M80.5,79.807h-67c-2.347,0-4.25,1.903-4.25,4.25s1.903,4.25,4.25,4.25h67
		c2.347,0,4.25-1.903,4.25-4.25S82.847,79.807,80.5,79.807z"/>
</g>
</svg>
