<?xml version="1.0" encoding="iso-8859-1"?>
<!-- Generator: Adobe Illustrator 17.1.0, SVG Export Plug-In . SVG Version: 6.00 Build 0)  -->
<!DOCTYPE svg PUBLIC "-//W3C//DTD SVG 1.1//EN" "http://www.w3.org/Graphics/SVG/1.1/DTD/svg11.dtd">
<svg version="1.1" id="Capa_1" xmlns="http://www.w3.org/2000/svg" xmlns:xlink="http://www.w3.org/1999/xlink" x="0px" y="0px"
	 viewBox="0 0 100 100" style="enable-background:new 0 0 100 100;" xml:space="preserve">
<g>
	<path d="M50,95.976c25.392,0,45.976-20.584,45.976-45.976C95.976,24.608,75.392,4.024,50,4.024S4.024,24.608,4.024,50
		C4.024,75.392,24.608,95.976,50,95.976z M17.955,46.465l24.857-24.857c1.953-1.953,3.535-1.297,3.535,1.464v9.489h35.162
		c1.105,0,2,0.896,2,2v30.878c0,1.104-0.895,2-2,2H46.347v9.489c0,2.761-1.583,3.417-3.535,1.464L17.955,53.536
		C16.002,51.583,16.002,48.417,17.955,46.465z"/>
</g>
</svg>
