<?xml version="1.0" encoding="iso-8859-1"?>
<!-- Generator: Adobe Illustrator 17.1.0, SVG Export Plug-In . SVG Version: 6.00 Build 0)  -->
<!DOCTYPE svg PUBLIC "-//W3C//DTD SVG 1.1//EN" "http://www.w3.org/Graphics/SVG/1.1/DTD/svg11.dtd">
<svg version="1.1" id="Capa_1" xmlns="http://www.w3.org/2000/svg" xmlns:xlink="http://www.w3.org/1999/xlink" x="0px" y="0px"
	 viewBox="0 0 100 100" style="enable-background:new 0 0 100 100;" xml:space="preserve">
<g>
	<path style="fill:#1D1D1B;" d="M89.263,30.326h-6.927h-5.395H31.237v-5.638c0-1.641-0.94-2.03-2.101-0.87l-14.77,14.77
		c-1.16,1.16-1.16,3.041,0,4.201l14.77,14.77c1.16,1.16,2.101,0.771,2.101-0.87V51.05h43.463v24.227c0,1.237,1.003,2.24,2.24,2.24
		h12.322c1.237,0,2.24-1.003,2.24-2.24V32.566C91.503,31.329,90.5,30.326,89.263,30.326z"/>
	<path style="fill:#1D1D1B;" d="M9.781,41.374c-0.378-0.379-0.378-0.994,0-1.373l14.77-14.77c0.781-0.781,0.781-2.047,0-2.828
		s-2.047-0.781-2.828,0l-14.77,14.77c-1.938,1.938-1.938,5.092,0,7.029l14.77,14.771c0.391,0.391,0.902,0.586,1.414,0.586
		s1.023-0.195,1.414-0.586c0.781-0.781,0.781-2.047,0-2.828L9.781,41.374z"/>
</g>
</svg>
