<?xml version="1.0" encoding="iso-8859-1"?>
<!-- Generator: Adobe Illustrator 17.1.0, SVG Export Plug-In . SVG Version: 6.00 Build 0)  -->
<!DOCTYPE svg PUBLIC "-//W3C//DTD SVG 1.1//EN" "http://www.w3.org/Graphics/SVG/1.1/DTD/svg11.dtd">
<svg version="1.1" id="Capa_1" xmlns="http://www.w3.org/2000/svg" xmlns:xlink="http://www.w3.org/1999/xlink" x="0px" y="0px"
	 viewBox="0 0 100 100" style="enable-background:new 0 0 100 100;" xml:space="preserve">
<g>
	<path style="fill:#000100;" d="M88.956,30.555c-0.556-4.223-2.786-8.744-6.536-12.494c-3.748-3.749-8.269-5.978-12.491-6.535
		c-1.911-0.252-4.462-1.308-5.991-2.481c-3.38-2.593-8.153-4.213-13.456-4.213s-10.076,1.62-13.456,4.213
		c-1.529,1.173-4.081,2.229-5.991,2.481c-4.222,0.557-8.743,2.786-12.491,6.535c-3.75,3.75-5.98,8.271-6.536,12.494
		c-0.252,1.911-1.308,4.46-2.481,5.989C6.934,39.924,5.314,44.697,5.314,50c0,5.303,1.62,10.076,4.213,13.456
		c1.173,1.529,2.229,4.079,2.481,5.989c0.556,4.223,2.786,8.744,6.536,12.494c3.748,3.749,8.269,5.978,12.491,6.535
		c1.911,0.252,4.462,1.308,5.991,2.481c3.38,2.593,8.153,4.213,13.456,4.213s10.076-1.62,13.456-4.213
		c1.529-1.173,4.081-2.229,5.991-2.481c4.222-0.557,8.743-2.786,12.491-6.535c3.75-3.75,5.98-8.271,6.536-12.494
		c0.252-1.911,1.308-4.46,2.481-5.989C94.03,60.076,95.65,55.303,95.65,50c0-5.303-1.62-10.076-4.213-13.456
		C90.264,35.015,89.208,32.466,88.956,30.555z M76.821,62.135c0,0.868-0.704,1.572-1.572,1.572H47.611v7.458
		c0,2.17-1.244,2.686-2.779,1.151L25.294,52.779c-1.535-1.535-1.535-4.023,0-5.558l19.538-19.538
		c1.535-1.535,2.779-1.02,2.779,1.151v7.458h27.638c0.868,0,1.572,0.704,1.572,1.572V62.135z"/>
</g>
</svg>
