<?xml version="1.0" encoding="iso-8859-1"?>
<!-- Generator: Adobe Illustrator 17.1.0, SVG Export Plug-In . SVG Version: 6.00 Build 0)  -->
<!DOCTYPE svg PUBLIC "-//W3C//DTD SVG 1.1//EN" "http://www.w3.org/Graphics/SVG/1.1/DTD/svg11.dtd">
<svg version="1.1" id="Capa_1" xmlns="http://www.w3.org/2000/svg" xmlns:xlink="http://www.w3.org/1999/xlink" x="0px" y="0px"
	 viewBox="0 0 100 100" style="enable-background:new 0 0 100 100;" xml:space="preserve">
<g>
	<path style="fill:#1D1D1B;" d="M79.092,49.785c-1.448-0.859-3.153-1.67-5.094-2.425c7.713-3.816,11.617-9.721,11.617-17.596
		c0-6.702-2.542-12.016-7.555-15.794c-4.885-3.671-11.715-5.533-20.302-5.533c-4.434,0-8.661,0.167-12.567,0.497
		C39.512,9.419,35.08,9.665,32.018,9.665c-2.885,0-5.177-0.118-6.81-0.351l-6.034-0.862l-1.816-0.015
		c-6.232,0-7.163,3.641-7.163,5.811c0,3.457,1.937,5.439,5.314,5.439c0.852,0,2.022-0.128,3.568-0.39
		c0.922-0.15,1.711-0.226,2.346-0.226c1.307,0,4.78,0,4.78,7.737v49.517c0,7.617-3.473,7.617-4.78,7.617
		c-0.568,0-1.361-0.078-2.354-0.232c-1.641-0.259-2.805-0.384-3.561-0.384c-3.377,0-5.314,1.982-5.314,5.438
		c0,2.156,0.878,5.794,6.792,5.936h0.862l0.304-0.031c0.422-0.087,0.563-0.094,0.559-0.094l5.974-0.748
		c1.915-0.238,3.967-0.359,6.1-0.359c2.498,0,6.479,0.206,11.835,0.612c5.425,0.411,9.979,0.62,13.535,0.62
		c10.066,0,18.248-2.364,24.318-7.025c6.192-4.75,9.333-11.221,9.333-19.233C89.806,60.186,86.197,53.906,79.092,49.785z
		 M51.479,43.169h-6.901c-4.423,0-5.198-0.85-5.271-0.947c-0.202-0.266-0.862-1.567-0.862-7.161v-7.638
		c0-3.771,0.732-6.17,2.118-6.937c0.956-0.529,4.141-1.417,14.73-1.417c16.488,0,16.488,8.607,16.488,11.436
		C71.78,39.027,65.14,43.169,51.479,43.169z M38.444,60.066c0-2.559,0.225-3.767,0.414-4.332c0.415-1.242,2.622-1.927,6.215-1.927
		h10.219c13.911,0,20.673,4.706,20.673,14.388c0,10.596-7.044,15.746-21.535,15.746c-10.103,0-13.066-0.995-13.934-1.588
		c-0.767-0.524-2.053-2.34-2.053-8.615V60.066z"/>
</g>
</svg>
