<?xml version="1.0" encoding="iso-8859-1"?>
<!-- Generator: Adobe Illustrator 17.1.0, SVG Export Plug-In . SVG Version: 6.00 Build 0)  -->
<!DOCTYPE svg PUBLIC "-//W3C//DTD SVG 1.1//EN" "http://www.w3.org/Graphics/SVG/1.1/DTD/svg11.dtd">
<svg version="1.1" id="Capa_1" xmlns="http://www.w3.org/2000/svg" xmlns:xlink="http://www.w3.org/1999/xlink" x="0px" y="0px"
	 viewBox="0 0 100 100" style="enable-background:new 0 0 100 100;" xml:space="preserve">
<g>
	<path style="fill:#1D1D1B;" d="M39.049,76.302c0.231-0.026,0.466-0.041,0.704-0.041h20.495c0.238,0,0.472,0.016,0.704,0.041
		c11.484-9.069,19.64-30.392,19.64-43.426C80.591,15.981,66.895,2.285,50,2.285S19.409,15.981,19.409,32.875
		C19.409,45.91,27.565,67.232,39.049,76.302z M50,12.285c11.354,0,20.591,9.237,20.591,20.591c0,6.878-3.155,17.279-7.671,25.293
		C60.444,62.56,57.624,66.089,55,68.255V45.25h1c2.761,0,5-2.239,5-5s-2.239-5-5-5H44c-2.761,0-5,2.239-5,5s2.239,5,5,5h1v23.005
		c-2.624-2.165-5.444-5.695-7.919-10.086c-4.517-8.014-7.671-18.415-7.671-25.293C29.409,21.522,38.646,12.285,50,12.285z"/>
	<path style="fill:#1D1D1B;" d="M60.248,79.26h-4.102H43.855h-4.102c-1.843,0-3.336,1.494-3.336,3.336
		c0,1.584,1.107,2.904,2.587,3.245c0.246-0.029,0.495-0.048,0.75-0.048h20.495c0.254,0,0.503,0.019,0.75,0.048
		c1.48-0.341,2.587-1.661,2.587-3.245C63.584,80.754,62.09,79.26,60.248,79.26z"/>
	<path style="fill:#1D1D1B;" d="M60.997,88.884c-0.242-0.056-0.491-0.092-0.75-0.092H39.752c-0.259,0-0.508,0.036-0.75,0.092
		c-1.48,0.341-2.587,1.661-2.587,3.245c0,1.843,1.494,3.336,3.336,3.336h20.495c1.843,0,3.336-1.494,3.336-3.336
		C63.584,90.545,62.477,89.226,60.997,88.884z"/>
</g>
</svg>
