<?xml version="1.0" encoding="iso-8859-1"?>
<!-- Generator: Adobe Illustrator 17.1.0, SVG Export Plug-In . SVG Version: 6.00 Build 0)  -->
<!DOCTYPE svg PUBLIC "-//W3C//DTD SVG 1.1//EN" "http://www.w3.org/Graphics/SVG/1.1/DTD/svg11.dtd">
<svg version="1.1" id="Capa_1" xmlns="http://www.w3.org/2000/svg" xmlns:xlink="http://www.w3.org/1999/xlink" x="0px" y="0px"
	 viewBox="0 0 100 100" style="enable-background:new 0 0 100 100;" xml:space="preserve">
<g>
	<path style="fill:#1D1D1B;" d="M19.361,32.904h-5.365c-3.704,0-6.706,3.003-6.706,6.707v36.887c0,3.704,3.002,6.707,6.706,6.707
		h5.365c3.704,0,6.707-3.003,6.707-6.707V39.61C26.068,35.906,23.065,32.904,19.361,32.904z"/>
	<path style="fill:#1D1D1B;" d="M89.896,34.834l-1.461-0.73c-1.325-0.663-3.601-1.2-5.082-1.2H58.461
		c-1.481,0-2.279-1.131-1.78-2.526l6.02-16.856c0.498-1.395-0.251-2.882-1.717-3.095c-3.253-0.474-8.832-0.501-12.603,3.749
		c-0.983,1.108-2.128,3.239-2.958,4.467c-3.8,5.617-9.306,10.318-12.309,12.661c-1.168,0.912-2.15,2.802-2.15,4.284v44.935
		c0,1.482,1.2,2.683,2.683,2.683h43.895c1.481,0,3.469-0.908,4.439-2.027l2.299-2.652c0.97-1.12,1.94-3.214,2.167-4.678
		l5.439-35.161C92.112,37.22,91.222,35.496,89.896,34.834z"/>
</g>
</svg>
