<?xml version="1.0" encoding="iso-8859-1"?>
<!-- Generator: Adobe Illustrator 17.1.0, SVG Export Plug-In . SVG Version: 6.00 Build 0)  -->
<!DOCTYPE svg PUBLIC "-//W3C//DTD SVG 1.1//EN" "http://www.w3.org/Graphics/SVG/1.1/DTD/svg11.dtd">
<svg version="1.1" id="Capa_1" xmlns="http://www.w3.org/2000/svg" xmlns:xlink="http://www.w3.org/1999/xlink" x="0px" y="0px"
	 viewBox="0 0 100 100" style="enable-background:new 0 0 100 100;" xml:space="preserve">
<g>
	<path style="fill:#000100;" d="M37.214,76.714c1.279,0,2.56-0.488,3.535-1.464c1.953-1.953,1.953-5.119,0-7.071L13.557,40.986
		l15.857-15.857l27.193,27.192c1.951,1.952,5.119,1.952,7.07,0c1.953-1.953,1.953-5.119,0-7.071L35.406,16.978
		c-1.601-1.6-3.729-2.481-5.992-2.481c-2.264,0-4.392,0.882-5.991,2.482L5.406,34.995c-3.303,3.304-3.303,8.68,0.001,11.983
		L33.679,75.25C34.654,76.226,35.935,76.714,37.214,76.714z"/>
	<path style="fill:#000100;" d="M66.321,24.75c-1.951-1.952-5.119-1.952-7.07,0c-1.953,1.953-1.953,5.119,0,7.071l27.192,27.192
		L70.586,74.871L43.393,47.679c-1.951-1.952-5.119-1.952-7.07,0c-1.953,1.953-1.953,5.119,0,7.071l28.271,28.272
		c1.601,1.6,3.729,2.481,5.992,2.481c2.264,0,4.392-0.882,5.991-2.482l18.017-18.016c3.303-3.304,3.303-8.68-0.001-11.983
		L66.321,24.75z"/>
</g>
</svg>
