<?xml version="1.0" encoding="iso-8859-1"?>
<!-- Generator: Adobe Illustrator 17.1.0, SVG Export Plug-In . SVG Version: 6.00 Build 0)  -->
<!DOCTYPE svg PUBLIC "-//W3C//DTD SVG 1.1//EN" "http://www.w3.org/Graphics/SVG/1.1/DTD/svg11.dtd">
<svg version="1.1" id="Capa_1" xmlns="http://www.w3.org/2000/svg" xmlns:xlink="http://www.w3.org/1999/xlink" x="0px" y="0px"
	 viewBox="0 0 100 100" style="enable-background:new 0 0 100 100;" xml:space="preserve">
<g>
	<path style="fill:#1D1D1B;" d="M86,8.009H15.622c-4.687,0-8.5,3.813-8.5,8.5v70.378c0,4.687,3.813,8.5,8.5,8.5H86
		c4.687,0,8.5-3.813,8.5-8.5V16.509C94.5,11.822,90.687,8.009,86,8.009z M87.5,86.888c0,0.827-0.673,1.5-1.5,1.5H15.622
		c-0.827,0-1.5-0.673-1.5-1.5V26.25H87.5V86.888z"/>
	<path style="fill:#1D1D1B;" d="M40.501,42.81h33.742c2.214,0,4.016-1.802,4.016-4.016s-1.801-4.016-4.016-4.016H40.501
		c-2.214,0-4.016,1.801-4.016,4.016S38.287,42.81,40.501,42.81z"/>
	<path style="fill:#1D1D1B;" d="M40.501,55.832h33.742c2.214,0,4.016-1.802,4.016-4.016c0-2.214-1.801-4.016-4.016-4.016H40.501
		c-2.214,0-4.016,1.801-4.016,4.016C36.485,54.03,38.287,55.832,40.501,55.832z"/>
	<path style="fill:#1D1D1B;" d="M40.501,68.855h33.742c2.214,0,4.016-1.802,4.016-4.016s-1.801-4.016-4.016-4.016H40.501
		c-2.214,0-4.016,1.802-4.016,4.016S38.287,68.855,40.501,68.855z"/>
	<path style="fill:#1D1D1B;" d="M40.501,82.618h33.742c2.214,0,4.016-1.802,4.016-4.016s-1.801-4.016-4.016-4.016H40.501
		c-2.214,0-4.016,1.802-4.016,4.016S38.287,82.618,40.501,82.618z"/>
	<path style="fill:#1D1D1B;" d="M27.379,42.81c2.214,0,4.016-1.802,4.016-4.016s-1.801-4.016-4.016-4.016s-4.016,1.801-4.016,4.016
		S25.165,42.81,27.379,42.81z"/>
	<path style="fill:#1D1D1B;" d="M27.379,55.832c2.214,0,4.016-1.802,4.016-4.016c0-2.214-1.801-4.016-4.016-4.016
		s-4.016,1.801-4.016,4.016C23.363,54.03,25.165,55.832,27.379,55.832z"/>
	<path style="fill:#1D1D1B;" d="M27.379,68.855c2.214,0,4.016-1.802,4.016-4.016s-1.801-4.016-4.016-4.016s-4.016,1.802-4.016,4.016
		S25.165,68.855,27.379,68.855z"/>
	<path style="fill:#1D1D1B;" d="M27.379,82.618c2.214,0,4.016-1.802,4.016-4.016s-1.801-4.016-4.016-4.016s-4.016,1.802-4.016,4.016
		S25.165,82.618,27.379,82.618z"/>
</g>
</svg>
