<?xml version="1.0" encoding="iso-8859-1"?>
<!-- Generator: Adobe Illustrator 17.1.0, SVG Export Plug-In . SVG Version: 6.00 Build 0)  -->
<!DOCTYPE svg PUBLIC "-//W3C//DTD SVG 1.1//EN" "http://www.w3.org/Graphics/SVG/1.1/DTD/svg11.dtd">
<svg version="1.1" id="Capa_1" xmlns="http://www.w3.org/2000/svg" xmlns:xlink="http://www.w3.org/1999/xlink" x="0px" y="0px"
	 viewBox="0 0 100 100" style="enable-background:new 0 0 100 100;" xml:space="preserve">
<g>
	<path d="M74.718,5.122H25.282c-3.156,0-5.854,1.16-8.093,3.479c-2.241,2.319-3.36,5.113-3.36,8.384v3.915h72.341v-3.915
		c0-3.271-1.12-6.065-3.36-8.384C80.57,6.282,77.873,5.122,74.718,5.122z"/>
	<path d="M13.829,67.238c0,3.312,1.119,6.126,3.36,8.443c2.24,2.319,4.938,3.479,8.093,3.479h30.912v15.718L71.387,79.16h3.331
		c3.156,0,5.853-1.16,8.093-3.479c2.24-2.317,3.36-5.131,3.36-8.443v-3.855H13.829V67.238z"/>
	<rect x="13.829" y="25.165" width="72.341" height="14.901"/>
	<rect x="13.829" y="44.332" width="72.341" height="14.901"/>
</g>
</svg>
