<?xml version="1.0" encoding="iso-8859-1"?>
<!-- Generator: Adobe Illustrator 17.1.0, SVG Export Plug-In . SVG Version: 6.00 Build 0)  -->
<!DOCTYPE svg PUBLIC "-//W3C//DTD SVG 1.1//EN" "http://www.w3.org/Graphics/SVG/1.1/DTD/svg11.dtd">
<svg version="1.1" id="Capa_1" xmlns="http://www.w3.org/2000/svg" xmlns:xlink="http://www.w3.org/1999/xlink" x="0px" y="0px"
	 viewBox="0 0 100 100" style="enable-background:new 0 0 100 100;" xml:space="preserve">
<g>
	<path style="fill:#1D1D1B;" d="M30.167,17.421c0-1.105-0.896-2-2-2h-21c-1.104,0-2,0.895-2,2v12.912h25V17.421z"/>
	<path style="fill:#1D1D1B;" d="M69.833,39.667C69.833,50.603,60.936,59.5,50,59.5s-19.833-8.897-19.833-19.833v-5.333h-25v5.333
		C5.167,64.388,25.279,84.5,50,84.5s44.833-20.112,44.833-44.833v-5.333h-25V39.667z"/>
	<path style="fill:#1D1D1B;" d="M92.833,15.421h-21c-1.104,0-2,0.895-2,2v12.912h25V17.421
		C94.833,16.317,93.938,15.421,92.833,15.421z"/>
</g>
</svg>
