<?xml version="1.0" encoding="iso-8859-1"?>
<!-- Generator: Adobe Illustrator 17.1.0, SVG Export Plug-In . SVG Version: 6.00 Build 0)  -->
<!DOCTYPE svg PUBLIC "-//W3C//DTD SVG 1.1//EN" "http://www.w3.org/Graphics/SVG/1.1/DTD/svg11.dtd">
<svg version="1.1" id="Capa_1" xmlns="http://www.w3.org/2000/svg" xmlns:xlink="http://www.w3.org/1999/xlink" x="0px" y="0px"
	 viewBox="0 0 100 100" style="enable-background:new 0 0 100 100;" xml:space="preserve">
<g>
	<path d="M57.876,22.173c2.169-2.17,3.255-4.794,3.255-7.877c0-3.08-1.085-5.705-3.255-7.875c-2.17-2.17-4.795-3.255-7.876-3.255
		s-5.707,1.085-7.876,3.255c-2.17,2.17-3.255,4.794-3.255,7.875c0,3.082,1.085,5.706,3.255,7.877
		c2.169,2.17,4.795,3.255,7.876,3.255S55.706,24.343,57.876,22.173z"/>
	<path d="M65.901,27.018H34.099c-2.65,0-4.903,0.928-6.758,2.783c-1.856,1.856-2.783,4.107-2.783,6.757v24.718
		c0,1.326,0.463,2.451,1.391,3.379c0.927,0.928,2.054,1.39,3.379,1.39c1.324,0,2.451-0.462,3.379-1.39
		c0.927-0.928,1.391-2.054,1.391-3.379V39.739h3.18v49.363c0,1.524,0.546,2.832,1.64,3.925s2.402,1.64,3.926,1.64
		c1.523,0,2.832-0.547,3.925-1.64c1.093-1.093,1.64-2.401,1.64-3.925V66.045h3.18v23.057c0,1.524,0.547,2.832,1.64,3.925
		c1.093,1.093,2.401,1.64,3.925,1.64c1.523,0,2.832-0.547,3.926-1.64s1.64-2.401,1.64-3.925V39.739h3.18v21.537
		c0,1.326,0.463,2.451,1.391,3.379c0.927,0.928,2.053,1.39,3.379,1.39c1.325,0,2.451-0.462,3.379-1.39
		c0.927-0.928,1.391-2.054,1.391-3.379V36.558c0-2.649-0.928-4.901-2.783-6.757C70.803,27.946,68.55,27.018,65.901,27.018z"/>
</g>
</svg>
