<?xml version="1.0" encoding="iso-8859-1"?>
<!-- Generator: Adobe Illustrator 17.1.0, SVG Export Plug-In . SVG Version: 6.00 Build 0)  -->
<!DOCTYPE svg PUBLIC "-//W3C//DTD SVG 1.1//EN" "http://www.w3.org/Graphics/SVG/1.1/DTD/svg11.dtd">
<svg version="1.1" id="Capa_1" xmlns="http://www.w3.org/2000/svg" xmlns:xlink="http://www.w3.org/1999/xlink" x="0px" y="0px"
	 viewBox="0 0 100 100" style="enable-background:new 0 0 100 100;" xml:space="preserve">
<g>
	<path style="fill:#1D1D1B;" d="M18.083,96.277h63.835c3.39,0,6.138-2.748,6.138-6.138V48.722c0-3.39-2.748-6.138-6.138-6.138
		h-9.169v12.209c3.612,1.079,6.253,4.427,6.253,8.385v6.67h-5v-6.67c0-2.07-1.684-3.753-3.753-3.753s-3.753,1.684-3.753,3.753v6.67
		h-5v-6.67c0-3.958,2.642-7.306,6.253-8.385V42.886C63.187,47.408,56.915,50.206,50,50.206c-6.661,0-12.723-2.6-17.237-6.833v13.33
		c3.259,1.057,5.623,4.119,5.623,7.725c0,4.479-3.644,8.123-8.123,8.123s-8.123-3.644-8.123-8.123c0-3.607,2.364-6.668,5.623-7.725
		V42.584h-9.681c-3.39,0-6.138,2.748-6.138,6.138v41.417C11.945,93.529,14.693,96.277,18.083,96.277z"/>
	<path style="fill:#1D1D1B;" d="M34.692,41.084c0.556,0.529,1.139,1.03,1.748,1.5c3.753,2.895,8.453,4.622,13.56,4.622
		s9.807-1.726,13.56-4.622c0.609-0.47,1.192-0.971,1.748-1.5c0.502-0.478,0.982-0.978,1.438-1.5
		c3.409-3.906,5.479-9.011,5.479-14.603c0-12.274-9.95-22.224-22.224-22.224s-22.224,9.95-22.224,22.224
		c0,5.592,2.07,10.697,5.479,14.603C33.71,40.107,34.189,40.607,34.692,41.084z"/>
	<path style="fill:#1D1D1B;" d="M27.14,64.429c0,1.722,1.401,3.123,3.123,3.123s3.123-1.401,3.123-3.123
		c0-0.96-0.444-1.809-1.128-2.382c-0.543-0.455-1.233-0.741-1.995-0.741s-1.453,0.285-1.995,0.741
		C27.584,62.62,27.14,63.469,27.14,64.429z"/>
</g>
</svg>
