<?xml version="1.0" encoding="iso-8859-1"?>
<!-- Generator: Adobe Illustrator 17.1.0, SVG Export Plug-In . SVG Version: 6.00 Build 0)  -->
<!DOCTYPE svg PUBLIC "-//W3C//DTD SVG 1.1//EN" "http://www.w3.org/Graphics/SVG/1.1/DTD/svg11.dtd">
<svg version="1.1" id="Capa_1" xmlns="http://www.w3.org/2000/svg" xmlns:xlink="http://www.w3.org/1999/xlink" x="0px" y="0px"
	 viewBox="0 0 100 100" style="enable-background:new 0 0 100 100;" xml:space="preserve">
<g>
	<path style="fill:#000100;" d="M89.5,38.258h-8.333c-1.104,0-2,0.895-2,2v16.333c0,1.105,0.896,2,2,2H89.5c2.761,0,5-2.239,5-5
		V43.258C94.5,40.497,92.261,38.258,89.5,38.258z"/>
	<path style="fill:#000100;" d="M73.167,38.219c-8.991-0.275-45.907-2.487-61.436-20.317c0,0-7.231,5.123-7.231,30.5
		c0,25.376,7.231,30.5,7.231,30.5c10.513-12.07,30.819-16.979,45.636-18.979C56.668,66.893,54.739,80.89,51.5,84
		c-4.167,4,8.766,6.167,13.55-2.5c3.823-6.926,5.76-17.909,6.384-22.849c0.651-0.029,1.241-0.051,1.733-0.066
		c1.104-0.034,2-0.934,2-2.039v-8.144v-8.144C75.167,39.154,74.271,38.253,73.167,38.219z"/>
</g>
</svg>
