<?xml version="1.0" encoding="iso-8859-1"?>
<!-- Generator: Adobe Illustrator 17.1.0, SVG Export Plug-In . SVG Version: 6.00 Build 0)  -->
<!DOCTYPE svg PUBLIC "-//W3C//DTD SVG 1.1//EN" "http://www.w3.org/Graphics/SVG/1.1/DTD/svg11.dtd">
<svg version="1.1" id="Capa_1" xmlns="http://www.w3.org/2000/svg" xmlns:xlink="http://www.w3.org/1999/xlink" x="0px" y="0px"
	 viewBox="0 0 100 100" style="enable-background:new 0 0 100 100;" xml:space="preserve">
<g>
	<path style="fill:#1D1D1B;" d="M77.742,39.74c-0.927,0-1.728,0.338-2.405,1.014c-0.677,0.678-1.015,1.48-1.015,2.405V50
		c0,6.592-2.343,12.23-7.027,16.914c-4.685,4.684-10.323,7.026-16.913,7.026c-6.591,0-12.229-2.342-16.913-7.026
		C28.784,62.23,26.442,56.592,26.442,50v-6.84c0-0.925-0.339-1.726-1.015-2.405c-0.677-0.676-1.479-1.014-2.405-1.014
		c-0.927,0-1.729,0.338-2.405,1.014c-0.677,0.678-1.015,1.48-1.015,2.405V50c0,7.874,2.626,14.722,7.882,20.546
		c5.254,5.826,11.747,9.166,19.478,10.019v7.055h-13.68c-0.927,0-1.729,0.336-2.405,1.014c-0.677,0.676-1.015,1.478-1.015,2.405
		c0,0.925,0.338,1.726,1.015,2.405c0.676,0.676,1.478,1.014,2.405,1.014h34.2c0.926,0,1.728-0.338,2.405-1.014
		c0.676-0.678,1.015-1.48,1.015-2.405c0-0.927-0.339-1.728-1.015-2.405c-0.677-0.678-1.479-1.014-2.405-1.014h-13.68v-7.055
		c7.73-0.854,14.222-4.194,19.478-10.019c5.254-5.824,7.882-12.672,7.882-20.546v-6.84c0-0.925-0.339-1.726-1.015-2.405
		C79.469,40.079,78.668,39.74,77.742,39.74z"/>
	<path style="fill:#1D1D1B;" d="M42.322,38.833h-9.04v6.272h9.04c1.381,0,2.5,1.119,2.5,2.5s-1.119,2.5-2.5,2.5h-9.035
		c0.025,4.657,1.695,8.649,5.018,11.972c3.348,3.35,7.375,5.022,12.077,5.022c4.702,0,8.728-1.672,12.077-5.022
		c3.322-3.323,4.993-7.315,5.018-11.972h-8.72c-1.381,0-2.5-1.119-2.5-2.5s1.119-2.5,2.5-2.5h8.725v-6.272h-8.725
		c-1.381,0-2.5-1.119-2.5-2.5s1.119-2.5,2.5-2.5h8.725v-6.666h-8.725c-1.381,0-2.5-1.119-2.5-2.5s1.119-2.5,2.5-2.5h8.704
		c-0.11-4.497-1.768-8.368-5.001-11.604c-3.349-3.348-7.375-5.022-12.077-5.022c-4.703,0-8.729,1.674-12.077,5.022
		c-3.234,3.236-4.891,7.107-5.001,11.604h9.019c1.381,0,2.5,1.119,2.5,2.5s-1.119,2.5-2.5,2.5h-9.04v6.666h9.04
		c1.381,0,2.5,1.119,2.5,2.5S43.703,38.833,42.322,38.833z"/>
</g>
</svg>
