<?xml version="1.0" encoding="iso-8859-1"?>
<!-- Generator: Adobe Illustrator 17.1.0, SVG Export Plug-In . SVG Version: 6.00 Build 0)  -->
<!DOCTYPE svg PUBLIC "-//W3C//DTD SVG 1.1//EN" "http://www.w3.org/Graphics/SVG/1.1/DTD/svg11.dtd">
<svg version="1.1" id="Layer_1" xmlns="http://www.w3.org/2000/svg" xmlns:xlink="http://www.w3.org/1999/xlink" x="0px" y="0px"
	 viewBox="0 0 64 64" style="enable-background:new 0 0 64 64;" xml:space="preserve">
<g>
	<path d="M18.535,17h-1.521C16.174,17,16,18.089,16,19.433v29.202C16,49.979,16.174,51,17.014,51h1.521
		C18.955,51,19,50.524,19,49.852V18.217C19,17.545,18.955,17,18.535,17z"/>
	<path d="M9.34,51h1.521C11.281,51,11,50.524,11,49.852V18.217C11,17.545,11.281,17,10.861,17H9.34C8.5,17,8,18.089,8,19.433v29.202
		C8,49.979,8.5,51,9.34,51z"/>
	<path d="M14.861,17H13.34C12.5,17,12,18.089,12,19.433v29.202C12,49.979,12.5,51,13.34,51h1.521C15.281,51,15,50.524,15,49.852
		V18.217C15,17.545,15.281,17,14.861,17z"/>
	<path d="M50.165,29.291C50.735,29.107,51,28.605,51,28.006v-8.572C51,18.089,50.773,17,49.429,17H21.444
		C20.772,17,20,17.545,20,18.217v31.635C20,50.524,20.772,51,21.444,51h27.985C50.773,51,51,49.979,51,48.635v-9.841
		c0-0.599-0.265-1.102-0.835-1.285c-1.741-0.56-3.003-2.181-3.003-4.109C47.162,31.472,48.424,29.851,50.165,29.291z M41,26.907
		v2.958c0,0,0,7.714,0,7.747c0,1.527-0.991,2.457-2.605,2.745c-1.691,0.301-3.187-0.535-3.424-1.868
		c-0.237-1.333,0.989-2.658,2.68-2.959C38.48,35.383,39,35.51,40,35.833v-4.608c0-0.552-0.432-0.883-0.966-0.74l-6.069,1.636
		C32.432,32.265,32,32.829,32,33.382v6.265l-0.016,0.212c-0.065,1.72-0.9,2.345-2.515,2.632c-1.691,0.301-3.235-0.535-3.473-1.868
		c-0.237-1.333,0.98-2.658,2.671-2.959C29.498,37.517,30,37.644,31,37.968v-5.226v-3.7v-0.365c0.031-0.301,0.433-0.478,0.968-0.616
		l8.064-2.088C40.567,25.833,41,25.987,41,26.314S41,26.907,41,26.907z"/>
</g>
</svg>
