<?xml version="1.0" encoding="iso-8859-1"?>
<!-- Generator: Adobe Illustrator 17.1.0, SVG Export Plug-In . SVG Version: 6.00 Build 0)  -->
<!DOCTYPE svg PUBLIC "-//W3C//DTD SVG 1.1//EN" "http://www.w3.org/Graphics/SVG/1.1/DTD/svg11.dtd">
<svg version="1.1" id="Layer_1" xmlns="http://www.w3.org/2000/svg" xmlns:xlink="http://www.w3.org/1999/xlink" x="0px" y="0px"
	 viewBox="0 0 64 64" style="enable-background:new 0 0 64 64;" xml:space="preserve">
<g>
	<path d="M49.182,26.819C49.87,26.598,50,25.992,50,25.27V14.934C50,13.314,50.104,12,48.483,12H14.741
		C13.931,12,13,12.657,13,13.467v38.144C13,52.421,13.931,53,14.741,53h33.742C50.104,53,50,51.764,50,50.144V38.278
		c0-0.722-0.13-1.328-0.818-1.549c-2.1-0.675-3.621-2.63-3.621-4.955S47.083,27.494,49.182,26.819z M38,23.945v3.567
		c0,0,0,9.301,0,9.341c0,1.842-1.049,2.962-2.996,3.309c-2.039,0.363-3.696-0.645-3.983-2.252c-0.286-1.607,1.164-3.205,3.203-3.568
		c1-0.178,1.775-0.025,2.775,0.365v-5.556c0-0.666-0.581-1.065-1.224-0.892l-7.377,1.973C27.756,30.406,27,31.086,27,31.752
		l0.208,7.498l-0.009,0.312c-0.078,2.074-0.867,2.827-2.814,3.174c-2.039,0.363-3.934-0.645-4.22-2.252s1.116-3.205,3.155-3.568
		c1-0.178,1.68-0.025,2.68,0.365V30.98v-4.461v-0.441c0-0.363,0.574-0.576,1.219-0.743l9.774-2.518
		C37.638,22.651,38,22.835,38,23.23C38,23.625,38,23.945,38,23.945z"/>
</g>
</svg>
