<?xml version="1.0" encoding="iso-8859-1"?>
<!-- Generator: Adobe Illustrator 17.1.0, SVG Export Plug-In . SVG Version: 6.00 Build 0)  -->
<!DOCTYPE svg PUBLIC "-//W3C//DTD SVG 1.1//EN" "http://www.w3.org/Graphics/SVG/1.1/DTD/svg11.dtd">
<svg version="1.1" id="Capa_1" xmlns="http://www.w3.org/2000/svg" xmlns:xlink="http://www.w3.org/1999/xlink" x="0px" y="0px"
	 viewBox="0 0 100 100" style="enable-background:new 0 0 100 100;" xml:space="preserve">
<g>
	<path d="M23.794,94.105c0.349,0.286,0.714,0.427,1.095,0.427c0.412,0,0.777-0.141,1.094-0.427l15.183-15.182
		c0.317-0.381,0.476-0.762,0.476-1.143c0-0.443-0.143-0.809-0.428-1.095c-0.286-0.284-0.651-0.428-1.095-0.428h-3.138V10.766
		c0-0.443-0.143-0.809-0.428-1.093c-0.286-0.286-0.651-0.429-1.094-0.429H15.32c-0.445,0-0.809,0.143-1.095,0.429
		c-0.286,0.284-0.428,0.651-0.428,1.093v65.491H9.658c-0.698,0-1.174,0.318-1.427,0.952c-0.254,0.604-0.143,1.158,0.333,1.666
		L23.794,94.105z"/>
	<path d="M50.78,76.126h12.184c0.444,0,0.809-0.143,1.095-0.429c0.285-0.284,0.428-0.651,0.428-1.093v-9.14
		c0-0.444-0.143-0.809-0.428-1.093c-0.286-0.286-0.651-0.43-1.095-0.43H50.78c-0.445,0-0.809,0.143-1.094,0.43
		c-0.286,0.284-0.428,0.649-0.428,1.093v9.14c0,0.443,0.143,0.809,0.428,1.093C49.971,75.982,50.336,76.126,50.78,76.126z"/>
	<path d="M50.78,58.758h21.322c0.444,0,0.809-0.143,1.095-0.429c0.286-0.284,0.428-0.651,0.428-1.095v-9.138
		c0-0.444-0.143-0.809-0.428-1.095c-0.286-0.284-0.651-0.428-1.095-0.428H50.78c-0.445,0-0.809,0.143-1.094,0.428
		c-0.286,0.286-0.428,0.651-0.428,1.095v9.138c0,0.444,0.143,0.811,0.428,1.095C49.971,58.614,50.336,58.758,50.78,58.758z"/>
	<path d="M50.78,41.388h30.46c0.444,0,0.809-0.141,1.095-0.428c0.285-0.286,0.428-0.651,0.428-1.095v-9.138
		c0-0.444-0.143-0.809-0.428-1.095c-0.286-0.284-0.651-0.428-1.095-0.428H50.78c-0.445,0-0.809,0.143-1.094,0.428
		c-0.286,0.286-0.428,0.651-0.428,1.095v9.138c0,0.444,0.143,0.809,0.428,1.095C49.971,41.246,50.336,41.388,50.78,41.388z"/>
	<path d="M50.78,24.02h39.599c0.444,0,0.809-0.143,1.095-0.428c0.286-0.286,0.428-0.651,0.428-1.095v-9.138
		c0-0.444-0.143-0.809-0.428-1.095s-0.651-0.427-1.095-0.427H50.78c-0.445,0-0.809,0.141-1.094,0.427
		c-0.286,0.286-0.428,0.651-0.428,1.095v9.138c0,0.444,0.143,0.809,0.428,1.095C49.971,23.877,50.336,24.02,50.78,24.02z"/>
</g>
</svg>
