<?xml version="1.0" encoding="iso-8859-1"?>
<!-- Generator: Adobe Illustrator 17.1.0, SVG Export Plug-In . SVG Version: 6.00 Build 0)  -->
<!DOCTYPE svg PUBLIC "-//W3C//DTD SVG 1.1//EN" "http://www.w3.org/Graphics/SVG/1.1/DTD/svg11.dtd">
<svg version="1.1" id="Capa_1" xmlns="http://www.w3.org/2000/svg" xmlns:xlink="http://www.w3.org/1999/xlink" x="0px" y="0px"
	 viewBox="0 0 100 100" style="enable-background:new 0 0 100 100;" xml:space="preserve">
<g>
	<path style="fill:#1D1D1B;" d="M72.349,45.884c1.389,1.389,2.935,0.979,3.453-0.916l6.495-23.757
		c0.518-1.895-0.598-3.011-2.492-2.493l-23.757,6.495c-1.895,0.518-2.305,2.064-0.916,3.453L72.349,45.884z"/>
	<path style="fill:#1D1D1B;" d="M20.195,83.314l23.757-6.495c1.895-0.518,2.305-2.064,0.916-3.453L27.651,56.149
		c-1.389-1.389-2.935-0.979-3.453,0.916l-6.495,23.757C17.184,82.716,18.3,83.832,20.195,83.314z"/>
	<path style="fill:#1D1D1B;" d="M75.802,57.065c-0.518-1.895-2.064-2.305-3.453-0.916L55.133,73.366
		c-1.389,1.389-0.979,2.935,0.916,3.453l23.757,6.495c1.895,0.518,3.01-0.598,2.492-2.493L75.802,57.065z"/>
	<path style="fill:#1D1D1B;" d="M24.198,44.968c0.518,1.895,2.064,2.305,3.453,0.916l17.217-17.217
		c1.389-1.389,0.979-2.935-0.916-3.453l-23.757-6.495c-1.895-0.518-3.01,0.598-2.492,2.493L24.198,44.968z"/>
	<circle style="fill:#1D1D1B;" cx="50" cy="51.016" r="12.374"/>
</g>
</svg>
