<?xml version="1.0" encoding="iso-8859-1"?>
<!-- Generator: Adobe Illustrator 17.1.0, SVG Export Plug-In . SVG Version: 6.00 Build 0)  -->
<!DOCTYPE svg PUBLIC "-//W3C//DTD SVG 1.1//EN" "http://www.w3.org/Graphics/SVG/1.1/DTD/svg11.dtd">
<svg version="1.1" id="Capa_1" xmlns="http://www.w3.org/2000/svg" xmlns:xlink="http://www.w3.org/1999/xlink" x="0px" y="0px"
	 viewBox="0 0 100 100" style="enable-background:new 0 0 100 100;" xml:space="preserve">
<g>
	<path style="fill:#1D1D1B;" d="M14.536,82.361c6.109,6.109,16.049,6.109,22.158,0l17.094-17.094l12.183-12.183l3.195-3.195
		c4.347-4.347,4.347-11.42,0-15.767l-2.363-2.363c-4.347-4.347-11.42-4.347-15.767,0l-22.45,22.45c-1.953,1.953-1.953,5.119,0,7.071
		c1.952,1.952,5.119,1.952,7.071,0l22.45-22.45c0.448-0.448,1.177-0.448,1.625,0l2.363,2.363c0.448,0.448,0.448,1.177,0,1.625
		L58.9,46.013L46.717,58.196L29.623,75.29c-2.21,2.21-5.806,2.21-8.016,0l-5.326-5.326c-2.21-2.21-2.21-5.806,0-8.016l3.484-3.484
		l29.329-29.329l10.37-10.37c4.131-4.131,10.853-4.131,14.984,0l7.786,7.786c4.131,4.131,4.131,10.853,0,14.984l-36.87,36.87
		c-1.953,1.953-1.953,5.119,0,7.071c1.952,1.952,5.119,1.952,7.071,0l36.87-36.87c8.03-8.03,8.03-21.096,0-29.126l-7.786-7.786
		c-8.03-8.03-21.096-8.03-29.126,0l-10.37,10.37L12.695,51.393l-3.484,3.484c-6.109,6.109-6.109,16.049,0,22.158L14.536,82.361z"/>
</g>
</svg>
