<?xml version="1.0" encoding="utf-8"?>
<!-- Generator: Adobe Illustrator 16.0.4, SVG Export Plug-In . SVG Version: 6.00 Build 0)  -->
<!DOCTYPE svg PUBLIC "-//W3C//DTD SVG 1.1//EN" "http://www.w3.org/Graphics/SVG/1.1/DTD/svg11.dtd">
<svg version="1.1" id="Layer_1" xmlns="http://www.w3.org/2000/svg" xmlns:xlink="http://www.w3.org/1999/xlink" x="0px" y="0px"
	 width="841.889px" height="595.281px" viewBox="0 0 841.889 595.281" enable-background="new 0 0 841.889 595.281"
	 xml:space="preserve">
<path d="M574.22,424.38c-1.023,62.699-34.434,85.385-69.899,83.283c-35.465-2.093-60.132-18.537-85.32-18.537l-1.032,0.576
	c-25.188,0-49.854,17.021-85.32,19.114s-68.876-19.449-69.898-82.148c2.056-57.565,45.911-61.798,83.265-129.8
	c32.89-59.881,71.954-55.035,71.954-55.035H419c0,0,39.4-4.586,71.955,55.035C528.132,364.963,572.164,366.814,574.22,424.38z
	 M354.637,216c31.413-2.382,54.172-40.021,50.832-84.071c-3.34-44.049-31.514-77.828-62.927-75.446s-54.172,40.022-50.832,84.071
	C295.05,184.603,323.223,218.382,354.637,216z M473.698,216.765c30.698,8.368,65.097-19.742,76.83-62.786
	s-3.641-84.722-34.339-93.09s-65.096,19.742-76.829,62.786S443,208.397,473.698,216.765z M615.92,182.301
	c-26.733-7.288-56.688,17.19-66.905,54.674s3.171,73.777,29.903,81.064c26.733,7.287,56.688-17.191,66.906-54.675
	C656.042,225.882,642.654,189.588,615.92,182.301z M300.442,236.972c-10.218-37.482-40.172-61.961-66.905-54.674
	s-40.122,43.581-29.904,81.064c10.218,37.482,40.173,61.961,66.906,54.674C297.271,310.75,310.659,274.456,300.442,236.972z"/>
</svg>
