<?xml version="1.0" encoding="iso-8859-1"?>
<!-- Generator: Adobe Illustrator 17.1.0, SVG Export Plug-In . SVG Version: 6.00 Build 0)  -->
<!DOCTYPE svg PUBLIC "-//W3C//DTD SVG 1.1//EN" "http://www.w3.org/Graphics/SVG/1.1/DTD/svg11.dtd">
<svg version="1.1" id="Capa_1" xmlns="http://www.w3.org/2000/svg" xmlns:xlink="http://www.w3.org/1999/xlink" x="0px" y="0px"
	 viewBox="0 0 100 100" style="enable-background:new 0 0 100 100;" xml:space="preserve">
<g>
	<path style="fill:#1D1D1B;" d="M81,11.5h-2.971c-0.1-2.868-2.44-5.167-5.333-5.167c-2.892,0-5.232,2.299-5.332,5.167H19
		c-4.28,0-7.75,3.47-7.75,7.75v62c0,4.28,3.47,7.75,7.75,7.75h62c4.28,0,7.75-3.47,7.75-7.75v-62C88.75,14.97,85.28,11.5,81,11.5z
		 M19.738,23.679c0-2.038,1.652-3.69,3.69-3.69h11.81c2.038,0,3.69,1.652,3.69,3.69c0,2.038-1.652,3.69-3.69,3.69h-11.81
		C21.391,27.369,19.738,25.717,19.738,23.679z M50,79.774c-12.637,0-22.881-10.244-22.881-22.881
		c0-12.637,10.244-22.881,22.881-22.881s22.881,10.244,22.881,22.881C72.881,69.53,62.637,79.774,50,79.774z"/>
	<circle style="fill:#1D1D1B;" cx="50" cy="56.893" r="13.286"/>
</g>
</svg>
