<?xml version="1.0" encoding="iso-8859-1"?>
<!-- Generator: Adobe Illustrator 17.1.0, SVG Export Plug-In . SVG Version: 6.00 Build 0)  -->
<!DOCTYPE svg PUBLIC "-//W3C//DTD SVG 1.1//EN" "http://www.w3.org/Graphics/SVG/1.1/DTD/svg11.dtd">
<svg version="1.1" id="Capa_1" xmlns="http://www.w3.org/2000/svg" xmlns:xlink="http://www.w3.org/1999/xlink" x="0px" y="0px"
	 viewBox="0 0 100 100" style="enable-background:new 0 0 100 100;" xml:space="preserve">
<g>
	<path style="fill:#1D1D1B;" d="M89.621,26.977H66.289c0.021-0.155,0.044-0.311,0.044-0.469l-1.254-5.016
		c0-3.463-4.061-6.27-7.523-6.27H42.194c-3.463,0-7.523,2.807-7.523,6.27l-1.254,5.016c0,0.158,0.022,0.314,0.044,0.469h-2.578
		C30.41,24.707,28.399,23,25.988,23h-6c-2.41,0-4.421,1.707-4.894,3.977h-4.966C7.296,26.977,5,29.273,5,32.106v40.516
		c0,2.832,2.296,5.129,5.129,5.129h79.492c2.833,0,5.129-2.296,5.129-5.129V32.106C94.75,29.273,92.454,26.977,89.621,26.977z
		 M49.875,71.25c-10.431,0-18.887-8.456-18.887-18.886c0-10.431,8.456-18.886,18.887-18.886s18.887,8.456,18.887,18.886
		C68.762,62.794,60.306,71.25,49.875,71.25z"/>
	<circle style="fill:#1D1D1B;" cx="49.875" cy="52.364" r="13.886"/>
</g>
</svg>
