<?xml version="1.0" encoding="iso-8859-1"?>
<!-- Generator: Adobe Illustrator 17.1.0, SVG Export Plug-In . SVG Version: 6.00 Build 0)  -->
<!DOCTYPE svg PUBLIC "-//W3C//DTD SVG 1.1//EN" "http://www.w3.org/Graphics/SVG/1.1/DTD/svg11.dtd">
<svg version="1.1" id="Layer_1" xmlns="http://www.w3.org/2000/svg" xmlns:xlink="http://www.w3.org/1999/xlink" x="0px" y="0px"
	 viewBox="0 0 64 64" style="enable-background:new 0 0 64 64;" xml:space="preserve">
<g>
	<polygon points="6,22.042 6,22.042 6,22.041 	"/>
	<path d="M56.99,21.348l-0.149-0.159c-0.083-0.089-0.235-0.196-0.487-0.196L48.284,21c-0.233,0-0.777-0.638-0.963-1.227l-1.74-4.956
		c-0.259-0.825-1.097-0.825-1.412-0.825L25.216,14l-0.386-0.003c-0.4,0-1.337,0-1.589,0.87l-1.523,5.344
		C21.603,20.609,21.142,21,20.787,21L8.084,20.998c-0.779,0-2.083,0-2.084,1.043c0.001-0.595,1.523-0.054,2.573-0.043L20.787,22
		c0.612,0,1.243-0.696,1.411-1.275l1.523-5.471c0.163-0.563,0.842-0.273,1.442-0.257L43.67,15H25.216c-0.017,0-0.035,0-0.052,0
		c-0.599,0-1.279-0.307-1.442,0.255l-1.523,5.471c-0.167,0.577-0.796,1.269-1.405,1.274c0.895-0.004,1.675-0.785,1.885-1.512
		l1.523-5.342l-1.523,5.343C22.468,21.216,21.685,22,20.787,22l0,0c0.002,0,0.004,0,0.006,0c-0.002,0-0.004,0-0.006,0v0l0,0v0H8.607
		c-0.011,0-0.023,0-0.034,0C7.523,22,6.001,21.447,6,22.042c0,0,0-0.001,0,0v30.037v0C6,54.493,7.418,55,8.607,55c0,0,0,0,0,0h0
		h47.174c0.301,0,0.566-0.109,0.769-0.317c0.499-0.512,0.474-1.497,0.455-2.217C57.001,52.323,57,52.194,57,52.079V21.661
		L56.99,21.348z M56.005,52.491C56.01,52.7,56.019,53.021,56,53.315C56.019,53.021,56.01,52.7,56.005,52.491
		C56.001,52.336,56,52.197,56,52.08c0,0,0-0.001,0-0.002v-0.01c0,0.003,0,0.009,0,0.012C55.998,52.197,56.001,52.336,56.005,52.491z
		 M48.284,22L48.284,22C48.284,22,48.283,22,48.284,22C48.284,22,48.284,22,48.284,22z M34.75,24.5C40.963,24.5,46,29.537,46,35.75
		S40.963,47,34.75,47S23.5,41.963,23.5,35.75S28.537,24.5,34.75,24.5z"/>
</g>
</svg>
