<?xml version="1.0" encoding="iso-8859-1"?>
<!-- Generator: Adobe Illustrator 17.1.0, SVG Export Plug-In . SVG Version: 6.00 Build 0)  -->
<!DOCTYPE svg PUBLIC "-//W3C//DTD SVG 1.1//EN" "http://www.w3.org/Graphics/SVG/1.1/DTD/svg11.dtd">
<svg version="1.1" id="Capa_1" xmlns="http://www.w3.org/2000/svg" xmlns:xlink="http://www.w3.org/1999/xlink" x="0px" y="0px"
	 viewBox="0 0 100 100" style="enable-background:new 0 0 100 100;" xml:space="preserve">
<g>
	<path style="fill:#000100;" d="M2.25,20.157v59.687V97.75l28.732,0h0.552c-0.705-6.384-0.56-11.647,0.435-15.793l6.093-25.739
		c-0.995-2.03-1.492-4.539-1.492-7.524c0-3.439,0.88-6.33,2.642-8.673c1.761-2.341,3.906-3.512,6.435-3.512
		c2.031,0,3.595,0.674,4.694,2.021c1.098,1.347,1.647,3.036,1.647,5.067c0,1.285-0.228,2.829-0.684,4.632
		c-0.457,1.803-1.068,3.917-1.834,6.343c-0.767,2.425-1.316,4.342-1.647,5.751c-0.581,2.487-0.104,4.632,1.43,6.435
		c1.533,1.803,3.544,2.704,6.031,2.704c4.393,0,7.99-2.444,10.787-7.336c2.798-4.891,4.197-10.819,4.197-17.783
		c0-5.346-1.731-9.698-5.191-13.056c-3.462-3.357-8.28-5.036-14.456-5.036c-6.923,0-12.528,2.208-16.818,6.622
		c-4.29,4.414-6.435,9.73-6.435,15.947c0,3.648,1.036,6.757,3.109,9.326c0.705,0.788,0.933,1.658,0.684,2.611
		c-0.208,0.706-0.519,1.97-0.933,3.792c-0.166,0.582-0.466,0.975-0.902,1.182c-0.435,0.208-0.923,0.208-1.461,0
		c-3.192-1.326-5.606-3.605-7.243-6.839c-1.638-3.233-2.456-6.963-2.456-11.191c0-2.736,0.445-5.48,1.337-8.238
		c0.891-2.755,2.269-5.409,4.134-7.958c1.865-2.55,4.093-4.819,6.684-6.809c2.59-1.989,5.761-3.575,9.513-4.757
		c3.751-1.18,7.781-1.772,12.093-1.772c4.393,0,8.476,0.757,12.249,2.27c3.771,1.513,6.932,3.524,9.481,6.03
		c2.549,2.509,4.549,5.389,6,8.643c1.451,3.254,2.176,6.621,2.176,10.103c0,9.369-2.373,17.109-7.119,23.222
		c-4.747,6.115-10.871,9.171-18.373,9.171c-2.487,0-4.818-0.579-6.995-1.74c-2.176-1.16-3.699-2.549-4.57-4.166
		c-1.824,7.254-2.922,11.586-3.295,12.995c-0.954,3.648-3.192,7.999-6.715,13.057h0.5l0,0H97.75V79.844V20.157V2.25H2.25V20.157z"/>
</g>
</svg>
