<?xml version="1.0" encoding="iso-8859-1"?>
<!-- Generator: Adobe Illustrator 17.1.0, SVG Export Plug-In . SVG Version: 6.00 Build 0)  -->
<!DOCTYPE svg PUBLIC "-//W3C//DTD SVG 1.1//EN" "http://www.w3.org/Graphics/SVG/1.1/DTD/svg11.dtd">
<svg version="1.1" id="Layer_1" xmlns="http://www.w3.org/2000/svg" xmlns:xlink="http://www.w3.org/1999/xlink" x="0px" y="0px"
	 viewBox="0 0 64 64" style="enable-background:new 0 0 64 64;" xml:space="preserve">
<g>
	<path d="M18.801,35.91c-0.5,0.259-1.055,0.42-1.648,0.42c-1.995,0-3.661-1.666-3.661-3.662c0-1.298,0.71-2.447,1.752-3.098
		c-0.415-1.198-0.705-2.456-0.824-3.833c-0.118-1.367-0.069-2.73,0.126-4.068c-3.217,0.763-6.048,2.876-7.618,5.849
		c-1.027,1.947-1.473,4.176-1.284,6.37c0.238,2.765,1.501,4.834,3.12,6.993c3.561,4.748,5.749,10.381,7.855,15.903
		c0.302,0.792,0.792,0.79,1.094-0.001c1.701-4.453,3.469-8.95,5.942-13.029c-1.345-2.625-2.859-5.172-4.618-7.518
		C18.955,36.126,18.881,36.019,18.801,35.91z"/>
	<path d="M49.441,21.623c0.278,1.876,0.267,3.798-0.063,5.668c-0.141,0.799-0.348,1.539-0.589,2.249
		c1.07,0.645,1.806,1.808,1.806,3.128c0,1.996-1.666,3.662-3.663,3.662c-0.611,0-1.183-0.171-1.694-0.445
		c-0.168,0.234-0.336,0.467-0.506,0.703l-0.044,0.06c-1.614,2.228-3.009,4.61-4.262,7.048c2.496,4.086,4.267,8.619,5.972,13.088
		c0.302,0.792,0.792,0.79,1.094-0.001c2.063-5.401,4.206-10.876,7.613-15.578c1.446-1.996,2.762-3.799,3.204-6.299
		c0.412-2.335,0.091-4.778-0.92-6.923C55.863,24.744,52.871,22.404,49.441,21.623z"/>
	<path d="M43.783,34.485c1.254-1.755,2.369-3.467,3.072-5.47c0.23-0.656,0.424-1.338,0.554-2.071
		c0.326-1.85,0.304-3.749-0.038-5.589c-0.242-1.305-0.64-2.582-1.208-3.787C43.603,12.138,38.005,8.569,32,8.569
		c-5.757,0-11.161,3.279-13.847,8.368c-0.735,1.394-1.243,2.895-1.528,4.438c-0.254,1.377-0.332,2.788-0.211,4.189
		c0.107,1.24,0.378,2.371,0.756,3.443c0.699,1.981,1.8,3.748,3.106,5.53c0.122,0.166,0.239,0.331,0.363,0.498
		c1.61,2.147,3,4.436,4.26,6.8c2.515,4.716,4.478,9.757,6.378,14.738c0.204,0.536,0.472,0.803,0.74,0.803
		c0.268,0,0.537-0.268,0.742-0.805c1.912-5.006,3.89-10.052,6.418-14.785c1.165-2.182,2.437-4.303,3.892-6.312
		C43.31,35.141,43.548,34.812,43.783,34.485z M32,28.873c-2.702,0-4.958-2.257-4.958-4.959c0-2.703,2.256-4.959,4.958-4.959
		c2.703,0,4.96,2.256,4.96,4.959C36.96,26.616,34.703,28.873,32,28.873z"/>
</g>
</svg>
