<?xml version="1.0" encoding="iso-8859-1"?>
<!-- Generator: Adobe Illustrator 17.1.0, SVG Export Plug-In . SVG Version: 6.00 Build 0)  -->
<!DOCTYPE svg PUBLIC "-//W3C//DTD SVG 1.1//EN" "http://www.w3.org/Graphics/SVG/1.1/DTD/svg11.dtd">
<svg version="1.1" id="Capa_1" xmlns="http://www.w3.org/2000/svg" xmlns:xlink="http://www.w3.org/1999/xlink" x="0px" y="0px"
	 viewBox="0 0 100 100" style="enable-background:new 0 0 100 100;" xml:space="preserve">
<g>
	<path style="fill:#1D1D1B;" d="M67.624,56.033c7.983-12.484,6.527-29.259-4.383-40.169c-12.6-12.6-33.027-12.6-45.627,0
		s-12.6,33.028,0,45.627c10.909,10.909,27.685,12.365,40.169,4.383l25.141,25.141c1.482,1.482,3.886,1.482,5.368,0l4.473-4.473
		c1.482-1.482,1.482-3.886,0-5.368L67.624,56.033z M59.959,40.802c0,1.696-1.375,3.072-3.072,3.072H45.112v11.775
		c0,1.696-1.375,3.072-3.072,3.072h-3.072c-1.696,0-3.072-1.375-3.072-3.072V43.874H24.122c-1.696,0-3.072-1.375-3.072-3.072v-3.072
		c0-1.696,1.375-3.072,3.072-3.072h11.775V22.884c0-1.696,1.375-3.072,3.072-3.072h3.072c1.696,0,3.072,1.375,3.072,3.072v11.775
		h11.775c1.696,0,3.072,1.375,3.072,3.072V40.802z"/>
</g>
</svg>
