<?xml version="1.0" encoding="iso-8859-1"?>
<!-- Generator: Adobe Illustrator 17.1.0, SVG Export Plug-In . SVG Version: 6.00 Build 0)  -->
<!DOCTYPE svg PUBLIC "-//W3C//DTD SVG 1.1//EN" "http://www.w3.org/Graphics/SVG/1.1/DTD/svg11.dtd">
<svg version="1.1" id="Layer_1" xmlns="http://www.w3.org/2000/svg" xmlns:xlink="http://www.w3.org/1999/xlink" x="0px" y="0px"
	 viewBox="0 0 64 64" style="enable-background:new 0 0 64 64;" xml:space="preserve">
<g>
	<path d="M55,12H7c-0.552,0-1,0.448-1,1v2c0,0.552,0.448,1,1,1h1v23c0,2.477,2.523,5,5,5h11.672L14.247,54.425
		c-0.391,0.391-0.391,1.024,0,1.414l1.414,1.414c0.391,0.391,1.024,0.391,1.414,0L30.328,44h2.343l13.253,13.253
		c0.391,0.391,1.024,0.391,1.414,0l1.414-1.414c0.391-0.391,0.391-1.024,0-1.414L38.328,44H49c2.598,0,4-2.576,4-5V16h2
		c0.552,0,1-0.448,1-1v-2C56,12.448,55.552,12,55,12z M50,39c0,0.946-0.411,2-1,2H13c-0.822,0-2-1.178-2-2V17h39V39z"/>
</g>
</svg>
