<?xml version="1.0" encoding="iso-8859-1"?>
<!-- Generator: Adobe Illustrator 17.1.0, SVG Export Plug-In . SVG Version: 6.00 Build 0)  -->
<!DOCTYPE svg PUBLIC "-//W3C//DTD SVG 1.1//EN" "http://www.w3.org/Graphics/SVG/1.1/DTD/svg11.dtd">
<svg version="1.1" id="Capa_1" xmlns="http://www.w3.org/2000/svg" xmlns:xlink="http://www.w3.org/1999/xlink" x="0px" y="0px"
	 viewBox="0 0 100 100" style="enable-background:new 0 0 100 100;" xml:space="preserve">
<g>
	<path style="fill:#000100;" d="M50,4C24.595,4,4,24.595,4,50c0,25.405,20.595,46,46,46s46-20.595,46-46C96,24.595,75.405,4,50,4z
		 M50,82.908c-18.174,0-32.908-14.733-32.908-32.908c0-6.59,1.945-12.722,5.281-17.869l45.496,45.496
		C62.722,80.963,56.59,82.908,50,82.908z M77.627,67.869L32.131,22.373c5.147-3.336,11.279-5.28,17.869-5.28
		c18.174,0,32.908,14.733,32.908,32.908C82.908,56.59,80.963,62.722,77.627,67.869z"/>
</g>
</svg>
