<?xml version="1.0" encoding="iso-8859-1"?>
<!-- Generator: Adobe Illustrator 17.1.0, SVG Export Plug-In . SVG Version: 6.00 Build 0)  -->
<!DOCTYPE svg PUBLIC "-//W3C//DTD SVG 1.1//EN" "http://www.w3.org/Graphics/SVG/1.1/DTD/svg11.dtd">
<svg version="1.1" id="Capa_1" xmlns="http://www.w3.org/2000/svg" xmlns:xlink="http://www.w3.org/1999/xlink" x="0px" y="0px"
	 viewBox="0 0 100 100" style="enable-background:new 0 0 100 100;" xml:space="preserve">
<g>
	<path style="fill:#000100;" d="M12.443,76.926h53.321c-0.009,0.03-0.024,0.057-0.032,0.087l-3.454,12.91
		c-0.49,1.831-0.178,2.822,0.698,2.822c0.513,0,1.22-0.341,2.073-1.053l17.679-14.766h4.83c3.006,0,5.443-2.437,5.443-5.443V19.23
		c0-3.006-2.437-5.443-5.443-5.443H12.443C9.437,13.787,7,16.224,7,19.23v52.253C7,74.489,9.437,76.926,12.443,76.926z M17,23.787
		h66v43.139h-0.273H79.1l-0.084,0.07l0.02-0.07H65.764H17V23.787z"/>
</g>
</svg>
