<?xml version="1.0" encoding="iso-8859-1"?>
<!-- Generator: Adobe Illustrator 17.1.0, SVG Export Plug-In . SVG Version: 6.00 Build 0)  -->
<!DOCTYPE svg PUBLIC "-//W3C//DTD SVG 1.1//EN" "http://www.w3.org/Graphics/SVG/1.1/DTD/svg11.dtd">
<svg version="1.1" id="Capa_1" xmlns="http://www.w3.org/2000/svg" xmlns:xlink="http://www.w3.org/1999/xlink" x="0px" y="0px"
	 viewBox="0 0 100 100" style="enable-background:new 0 0 100 100;" xml:space="preserve">
<g>
	<path d="M76.948,13.042C71.183,8.82,64.767,6.113,57.7,4.928v28.725c0,9.951,2.497,19.022,7.492,27.214
		c4.994,8.195,11.52,14.245,19.574,18.154c7.146-8.488,10.72-18.261,10.72-29.317c0-7.385-1.649-14.284-4.945-20.702
		C87.244,22.59,82.713,17.269,76.948,13.042z"/>
	<path d="M34.808,60.868c4.995-8.192,7.492-17.264,7.492-27.214V4.928c-7.068,1.185-13.484,3.891-19.249,8.114
		c-5.766,4.227-10.296,9.548-13.593,15.961C6.162,35.421,4.514,42.32,4.514,49.705c0,11.057,3.573,20.829,10.72,29.317
		C23.289,75.113,29.813,69.063,34.808,60.868z"/>
	<path d="M57.67,77.007c-3.85-4.896-6.466-10.187-7.848-15.873c-1.343,5.687-3.938,10.978-7.788,15.873
		c-3.85,4.898-8.499,9.062-13.948,12.498c6.752,3.711,13.997,5.566,21.736,5.566c7.778,0,15.044-1.855,21.796-5.566
		C66.169,86.07,61.52,81.905,57.67,77.007z"/>
</g>
</svg>
