<?xml version="1.0" encoding="iso-8859-1"?>
<!-- Generator: Adobe Illustrator 17.1.0, SVG Export Plug-In . SVG Version: 6.00 Build 0)  -->
<!DOCTYPE svg PUBLIC "-//W3C//DTD SVG 1.1//EN" "http://www.w3.org/Graphics/SVG/1.1/DTD/svg11.dtd">
<svg version="1.1" id="Capa_1" xmlns="http://www.w3.org/2000/svg" xmlns:xlink="http://www.w3.org/1999/xlink" x="0px" y="0px"
	 viewBox="0 0 100 100" style="enable-background:new 0 0 100 100;" xml:space="preserve">
<g>
	<path style="fill:#1D1D1B;" d="M89.885,4.694h-79.77c-2.994,0-5.421,2.427-5.421,5.421v79.77c0,2.994,2.427,5.421,5.421,5.421
		h79.77c2.994,0,5.421-2.427,5.421-5.421v-79.77C95.306,7.121,92.879,4.694,89.885,4.694z M88.384,36.226L75.433,49.178
		c-1.017,1.017-1.842,0.676-1.842-0.763v-4.944H27.587v21.244c0,1.085-0.879,1.965-1.964,1.965H14.817
		c-1.085,0-1.965-0.88-1.965-1.965V27.262c0-1.085,0.88-1.964,1.965-1.964h58.773v-4.944c0-1.439,0.825-1.78,1.842-0.763
		l12.951,12.951C89.401,33.559,89.401,35.209,88.384,36.226z"/>
</g>
</svg>
