<?xml version="1.0" encoding="iso-8859-1"?>
<!-- Generator: Adobe Illustrator 17.1.0, SVG Export Plug-In . SVG Version: 6.00 Build 0)  -->
<!DOCTYPE svg PUBLIC "-//W3C//DTD SVG 1.1//EN" "http://www.w3.org/Graphics/SVG/1.1/DTD/svg11.dtd">
<svg version="1.1" id="Capa_1" xmlns="http://www.w3.org/2000/svg" xmlns:xlink="http://www.w3.org/1999/xlink" x="0px" y="0px"
	 viewBox="0 0 100 100" style="enable-background:new 0 0 100 100;" xml:space="preserve">
<g>
	<path style="fill:#1D1D1B;" d="M78,3.5H58c-4.143,0-7.5,3.358-7.5,7.5s3.357,7.5,7.5,7.5h19.5v63H58c-4.143,0-7.5,3.357-7.5,7.5
		s3.357,7.5,7.5,7.5h20c7.995,0,14.5-6.505,14.5-14.5V18C92.5,10.005,85.995,3.5,78,3.5z"/>
	<path style="fill:#1D1D1B;" d="M69.715,45.691L39.418,15.394c-2.38-2.38-4.309-1.581-4.309,1.785v11.565H11.252
		c-1.346,0-2.438,1.091-2.438,2.438v37.636c0,1.346,1.092,2.438,2.438,2.438h23.857v11.565c0,3.365,1.929,4.165,4.309,1.785
		l30.297-30.297C72.095,51.929,72.095,48.071,69.715,45.691z"/>
</g>
</svg>
