<?xml version="1.0" encoding="iso-8859-1"?>
<!-- Generator: Adobe Illustrator 17.1.0, SVG Export Plug-In . SVG Version: 6.00 Build 0)  -->
<!DOCTYPE svg PUBLIC "-//W3C//DTD SVG 1.1//EN" "http://www.w3.org/Graphics/SVG/1.1/DTD/svg11.dtd">
<svg version="1.1" id="Capa_1" xmlns="http://www.w3.org/2000/svg" xmlns:xlink="http://www.w3.org/1999/xlink" x="0px" y="0px"
	 viewBox="0 0 100 100" style="enable-background:new 0 0 100 100;" xml:space="preserve">
<g>
	<path style="fill:#000100;" d="M91.488,33.93c0-0.009,0.001-0.018,0.001-0.027c0-10.914-8.847-19.761-19.761-19.761
		s-19.761,8.847-19.761,19.761c0,10.914,8.848,19.761,19.761,19.761c2.243,0,4.39-0.391,6.399-1.08
		C73.681,78.089,53.792,94.537,72.229,81C92.673,65.989,91.511,34.506,91.488,33.93z"/>
	<path style="fill:#000100;" d="M28.254,53.664c2.243,0,4.39-0.391,6.4-1.08C30.207,78.089,10.318,94.537,28.755,81
		c20.444-15.011,19.282-46.494,19.259-47.07c0-0.009,0.001-0.018,0.001-0.027c0-10.914-8.847-19.761-19.761-19.761
		S8.493,22.989,8.493,33.903C8.493,44.817,17.341,53.664,28.254,53.664z"/>
</g>
</svg>
