<?xml version="1.0" encoding="iso-8859-1"?>
<!-- Generator: Adobe Illustrator 17.1.0, SVG Export Plug-In . SVG Version: 6.00 Build 0)  -->
<!DOCTYPE svg PUBLIC "-//W3C//DTD SVG 1.1//EN" "http://www.w3.org/Graphics/SVG/1.1/DTD/svg11.dtd">
<svg version="1.1" id="Capa_1" xmlns="http://www.w3.org/2000/svg" xmlns:xlink="http://www.w3.org/1999/xlink" x="0px" y="0px"
	 viewBox="0 0 100 100" style="enable-background:new 0 0 100 100;" xml:space="preserve">
<g>
	<path style="fill:#1D1D1B;" d="M50,3.444c-25.392,0-45.976,20.584-45.976,45.976c0,25.392,20.584,45.976,45.976,45.976
		S95.976,74.811,95.976,49.42C95.976,24.028,75.392,3.444,50,3.444z M82.045,52.955L57.188,77.812
		c-1.953,1.953-3.536,1.297-3.536-1.464v-9.489H18.491c-1.105,0-2-0.896-2-2V33.98c0-1.104,0.895-2,2-2h35.162v-9.489
		c0-2.761,1.583-3.417,3.536-1.464l24.857,24.857C83.998,47.837,83.998,51.002,82.045,52.955z"/>
</g>
</svg>
