<?xml version="1.0" encoding="iso-8859-1"?>
<!-- Generator: Adobe Illustrator 17.1.0, SVG Export Plug-In . SVG Version: 6.00 Build 0)  -->
<!DOCTYPE svg PUBLIC "-//W3C//DTD SVG 1.1//EN" "http://www.w3.org/Graphics/SVG/1.1/DTD/svg11.dtd">
<svg version="1.1" id="Capa_1" xmlns="http://www.w3.org/2000/svg" xmlns:xlink="http://www.w3.org/1999/xlink" x="0px" y="0px"
	 viewBox="0 0 100 100" style="enable-background:new 0 0 100 100;" xml:space="preserve">
<g>
	<path style="fill:#1D1D1B;" d="M67.577,77.125h-53.5v-53.5h53.5v3.246h10v-4.149c0-5.016-4.081-9.097-9.097-9.097H13.173
		c-5.016,0-9.097,4.081-9.097,9.097v55.307c0,5.016,4.081,9.097,9.097,9.097H68.48c5.016,0,9.097-4.081,9.097-9.097V51.372h-10
		V77.125z"/>
	<path style="fill:#1D1D1B;" d="M82.961,24.061c-0.403-0.403-0.776-0.596-1.082-0.596c-0.48,0-0.794,0.478-0.794,1.373v5.033h-3.509
		h-10H32.25h-4.816h-2.324h-1.578H21.25c-1.104,0-2,0.895-2,2V70c0,1.105,0.896,2,2,2h11c1.104,0,2-0.895,2-2V51.372v-1.5v-1.5
		h33.327h10h3.509v5.033c0,0.895,0.314,1.373,0.794,1.373c0.306,0,0.679-0.193,1.082-0.596l13.185-13.185
		c1.036-1.036,1.036-2.715,0-3.751L82.961,24.061z"/>
</g>
</svg>
