<?xml version="1.0" encoding="iso-8859-1"?>
<!-- Generator: Adobe Illustrator 17.1.0, SVG Export Plug-In . SVG Version: 6.00 Build 0)  -->
<!DOCTYPE svg PUBLIC "-//W3C//DTD SVG 1.1//EN" "http://www.w3.org/Graphics/SVG/1.1/DTD/svg11.dtd">
<svg version="1.1" id="Capa_1" xmlns="http://www.w3.org/2000/svg" xmlns:xlink="http://www.w3.org/1999/xlink" x="0px" y="0px"
	 viewBox="0 0 100 100" style="enable-background:new 0 0 100 100;" xml:space="preserve">
<g>
	<path style="fill:#1D1D1B;" d="M44.344,45.33c0-1.143-0.442-2.19-1.282-3.032L17.443,16.68c-0.838-0.84-1.888-1.283-3.034-1.283
		c-1.148,0-2.198,0.444-3.032,1.282l-2.75,2.75c-0.838,0.839-1.281,1.887-1.281,3.029c0,1.148,0.444,2.198,1.282,3.032l19.839,19.84
		L8.626,65.172c-0.838,0.839-1.281,1.888-1.281,3.031c0,1.147,0.444,2.196,1.282,3.03l2.741,2.741
		c0.836,0.844,1.888,1.29,3.041,1.29c1.151,0,2.201-0.445,3.032-1.282l25.623-25.621C43.902,47.521,44.344,46.474,44.344,45.33z"/>
	<path style="fill:#1D1D1B;" d="M88.859,67.462H36.078c-1.177,0-2.224,0.422-3.036,1.23c-0.8,0.804-1.223,1.851-1.223,3.028v3.519
		c0,1.185,0.426,2.234,1.224,3.03c0.803,0.805,1.853,1.23,3.035,1.23h52.781c1.183,0,2.232-0.426,3.028-1.225
		c0.805-0.802,1.231-1.852,1.231-3.036v-3.519c0-1.178-0.423-2.225-1.232-3.038C91.083,67.884,90.036,67.462,88.859,67.462z"/>
</g>
</svg>
