<?xml version="1.0" encoding="iso-8859-1"?>
<!-- Generator: Adobe Illustrator 17.1.0, SVG Export Plug-In . SVG Version: 6.00 Build 0)  -->
<!DOCTYPE svg PUBLIC "-//W3C//DTD SVG 1.1//EN" "http://www.w3.org/Graphics/SVG/1.1/DTD/svg11.dtd">
<svg version="1.1" id="Capa_1" xmlns="http://www.w3.org/2000/svg" xmlns:xlink="http://www.w3.org/1999/xlink" x="0px" y="0px"
	 viewBox="0 0 100 100" style="enable-background:new 0 0 100 100;" xml:space="preserve">
<g>
	<path d="M50,2.201c-26.229,0-47.566,21.338-47.566,47.565c0,26.229,21.338,47.566,47.566,47.566s47.566-21.338,47.566-47.566
		C97.566,23.539,76.229,2.201,50,2.201z M50,87.333c-20.714,0-37.566-16.853-37.566-37.566S29.286,12.201,50,12.201
		s37.566,16.852,37.566,37.565S70.714,87.333,50,87.333z"/>
	<path d="M55.376,24.878v8.77H22.877c-1.021,0-1.849,0.828-1.849,1.849v28.54c0,1.021,0.828,1.849,1.849,1.849h32.499v8.77
		c0,2.552,1.463,3.158,3.268,1.354l22.975-22.975c1.805-1.805,1.805-4.731,0-6.536L58.644,23.525
		C56.839,21.72,55.376,22.326,55.376,24.878z"/>
</g>
</svg>
