<?xml version="1.0" encoding="iso-8859-1"?>
<!-- Generator: Adobe Illustrator 17.1.0, SVG Export Plug-In . SVG Version: 6.00 Build 0)  -->
<!DOCTYPE svg PUBLIC "-//W3C//DTD SVG 1.1//EN" "http://www.w3.org/Graphics/SVG/1.1/DTD/svg11.dtd">
<svg version="1.1" id="Capa_1" xmlns="http://www.w3.org/2000/svg" xmlns:xlink="http://www.w3.org/1999/xlink" x="0px" y="0px"
	 viewBox="0 0 100 100" style="enable-background:new 0 0 100 100;" xml:space="preserve">
<g>
	<path style="fill:#1D1D1B;" d="M82.03,25.519H32.745c-0.302,0-0.599,0.016-0.892,0.045c-0.148-0.01-0.288-0.045-0.438-0.045h-7.408
		c-1.36-1.509-6.723-7.018-8.082-8.527c-2.339-2.595-6.688-2.373-9.062,0c-2.562,2.564-2.336,6.469,0,9.061
		c1.722,1.91,7.445,7.82,9.167,9.73c0.085,0.095,0.191,0.16,0.283,0.247c1.183,1.391,2.916,2.303,4.852,2.303h2.994l2.179,21.783
		c0,4.954,4.016,8.97,8.97,8.97h44.159c4.954,0,8.97-4.016,8.97-8.97L91,34.489C91,29.535,86.984,25.519,82.03,25.519z"/>
	<circle style="fill:#1D1D1B;" cx="41.026" cy="79.016" r="7.368"/>
	<circle style="fill:#1D1D1B;" cx="74.342" cy="79.016" r="7.368"/>
</g>
</svg>
