<?xml version="1.0" encoding="iso-8859-1"?>
<!-- Generator: Adobe Illustrator 17.1.0, SVG Export Plug-In . SVG Version: 6.00 Build 0)  -->
<!DOCTYPE svg PUBLIC "-//W3C//DTD SVG 1.1//EN" "http://www.w3.org/Graphics/SVG/1.1/DTD/svg11.dtd">
<svg version="1.1" id="Capa_1" xmlns="http://www.w3.org/2000/svg" xmlns:xlink="http://www.w3.org/1999/xlink" x="0px" y="0px"
	 viewBox="0 0 100 100" style="enable-background:new 0 0 100 100;" xml:space="preserve">
<g>
	<path style="fill:#1D1D1B;" d="M76.826,24.654h-11c-0.73-3.558-2.102-6.647-4.117-9.263h14.989c0.6,0,1.094-0.194,1.479-0.581
		c0.386-0.384,0.579-0.877,0.579-1.48V6.769c0-0.598-0.193-1.093-0.579-1.48c-0.386-0.384-0.879-0.578-1.479-0.578H23.174
		c-0.601,0-1.094,0.194-1.48,0.578c-0.386,0.387-0.579,0.882-0.579,1.48v8.556c0,0.558,0.203,1.04,0.611,1.447
		c0.407,0.407,0.89,0.611,1.448,0.611h9.328c9.049,0,14.796,2.425,17.24,7.27H23.174c-0.601,0-1.094,0.193-1.48,0.578
		c-0.386,0.387-0.579,0.882-0.579,1.48v6.561c0,0.603,0.193,1.096,0.579,1.48c0.386,0.387,0.879,0.58,1.48,0.58h27.469
		c-0.944,3.518-3.142,6.197-6.594,8.041c-3.453,1.844-8.009,2.764-13.67,2.764h-7.205c-0.558,0-1.041,0.206-1.448,0.613
		c-0.408,0.407-0.611,0.89-0.611,1.447v8.169c0,0.558,0.193,1.028,0.579,1.415c8.234,8.75,18.913,20.993,32.037,36.733
		c0.386,0.513,0.922,0.771,1.608,0.771h12.544c0.901,0,1.522-0.387,1.866-1.158c0.428-0.771,0.343-1.5-0.257-2.186
		C56.969,76.59,47.126,65.096,39.964,57.462c7.291-0.857,13.209-3.216,17.755-7.076c4.545-3.86,7.312-8.878,8.298-15.052h10.808
		c0.6,0,1.094-0.193,1.48-0.58c0.386-0.385,0.579-0.877,0.579-1.48v-6.561c0-0.598-0.193-1.093-0.579-1.48
		C77.919,24.847,77.426,24.654,76.826,24.654z"/>
</g>
</svg>
