<?xml version="1.0" encoding="iso-8859-1"?>
<!-- Generator: Adobe Illustrator 17.1.0, SVG Export Plug-In . SVG Version: 6.00 Build 0)  -->
<!DOCTYPE svg PUBLIC "-//W3C//DTD SVG 1.1//EN" "http://www.w3.org/Graphics/SVG/1.1/DTD/svg11.dtd">
<svg version="1.1" id="Capa_1" xmlns="http://www.w3.org/2000/svg" xmlns:xlink="http://www.w3.org/1999/xlink" x="0px" y="0px"
	 viewBox="0 0 100 100" style="enable-background:new 0 0 100 100;" xml:space="preserve">
<g>
	<path d="M87.042,49.855c-0.014,0-0.036-0.001-0.065-0.001H76.564c-0.039,0-0.066,0.003-0.082,0.005
		c0.002,0.012-0.001,0.038-0.001,0.077c0,8.732-3.03,16.375-9.005,22.718c-5.972,6.339-13.379,9.855-22.014,10.449
		c-0.046,0.003-0.092,0.005-0.138,0.005c-0.505,0-0.993-0.191-1.365-0.538c-0.405-0.378-0.635-0.908-0.635-1.462V49.414
		c0-0.878,0.573-1.653,1.412-1.911l25.536-7.861c0.057-0.021,0.097-0.04,0.123-0.054c0.001-0.017,0.003-0.039,0.003-0.065v-8.331
		c0-0.028-0.002-0.045-0.003-0.052c-0.004-0.001-0.023-0.023-0.065-0.055c-0.002-0.001-0.004-0.003-0.005-0.004l-24.409,7.554
		c-0.194,0.06-0.393,0.089-0.591,0.089c-0.422,0-0.839-0.134-1.187-0.39c-0.511-0.377-0.813-0.974-0.813-1.61v-6.053
		c0-0.878,0.573-1.653,1.412-1.911l25.536-7.861c0.057-0.021,0.097-0.04,0.123-0.054c0.001-0.017,0.003-0.039,0.003-0.065v-8.331
		c0-0.028-0.002-0.045-0.004-0.052c-0.003-0.001-0.022-0.023-0.064-0.055c-0.002-0.001-0.004-0.003-0.005-0.004l-24.409,7.554
		c-0.194,0.06-0.393,0.089-0.591,0.089c-0.422,0-0.839-0.134-1.187-0.39c-0.511-0.377-0.813-0.974-0.813-1.61V6.202
		c0-0.039-0.003-0.065-0.005-0.081c-0.003,0-0.007,0-0.011,0c-0.015,0-0.037-0.001-0.066-0.001H32.83
		c-0.039,0-0.066,0.003-0.082,0.005c0.002,0.012,0,0.038,0,0.077v16.27c0,0.88-0.575,1.657-1.417,1.913l-15.117,4.605
		c-0.057,0.021-0.097,0.04-0.123,0.055c-0.001,0.017-0.002,0.038-0.002,0.065v8.331c0,0.028,0.002,0.046,0.004,0.054
		c0.001,0,0.004,0.003,0.008,0.007c0.041,0.021,0.06,0.021,0.071,0.021c0.026,0,0.05,0,0.073-0.001l13.919-4.271
		c0.193-0.059,0.39-0.088,0.587-0.088c0.423,0,0.841,0.134,1.189,0.392c0.51,0.377,0.811,0.974,0.811,1.608v6.053
		c0,0.88-0.575,1.657-1.417,1.913l-15.117,4.605c-0.057,0.021-0.097,0.04-0.123,0.055c-0.001,0.017-0.002,0.038-0.002,0.065v8.331
		c0,0.028,0.002,0.046,0.004,0.054c0.001,0,0.004,0.003,0.008,0.007c0.041,0.021,0.06,0.021,0.071,0.021c0.026,0,0.05,0,0.073-0.001
		l13.919-4.271c0.193-0.059,0.39-0.088,0.587-0.088c0.423,0,0.841,0.134,1.189,0.392c0.51,0.377,0.811,0.974,0.811,1.608v39.762
		c0,0.039,0.003,0.065,0.005,0.081c0.003,0,0.007,0,0.011,0c0.015,0,0.037,0.001,0.066,0.001h10.413
		c7.891,0,15.281-1.977,21.966-5.877c6.695-3.906,12.07-9.28,15.973-15.972c3.9-6.686,5.877-14.077,5.877-21.966
		c0-0.039-0.003-0.065-0.005-0.081C87.051,49.855,87.047,49.855,87.042,49.855z"/>
</g>
</svg>
