<?xml version="1.0" encoding="iso-8859-1"?>
<!-- Generator: Adobe Illustrator 17.1.0, SVG Export Plug-In . SVG Version: 6.00 Build 0)  -->
<!DOCTYPE svg PUBLIC "-//W3C//DTD SVG 1.1//EN" "http://www.w3.org/Graphics/SVG/1.1/DTD/svg11.dtd">
<svg version="1.1" id="Capa_1" xmlns="http://www.w3.org/2000/svg" xmlns:xlink="http://www.w3.org/1999/xlink" x="0px" y="0px"
	 viewBox="0 0 100 100" style="enable-background:new 0 0 100 100;" xml:space="preserve">
<g>
	<path style="fill:#1D1D1B;" d="M81.899,42.614L77.174,31.15c-0.529-1.284-2.083-2.329-3.472-2.334l-4.688-0.018v-7.24
		c0-2.083-1.688-3.771-3.771-3.771H6.788c-2.083,0-3.771,1.688-3.771,3.771V63.67c0,2.083,1.688,3.771,3.771,3.771h2.559
		c2.076-4.809,6.862-8.185,12.424-8.185s10.348,3.376,12.424,8.185h30.409c2.076-4.809,6.862-8.185,12.424-8.185
		c5.45,0,10.145,3.246,12.286,7.9c3.124-0.566,7.67-1.913,7.67-3.486V46.385C96.984,44.303,83.981,42.614,81.899,42.614z"/>
	<path style="fill:#1D1D1B;" d="M87.556,72.784c0-1.953-0.541-3.775-1.468-5.343c-1.832-3.1-5.199-5.185-9.06-5.185
		c-3.862,0-7.228,2.086-9.06,5.185c-0.927,1.568-1.468,3.39-1.468,5.343c0,5.815,4.714,10.528,10.528,10.528
		C82.842,83.312,87.556,78.599,87.556,72.784z"/>
	<path style="fill:#1D1D1B;" d="M32.299,72.784c0-1.953-0.541-3.775-1.468-5.343c-1.832-3.1-5.199-5.185-9.06-5.185
		c-3.862,0-7.228,2.086-9.06,5.185c-0.927,1.568-1.468,3.39-1.468,5.343c0,5.815,4.714,10.528,10.528,10.528
		C27.585,83.312,32.299,78.599,32.299,72.784z"/>
</g>
</svg>
