<?xml version="1.0" encoding="iso-8859-1"?>
<!-- Generator: Adobe Illustrator 17.1.0, SVG Export Plug-In . SVG Version: 6.00 Build 0)  -->
<!DOCTYPE svg PUBLIC "-//W3C//DTD SVG 1.1//EN" "http://www.w3.org/Graphics/SVG/1.1/DTD/svg11.dtd">
<svg version="1.1" id="Capa_1" xmlns="http://www.w3.org/2000/svg" xmlns:xlink="http://www.w3.org/1999/xlink" x="0px" y="0px"
	 viewBox="0 0 100 100" style="enable-background:new 0 0 100 100;" xml:space="preserve">
<g>
	<path style="fill:#1D1D1B;" d="M57.267,69.345h-8.644V6.316c0-1.006-0.815-1.822-1.822-1.822H18.674
		c-1.006,0-1.822,0.816-1.822,1.822v63.029H8.209c-2.515,0-3.112,1.442-1.333,3.221l22.642,22.642c1.779,1.779,4.662,1.779,6.441,0
		l22.643-22.642C60.38,70.787,59.782,69.345,57.267,69.345z"/>
	<path style="fill:#1D1D1B;" d="M78.134,30.546h4.782c0.552,0,1-0.448,1-1V4.494c0-0.552-0.448-1-1-1h-3.88
		c-0.422,0-0.799,0.265-0.941,0.663c-0.477,1.332-1.38,2.523-2.686,3.539c-1.366,1.064-2.632,1.791-3.764,2.162
		c-0.411,0.135-0.689,0.518-0.689,0.95v4.34c0,0.321,0.154,0.622,0.414,0.81c0.173,0.125,0.378,0.19,0.586,0.19
		c0.105,0,0.211-0.017,0.313-0.05c1.779-0.587,3.408-1.412,4.864-2.461v15.909C77.134,30.099,77.582,30.546,78.134,30.546z"/>
	<path style="fill:#1D1D1B;" d="M79.956,43.851c-2.596,0-4.77,0.884-6.461,2.627c-1.684,1.734-2.538,4.027-2.538,6.815
		c0,2.68,0.81,4.9,2.407,6.599c1.614,1.717,3.568,2.587,5.809,2.587c1.195,0,2.284-0.266,3.258-0.794
		c-0.272,1.71-0.638,2.439-0.87,2.744c-0.503,0.661-1.051,0.968-1.724,0.968c-0.521,0-0.914-0.132-1.2-0.405
		c-0.301-0.287-0.497-0.788-0.582-1.489c-0.061-0.507-0.492-0.88-0.992-0.88c-0.037,0-0.073,0.002-0.111,0.006l-4.629,0.511
		c-0.272,0.03-0.521,0.171-0.687,0.39c-0.166,0.219-0.234,0.496-0.19,0.767c0.378,2.293,1.269,4.059,2.648,5.249
		c1.384,1.195,3.195,1.8,5.385,1.8c3.009,0,5.488-1.14,7.37-3.388c1.864-2.226,2.77-5.664,2.77-10.513
		c0-4.766-0.871-8.134-2.664-10.296C85.141,44.961,82.786,43.851,79.956,43.851z M82.257,53.684c0,1.153-0.235,2.009-0.7,2.544
		c-0.44,0.508-0.939,0.745-1.568,0.745c-0.658,0-1.172-0.247-1.617-0.776c-0.477-0.566-0.718-1.543-0.718-2.904
		c0-1.669,0.35-2.437,0.643-2.787c0.394-0.47,0.85-0.689,1.437-0.689c0.633,0,1.17,0.291,1.691,0.917
		C81.977,51.396,82.257,52.388,82.257,53.684z"/>
</g>
</svg>
