<?xml version="1.0" encoding="iso-8859-1"?>
<!-- Generator: Adobe Illustrator 17.1.0, SVG Export Plug-In . SVG Version: 6.00 Build 0)  -->
<!DOCTYPE svg PUBLIC "-//W3C//DTD SVG 1.1//EN" "http://www.w3.org/Graphics/SVG/1.1/DTD/svg11.dtd">
<svg version="1.1" id="Capa_1" xmlns="http://www.w3.org/2000/svg" xmlns:xlink="http://www.w3.org/1999/xlink" x="0px" y="0px"
	 viewBox="0 0 100 100" style="enable-background:new 0 0 100 100;" xml:space="preserve">
<g>
	<path d="M22.89,91.278c0.349,0.286,0.714,0.428,1.095,0.428c0.412,0,0.777-0.141,1.095-0.428l15.183-15.182
		c0.317-0.381,0.476-0.762,0.476-1.143c0-0.443-0.143-0.809-0.428-1.095c-0.286-0.284-0.651-0.428-1.095-0.428h-3.138V7.94
		c0-0.443-0.143-0.809-0.428-1.093c-0.286-0.286-0.651-0.43-1.095-0.43H14.416c-0.445,0-0.809,0.143-1.095,0.43
		c-0.286,0.284-0.429,0.651-0.429,1.093V73.43H8.755c-0.698,0-1.174,0.318-1.428,0.952c-0.254,0.604-0.143,1.158,0.333,1.666
		L22.89,91.278z"/>
	<path d="M49.876,21.195H62.06c0.444,0,0.809-0.143,1.095-0.429c0.286-0.284,0.429-0.649,0.429-1.093v-9.14
		c0-0.442-0.143-0.809-0.429-1.093c-0.285-0.286-0.651-0.43-1.095-0.43H49.876c-0.445,0-0.809,0.143-1.095,0.43
		c-0.286,0.284-0.429,0.651-0.429,1.093v9.14c0,0.444,0.143,0.809,0.429,1.093C49.067,21.052,49.432,21.195,49.876,21.195z"/>
	<path d="M49.876,38.563h21.322c0.444,0,0.809-0.143,1.095-0.428c0.286-0.286,0.428-0.651,0.428-1.095v-9.138
		c0-0.444-0.143-0.811-0.428-1.095c-0.286-0.286-0.651-0.429-1.095-0.429H49.876c-0.445,0-0.809,0.143-1.095,0.429
		c-0.286,0.284-0.429,0.651-0.429,1.095v9.138c0,0.444,0.143,0.809,0.429,1.095C49.067,38.42,49.432,38.563,49.876,38.563z"/>
	<path d="M49.876,55.931h30.46c0.444,0,0.809-0.143,1.095-0.428c0.285-0.286,0.428-0.651,0.428-1.095v-9.138
		c0-0.444-0.143-0.809-0.428-1.095c-0.286-0.286-0.651-0.428-1.095-0.428h-30.46c-0.445,0-0.809,0.141-1.095,0.428
		c-0.286,0.286-0.429,0.651-0.429,1.095v9.138c0,0.444,0.143,0.809,0.429,1.095C49.067,55.788,49.432,55.931,49.876,55.931z"/>
	<path d="M49.876,73.299h39.599c0.444,0,0.809-0.141,1.095-0.427c0.286-0.286,0.428-0.651,0.428-1.095v-9.138
		c0-0.444-0.143-0.809-0.428-1.095c-0.286-0.284-0.651-0.428-1.095-0.428H49.876c-0.445,0-0.809,0.143-1.095,0.428
		c-0.286,0.286-0.429,0.651-0.429,1.095v9.138c0,0.444,0.143,0.809,0.429,1.095C49.067,73.158,49.432,73.299,49.876,73.299z"/>
</g>
</svg>
