<?xml version="1.0" encoding="iso-8859-1"?>
<!-- Generator: Adobe Illustrator 17.1.0, SVG Export Plug-In . SVG Version: 6.00 Build 0)  -->
<!DOCTYPE svg PUBLIC "-//W3C//DTD SVG 1.1//EN" "http://www.w3.org/Graphics/SVG/1.1/DTD/svg11.dtd">
<svg version="1.1" id="Capa_1" xmlns="http://www.w3.org/2000/svg" xmlns:xlink="http://www.w3.org/1999/xlink" x="0px" y="0px"
	 viewBox="0 0 100 100" style="enable-background:new 0 0 100 100;" xml:space="preserve">
<g>
	<path style="fill:#000100;" d="M90.846,32.587H70.311v26.496c0,3.858-3.139,6.997-6.997,6.997h-31.62v8.872
		c0,2.207,1.789,3.997,3.997,3.997h31.065l12.981,10.842c1.694,1.415,2.605,0.833,2.035-1.299l-2.536-9.479
		c-0.006-0.022-0.018-0.042-0.024-0.064h11.634c2.207,0,3.997-1.789,3.997-3.997V36.583C94.842,34.376,93.053,32.587,90.846,32.587z
		"/>
	<path style="fill:#000100;" d="M8.16,63.079h6.11c-0.006,0.022-0.018,0.042-0.024,0.064l-2.536,9.479
		c-0.36,1.344-0.13,2.072,0.512,2.072c0.377,0,0.896-0.25,1.522-0.773l12.981-10.842h4.97h31.62c2.207,0,3.997-1.789,3.997-3.997
		V32.587V20.714c0-2.207-1.789-3.997-3.997-3.997H8.16c-2.207,0-3.997,1.789-3.997,3.997v38.368
		C4.163,61.29,5.952,63.079,8.16,63.079z"/>
</g>
</svg>
