<?xml version="1.0" encoding="iso-8859-1"?>
<!-- Generator: Adobe Illustrator 17.1.0, SVG Export Plug-In . SVG Version: 6.00 Build 0)  -->
<!DOCTYPE svg PUBLIC "-//W3C//DTD SVG 1.1//EN" "http://www.w3.org/Graphics/SVG/1.1/DTD/svg11.dtd">
<svg version="1.1" id="Capa_1" xmlns="http://www.w3.org/2000/svg" xmlns:xlink="http://www.w3.org/1999/xlink" x="0px" y="0px"
	 viewBox="0 0 100 100" style="enable-background:new 0 0 100 100;" xml:space="preserve">
<g>
	<path style="fill:#000100;" d="M13.282,94.896h59.437c5.061,0,9.178-4.117,9.178-9.178V54.596
		c-0.289,0.503-0.635,0.971-1.049,1.385l-8.951,8.951v19.964H14.104V27.104h42.79v-3.409h-2.412c-2.875,0-3.893-1.708-4.197-2.443
		c-0.277-0.668-0.699-2.325,0.757-4.149H13.282c-5.061,0-9.178,4.117-9.178,9.178v59.437C4.104,90.779,8.221,94.896,13.282,94.896z"
		/>
	<path style="fill:#000100;" d="M54.482,20.695h5.412v6.409v17.437l-20.37,20.37c-1.847,1.847-1.354,5.336,1.102,7.791l5.182,5.182
		c1.454,1.454,3.269,2.22,4.892,2.22c1.119,0,2.146-0.364,2.899-1.118L71.896,60.69l6.83-6.83c0.926-0.926,1.263-2.266,1.06-3.681
		V20.695h0.198h5.214c1.575,0,1.949-0.903,0.835-2.016L71.856,4.502c-0.557-0.557-1.287-0.835-2.016-0.835s-1.46,0.278-2.016,0.835
		L55.221,17.104l-1.575,1.575C52.533,19.792,52.907,20.695,54.482,20.695z"/>
</g>
</svg>
