<?xml version="1.0" encoding="iso-8859-1"?>
<!-- Generator: Adobe Illustrator 17.1.0, SVG Export Plug-In . SVG Version: 6.00 Build 0)  -->
<!DOCTYPE svg PUBLIC "-//W3C//DTD SVG 1.1//EN" "http://www.w3.org/Graphics/SVG/1.1/DTD/svg11.dtd">
<svg version="1.1" id="Capa_1" xmlns="http://www.w3.org/2000/svg" xmlns:xlink="http://www.w3.org/1999/xlink" x="0px" y="0px"
	 viewBox="0 0 100 100" style="enable-background:new 0 0 100 100;" xml:space="preserve">
<g>
	<path d="M90.47,5.722H9.721c-0.995,0-1.855,0.363-2.581,1.089C6.413,7.539,6.05,8.399,6.05,9.392v80.75
		c0,0.992,0.363,1.853,1.09,2.581c0.726,0.726,1.586,1.089,2.581,1.089h80.75c0.994,0,1.854-0.363,2.581-1.089
		c0.726-0.728,1.09-1.588,1.09-2.581V9.392c0-0.992-0.364-1.853-1.09-2.581C92.324,6.085,91.464,5.722,90.47,5.722z M46.425,75.459
		c0,0.535-0.172,0.975-0.516,1.32c-0.344,0.345-0.784,0.515-1.319,0.515H17.062c-0.536,0-0.975-0.17-1.319-0.515
		c-0.344-0.345-0.516-0.784-0.516-1.32V16.733c0-0.535,0.172-0.975,0.516-1.32c0.344-0.345,0.783-0.515,1.319-0.515H44.59
		c0.535,0,0.975,0.17,1.319,0.515c0.344,0.345,0.516,0.784,0.516,1.32V75.459z M84.964,53.438c0,0.535-0.172,0.974-0.516,1.32
		c-0.344,0.343-0.784,0.515-1.319,0.515H55.601c-0.536,0-0.975-0.173-1.319-0.515c-0.344-0.345-0.516-0.784-0.516-1.32V16.733
		c0-0.535,0.172-0.975,0.516-1.32c0.344-0.345,0.783-0.515,1.319-0.515h27.528c0.535,0,0.975,0.17,1.319,0.515
		c0.344,0.345,0.516,0.784,0.516,1.32V53.438z"/>
</g>
</svg>
