<?xml version="1.0" encoding="iso-8859-1"?>
<!-- Generator: Adobe Illustrator 17.1.0, SVG Export Plug-In . SVG Version: 6.00 Build 0)  -->
<!DOCTYPE svg PUBLIC "-//W3C//DTD SVG 1.1//EN" "http://www.w3.org/Graphics/SVG/1.1/DTD/svg11.dtd">
<svg version="1.1" id="Capa_1" xmlns="http://www.w3.org/2000/svg" xmlns:xlink="http://www.w3.org/1999/xlink" x="0px" y="0px"
	 viewBox="0 0 100 100" style="enable-background:new 0 0 100 100;" xml:space="preserve">
<g>
	<path style="fill:#000100;" d="M71.397,43.667c-4-1.978-9.909-3.895-17.773-5.752c-8.339-1.969-13.59-3.86-15.752-5.675
		c-1.7-1.428-2.548-3.146-2.548-5.154c0-2.201,0.906-3.957,2.722-5.27c2.818-2.046,6.718-3.069,11.698-3.069
		c4.825,0,8.446,0.956,10.859,2.866c2.412,1.912,3.985,5.049,4.719,9.411l17.142-0.753c-0.271-7.798-3.098-14.033-8.485-18.705
		c-5.384-4.671-13.406-7.007-24.061-7.007c-6.525,0-12.094,0.984-16.708,2.953c-4.613,1.969-8.145,4.835-10.596,8.6
		c-2.452,3.763-3.678,7.809-3.678,12.132c0,5.942,2.043,11.083,6.121,15.423H71.397z"/>
	<path style="fill:#000100;" d="M63.555,74.427c-2.799,2.337-6.959,3.504-12.479,3.504c-5.212,0-9.352-1.312-12.423-3.938
		c-3.068-2.625-5.105-6.737-6.109-12.335L15.866,63.28c1.119,9.497,4.555,16.727,10.308,21.687
		c5.752,4.961,13.994,7.442,24.728,7.442c7.374,0,13.531-1.033,18.474-3.098c4.941-2.066,8.763-5.221,11.466-9.469
		c2.702-4.246,4.054-8.802,4.054-13.667c0-3.69-0.547-6.964-1.615-9.842H56.162c1.629,0.452,2.854,0.819,3.658,1.097
		c2.933,1.042,4.99,2.268,6.167,3.677c1.178,1.41,1.767,3.119,1.767,5.126C67.754,69.36,66.355,72.091,63.555,74.427z"/>
	<path style="fill:#000100;" d="M10.667,53.333h33.903h37.322h7.442c1.657,0,3-1.343,3-3v-0.667c0-1.657-1.343-3-3-3H76.188H28.443
		H10.667c-1.657,0-3,1.343-3,3v0.667C7.667,51.99,9.01,53.333,10.667,53.333z"/>
</g>
</svg>
