<?xml version="1.0" encoding="iso-8859-1"?>
<!-- Generator: Adobe Illustrator 17.1.0, SVG Export Plug-In . SVG Version: 6.00 Build 0)  -->
<!DOCTYPE svg PUBLIC "-//W3C//DTD SVG 1.1//EN" "http://www.w3.org/Graphics/SVG/1.1/DTD/svg11.dtd">
<svg version="1.1" id="Capa_1" xmlns="http://www.w3.org/2000/svg" xmlns:xlink="http://www.w3.org/1999/xlink" x="0px" y="0px"
	 viewBox="0 0 100 100" style="enable-background:new 0 0 100 100;" xml:space="preserve">
<g>
	<rect x="36.333" y="71.667" style="fill:#1D1D1B;" width="27.333" height="5.333"/>
	<path style="fill:#1D1D1B;" d="M92.957,27.721h-25.29V15.642c0-1.657-1.343-3-3-3H35.333c-1.657,0-3,1.343-3,3v12.078H7.043
		c-1.722,0-3.118,1.396-3.118,3.118V68.5h92.15V30.839C96.075,29.117,94.679,27.721,92.957,27.721z M42.333,22.642h15.333v5.078
		H42.333V22.642z"/>
	<path style="fill:#1D1D1B;" d="M66.667,71.667V77c0,1.657-1.343,3-3,3H36.333c-1.657,0-3-1.343-3-3v-5.333
		c0-0.057,0.014-0.11,0.017-0.167H3.925v11.661c0,1.722,1.396,3.118,3.118,3.118h85.914c1.722,0,3.118-1.396,3.118-3.118V71.5H66.65
		C66.653,71.556,66.667,71.61,66.667,71.667z"/>
</g>
</svg>
