<?xml version="1.0" encoding="iso-8859-1"?>
<!-- Generator: Adobe Illustrator 17.1.0, SVG Export Plug-In . SVG Version: 6.00 Build 0)  -->
<!DOCTYPE svg PUBLIC "-//W3C//DTD SVG 1.1//EN" "http://www.w3.org/Graphics/SVG/1.1/DTD/svg11.dtd">
<svg version="1.1" id="Capa_1" xmlns="http://www.w3.org/2000/svg" xmlns:xlink="http://www.w3.org/1999/xlink" x="0px" y="0px"
	 viewBox="0 0 100 100" style="enable-background:new 0 0 100 100;" xml:space="preserve">
<g>
	<path style="fill:#000100;" d="M91.73,44.068h-5.146C84.357,27.699,71.37,14.712,55,12.485V7.339c0-2.762-2.239-5-5-5s-5,2.238-5,5
		v5.147c-16.37,2.227-29.357,15.214-31.583,31.583H8.27c-2.761,0-5,2.238-5,5s2.239,5,5,5h5.146
		C15.643,70.438,28.63,83.426,45,85.652v5.147c0,2.762,2.239,5,5,5s5-2.238,5-5v-5.147c16.37-2.227,29.357-15.214,31.583-31.584
		h5.146c2.761,0,5-2.238,5-5S94.491,44.068,91.73,44.068z M55,75.527v-4.326c0-2.762-2.239-5-5-5s-5,2.238-5,5v4.326
		c-10.847-2.046-19.413-10.612-21.458-21.459h4.326c2.761,0,5-2.238,5-5s-2.239-5-5-5h-4.326C25.587,33.222,34.153,24.656,45,22.61
		v4.326c0,2.762,2.239,5,5,5s5-2.238,5-5V22.61c10.847,2.046,19.413,10.611,21.458,21.458h-4.326c-2.761,0-5,2.238-5,5s2.239,5,5,5
		h4.326C74.413,64.916,65.847,73.482,55,75.527z"/>
</g>
</svg>
