<?xml version="1.0" encoding="iso-8859-1"?>
<!-- Generator: Adobe Illustrator 17.1.0, SVG Export Plug-In . SVG Version: 6.00 Build 0)  -->
<!DOCTYPE svg PUBLIC "-//W3C//DTD SVG 1.1//EN" "http://www.w3.org/Graphics/SVG/1.1/DTD/svg11.dtd">
<svg version="1.1" id="Capa_1" xmlns="http://www.w3.org/2000/svg" xmlns:xlink="http://www.w3.org/1999/xlink" x="0px" y="0px"
	 viewBox="0 0 100 100" style="enable-background:new 0 0 100 100;" xml:space="preserve">
<g>
	<path style="fill:#1D1D1B;" d="M64.811,12.722c-1.688,0-4.021,0.095-6.924,0.281c-3.303,0.189-5.547,0.281-6.889,0.281
		c-6.557,0.129-10.074,0.187-11.406,0.187l-12.103,0.002c-7.323-0.383-8.595-0.429-8.754-0.431c-3.622-0.212-5.988-0.32-7.033-0.32
		c-3.533,0-5.56,2.183-5.562,5.99v0v0.005l1.098,0l-1.066,0.141c0.017,0.126,0.082,0.845,0.329,4.768
		c0.116,1.907,0.175,3.75,0.175,5.475c0,0.623-0.056,2.245-0.319,6.431c-0.144,2.286-0.216,3.938-0.216,4.911
		c0,5.804,3.819,6.431,5.461,6.431c2.589,0,5.675-1.432,5.675-8.251c0-1.198-0.038-2.126-0.115-2.836l-0.43-3.96
		c-0.064-0.575-0.097-1.744-0.097-3.474c0-4.144,1.914-5.992,6.207-5.992h3.316c4.367,0,6.314,1.88,6.314,6.096v43.46
		c0,6.532-2.798,6.532-3.851,6.532c-0.464,0-1.23-0.083-2.345-0.253c-1.284-0.196-2.172-0.287-2.793-0.287
		c-3.131,0-4.926,1.795-4.926,4.924c0,1.577,0.604,5.245,6.208,5.245h0.749l0.354-0.042c0.224-0.055,0.346-0.062,0.398-0.062
		l5.557-0.764c1.973-0.273,4.316-0.412,6.966-0.412c2.432,0,4.63,0.139,6.533,0.412l5.244,0.749l0.193,0.015
		c0.104,0.005,0.264,0.035,0.481,0.077l0.929,0.027c5.702,0,6.317-3.668,6.317-5.245c0-1.312-0.504-2.51-1.457-3.465
		c-0.968-0.968-2.135-1.459-3.469-1.459c-0.624,0-1.513,0.091-2.795,0.287c-1.114,0.17-1.881,0.253-2.343,0.253
		c-1.083,0-3.96,0-3.96-6.532l-0.003-36.31l0.43-7.495c0.119-2.168,0.614-3.689,1.475-4.521c0.841-0.817,2.398-1.231,4.628-1.231
		h2.997c6.165,0,6.956,3.16,6.956,5.913c0,1.259-0.106,3.153-0.317,5.633c-0.218,2.61-0.324,4.531-0.324,5.875
		c0,5.982,3.488,6.875,5.567,6.875c3.607,0,5.676-2.147,5.676-5.891c0-0.482-0.045-1.598-0.437-5.706
		c-0.208-2.233-0.313-3.877-0.313-4.887v-1.112c0.211-2.179,0.405-4.23,0.583-6.139c0.187-2.046,0.273-3.349,0.273-4.1v-0.213
		C71.655,16.41,70.766,12.722,64.811,12.722z M7.261,18.714l-1.012-0.001l1.015,0L7.261,18.714z"/>
	<path style="fill:#1D1D1B;" d="M93.382,24.589c1.043,0,1.291-0.598,0.553-1.335l-8.456-8.457c-0.738-0.738-1.934-0.738-2.671,0
		l-8.457,8.457c-0.737,0.737-0.49,1.335,0.553,1.335h5.739v51.877h-5.739c-1.043,0-1.29,0.598-0.553,1.335l8.457,8.457
		c0.737,0.738,1.933,0.738,2.671,0l8.456-8.457c0.738-0.737,0.49-1.335-0.553-1.335h-5.739V24.589H93.382z"/>
</g>
</svg>
