<?xml version="1.0" encoding="iso-8859-1"?>
<!-- Generator: Adobe Illustrator 17.1.0, SVG Export Plug-In . SVG Version: 6.00 Build 0)  -->
<!DOCTYPE svg PUBLIC "-//W3C//DTD SVG 1.1//EN" "http://www.w3.org/Graphics/SVG/1.1/DTD/svg11.dtd">
<svg version="1.1" id="Layer_1" xmlns="http://www.w3.org/2000/svg" xmlns:xlink="http://www.w3.org/1999/xlink" x="0px" y="0px"
	 viewBox="0 0 64 64" style="enable-background:new 0 0 64 64;" xml:space="preserve">
<g>
	<path d="M7.062,50.968c0.171,0.937,1.088,1.553,2.049,1.377l20.763-3.81c0.96-0.176,1.6-1.078,1.429-2.015L31.025,45H20.333
		C18.161,45,16,43.449,16,41.274V26.645L4.794,28.701c-0.96,0.176-1.6,1.078-1.429,2.015L7.062,50.968z"/>
	<path d="M60.276,28.434L48,26.296v14.978C48,43.449,45.775,45,43.603,45H33.88l-0.29,1.509c-0.18,0.938,0.451,1.835,1.409,2.002
		l20.726,3.611c0.959,0.167,1.882-0.458,2.062-1.397l3.897-20.288C61.865,29.497,61.234,28.601,60.276,28.434z"/>
	<path d="M44,16H20.333C19.262,16,18,16.87,18,17.944v8.334v14.996C18,42.348,19.262,43,20.333,43H30.66h3.604h9.339
		C44.674,43,46,42.348,46,41.274V25.947v-8.003C46,16.87,45.101,16,44.03,16H44z"/>
</g>
</svg>
