<?xml version="1.0" encoding="iso-8859-1"?>
<!-- Generator: Adobe Illustrator 17.1.0, SVG Export Plug-In . SVG Version: 6.00 Build 0)  -->
<!DOCTYPE svg PUBLIC "-//W3C//DTD SVG 1.1//EN" "http://www.w3.org/Graphics/SVG/1.1/DTD/svg11.dtd">
<svg version="1.1" id="Capa_1" xmlns="http://www.w3.org/2000/svg" xmlns:xlink="http://www.w3.org/1999/xlink" x="0px" y="0px"
	 viewBox="0 0 100 100" style="enable-background:new 0 0 100 100;" xml:space="preserve">
<g>
	<path style="fill:#000100;" d="M11.5,33.5h77c1.657,0,3-1.343,3-3v-16c0-1.657-1.343-3-3-3h-77c-1.657,0-3,1.343-3,3v16
		C8.5,32.157,9.843,33.5,11.5,33.5z M63.037,20h21.13c1.381,0,2.5,1.119,2.5,2.5c0,1.381-1.119,2.5-2.5,2.5h-21.13
		c-1.381,0-2.5-1.119-2.5-2.5C60.537,21.119,61.656,20,63.037,20z"/>
	<path style="fill:#000100;" d="M11.5,60.5h77c1.657,0,3-1.343,3-3v-16c0-1.657-1.343-3-3-3h-77c-1.657,0-3,1.343-3,3v16
		C8.5,59.157,9.843,60.5,11.5,60.5z M41.037,47h43.13c1.381,0,2.5,1.119,2.5,2.5c0,1.381-1.119,2.5-2.5,2.5h-43.13
		c-1.381,0-2.5-1.119-2.5-2.5C38.537,48.119,39.656,47,41.037,47z"/>
	<path style="fill:#000100;" d="M11.5,87.5h77c1.657,0,3-1.343,3-3v-16c0-1.657-1.343-3-3-3h-77c-1.657,0-3,1.343-3,3v16
		C8.5,86.157,9.843,87.5,11.5,87.5z M54.037,74h30.13c1.381,0,2.5,1.119,2.5,2.5c0,1.381-1.119,2.5-2.5,2.5h-30.13
		c-1.381,0-2.5-1.119-2.5-2.5C51.537,75.119,52.656,74,54.037,74z"/>
</g>
</svg>
