<?xml version="1.0" encoding="iso-8859-1"?>
<!-- Generator: Adobe Illustrator 17.1.0, SVG Export Plug-In . SVG Version: 6.00 Build 0)  -->
<!DOCTYPE svg PUBLIC "-//W3C//DTD SVG 1.1//EN" "http://www.w3.org/Graphics/SVG/1.1/DTD/svg11.dtd">
<svg version="1.1" id="Capa_1" xmlns="http://www.w3.org/2000/svg" xmlns:xlink="http://www.w3.org/1999/xlink" x="0px" y="0px"
	 viewBox="0 0 100 100" style="enable-background:new 0 0 100 100;" xml:space="preserve">
<g>
	<path d="M10.455,90.392h5.214c3.599,0,6.517-2.918,6.517-6.517V41.229c0-3.599-2.918-6.517-6.517-6.517h-5.214
		c-3.599,0-6.517,2.918-6.517,6.517v42.645C3.938,87.474,6.856,90.392,10.455,90.392z"/>
	<path d="M34.436,90.533h42.653c2.879,0,6.208-1.52,8.093-3.695l2.233-2.577c1.56-1.8,2.904-4.702,3.269-7.057l5.285-34.166
		c0.555-3.582-1.396-7.358-4.639-8.979l-1.418-0.709c-1.995-0.998-4.945-1.694-7.175-1.694H63.037l4.34-12.151
		c0.754-2.111,0.539-4.401-0.592-6.282c-1.096-1.823-2.942-3.046-5.064-3.356c-1.175-0.171-2.353-0.258-3.5-0.258
		c-5.43,0-9.997,1.913-13.207,5.531c-0.926,1.044-1.757,2.405-2.491,3.606c-0.282,0.461-0.547,0.9-0.785,1.251
		c-3.316,4.903-8.25,9.098-10.895,11.163c-2.363,1.844-4.014,5.177-4.014,8.104v43.664C26.829,87.121,30.241,90.533,34.436,90.533z
		 M36.829,39.415c0.044-0.131,0.149-0.324,0.23-0.423c3.126-2.446,8.902-7.393,12.96-13.392c0.312-0.461,0.666-1.036,1.037-1.644
		c0.438-0.718,1.101-1.803,1.437-2.181c1.003-1.131,2.409-1.823,4.191-2.068L52.109,32.52c-0.785,2.198-0.505,4.493,0.766,6.297
		c1.271,1.804,3.34,2.838,5.674,2.838h24.188c0.667,0,2.105,0.34,2.703,0.639l0.487,0.244l-5.126,33.137
		c-0.077,0.496-0.614,1.657-0.943,2.037l-2.178,2.513c-0.153,0.116-0.487,0.269-0.675,0.308H36.829V39.415z"/>
</g>
</svg>
