<?xml version="1.0" encoding="iso-8859-1"?>
<!-- Generator: Adobe Illustrator 17.1.0, SVG Export Plug-In . SVG Version: 6.00 Build 0)  -->
<!DOCTYPE svg PUBLIC "-//W3C//DTD SVG 1.1//EN" "http://www.w3.org/Graphics/SVG/1.1/DTD/svg11.dtd">
<svg version="1.1" id="Capa_1" xmlns="http://www.w3.org/2000/svg" xmlns:xlink="http://www.w3.org/1999/xlink" x="0px" y="0px"
	 viewBox="0 0 100 100" style="enable-background:new 0 0 100 100;" xml:space="preserve">
<g>
	<path d="M10.955,67.36h5.214c3.599,0,6.517-2.918,6.517-6.517V18.198c0-3.599-2.918-6.517-6.517-6.517h-5.214
		c-3.599,0-6.517,2.918-6.517,6.517v42.645C4.438,64.442,7.355,67.36,10.955,67.36z"/>
	<path d="M91.184,24.869c-0.363-2.354-1.707-5.255-3.269-7.057l-2.234-2.579c-1.886-2.175-5.213-3.694-8.092-3.694H34.936
		c-4.194,0-7.606,3.412-7.606,7.606V62.81c0,2.927,1.65,6.259,4.014,8.104c2.646,2.064,7.578,6.258,10.896,11.163
		c0.236,0.349,0.501,0.787,0.782,1.247c0.734,1.203,1.566,2.565,2.493,3.609c3.209,3.618,7.776,5.531,13.206,5.531
		c1.147,0,2.326-0.087,3.501-0.258c2.121-0.309,3.967-1.532,5.063-3.354c1.131-1.881,1.347-4.171,0.593-6.283l-4.34-12.152h19.7
		c2.229,0,5.18-0.697,7.175-1.694l1.419-0.709c3.241-1.621,5.191-5.396,4.639-8.979L91.184,24.869z M85.939,59.779
		c-0.596,0.298-2.036,0.638-2.702,0.638H59.049c-2.335,0-4.402,1.035-5.674,2.839c-1.271,1.804-1.551,4.099-0.766,6.297
		l4.576,12.812c-1.782-0.244-3.188-0.937-4.192-2.068c-0.336-0.379-0.999-1.465-1.438-2.184c-0.371-0.606-0.724-1.179-1.034-1.639
		c-4.061-6.001-9.836-10.948-12.962-13.393c-0.081-0.099-0.186-0.293-0.23-0.424V21.54h40.176c0.188,0.04,0.522,0.192,0.676,0.309
		l2.177,2.512c0.329,0.38,0.867,1.54,0.943,2.037l5.127,33.138L85.939,59.779z"/>
</g>
</svg>
