<?xml version="1.0" encoding="iso-8859-1"?>
<!-- Generator: Adobe Illustrator 17.1.0, SVG Export Plug-In . SVG Version: 6.00 Build 0)  -->
<!DOCTYPE svg PUBLIC "-//W3C//DTD SVG 1.1//EN" "http://www.w3.org/Graphics/SVG/1.1/DTD/svg11.dtd">
<svg version="1.1" id="Capa_1" xmlns="http://www.w3.org/2000/svg" xmlns:xlink="http://www.w3.org/1999/xlink" x="0px" y="0px"
	 viewBox="0 0 100 100" style="enable-background:new 0 0 100 100;" xml:space="preserve">
<g>
	<path d="M23.694,41.975h7.814c0.552,0,1,0.448,1,1v30.116c0,4.12,0.423,7.216,1.27,9.295c0.808,2.079,2.328,4.1,4.561,6.062
		c2.309,1.924,4.965,3.367,7.967,4.33c3.118,1.04,6.697,1.558,10.738,1.558c3.695,0,7.023-0.365,9.987-1.096
		c2.697-0.605,5.82-1.715,9.368-3.332c0.502-0.229,0.908-0.868,0.908-1.421v-11.97c0-0.552-0.372-0.752-0.841-0.462
		c-4.15,2.566-8.334,3.848-12.552,3.848c-2.579,0-4.831-0.595-6.754-1.788c-1.501-0.884-2.502-2.039-3.002-3.464
		c-0.54-1.387-0.809-4.695-0.809-9.931V42.975c0-0.552,0.448-1,1-1h19.014c0.552,0,1-0.448,1-1V29.061c0-0.552-0.448-1-1-1H54.348
		c-0.552,0-1-0.448-1-1V6.664c0-0.552-0.448-1-1-1H41.706c-0.552,0-1.056,0.444-1.135,0.99c-0.598,4.102-1.592,7.543-2.982,10.323
		c-1.501,2.965-3.483,5.505-5.946,7.62c-2.239,1.89-4.907,3.397-8.003,4.523c-0.519,0.189-0.945,0.775-0.945,1.327v10.527
		C22.694,41.528,23.142,41.975,23.694,41.975z"/>
</g>
</svg>
