<?xml version="1.0" encoding="iso-8859-1"?>
<!-- Generator: Adobe Illustrator 17.1.0, SVG Export Plug-In . SVG Version: 6.00 Build 0)  -->
<!DOCTYPE svg PUBLIC "-//W3C//DTD SVG 1.1//EN" "http://www.w3.org/Graphics/SVG/1.1/DTD/svg11.dtd">
<svg version="1.1" id="Capa_1" xmlns="http://www.w3.org/2000/svg" xmlns:xlink="http://www.w3.org/1999/xlink" x="0px" y="0px"
	 viewBox="0 0 100 100" style="enable-background:new 0 0 100 100;" xml:space="preserve">
<g>
	<path style="fill:#000100;" d="M77.757,5.086C77.307,4.636,76.891,4.42,76.55,4.42c-0.536,0-0.886,0.533-0.886,1.532v5.617H21.17
		h-5.375h-6.9c-1.232,0-2.232,0.999-2.232,2.232v42.547c0,1.233,0.999,2.232,2.232,2.232H21.17c1.232,0,2.232-0.999,2.232-2.232
		V32.214h52.262v5.616c0,0.999,0.35,1.532,0.886,1.532c0.341,0,0.757-0.216,1.207-0.665L92.47,23.984
		c1.156-1.156,1.156-3.03,0-4.185L77.757,5.086z"/>
	<path style="fill:#000100;" d="M91.105,41.84H78.83c-0.128,0-0.252,0.017-0.374,0.038c-0.317,0.054-0.613,0.169-0.87,0.341
		c-0.596,0.401-0.988,1.081-0.988,1.853v24.134H24.336V62.59c0-1.029-0.372-1.562-0.936-1.528c-0.19,0.011-0.405,0.098-0.632,0.242
		c-0.169,0.107-0.342,0.237-0.525,0.419L7.53,76.436c-1.156,1.156-1.156,3.03,0,4.185l14.713,14.713
		c1.156,1.156,2.093,0.768,2.093-0.867v-5.617H78.83h5.375h6.9c1.232,0,2.232-0.999,2.232-2.232V44.072
		C93.336,42.84,92.337,41.84,91.105,41.84z"/>
</g>
</svg>
