<?xml version="1.0" encoding="iso-8859-1"?>
<!-- Generator: Adobe Illustrator 17.1.0, SVG Export Plug-In . SVG Version: 6.00 Build 0)  -->
<!DOCTYPE svg PUBLIC "-//W3C//DTD SVG 1.1//EN" "http://www.w3.org/Graphics/SVG/1.1/DTD/svg11.dtd">
<svg version="1.1" id="Capa_1" xmlns="http://www.w3.org/2000/svg" xmlns:xlink="http://www.w3.org/1999/xlink" x="0px" y="0px"
	 viewBox="0 0 100 100" style="enable-background:new 0 0 100 100;" xml:space="preserve">
<g>
	<path style="fill:#000100;" d="M9.985,58.923l35.977,22.986c1.231,0.787,2.635,1.18,4.038,1.18s2.807-0.393,4.038-1.18
		l35.977-22.986c3.49-2.23,4.513-6.868,2.282-10.358c-2.229-3.491-6.868-4.511-10.358-2.282L50,66.688L18.062,46.282
		c-3.489-2.229-8.128-1.208-10.358,2.282C5.473,52.055,6.495,56.692,9.985,58.923z"/>
	<path style="fill:#000100;" d="M9.985,34.937l35.977,22.986c1.231,0.787,2.635,1.18,4.038,1.18s2.807-0.393,4.038-1.18
		l35.977-22.986c3.49-2.23,4.513-6.868,2.282-10.358c-2.231-3.491-6.868-4.511-10.358-2.282L50,42.703L18.062,22.296
		c-3.489-2.229-8.128-1.208-10.358,2.282S6.495,32.706,9.985,34.937z"/>
</g>
</svg>
