<?xml version="1.0" encoding="iso-8859-1"?>
<!-- Generator: Adobe Illustrator 17.1.0, SVG Export Plug-In . SVG Version: 6.00 Build 0)  -->
<!DOCTYPE svg PUBLIC "-//W3C//DTD SVG 1.1//EN" "http://www.w3.org/Graphics/SVG/1.1/DTD/svg11.dtd">
<svg version="1.1" id="Capa_1" xmlns="http://www.w3.org/2000/svg" xmlns:xlink="http://www.w3.org/1999/xlink" x="0px" y="0px"
	 viewBox="0 0 100 100" style="enable-background:new 0 0 100 100;" xml:space="preserve">
<g>
	<path style="fill:#000100;" d="M46.632,50.875v30.178c0,1.755-0.684,3.316-2.052,4.684c-1.368,1.368-2.93,2.053-4.684,2.053
		c-1.755,0-3.316-0.685-4.684-2.053c-1.368-1.368-2.052-2.93-2.052-4.684c0-0.911-0.334-1.7-1-2.368c-0.667-0.666-1.457-1-2.368-1
		c-0.913,0-1.702,0.334-2.368,1c-0.667,0.668-1,1.458-1,2.368c0,3.649,1.333,6.806,4,9.473c2.666,2.666,5.823,4,9.473,4
		c3.648,0,6.806-1.333,9.473-4c2.666-2.667,4-5.824,4-9.473V50.875c0,0,40.413,0,40.419,0c0.469-0.013-0.131-6.031-0.328-7.889
		c-0.026-0.242-0.044-0.414-0.053-0.492c-0.521-4.744-2.974-9.329-5.752-13.149c-2.895-3.981-6.307-7.262-10.236-9.841
		c-3.93-2.579-8.254-4.569-12.973-5.973c-3.635-1.081-7.329-1.741-11.078-1.99V7.689c0-0.911-0.334-1.7-1-2.368
		c-0.667-0.666-1.456-1-2.368-1c-0.913,0-1.702,0.334-2.368,1c-0.667,0.668-1,1.458-1,2.368v3.853
		c-5.436,0.337-10.64,1.483-15.604,3.462c-5.982,2.387-11.21,5.973-15.683,10.763c-2.41,2.581-4.468,5.486-6.065,8.637
		c-1.413,2.787-2.416,5.722-2.828,8.825c-0.08,0.604-0.42,7.646-0.238,7.646C6.215,50.875,46.632,50.875,46.632,50.875z"/>
</g>
</svg>
