<?xml version="1.0" encoding="iso-8859-1"?>
<!-- Generator: Adobe Illustrator 17.1.0, SVG Export Plug-In . SVG Version: 6.00 Build 0)  -->
<!DOCTYPE svg PUBLIC "-//W3C//DTD SVG 1.1//EN" "http://www.w3.org/Graphics/SVG/1.1/DTD/svg11.dtd">
<svg version="1.1" id="Capa_1" xmlns="http://www.w3.org/2000/svg" xmlns:xlink="http://www.w3.org/1999/xlink" x="0px" y="0px"
	 viewBox="0 0 100 100" style="enable-background:new 0 0 100 100;" xml:space="preserve">
<g>
	<path style="fill:#000100;" d="M71.22,14.419c-13.424,0-24.363,10.817-24.575,24.191H9.07c-2.453,0-4.441,1.989-4.441,4.441v35.976
		c0,2.453,1.989,4.441,4.441,4.441h49.3c2.453,0,4.441-1.988,4.441-4.441V43.052c0-2.453-1.989-4.441-4.441-4.441h-0.716
		c0.211-7.308,6.207-13.191,13.565-13.191c7.491,0,13.584,6.094,13.584,13.585c0,3.038,2.462,5.5,5.5,5.5s5.5-2.462,5.5-5.5
		C95.804,25.448,84.776,14.419,71.22,14.419z M38.036,61.275v10.783c0,2.173-1.762,3.935-3.935,3.935H33.34
		c-2.173,0-3.935-1.762-3.935-3.935V61.275c-2.31-1.443-3.852-4.001-3.852-6.925c0-4.511,3.657-8.167,8.167-8.167
		s8.167,3.657,8.167,8.167C41.888,57.274,40.346,59.832,38.036,61.275z"/>
</g>
</svg>
