<?xml version="1.0" encoding="iso-8859-1"?>
<!-- Generator: Adobe Illustrator 17.1.0, SVG Export Plug-In . SVG Version: 6.00 Build 0)  -->
<!DOCTYPE svg PUBLIC "-//W3C//DTD SVG 1.1//EN" "http://www.w3.org/Graphics/SVG/1.1/DTD/svg11.dtd">
<svg version="1.1" id="Capa_1" xmlns="http://www.w3.org/2000/svg" xmlns:xlink="http://www.w3.org/1999/xlink" x="0px" y="0px"
	 viewBox="0 0 100 100" style="enable-background:new 0 0 100 100;" xml:space="preserve">
<g>
	<path d="M50.911,1.911c-0.376-0.376-0.827-0.563-1.351-0.563c-0.491,0-0.922,0.187-1.296,0.563L28.556,23.534
		c-0.488,0.6-0.583,1.257-0.281,1.971c0.299,0.713,0.845,1.07,1.632,1.07h7.666V96.85c0,0.525,0.169,0.957,0.506,1.295
		c0.339,0.338,0.77,0.507,1.296,0.507h19.72c0.526,0,0.957-0.169,1.296-0.507c0.339-0.338,0.506-0.77,0.506-1.295V26.575h8.655
		c0.75,0,1.296-0.357,1.632-1.07c0.299-0.714,0.187-1.371-0.337-1.971L50.911,1.911z"/>
</g>
</svg>
