<?xml version="1.0" encoding="iso-8859-1"?>
<!-- Generator: Adobe Illustrator 17.1.0, SVG Export Plug-In . SVG Version: 6.00 Build 0)  -->
<!DOCTYPE svg PUBLIC "-//W3C//DTD SVG 1.1//EN" "http://www.w3.org/Graphics/SVG/1.1/DTD/svg11.dtd">
<svg version="1.1" id="Capa_1" xmlns="http://www.w3.org/2000/svg" xmlns:xlink="http://www.w3.org/1999/xlink" x="0px" y="0px"
	 viewBox="0 0 100 100" style="enable-background:new 0 0 100 100;" xml:space="preserve">
<g>
	<path style="fill:#000100;" d="M24.296,46.468h51.406c3.109,0,2.854-5.122,2.532-7.686c-0.099-0.791-0.594-1.956-1.052-2.609
		L53.72,6.336c-2.055-3.602-5.387-3.602-7.443,0L22.818,36.169c-0.458,0.653-0.953,1.818-1.052,2.609
		C21.443,41.343,21.187,46.468,24.296,46.468z"/>
	<path style="fill:#000100;" d="M22.818,62.993l23.459,29.834c2.055,3.602,5.387,3.602,7.443,0l23.462-29.838
		c0.458-0.653,0.952-1.817,1.052-2.609c0.322-2.564,0.577-7.686-2.532-7.686H24.296c-3.109,0-2.853,5.125-2.53,7.69
		C21.866,61.175,22.36,62.34,22.818,62.993z"/>
</g>
</svg>
