<?xml version="1.0" encoding="iso-8859-1"?>
<!-- Generator: Adobe Illustrator 17.1.0, SVG Export Plug-In . SVG Version: 6.00 Build 0)  -->
<!DOCTYPE svg PUBLIC "-//W3C//DTD SVG 1.1//EN" "http://www.w3.org/Graphics/SVG/1.1/DTD/svg11.dtd">
<svg version="1.1" id="Capa_1" xmlns="http://www.w3.org/2000/svg" xmlns:xlink="http://www.w3.org/1999/xlink" x="0px" y="0px"
	 viewBox="0 0 100 100" style="enable-background:new 0 0 100 100;" xml:space="preserve">
<g>
	<path style="fill:#1D1D1B;" d="M50,2.607C23.867,2.607,2.607,23.868,2.607,50c0,26.133,21.26,47.393,47.393,47.393
		S97.393,76.133,97.393,50C97.393,23.868,76.133,2.607,50,2.607z M50,82.393c-17.861,0-32.393-14.531-32.393-32.393
		S32.139,17.607,50,17.607S82.393,32.139,82.393,50S67.861,82.393,50,82.393z"/>
	<path style="fill:#1D1D1B;" d="M52.697,25.556c-1.489-1.49-3.904-1.49-5.394,0L28.342,44.517c-1.489,1.49-0.989,2.697,1.117,2.697
		h7.238v26.822c0,0.843,0.683,1.526,1.525,1.526h23.555c0.842,0,1.525-0.683,1.525-1.526V47.214h7.238
		c2.106,0,2.606-1.207,1.117-2.697L52.697,25.556z"/>
</g>
</svg>
