<?xml version="1.0" encoding="iso-8859-1"?>
<!-- Generator: Adobe Illustrator 17.1.0, SVG Export Plug-In . SVG Version: 6.00 Build 0)  -->
<!DOCTYPE svg PUBLIC "-//W3C//DTD SVG 1.1//EN" "http://www.w3.org/Graphics/SVG/1.1/DTD/svg11.dtd">
<svg version="1.1" id="Capa_1" xmlns="http://www.w3.org/2000/svg" xmlns:xlink="http://www.w3.org/1999/xlink" x="0px" y="0px"
	 viewBox="0 0 100 100" style="enable-background:new 0 0 100 100;" xml:space="preserve">
<g>
	<path style="fill:#1D1D1B;" d="M82.725,4.979H16.661c-6.611,0-11.989,5.378-11.989,11.989v66.064
		c0,6.611,5.378,11.989,11.989,11.989h66.064c6.611,0,11.989-5.378,11.989-11.989V16.968C94.714,10.356,89.336,4.979,82.725,4.979z
		 M79.714,80.021H19.671V19.979h60.043V80.021z"/>
	<path style="fill:#1D1D1B;" d="M27.391,66.386h44.604c2.698,0,2.477-4.445,2.197-6.669c-0.086-0.687-0.515-1.697-0.913-2.263
		l-20.357-25.89c-1.783-3.125-4.675-3.125-6.458,0L26.108,57.45c-0.397,0.567-0.827,1.577-0.913,2.264
		C24.915,61.939,24.693,66.386,27.391,66.386z"/>
</g>
</svg>
