<?xml version="1.0" encoding="iso-8859-1"?>
<!-- Generator: Adobe Illustrator 17.1.0, SVG Export Plug-In . SVG Version: 6.00 Build 0)  -->
<!DOCTYPE svg PUBLIC "-//W3C//DTD SVG 1.1//EN" "http://www.w3.org/Graphics/SVG/1.1/DTD/svg11.dtd">
<svg version="1.1" id="Capa_1" xmlns="http://www.w3.org/2000/svg" xmlns:xlink="http://www.w3.org/1999/xlink" x="0px" y="0px"
	 viewBox="0 0 100 100" style="enable-background:new 0 0 100 100;" xml:space="preserve">
<g>
	<path style="fill:#000100;" d="M88.474,30.553c-0.557-4.222-2.786-8.743-6.535-12.491c-3.75-3.75-8.271-5.98-12.494-6.536
		c-1.91-0.252-4.46-1.308-5.989-2.481C60.076,6.452,55.303,4.832,50,4.832s-10.076,1.62-13.456,4.213
		c-1.529,1.173-4.079,2.229-5.989,2.481c-4.223,0.556-8.744,2.786-12.494,6.536c-3.749,3.748-5.979,8.269-6.535,12.491
		c-0.252,1.911-1.308,4.462-2.481,5.991C6.452,39.924,4.832,44.697,4.832,50s1.62,10.076,4.213,13.456
		c1.173,1.529,2.229,4.081,2.481,5.991c0.557,4.222,2.786,8.743,6.535,12.491c3.75,3.75,8.271,5.98,12.494,6.536
		c1.911,0.252,4.46,1.308,5.989,2.481c3.38,2.593,8.153,4.213,13.456,4.213s10.076-1.62,13.456-4.213
		c1.529-1.173,4.079-2.229,5.989-2.481c4.223-0.556,8.744-2.786,12.494-6.536c3.749-3.748,5.978-8.269,6.535-12.491
		c0.252-1.91,1.308-4.462,2.481-5.991c2.593-3.38,4.213-8.153,4.213-13.456s-1.62-10.076-4.213-13.456
		C89.782,35.015,88.726,32.463,88.474,30.553z M71.166,47.129h-7.458v27.638c0,0.868-0.704,1.572-1.572,1.572H37.865
		c-0.868,0-1.572-0.704-1.572-1.572V47.129h-7.458c-2.171,0-2.686-1.244-1.151-2.779l19.538-19.538c1.535-1.535,4.023-1.535,5.558,0
		L72.317,44.35C73.852,45.885,73.336,47.129,71.166,47.129z"/>
</g>
</svg>
