<?xml version="1.0" encoding="iso-8859-1"?>
<!-- Generator: Adobe Illustrator 17.1.0, SVG Export Plug-In . SVG Version: 6.00 Build 0)  -->
<!DOCTYPE svg PUBLIC "-//W3C//DTD SVG 1.1//EN" "http://www.w3.org/Graphics/SVG/1.1/DTD/svg11.dtd">
<svg version="1.1" id="Capa_1" xmlns="http://www.w3.org/2000/svg" xmlns:xlink="http://www.w3.org/1999/xlink" x="0px" y="0px"
	 viewBox="0 0 100 100" style="enable-background:new 0 0 100 100;" xml:space="preserve">
<g>
	<path style="fill:#1D1D1B;" d="M49.998,4.024C24.606,4.024,4.022,24.608,4.022,50c0,25.392,20.584,45.976,45.976,45.976
		S95.974,75.392,95.974,50C95.974,24.608,75.39,4.024,49.998,4.024z M76.926,46.347h-9.489v35.162c0,1.105-0.896,2-2,2H34.559
		c-1.104,0-2-0.895-2-2V46.347H23.07c-2.761,0-3.417-1.583-1.464-3.536l24.857-24.857c1.953-1.953,5.118-1.953,7.071,0L78.39,42.812
		C80.343,44.765,79.687,46.347,76.926,46.347z"/>
</g>
</svg>
