<?xml version="1.0" encoding="iso-8859-1"?>
<!-- Generator: Adobe Illustrator 17.1.0, SVG Export Plug-In . SVG Version: 6.00 Build 0)  -->
<!DOCTYPE svg PUBLIC "-//W3C//DTD SVG 1.1//EN" "http://www.w3.org/Graphics/SVG/1.1/DTD/svg11.dtd">
<svg version="1.1" id="Capa_1" xmlns="http://www.w3.org/2000/svg" xmlns:xlink="http://www.w3.org/1999/xlink" x="0px" y="0px"
	 viewBox="0 0 100 100" style="enable-background:new 0 0 100 100;" xml:space="preserve">
<g>
	<path style="fill:#1D1D1B;" d="M70.858,78.39h-57.18v-57.18h56.831l7.429-7.429c-1.674-1.589-3.93-2.571-6.414-2.571H13.013
		c-5.146,0-9.334,4.187-9.334,9.334v58.511c0,5.147,4.188,9.335,9.334,9.335h58.512c5.146,0,9.334-4.188,9.334-9.335v-34.66l-10,10
		V78.39z"/>
	<path style="fill:#1D1D1B;" d="M87.803,14.421c-0.865-0.865-1.998-1.297-3.131-1.297s-2.266,0.432-3.131,1.297l-1.768,1.767
		l-8.915,8.915L45.533,50.429l-8.373-8.373c-0.865-0.865-1.998-1.297-3.131-1.297c-1.133,0-2.267,0.432-3.131,1.297l-6.262,6.262
		c-1.729,1.729-1.729,4.533,0,6.262l11.504,11.504l6.262,6.262c0.865,0.865,1.998,1.297,3.131,1.297s2.267-0.432,3.131-1.297
		l6.262-6.262l15.932-15.932l10-10l13.207-13.207c1.729-1.729,1.729-4.533,0-6.262L87.803,14.421z"/>
</g>
</svg>
