<?xml version="1.0" encoding="iso-8859-1"?>
<!-- Generator: Adobe Illustrator 17.1.0, SVG Export Plug-In . SVG Version: 6.00 Build 0)  -->
<!DOCTYPE svg PUBLIC "-//W3C//DTD SVG 1.1//EN" "http://www.w3.org/Graphics/SVG/1.1/DTD/svg11.dtd">
<svg version="1.1" id="Capa_1" xmlns="http://www.w3.org/2000/svg" xmlns:xlink="http://www.w3.org/1999/xlink" x="0px" y="0px"
	 viewBox="0 0 100 100" style="enable-background:new 0 0 100 100;" xml:space="preserve">
<g>
	<path style="fill:#1D1D1B;" d="M87.339,31.129c-0.54-4.099-2.704-8.486-6.344-12.125c-3.638-3.638-8.024-5.802-12.122-6.342
		c-1.854-0.245-4.33-1.269-5.814-2.408C59.778,7.738,55.146,6.165,50,6.165s-9.778,1.573-13.059,4.089
		c-1.484,1.138-3.96,2.163-5.814,2.408c-4.098,0.54-8.484,2.704-12.122,6.342c-3.64,3.639-5.804,8.026-6.344,12.125
		c-0.244,1.854-1.269,4.329-2.407,5.812C7.737,40.221,6.165,44.854,6.165,50c0,5.146,1.572,9.779,4.089,13.059
		c1.139,1.484,2.163,3.958,2.407,5.812c0.54,4.099,2.704,8.486,6.344,12.125c3.638,3.638,8.024,5.802,12.122,6.342
		c1.854,0.245,4.33,1.27,5.814,2.408c3.28,2.516,7.912,4.089,13.059,4.089s9.778-1.573,13.059-4.089
		c1.484-1.138,3.96-2.163,5.814-2.408c4.098-0.54,8.484-2.704,12.122-6.342c3.64-3.639,5.804-8.026,6.344-12.125
		c0.244-1.854,1.269-4.329,2.407-5.812c2.517-3.28,4.089-7.912,4.089-13.059c0-5.146-1.572-9.779-4.089-13.059
		C88.607,35.458,87.583,32.983,87.339,31.129z M77.939,35.647l-31.5,31.5l-5.04,5.04c-1.392,1.392-3.648,1.392-5.04,0l-5.04-5.04
		l-9.259-9.258c-1.392-1.392-1.392-3.648,0-5.04l5.04-5.04c1.392-1.392,3.648-1.392,5.04,0l6.738,6.738l28.98-28.98
		c1.392-1.392,3.648-1.392,5.04,0l5.04,5.04C79.331,31.999,79.331,34.256,77.939,35.647z"/>
</g>
</svg>
