<?xml version="1.0" encoding="iso-8859-1"?>
<!-- Generator: Adobe Illustrator 17.1.0, SVG Export Plug-In . SVG Version: 6.00 Build 0)  -->
<!DOCTYPE svg PUBLIC "-//W3C//DTD SVG 1.1//EN" "http://www.w3.org/Graphics/SVG/1.1/DTD/svg11.dtd">
<svg version="1.1" id="Layer_1" xmlns="http://www.w3.org/2000/svg" xmlns:xlink="http://www.w3.org/1999/xlink" x="0px" y="0px"
	 viewBox="0 0 64 64" style="enable-background:new 0 0 64 64;" xml:space="preserve">
<g>
	<path d="M9.752,39.289c0.849,0.706,1.547,1.592,1.479,2.195c-0.04,0.36-0.062,0.726-0.062,1.098c0,5.479,4.319,9.92,9.646,9.92
		c0.658,0,1.3-0.068,1.921-0.197c1.046-0.217,2.281,0.203,3.021,1.024c1.759,1.95,4.267,3.173,7.058,3.173
		c2.948,0,5.587-1.361,7.356-3.505c0.703-0.852,1.893-1.206,2.951-0.889c0.854,0.256,1.758,0.394,2.693,0.394
		c5.327,0,9.646-4.442,9.646-9.92c0-0.613-0.056-1.212-0.162-1.793c-0.179-0.98,0.298-2.201,1.095-2.966
		c1.885-1.808,3.067-4.38,3.067-7.241c0-3.115-1.398-5.89-3.583-7.707c-0.849-0.706-1.547-1.592-1.479-2.195
		c0.04-0.36,0.062-0.726,0.062-1.098c0-5.479-4.319-9.92-9.646-9.92c-0.658,0-1.3,0.068-1.921,0.197
		c-1.046,0.217-2.281-0.203-3.021-1.024c-1.759-1.95-4.267-3.173-7.058-3.173s-5.299,1.223-7.058,3.173
		c-0.74,0.82-1.975,1.241-3.021,1.024c-0.621-0.129-1.263-0.197-1.921-0.197c-5.327,0-9.646,4.442-9.646,9.92
		c0,0.528,0.041,1.046,0.12,1.551c0.132,0.85-0.465,1.898-1.333,2.581c-2.3,1.811-3.787,4.658-3.787,7.868
		C6.169,34.697,7.567,37.472,9.752,39.289z M19.918,31.941c0.214-0.379,0.76-0.384,1.26,0.05l5.032,3.547
		c0.273,0.166,0.534,0.251,0.785,0.251c0.519,0,0.93-0.374,1.327-0.734l16.103-16.119c1.007-1.095,1.986-1.481,2.625-1.061
		c0.295,0.194,0.486,0.486,0.537,0.823c0.061,0.4-0.079,0.831-0.394,1.213l-19.362,23.52c-0.281,0.341-0.639,0.529-1.007,0.529
		c-0.437,0-0.833-0.263-1.088-0.721l-5.683-10.245C19.818,32.611,19.766,32.213,19.918,31.941z"/>
</g>
</svg>
