<?xml version="1.0" encoding="iso-8859-1"?>
<!-- Generator: Adobe Illustrator 17.1.0, SVG Export Plug-In . SVG Version: 6.00 Build 0)  -->
<!DOCTYPE svg PUBLIC "-//W3C//DTD SVG 1.1//EN" "http://www.w3.org/Graphics/SVG/1.1/DTD/svg11.dtd">
<svg version="1.1" id="Capa_1" xmlns="http://www.w3.org/2000/svg" xmlns:xlink="http://www.w3.org/1999/xlink" x="0px" y="0px"
	 viewBox="0 0 100 100" style="enable-background:new 0 0 100 100;" xml:space="preserve">
<g>
	<path style="fill:#1D1D1B;" d="M91.479,34.076L80.4,40.397v-3.988c0-3.263-2.646-5.909-5.909-5.909H43.898L15.274,17.684
		c-2.981-1.335-6.494,0.029-7.845,3.047c-1.352,3.018-0.03,6.547,2.951,7.881l4.215,1.887h-2.087c-3.264,0-5.909,2.646-5.909,5.909
		v27.182c0,3.263,2.646,5.909,5.909,5.909h61.982c3.264,0,5.909-2.646,5.909-5.909v-3.988l11.078,6.321
		C93.424,67.033,95,66.118,95,63.878V36.121C95,33.882,93.424,32.967,91.479,34.076z"/>
</g>
</svg>
