<?xml version="1.0" encoding="iso-8859-1"?>
<!-- Generator: Adobe Illustrator 17.1.0, SVG Export Plug-In . SVG Version: 6.00 Build 0)  -->
<!DOCTYPE svg PUBLIC "-//W3C//DTD SVG 1.1//EN" "http://www.w3.org/Graphics/SVG/1.1/DTD/svg11.dtd">
<svg version="1.1" id="Capa_1" xmlns="http://www.w3.org/2000/svg" xmlns:xlink="http://www.w3.org/1999/xlink" x="0px" y="0px"
	 viewBox="0 0 100 100" style="enable-background:new 0 0 100 100;" xml:space="preserve">
<g>
	<path style="fill:#000100;" d="M50,23.483c-17.592,0-34.271,8.522-44.614,22.798L3.26,49.215l2.126,2.934
		C15.729,66.424,32.408,74.946,50,74.946s34.271-8.522,44.614-22.798l2.126-2.934l-2.126-2.934
		C84.271,32.006,67.592,23.483,50,23.483z M63.738,42.369c0,2.781-2.254,5.036-5.036,5.036s-5.036-2.255-5.036-5.036
		c0-2.781,2.255-5.036,5.036-5.036S63.738,39.588,63.738,42.369z M50,64.946c-13.148,0-25.674-5.819-34.198-15.731
		c4.77-5.546,10.793-9.808,17.476-12.489c-1.026,2.288-1.611,4.818-1.611,7.489c0,10.125,8.208,18.333,18.333,18.333
		s18.333-8.208,18.333-18.333c0-2.671-0.584-5.2-1.611-7.489c6.683,2.681,12.706,6.943,17.476,12.489
		C75.674,59.127,63.148,64.946,50,64.946z"/>
</g>
</svg>
