<?xml version="1.0" encoding="iso-8859-1"?>
<!-- Generator: Adobe Illustrator 17.1.0, SVG Export Plug-In . SVG Version: 6.00 Build 0)  -->
<!DOCTYPE svg PUBLIC "-//W3C//DTD SVG 1.1//EN" "http://www.w3.org/Graphics/SVG/1.1/DTD/svg11.dtd">
<svg version="1.1" id="Capa_1" xmlns="http://www.w3.org/2000/svg" xmlns:xlink="http://www.w3.org/1999/xlink" x="0px" y="0px"
	 viewBox="0 0 100 100" style="enable-background:new 0 0 100 100;" xml:space="preserve">
<g>
	<path style="fill:#1D1D1B;" d="M95.528,2.769c-2.343,0.569-7.072,3.097-14.187,7.585c-0.524,0.33-1.333,0.921-1.808,1.318
		l-14.69,12.243c-0.476,0.396-1.301,0.962-1.842,1.262l-10.35,5.75c-0.542,0.301-1.335,0.9-1.773,1.338l-1.15,1.15
		c-0.438,0.438-1.293,0.747-1.91,0.691L43.4,33.703l0.528-0.528c1.095-1.095,5.059-6.835,3.965-7.929
		c-1.095-1.095-6.834,2.87-7.929,3.965l-3.832,3.832l-4.846-0.441l1.541-1.541c1.095-1.095,5.059-6.835,3.965-7.929
		c-1.095-1.095-6.834,2.87-7.929,3.965l-4.845,4.845l-4.057-0.369c-0.617-0.056-1.472,0.253-1.91,0.691l-5.253,5.253
		c-0.438,0.438-0.438,1.148,0,1.586l17.564,17.564c0.438,0.438,0.438,1.148,0,1.586l-5.253,5.253
		c-0.438,0.438-1.294,0.754-1.911,0.707L7.651,63.016c-0.617-0.047-1.473,0.269-1.911,0.707l-2.517,2.517
		c-0.438,0.438-0.793,1.295-0.793,1.914l0,0.493c0,0.619,0.355,1.476,0.793,1.914l6.621,6.621c0.438,0.438,1.099,0.487,1.477,0.109
		c0.378-0.378,0.99-0.378,1.368,0c0.378,0.378,0.525,1.16,0.329,1.748l-0.658,1.976c-0.196,0.588,0,1.419,0.438,1.857l3.885,3.885
		c0.438,0.438,1.269,0.634,1.857,0.438l1.976-0.659c0.588-0.196,1.37-0.048,1.748,0.329c0.378,0.378,0.378,0.99,0,1.368
		c-0.378,0.378-0.329,1.039,0.109,1.477l6.621,6.621c0.438,0.438,1.295,0.793,1.914,0.793l0.493,0c0.619,0,1.476-0.355,1.914-0.793
		l2.517-2.517c0.438-0.438,0.754-1.294,0.707-1.911l-1.196-15.545c-0.048-0.617,0.269-1.473,0.707-1.911l5.253-5.253
		c0.438-0.438,1.148-0.438,1.586,0l17.564,17.564c0.438,0.438,1.148,0.438,1.586,0l5.253-5.253c0.438-0.438,0.747-1.293,0.691-1.91
		l-0.388-4.273l4.747-4.747c1.095-1.095,5.059-6.835,3.965-7.929c-1.095-1.095-6.834,2.87-7.929,3.965l-1.443,1.443l-0.44-4.846
		l3.734-3.734c1.095-1.095,5.06-6.835,3.965-7.929c-1.095-1.095-6.834,2.87-7.929,3.965l-0.43,0.43l-0.382-4.203
		c-0.056-0.617,0.253-1.472,0.691-1.91l1.15-1.15c0.438-0.438,1.037-1.232,1.338-1.773l5.75-10.35
		c0.301-0.541,0.866-1.366,1.262-1.842l12.243-14.69c0.396-0.476,0.988-1.286,1.318-1.81c4.723-7.491,7.292-12.286,7.708-14.386
		c0.12-0.608-0.14-1.099-0.187-1.122C96.676,2.68,96.13,2.623,95.528,2.769z"/>
</g>
</svg>
