<?xml version="1.0" encoding="iso-8859-1"?>
<!-- Generator: Adobe Illustrator 17.1.0, SVG Export Plug-In . SVG Version: 6.00 Build 0)  -->
<!DOCTYPE svg PUBLIC "-//W3C//DTD SVG 1.1//EN" "http://www.w3.org/Graphics/SVG/1.1/DTD/svg11.dtd">
<svg version="1.1" id="Layer_1" xmlns="http://www.w3.org/2000/svg" xmlns:xlink="http://www.w3.org/1999/xlink" x="0px" y="0px"
	 viewBox="0 0 64 64" style="enable-background:new 0 0 64 64;" xml:space="preserve">
<g>
	<path d="M41.419,20.23c-3.192,0-6.198,0.811-8.825,2.236c-1.618-0.906-3.381-1.583-5.251-1.972l1.001-0.347
		c0.248-0.086,0.554-0.341,0.683-0.57l3.53-6.283c0.129-0.229,0.034-0.49-0.212-0.583l-8.102-3.065
		c-0.139-0.053-0.26-0.1-0.336-0.13L23.865,9.5c-0.023-0.009-0.061-0.009-0.084,0c-0.023,0.009-0.042,0.016-0.042,0.016
		c-0.076,0.031-0.198,0.078-0.338,0.131L15.3,12.711c-0.246,0.093-0.341,0.354-0.212,0.583l3.531,6.295
		c0.129,0.229,0.434,0.484,0.683,0.57l0.809,0.279C11.52,22.061,5,29.61,5,38.664c0,10.233,8.326,18.559,18.56,18.559
		c3.192,0,6.198-0.811,8.825-2.236c2.677,1.499,5.755,2.362,9.035,2.362c10.234,0,18.56-8.326,18.56-18.559
		C59.979,28.556,51.653,20.23,41.419,20.23z M38.119,38.664c0,4.699-2.248,8.873-5.714,11.537
		c-3.371-2.669-5.545-6.787-5.545-11.411c0-4.699,2.248-8.874,5.714-11.538C35.945,29.921,38.119,34.039,38.119,38.664z
		 M23.56,53.223C15.531,53.223,9,46.691,9,38.664c0-8.028,6.531-14.56,14.56-14.56c1.885,0,3.682,0.372,5.337,1.027
		c-3.7,3.395-6.037,8.253-6.037,13.659c0,5.31,2.253,10.093,5.84,13.479C27.098,52.875,25.371,53.223,23.56,53.223z M41.419,53.349
		c-1.885,0-3.682-0.372-5.337-1.027c3.7-3.395,6.037-8.253,6.037-13.658c0-5.31-2.253-10.093-5.84-13.479
		c1.601-0.607,3.329-0.955,5.14-0.955c8.028,0,14.56,6.531,14.56,14.56C55.979,46.817,49.447,53.349,41.419,53.349z"/>
</g>
</svg>
