<?xml version="1.0" encoding="iso-8859-1"?>
<!-- Generator: Adobe Illustrator 17.1.0, SVG Export Plug-In . SVG Version: 6.00 Build 0)  -->
<!DOCTYPE svg PUBLIC "-//W3C//DTD SVG 1.1//EN" "http://www.w3.org/Graphics/SVG/1.1/DTD/svg11.dtd">
<svg version="1.1" id="Capa_1" xmlns="http://www.w3.org/2000/svg" xmlns:xlink="http://www.w3.org/1999/xlink" x="0px" y="0px"
	 viewBox="0 0 100 100" style="enable-background:new 0 0 100 100;" xml:space="preserve">
<g>
	<path style="fill:#1D1D1B;" d="M90.393,17.833H9.607c-3.281,0-5.94,2.66-5.94,5.94v8.892v46.583c0,3.281,2.659,5.94,5.94,5.94
		h80.786c3.281,0,5.94-2.659,5.94-5.94V32.666v-8.892C96.333,20.493,93.674,17.833,90.393,17.833z M90.333,79.189H9.667V38.606
		h80.667V79.189z"/>
	<path style="fill:#1D1D1B;" d="M14.249,57.289h12.208c1.023,0,1.851-0.829,1.851-1.851V43.229c0-1.023-0.829-1.851-1.851-1.851
		H14.249c-1.022,0-1.851,0.829-1.851,1.851v12.208C12.397,56.46,13.226,57.289,14.249,57.289z"/>
	<path style="fill:#1D1D1B;" d="M33.688,57.289h12.208c1.023,0,1.851-0.829,1.851-1.851V43.229c0-1.023-0.829-1.851-1.851-1.851
		H33.688c-1.022,0-1.851,0.829-1.851,1.851v12.208C31.837,56.46,32.666,57.289,33.688,57.289z"/>
	<path style="fill:#1D1D1B;" d="M53.437,57.289h12.208c1.023,0,1.851-0.829,1.851-1.851V43.229c0-1.023-0.829-1.851-1.851-1.851
		H53.437c-1.023,0-1.851,0.829-1.851,1.851v12.208C51.586,56.46,52.414,57.289,53.437,57.289z"/>
	<path style="fill:#1D1D1B;" d="M72.877,57.289h12.208c1.023,0,1.851-0.829,1.851-1.851V43.229c0-1.023-0.829-1.851-1.851-1.851
		H72.877c-1.023,0-1.851,0.829-1.851,1.851v12.208C71.026,56.46,71.854,57.289,72.877,57.289z"/>
	<path style="fill:#1D1D1B;" d="M14.249,76.289h12.208c1.023,0,1.851-0.829,1.851-1.851V62.229c0-1.023-0.829-1.851-1.851-1.851
		H14.249c-1.022,0-1.851,0.829-1.851,1.851v12.208C12.397,75.46,13.226,76.289,14.249,76.289z"/>
	<path style="fill:#1D1D1B;" d="M33.688,76.289h12.208c1.023,0,1.851-0.829,1.851-1.851V62.229c0-1.023-0.829-1.851-1.851-1.851
		H33.688c-1.022,0-1.851,0.829-1.851,1.851v12.208C31.837,75.46,32.666,76.289,33.688,76.289z"/>
	<path style="fill:#1D1D1B;" d="M53.437,76.289h12.208c1.023,0,1.851-0.829,1.851-1.851V62.229c0-1.023-0.829-1.851-1.851-1.851
		H53.437c-1.023,0-1.851,0.829-1.851,1.851v12.208C51.586,75.46,52.414,76.289,53.437,76.289z"/>
	<path style="fill:#1D1D1B;" d="M72.877,76.289h12.208c1.023,0,1.851-0.829,1.851-1.851V62.229c0-1.023-0.829-1.851-1.851-1.851
		H72.877c-1.023,0-1.851,0.829-1.851,1.851v12.208C71.026,75.46,71.854,76.289,72.877,76.289z"/>
</g>
</svg>
