<?xml version="1.0" encoding="iso-8859-1"?>
<!-- Generator: Adobe Illustrator 17.1.0, SVG Export Plug-In . SVG Version: 6.00 Build 0)  -->
<!DOCTYPE svg PUBLIC "-//W3C//DTD SVG 1.1//EN" "http://www.w3.org/Graphics/SVG/1.1/DTD/svg11.dtd">
<svg version="1.1" id="Capa_1" xmlns="http://www.w3.org/2000/svg" xmlns:xlink="http://www.w3.org/1999/xlink" x="0px" y="0px"
	 viewBox="0 0 100 100" style="enable-background:new 0 0 100 100;" xml:space="preserve">
<g>
	<path style="fill:#1D1D1B;" d="M90.4,36.648l-8.165,0l5.773-5.773c2.407-2.407,2.407-6.309,0-8.715L77.84,11.992
		c-2.406-2.407-6.309-2.407-8.715,0l-5.773,5.773V9.6c0-3.404-2.759-6.163-6.162-6.163H42.81c-3.403,0-6.163,2.759-6.163,6.163
		v8.164l-5.773-5.773c-2.406-2.407-6.309-2.407-8.715,0L11.992,22.159c-2.407,2.407-2.407,6.309,0,8.715l5.773,5.773H9.6
		c-3.403,0-6.163,2.759-6.163,6.163V57.19c0,3.404,2.759,6.163,6.163,6.163l8.165,0l-5.773,5.773c-2.407,2.407-2.407,6.309,0,8.715
		L22.16,88.008c2.406,2.407,6.309,2.407,8.715,0l5.773-5.773V90.4c0,3.404,2.759,6.163,6.162,6.163h14.38
		c3.403,0,6.163-2.759,6.163-6.163v-8.164l5.773,5.773c2.406,2.407,6.309,2.407,8.715,0L88.008,77.84
		c2.407-2.407,2.407-6.309,0-8.715l-5.772-5.773l8.164,0c3.403,0,6.163-2.759,6.163-6.163V42.81
		C96.562,39.407,93.803,36.648,90.4,36.648z M50,64.924c-8.242,0-14.924-6.682-14.924-14.924S41.758,35.076,50,35.076
		S64.924,41.758,64.924,50S58.242,64.924,50,64.924z"/>
</g>
</svg>
