<?xml version="1.0" encoding="iso-8859-1"?>
<!-- Generator: Adobe Illustrator 17.1.0, SVG Export Plug-In . SVG Version: 6.00 Build 0)  -->
<!DOCTYPE svg PUBLIC "-//W3C//DTD SVG 1.1//EN" "http://www.w3.org/Graphics/SVG/1.1/DTD/svg11.dtd">
<svg version="1.1" id="Capa_1" xmlns="http://www.w3.org/2000/svg" xmlns:xlink="http://www.w3.org/1999/xlink" x="0px" y="0px"
	 viewBox="0 0 100 100" style="enable-background:new 0 0 100 100;" xml:space="preserve">
<g>
	<path d="M93.364,21.611H6.636c-2.449,0-4.442,1.992-4.442,4.441v47.895c0,2.449,1.993,4.441,4.442,4.441h86.728
		c2.449,0,4.442-1.992,4.442-4.441V26.053C97.806,23.604,95.813,21.611,93.364,21.611z M92.806,73.389H7.194V26.611h85.611V73.389z"
		/>
	<path d="M14.289,41.674h6.346c1.402,0,2.539-1.137,2.539-2.539v-6.346c0-1.402-1.137-2.539-2.539-2.539h-6.346
		c-1.402,0-2.539,1.137-2.539,2.539v6.346C11.75,40.537,12.886,41.674,14.289,41.674z"/>
	<path d="M37.289,41.674h6.346c1.402,0,2.539-1.137,2.539-2.539v-6.346c0-1.402-1.137-2.539-2.539-2.539h-6.346
		c-1.402,0-2.539,1.137-2.539,2.539v6.346C34.75,40.537,35.886,41.674,37.289,41.674z"/>
	<path d="M14.289,56.396h6.346c1.402,0,2.539-1.137,2.539-2.539v-6.346c0-1.402-1.137-2.539-2.539-2.539h-6.346
		c-1.402,0-2.539,1.137-2.539,2.539v6.346C11.75,55.26,12.886,56.396,14.289,56.396z"/>
	<path d="M14.289,70.108h6.346c1.402,0,2.539-1.137,2.539-2.539v-6.346c0-1.402-1.137-2.539-2.539-2.539h-6.346
		c-1.402,0-2.539,1.137-2.539,2.539v6.346C11.75,68.972,12.886,70.108,14.289,70.108z"/>
	<path d="M28.327,70.108h35.346c1.402,0,2.539-1.137,2.539-2.539v-6.346c0-1.402-1.137-2.539-2.539-2.539H28.327
		c-1.402,0-2.539,1.137-2.539,2.539v6.346C25.788,68.972,26.925,70.108,28.327,70.108z"/>
	<path d="M51.539,41.674h6.346c1.402,0,2.539-1.137,2.539-2.539v-6.346c0-1.402-1.137-2.539-2.539-2.539h-6.346
		c-1.402,0-2.539,1.137-2.539,2.539v6.346C49,40.537,50.136,41.674,51.539,41.674z"/>
	<path d="M28.539,56.396h6.346c1.402,0,2.539-1.137,2.539-2.539v-6.346c0-1.402-1.137-2.539-2.539-2.539h-6.346
		c-1.402,0-2.539,1.137-2.539,2.539v6.346C26,55.26,27.136,56.396,28.539,56.396z"/>
	<path d="M49.135,44.973h-6.346c-1.402,0-2.539,1.137-2.539,2.539v6.346c0,1.402,1.136,2.539,2.539,2.539h6.346
		c1.402,0,2.539-1.137,2.539-2.539v-6.346C51.674,46.109,50.537,44.973,49.135,44.973z"/>
	<path d="M63.597,44.973H57.25c-1.402,0-2.539,1.137-2.539,2.539v6.346c0,1.402,1.137,2.539,2.539,2.539h6.346
		c1.402,0,2.538-1.137,2.538-2.539v-6.346C66.135,46.109,64.999,44.973,63.597,44.973z"/>
	<path d="M65.789,41.674h6.346c1.402,0,2.539-1.137,2.539-2.539v-6.346c0-1.402-1.137-2.539-2.539-2.539h-6.346
		c-1.402,0-2.539,1.137-2.539,2.539v6.346C63.25,40.537,64.386,41.674,65.789,41.674z"/>
	<path d="M80.039,41.674h6.346c1.402,0,2.539-1.137,2.539-2.539v-6.346c0-1.402-1.136-2.539-2.539-2.539h-6.346
		c-1.402,0-2.539,1.137-2.539,2.539v6.346C77.5,40.537,78.637,41.674,80.039,41.674z"/>
	<path d="M69.5,55.511v6.346c0,1.402,1.136,2.539,2.539,2.539h8h6.346c1.402,0,2.539-1.137,2.539-2.539v-6.346v-8
		c0-1.402-1.137-2.539-2.539-2.539h-6.346c-1.402,0-2.539,1.137-2.539,2.539v5.461h-5.461C70.636,52.973,69.5,54.109,69.5,55.511z"
		/>
</g>
</svg>
