<?xml version="1.0" encoding="iso-8859-1"?>
<!-- Generator: Adobe Illustrator 17.1.0, SVG Export Plug-In . SVG Version: 6.00 Build 0)  -->
<!DOCTYPE svg PUBLIC "-//W3C//DTD SVG 1.1//EN" "http://www.w3.org/Graphics/SVG/1.1/DTD/svg11.dtd">
<svg version="1.1" id="Capa_1" xmlns="http://www.w3.org/2000/svg" xmlns:xlink="http://www.w3.org/1999/xlink" x="0px" y="0px"
	 viewBox="0 0 100 100" style="enable-background:new 0 0 100 100;" xml:space="preserve">
<g>
	<path style="fill:#1D1D1B;" d="M19.231,50.827H9.617c-1.77,0-3.205,1.435-3.205,3.205v36.834c0,1.77,1.435,3.205,3.205,3.205h9.614
		c1.77,0,3.205-1.435,3.205-3.205V54.031C22.437,52.261,21.001,50.827,19.231,50.827z"/>
	<path style="fill:#1D1D1B;" d="M42.383,37.013h-9.614c-1.77,0-3.205,1.435-3.205,3.205v50.648c0,1.77,1.435,3.205,3.205,3.205
		h9.614c1.77,0,3.205-1.435,3.205-3.205V40.217C45.588,38.448,44.153,37.013,42.383,37.013z"/>
	<path style="fill:#1D1D1B;" d="M65.535,23.199H55.92c-1.77,0-3.205,1.435-3.205,3.205v64.462c0,1.77,1.435,3.205,3.205,3.205h9.614
		c1.77,0,3.205-1.435,3.205-3.205V26.403C68.739,24.633,67.304,23.199,65.535,23.199z"/>
	<path style="fill:#1D1D1B;" d="M88.716,11.227h-9.614c-1.77,0-3.205,1.435-3.205,3.205v76.434c0,1.77,1.435,3.205,3.205,3.205
		h9.614c1.77,0,3.205-1.435,3.205-3.205V14.431C91.921,12.661,90.486,11.227,88.716,11.227z"/>
</g>
</svg>
