<?xml version="1.0" encoding="iso-8859-1"?>
<!-- Generator: Adobe Illustrator 17.1.0, SVG Export Plug-In . SVG Version: 6.00 Build 0)  -->
<!DOCTYPE svg PUBLIC "-//W3C//DTD SVG 1.1//EN" "http://www.w3.org/Graphics/SVG/1.1/DTD/svg11.dtd">
<svg version="1.1" id="Capa_1" xmlns="http://www.w3.org/2000/svg" xmlns:xlink="http://www.w3.org/1999/xlink" x="0px" y="0px"
	 viewBox="0 0 100 100" style="enable-background:new 0 0 100 100;" xml:space="preserve">
<g>
	<path d="M27.078,67.729c1.352,0,2.51-0.818,3.471-2.457c8.793-15.592,13.367-23.708,13.724-24.351L35.516,25.65
		c-0.926-1.602-2.101-2.403-3.524-2.403H19.229c-0.82,0-1.388,0.267-1.709,0.801c-0.392,0.534-0.374,1.193,0.053,1.975l8.597,14.898
		c0.035,0.038,0.035,0.054,0,0.054L12.66,64.899c-0.355,0.678-0.355,1.318,0,1.921c0.355,0.607,0.908,0.909,1.655,0.909H27.078z"/>
	<path d="M85.657,5.838H72.788c-1.388,0-2.528,0.801-3.417,2.403C51.108,40.637,41.656,57.406,41.015,58.543l18.102,33.216
		c0.854,1.602,2.029,2.403,3.524,2.403h12.762c0.783,0,1.353-0.267,1.709-0.801c0.355-0.607,0.338-1.266-0.053-1.977L59.118,58.543
		v-0.052L87.313,8.615c0.391-0.747,0.391-1.404,0-1.975C86.992,6.105,86.44,5.838,85.657,5.838z"/>
</g>
</svg>
