<?xml version="1.0" encoding="iso-8859-1"?>
<!-- Generator: Adobe Illustrator 17.1.0, SVG Export Plug-In . SVG Version: 6.00 Build 0)  -->
<!DOCTYPE svg PUBLIC "-//W3C//DTD SVG 1.1//EN" "http://www.w3.org/Graphics/SVG/1.1/DTD/svg11.dtd">
<svg version="1.1" id="Capa_1" xmlns="http://www.w3.org/2000/svg" xmlns:xlink="http://www.w3.org/1999/xlink" x="0px" y="0px"
	 viewBox="0 0 100 100" style="enable-background:new 0 0 100 100;" xml:space="preserve">
<g>
	<path d="M97.5,2.5h-95v95h95V2.5z M27.078,67.729H14.316c-0.748,0-1.3-0.302-1.656-0.909c-0.355-0.603-0.355-1.243,0-1.921
		l13.51-23.923c0.035,0,0.035-0.017,0-0.054l-8.597-14.898c-0.427-0.782-0.446-1.441-0.053-1.975
		c0.321-0.534,0.889-0.801,1.709-0.801h12.762c1.423,0,2.598,0.801,3.524,2.403l8.757,15.271
		c-0.356,0.642-4.931,8.759-13.723,24.351C29.588,66.911,28.431,67.729,27.078,67.729z M87.312,8.615L59.118,58.491v0.052
		L77.06,91.383c0.391,0.711,0.409,1.37,0.053,1.977c-0.356,0.534-0.926,0.801-1.709,0.801H62.642c-1.495,0-2.67-0.801-3.524-2.403
		L41.015,58.543c0.641-1.137,10.093-17.906,28.355-50.302c0.889-1.602,2.029-2.403,3.417-2.403h12.869
		c0.783,0,1.335,0.267,1.655,0.801C87.704,7.211,87.704,7.868,87.312,8.615z"/>
</g>
</svg>
