<?xml version="1.0" encoding="iso-8859-1"?>
<!-- Generator: Adobe Illustrator 17.1.0, SVG Export Plug-In . SVG Version: 6.00 Build 0)  -->
<!DOCTYPE svg PUBLIC "-//W3C//DTD SVG 1.1//EN" "http://www.w3.org/Graphics/SVG/1.1/DTD/svg11.dtd">
<svg version="1.1" id="Capa_1" xmlns="http://www.w3.org/2000/svg" xmlns:xlink="http://www.w3.org/1999/xlink" x="0px" y="0px"
	 viewBox="0 0 100 100" style="enable-background:new 0 0 100 100;" xml:space="preserve">
<g>
	<path d="M41.248,55.521h-12.35c-0.541,0-1.009,0.197-1.404,0.592c-0.396,0.395-0.592,0.863-0.592,1.404v6.487
		c0,0.582,0.197,1.06,0.592,1.435c0.395,0.375,0.863,0.56,1.404,0.56h13.966v5.302H28.898c-0.541,0-1.009,0.2-1.404,0.595
		c-0.396,0.395-0.592,0.863-0.592,1.404v6.423c0,0.585,0.197,1.062,0.592,1.435c0.395,0.375,0.863,0.563,1.404,0.563h13.966v10.586
		c0,0.582,0.197,1.06,0.592,1.433c0.395,0.375,0.863,0.563,1.404,0.563h10.73c0.54,0,1.008-0.197,1.404-0.592
		c0.395-0.395,0.593-0.863,0.593-1.404V81.722h14.091c0.54,0,1.008-0.188,1.404-0.563c0.395-0.373,0.592-0.85,0.592-1.435V73.3
		c0-0.541-0.198-1.009-0.592-1.404c-0.396-0.395-0.864-0.595-1.404-0.595H57.587v-5.302h14.091c0.54,0,1.008-0.185,1.404-0.56
		c0.395-0.375,0.592-0.853,0.592-1.435v-6.487c0-0.541-0.198-1.009-0.592-1.404c-0.396-0.395-0.864-0.592-1.404-0.592H59.266
		l22.526-46.12c0.332-0.704,0.312-1.35-0.062-1.932c-0.416-0.665-0.977-0.999-1.684-0.999H68.129c-0.873,0-1.477,0.395-1.809,1.184
		l-11.915,26.2c-0.292,0.709-0.864,1.979-1.715,3.806c-0.853,1.83-1.487,3.243-1.903,4.242c-1.539-3.619-2.704-6.216-3.493-7.798
		L33.881,7.593c-0.416-0.748-1.02-1.123-1.809-1.123H19.97c-0.749,0-1.331,0.334-1.747,0.999c-0.333,0.665-0.333,1.331,0,1.996
		L41.248,55.521z"/>
</g>
</svg>
