<?xml version="1.0" encoding="iso-8859-1"?>
<!-- Generator: Adobe Illustrator 17.1.0, SVG Export Plug-In . SVG Version: 6.00 Build 0)  -->
<!DOCTYPE svg PUBLIC "-//W3C//DTD SVG 1.1//EN" "http://www.w3.org/Graphics/SVG/1.1/DTD/svg11.dtd">
<svg version="1.1" id="Capa_1" xmlns="http://www.w3.org/2000/svg" xmlns:xlink="http://www.w3.org/1999/xlink" x="0px" y="0px"
	 viewBox="0 0 100 100" style="enable-background:new 0 0 100 100;" xml:space="preserve">
<g>
	<path style="fill:#1D1D1B;" d="M59.497,13.182v20.008c0,1.728,0.135,2.997,0.406,3.809c0.44,1.254,1.439,1.879,2.996,1.879
		c1.692,0,3.436-1.047,5.23-3.148v2.793h4.622V13.182H68.13V32.53c-1.016,1.458-1.98,2.184-2.895,2.184
		c-0.609,0-0.965-0.371-1.066-1.117c-0.034-0.067-0.051-0.661-0.051-1.777V13.182H59.497z"/>
	<path style="fill:#1D1D1B;" d="M48.934,38.878c2.336,0,4.13-0.863,5.383-2.589c0.948-1.252,1.422-3.251,1.422-5.993v-8.887
		c0-2.708-0.474-4.688-1.422-5.941c-1.253-1.728-3.047-2.591-5.383-2.591c-2.269,0-4.046,0.863-5.333,2.591
		c-0.948,1.254-1.422,3.234-1.422,5.941v8.887c0,2.71,0.474,4.708,1.422,5.993C44.887,38.015,46.665,38.878,48.934,38.878z
		 M46.75,20.494c0-2.335,0.728-3.503,2.184-3.503c1.455,0,2.184,1.168,2.184,3.503v10.665c0,2.371-0.729,3.555-2.184,3.555
		c-1.456,0-2.184-1.184-2.184-3.555V20.494z"/>
	<path style="fill:#1D1D1B;" d="M35.984,38.523V24.761l6.145-20.264h-5.18l-3.453,13.357L29.889,4.497h-5.383
		c0.948,2.845,2.048,6.011,3.301,9.496c1.591,4.674,2.623,8.262,3.098,10.768v13.761H35.984z"/>
	<path style="fill:#1D1D1B;" d="M83.391,46.496c-1.507-1.353-3.242-2.148-5.205-2.387c-6.23-0.676-15.625-1.016-28.185-1.016
		c-12.561,0-21.939,0.339-28.135,1.016c-1.998,0.238-3.741,1.034-5.231,2.387c-1.49,1.357-2.472,3.031-2.946,5.029
		c-0.881,3.928-1.32,9.851-1.32,17.775c0,8.058,0.44,13.982,1.32,17.775c0.44,1.996,1.413,3.672,2.92,5.027
		c1.506,1.355,3.241,2.133,5.205,2.337c6.229,0.71,15.624,1.065,28.186,1.065c12.561,0,21.956-0.355,28.185-1.065
		c1.963-0.204,3.69-0.982,5.18-2.337c1.489-1.355,2.471-3.031,2.946-5.027c0.88-3.928,1.32-9.853,1.32-17.775
		c0-8.058-0.44-13.982-1.32-17.775C85.87,49.527,84.897,47.853,83.391,46.496z M33.851,56.653h-5.434V85.55h-5.078V56.653h-5.332
		V51.88h15.845V56.653z M47.562,85.55h-4.52v-2.744c-1.828,2.065-3.555,3.099-5.18,3.099c-1.558,0-2.539-0.627-2.946-1.879
		c-0.271-0.813-0.406-2.047-0.406-3.708V60.461h4.52v18.487c0,1.083,0.017,1.676,0.051,1.777c0.102,0.71,0.457,1.065,1.067,1.065
		c0.914,0,1.879-0.71,2.895-2.133V60.461h4.52V85.55z M64.829,78.034c0,2.472-0.152,4.164-0.457,5.078
		c-0.576,1.861-1.777,2.793-3.606,2.793c-1.625,0-3.199-0.932-4.723-2.793v2.438h-4.52V51.88h4.52v11.02
		c1.455-1.827,3.03-2.742,4.723-2.742c1.828,0,3.03,0.948,3.606,2.843c0.305,0.881,0.457,2.557,0.457,5.029V78.034z M81.994,73.87
		h-9.09v4.418c0,2.337,0.778,3.503,2.336,3.503c1.117,0,1.794-0.609,2.031-1.827c0.067-0.339,0.102-1.371,0.102-3.099h4.621v0.661
		c0,1.66-0.034,2.64-0.102,2.946c-0.102,0.915-0.457,1.827-1.066,2.742c-1.219,1.793-3.047,2.692-5.485,2.692
		c-2.336,0-4.165-0.863-5.485-2.591c-0.982-1.252-1.473-3.214-1.473-5.89v-8.786c0-2.674,0.474-4.638,1.422-5.892
		c1.32-1.726,3.131-2.589,5.434-2.589c2.268,0,4.063,0.863,5.383,2.589c0.914,1.254,1.371,3.218,1.371,5.892V73.87z"/>
	<path style="fill:#1D1D1B;" d="M75.189,64.27c-1.524,0-2.285,1.152-2.285,3.454v2.337h4.571v-2.337
		C77.474,65.423,76.713,64.27,75.189,64.27z"/>
	<path style="fill:#1D1D1B;" d="M58.329,64.27c-0.779,0-1.541,0.373-2.285,1.119v15.285c0.744,0.746,1.506,1.117,2.285,1.117
		c1.32,0,1.981-1.133,1.981-3.402V67.674C60.309,65.405,59.649,64.27,58.329,64.27z"/>
</g>
</svg>
