<?xml version="1.0" encoding="iso-8859-1"?>
<!-- Generator: Adobe Illustrator 17.1.0, SVG Export Plug-In . SVG Version: 6.00 Build 0)  -->
<!DOCTYPE svg PUBLIC "-//W3C//DTD SVG 1.1//EN" "http://www.w3.org/Graphics/SVG/1.1/DTD/svg11.dtd">
<svg version="1.1" id="Capa_1" xmlns="http://www.w3.org/2000/svg" xmlns:xlink="http://www.w3.org/1999/xlink" x="0px" y="0px"
	 viewBox="0 0 100 100" style="enable-background:new 0 0 100 100;" xml:space="preserve">
<g>
	<path style="fill:#1D1D1B;" d="M57.97,33.438V17.089c0-4.42-3.583-13.339-8.003-13.339c-4.421,0-8.004,8.919-8.004,13.339v16.989
		c-11.657,3.889-30.414,11.02-30.414,16.653c0,1.528,0,2.641,0,3.441c0,0.589,0.468,0.97,1.045,0.85l29.369-6.113v29.76
		c-7.14,4.466-16.274,10.787-16.274,13.89c0,0.719,0,1.291,0,1.742c0,0.589,0.46,0.939,1.028,0.781l22.555-6.298
		c0.567-0.159,1.486-0.155,2.054,0.007l21.894,6.283c0.566,0.163,1.025-0.184,1.025-0.774c0-0.452,0-1.023,0-1.742
		c0-3.169-9.27-9.693-16.274-14.172V48.506l30.438,6.511c0.577,0.123,1.044-0.255,1.044-0.844c0-0.8,0-1.913,0-3.441
		C89.451,44.774,69.035,37.139,57.97,33.438z"/>
</g>
</svg>
