<?xml version="1.0" encoding="iso-8859-1"?>
<!-- Generator: Adobe Illustrator 17.1.0, SVG Export Plug-In . SVG Version: 6.00 Build 0)  -->
<!DOCTYPE svg PUBLIC "-//W3C//DTD SVG 1.1//EN" "http://www.w3.org/Graphics/SVG/1.1/DTD/svg11.dtd">
<svg version="1.1" id="Capa_1" xmlns="http://www.w3.org/2000/svg" xmlns:xlink="http://www.w3.org/1999/xlink" x="0px" y="0px"
	 viewBox="0 0 100 100" style="enable-background:new 0 0 100 100;" xml:space="preserve">
<g>
	<path style="fill:#000100;" d="M92.837,23.55H34.383c-2.083,0-3.771,1.688-3.771,3.771v7.24l-4.688,0.018
		c-1.389,0.005-2.943,1.05-3.472,2.334l-4.725,11.464c-2.083,0-15.085,1.688-15.085,3.771v17.285c0,1.573,4.547,2.92,7.67,3.486
		c2.141-4.654,6.836-7.9,12.286-7.9c5.562,0,10.348,3.376,12.424,8.185H65.43c2.076-4.809,6.862-8.185,12.424-8.185
		s10.348,3.376,12.424,8.185h2.559c2.083,0,3.771-1.688,3.771-3.771V27.321C96.609,25.238,94.92,23.55,92.837,23.55z M80.478,47.312
		c0,2.145-1.74,3.885-3.885,3.885h-9.252v9.252c0,2.146-1.739,3.885-3.885,3.885h-1.082c-2.145,0-3.885-1.739-3.885-3.885v-9.252
		h-9.251c-2.146,0-3.885-1.739-3.885-3.885V46.23c0-2.146,1.739-3.885,3.885-3.885h9.251v-9.252c0-2.146,1.74-3.885,3.885-3.885
		h1.082c2.146,0,3.885,1.739,3.885,3.885v9.252h9.252c2.145,0,3.885,1.739,3.885,3.885V47.312z"/>
	<path style="fill:#000100;" d="M33.126,78.547c0-1.953-0.541-3.775-1.468-5.343c-1.832-3.1-5.198-5.185-9.06-5.185
		s-7.229,2.086-9.061,5.185c-0.927,1.568-1.468,3.39-1.468,5.343c0,5.815,4.714,10.528,10.528,10.528
		C28.412,89.075,33.126,84.362,33.126,78.547z"/>
	<path style="fill:#000100;" d="M88.382,78.547c0-1.953-0.541-3.775-1.468-5.343c-1.832-3.1-5.199-5.185-9.061-5.185
		s-7.228,2.086-9.06,5.185c-0.927,1.568-1.468,3.39-1.468,5.343c0,5.815,4.714,10.528,10.528,10.528
		C83.669,89.075,88.382,84.362,88.382,78.547z"/>
</g>
</svg>
