<?xml version="1.0" encoding="iso-8859-1"?>
<!-- Generator: Adobe Illustrator 17.1.0, SVG Export Plug-In . SVG Version: 6.00 Build 0)  -->
<!DOCTYPE svg PUBLIC "-//W3C//DTD SVG 1.1//EN" "http://www.w3.org/Graphics/SVG/1.1/DTD/svg11.dtd">
<svg version="1.1" id="Capa_1" xmlns="http://www.w3.org/2000/svg" xmlns:xlink="http://www.w3.org/1999/xlink" x="0px" y="0px"
	 viewBox="0 0 100 100" style="enable-background:new 0 0 100 100;" xml:space="preserve">
<g>
	<path d="M3.667,96.456h92.667V3.789H3.667V96.456z M72.824,70.636c0,1.528-0.531,2.821-1.593,3.883
		c-1.062,1.062-2.34,1.593-3.833,1.593h-3.733v11.3c0,1.427-0.498,2.639-1.493,3.634s-2.207,1.493-3.634,1.493
		c-1.427,0-2.638-0.498-3.634-1.493c-0.995-0.996-1.493-2.207-1.493-3.634v-11.3h-6.87v11.3c0,1.427-0.498,2.639-1.493,3.634
		c-0.996,0.996-2.207,1.493-3.634,1.493c-1.394,0-2.589-0.498-3.584-1.493s-1.493-2.207-1.493-3.634l-0.05-11.3h-3.684
		c-1.527,0-2.821-0.531-3.883-1.593c-1.062-1.062-1.593-2.355-1.593-3.883V37.482h45.698V70.636z M74.815,41.614
		c0-1.425,0.498-2.629,1.493-3.609c0.996-0.978,2.19-1.468,3.584-1.468c1.426,0,2.638,0.49,3.634,1.468
		c0.996,0.98,1.493,2.184,1.493,3.609V63.02c0,1.429-0.498,2.639-1.493,3.634c-0.996,0.996-2.207,1.493-3.634,1.493
		c-1.394,0-2.589-0.498-3.584-1.493c-0.996-0.996-1.493-2.205-1.493-3.634V41.614z M30.113,24.964
		c2.123-3.269,4.978-5.814,8.562-7.642l-3.534-6.52c-0.233-0.432-0.149-0.762,0.249-0.996c0.431-0.2,0.763-0.099,0.996,0.298
		l3.584,6.572c3.152-1.394,6.488-2.092,10.006-2.092c3.517,0,6.852,0.698,10.006,2.092l3.584-6.572
		c0.232-0.397,0.564-0.498,0.996-0.298c0.398,0.233,0.481,0.564,0.249,0.996l-3.534,6.52c3.551,1.828,6.388,4.373,8.512,7.642
		c2.123,3.271,3.186,6.845,3.186,10.728H26.927C26.927,31.808,27.989,28.234,30.113,24.964z M14.93,41.614
		c0-1.394,0.498-2.588,1.493-3.584c0.996-0.996,2.207-1.493,3.634-1.493c1.394,0,2.589,0.498,3.584,1.493s1.493,2.19,1.493,3.584
		V63.02c0,1.429-0.49,2.639-1.469,3.634c-0.979,0.996-2.182,1.493-3.609,1.493c-1.427,0-2.638-0.498-3.634-1.493
		c-0.996-0.996-1.493-2.205-1.493-3.634V41.614z"/>
	<path d="M39.472,23.495c-0.531,0-0.979,0.191-1.344,0.572c-0.366,0.383-0.548,0.838-0.548,1.369c0,0.533,0.182,0.988,0.548,1.369
		c0.365,0.383,0.813,0.574,1.344,0.574c0.53,0,0.987-0.191,1.369-0.574c0.381-0.381,0.572-0.836,0.572-1.369
		c0-0.531-0.191-0.986-0.572-1.369C40.459,23.686,40.002,23.495,39.472,23.495z"/>
	<path d="M60.479,23.495c-0.531,0-0.988,0.191-1.369,0.572c-0.382,0.383-0.572,0.838-0.572,1.369c0,0.533,0.191,0.988,0.572,1.369
		c0.381,0.383,0.838,0.574,1.369,0.574c0.53,0,0.978-0.191,1.344-0.574c0.365-0.381,0.548-0.836,0.548-1.369
		c0-0.531-0.183-0.986-0.548-1.369C61.457,23.686,61.009,23.495,60.479,23.495z"/>
</g>
</svg>
