<?xml version="1.0" encoding="iso-8859-1"?>
<!-- Generator: Adobe Illustrator 17.1.0, SVG Export Plug-In . SVG Version: 6.00 Build 0)  -->
<!DOCTYPE svg PUBLIC "-//W3C//DTD SVG 1.1//EN" "http://www.w3.org/Graphics/SVG/1.1/DTD/svg11.dtd">
<svg version="1.1" id="Capa_1" xmlns="http://www.w3.org/2000/svg" xmlns:xlink="http://www.w3.org/1999/xlink" x="0px" y="0px"
	 viewBox="0 0 100 100" style="enable-background:new 0 0 100 100;" xml:space="preserve">
<g>
	<path style="fill:#000100;" d="M59.399,6.731c-0.457,0.293-0.884,0.692-1.213,1.2L44.138,29.593
		c-0.601,0.927-1.961,1.878-3.038,2.125l-20.512,4.708c-1.076,0.247-2.903,0.571-3.745,1.286c-1.197,1.016-1.222,2.649,0.145,4.225
		l16.708,19.248c0.724,0.834,1.216,2.401,1.099,3.499l-2.333,21.939c-0.117,1.098-0.391,2.926-0.004,3.96
		c0.583,1.558,2.182,2.28,4.195,1.669l22.433-6.809C60.143,85.123,61,83.968,61,82.863V8.146C61,7.041,60.198,6.219,59.399,6.731z"
		/>
</g>
</svg>
