<?xml version="1.0" encoding="iso-8859-1"?>
<!-- Generator: Adobe Illustrator 17.1.0, SVG Export Plug-In . SVG Version: 6.00 Build 0)  -->
<!DOCTYPE svg PUBLIC "-//W3C//DTD SVG 1.1//EN" "http://www.w3.org/Graphics/SVG/1.1/DTD/svg11.dtd">
<svg version="1.1" id="Capa_1" xmlns="http://www.w3.org/2000/svg" xmlns:xlink="http://www.w3.org/1999/xlink" x="0px" y="0px"
	 viewBox="0 0 100 100" style="enable-background:new 0 0 100 100;" xml:space="preserve">
<g>
	<path style="fill:#000100;" d="M86.864,42.364H68.435l13.031-13.031c2.982-2.982,2.982-7.817,0-10.799
		c-2.982-2.982-7.817-2.982-10.799,0L57.636,31.565V13.136C57.636,8.919,54.217,5.5,50,5.5s-7.636,3.419-7.636,7.636v18.429
		L29.333,18.534c-2.982-2.982-7.817-2.982-10.799,0c-2.982,2.982-2.982,7.817,0,10.799l13.031,13.031H13.136
		C8.919,42.364,5.5,45.783,5.5,50c0,4.217,3.419,7.636,7.636,7.636h18.429L18.534,70.667c-2.982,2.982-2.982,7.817,0,10.799
		c2.982,2.982,7.817,2.982,10.799,0l13.031-13.031v18.429c0,4.217,3.419,7.636,7.636,7.636s7.636-3.419,7.636-7.636V68.435
		l13.031,13.031c2.982,2.982,7.817,2.982,10.799,0c2.982-2.982,2.982-7.817,0-10.799L68.435,57.636h18.429
		c4.217,0,7.636-3.419,7.636-7.636C94.5,45.783,91.081,42.364,86.864,42.364z"/>
</g>
</svg>
