<?xml version="1.0" encoding="iso-8859-1"?>
<!-- Generator: Adobe Illustrator 17.1.0, SVG Export Plug-In . SVG Version: 6.00 Build 0)  -->
<!DOCTYPE svg PUBLIC "-//W3C//DTD SVG 1.1//EN" "http://www.w3.org/Graphics/SVG/1.1/DTD/svg11.dtd">
<svg version="1.1" id="Capa_1" xmlns="http://www.w3.org/2000/svg" xmlns:xlink="http://www.w3.org/1999/xlink" x="0px" y="0px"
	 viewBox="0 0 100 100" style="enable-background:new 0 0 100 100;" xml:space="preserve">
<g>
	<path style="fill:#1D1D1B;" d="M49.65,10.373c-24.207,0-43.9,19.694-43.9,43.9c0,1.68,0.982,3.119,2.395,3.811v28.437
		c0,1.439,1.167,2.606,2.605,2.606h16.285c1.439,0,2.605-1.167,2.605-2.606v-32.57c0-1.439-1.167-2.606-2.605-2.606H14.395
		c1.494-18.147,16.73-32.46,35.256-32.46S83.412,33.2,84.906,51.346H72.743c-1.439,0-2.605,1.167-2.605,2.606v32.57
		c0,1.439,1.167,2.606,2.605,2.606h16.285c1.439,0,2.605-1.167,2.605-2.606V57.825c1.154-0.762,1.917-2.066,1.917-3.552
		C93.551,30.067,73.857,10.373,49.65,10.373z"/>
</g>
</svg>
