<?xml version="1.0" encoding="iso-8859-1"?>
<!-- Generator: Adobe Illustrator 17.1.0, SVG Export Plug-In . SVG Version: 6.00 Build 0)  -->
<!DOCTYPE svg PUBLIC "-//W3C//DTD SVG 1.1//EN" "http://www.w3.org/Graphics/SVG/1.1/DTD/svg11.dtd">
<svg version="1.1" id="Capa_1" xmlns="http://www.w3.org/2000/svg" xmlns:xlink="http://www.w3.org/1999/xlink" x="0px" y="0px"
	 viewBox="0 0 100 100" style="enable-background:new 0 0 100 100;" xml:space="preserve">
<g>
	<path style="fill:#000100;" d="M50,95.75c5.612,0,10.233-4.206,10.907-9.636H39.093C39.767,91.544,44.388,95.75,50,95.75z"/>
	<path style="fill:#000100;" d="M64.513,21.731c0.145-0.853,0.237-1.723,0.237-2.617c0-8.603-6.999-15.602-15.602-15.602
		s-15.602,6.999-15.602,15.602c0,0.893,0.092,1.764,0.237,2.617C26.241,26.722,21.263,35.278,21.263,45l-1,38.114h18.872h21.73
		h17.169l-1-38.114C77.034,35.278,72.056,26.722,64.513,21.731z M49.148,13.513c2.579,0,4.75,1.753,5.398,4.129
		c-1.747-0.343-3.551-0.527-5.398-0.527s-3.651,0.184-5.398,0.527C44.399,15.266,46.57,13.513,49.148,13.513z"/>
</g>
</svg>
