<?xml version="1.0" encoding="iso-8859-1"?>
<!-- Generator: Adobe Illustrator 17.1.0, SVG Export Plug-In . SVG Version: 6.00 Build 0)  -->
<!DOCTYPE svg PUBLIC "-//W3C//DTD SVG 1.1//EN" "http://www.w3.org/Graphics/SVG/1.1/DTD/svg11.dtd">
<svg version="1.1" id="Capa_1" xmlns="http://www.w3.org/2000/svg" xmlns:xlink="http://www.w3.org/1999/xlink" x="0px" y="0px"
	 viewBox="0 0 100 100" style="enable-background:new 0 0 100 100;" xml:space="preserve">
<g>
	<path style="fill:#000100;" d="M21.716,85.345h14.411c1.139,6.55,6.85,11.55,13.72,11.55s12.581-5.001,13.72-11.55h12.718
		c0.81,0,1.584-0.327,2.149-0.907c0.564-0.58,0.871-1.363,0.85-2.172l-0.944-35.922c0-9.244-4.317-17.856-11.638-23.395
		c0.023-0.357,0.035-0.708,0.035-1.055c0-9.78-7.956-17.736-17.736-17.736s-17.736,7.957-17.736,17.736
		c0,0.347,0.012,0.698,0.035,1.055c-7.32,5.539-11.638,14.146-11.637,23.316l-0.945,36c-0.021,0.809,0.285,1.592,0.85,2.172
		C20.132,85.018,20.906,85.345,21.716,85.345z M25.661,46.345c0-7.853,3.918-15.133,10.481-19.477
		c0.99-0.655,1.501-1.833,1.303-3.004c-0.122-0.719-0.182-1.363-0.182-1.97c0-6.471,5.265-11.736,11.736-11.736
		s11.736,5.265,11.736,11.736c0,0.606-0.06,1.25-0.182,1.97c-0.198,1.171,0.312,2.349,1.303,3.004
		c6.563,4.343,10.481,11.624,10.482,19.555l0.864,32.922h-9.909h-6.386H42.784h-6.386H24.796L25.661,46.345z M49.847,90.896
		c-3.545,0-6.554-2.337-7.57-5.55h15.141C56.4,88.559,53.392,90.896,49.847,90.896z"/>
	<path style="fill:#000100;" d="M44.479,23.447c2.984-0.586,6.057-0.586,9.041,0c0.192,0.038,0.386,0.056,0.578,0.056
		c0.825,0,1.624-0.34,2.197-0.957c0.706-0.76,0.97-1.832,0.697-2.833c-0.982-3.597-4.269-6.109-7.993-6.109
		s-7.011,2.512-7.993,6.109c-0.272,1.001-0.009,2.073,0.697,2.833S43.462,23.647,44.479,23.447z"/>
</g>
</svg>
