<?xml version="1.0" encoding="iso-8859-1"?>
<!-- Generator: Adobe Illustrator 17.1.0, SVG Export Plug-In . SVG Version: 6.00 Build 0)  -->
<!DOCTYPE svg PUBLIC "-//W3C//DTD SVG 1.1//EN" "http://www.w3.org/Graphics/SVG/1.1/DTD/svg11.dtd">
<svg version="1.1" id="Layer_1" xmlns="http://www.w3.org/2000/svg" xmlns:xlink="http://www.w3.org/1999/xlink" x="0px" y="0px"
	 viewBox="0 0 64 64" style="enable-background:new 0 0 64 64;" xml:space="preserve">
<g>
	<path d="M55,53.811v-8.621C55,43.98,54.02,43,52.811,43H8.189C6.98,43,6,43.98,6,45.189v8.621C6,55.02,6.98,56,8.189,56h44.621
		C54.02,56,55,55.02,55,53.811z"/>
	<path d="M11,31.189v7.621C11,40.02,11.98,41,13.189,41h33.621C48.02,41,49,40.02,49,38.811v-7.621C49,29.98,48.02,29,46.811,29
		H13.189C11.98,29,11,29.98,11,31.189z"/>
	<path d="M24,8c-0.552,0-1,0.448-1,1v6h-3.811C17.98,15,17,15.98,17,17.189v7.621C17,26.02,17.98,27,19.189,27h23.621
		C44.02,27,45,26.02,45,24.811v-7.621C45,15.98,44.02,15,42.811,15H40V9c0-0.552-0.448-1-1-1s-1,0.448-1,1v6h-6V6
		c0-0.552-0.448-1-1-1s-1,0.448-1,1v9h-5V9C25,8.448,24.552,8,24,8z"/>
</g>
</svg>
