<?xml version="1.0" encoding="iso-8859-1"?>
<!-- Generator: Adobe Illustrator 17.1.0, SVG Export Plug-In . SVG Version: 6.00 Build 0)  -->
<!DOCTYPE svg PUBLIC "-//W3C//DTD SVG 1.1//EN" "http://www.w3.org/Graphics/SVG/1.1/DTD/svg11.dtd">
<svg version="1.1" id="Capa_1" xmlns="http://www.w3.org/2000/svg" xmlns:xlink="http://www.w3.org/1999/xlink" x="0px" y="0px"
	 viewBox="0 0 100 100" style="enable-background:new 0 0 100 100;" xml:space="preserve">
<g>
	<path d="M33.615,21.974c0.963,0.158,2.496,0.359,4.599,0.604c7.988,1.016,15.836,1.035,23.544,0.053
		c2.207-0.279,3.774-0.491,4.703-0.63c0.928-0.14,2.198-0.517,3.81-1.131c1.611-0.612,2.925-1.427,3.941-2.443
		c-0.701-0.946-1.682-1.724-2.943-2.338s-2.278-1-3.048-1.158c-0.771-0.156-2.015-0.376-3.731-0.657
		c-10.195-1.644-20.111-1.609-29.746,0.107c-1.507,0.246-2.663,0.456-3.468,0.63c-0.807,0.174-1.77,0.56-2.891,1.156
		c-1.122,0.595-1.997,1.351-2.627,2.26c1.051,0.981,2.382,1.778,3.994,2.392C31.364,21.432,32.651,21.816,33.615,21.974z"/>
	<path d="M2.5,97.5h95v-95h-95V97.5z M77.629,70.876c-0.281,0.981-0.42,1.628-0.42,1.944c-0.281,0.911-0.552,2.252-0.815,4.02
		c-0.263,1.772-0.508,3.242-0.736,4.416c-0.228,1.174-0.728,2.398-1.498,3.679c-0.771,1.277-1.787,2.266-3.048,2.968
		c-3.013,1.681-6.333,2.934-9.958,3.757c-3.626,0.823-7.166,1.209-10.616,1.158c-3.451-0.053-6.981-0.378-10.589-0.973
		c-1.612-0.281-3.04-0.595-4.283-0.946c-1.244-0.351-2.584-0.823-4.021-1.419c-1.437-0.595-2.715-1.359-3.836-2.287
		c-1.122-0.928-2.032-2.006-2.732-3.231c-0.876-3.363-1.875-8.478-2.996-15.345l0.315-0.842l0.946-0.472
		c7.812,5.186,16.686,7.778,26.618,7.778s18.823-2.593,26.671-7.778c0.736,0.209,1.157,0.614,1.261,1.209
		C77.997,69.106,77.909,69.895,77.629,70.876z M13.908,16.824c0.508-0.788,1.059-1.445,1.655-1.971
		c0.596-0.526,1.384-1.051,2.365-1.577c0.98-0.526,1.787-0.92,2.417-1.182c0.631-0.263,1.472-0.587,2.522-0.973
		c4.379-1.609,9.862-2.732,16.449-3.363c13.278-1.295,25.121-0.421,35.526,2.628c5.431,1.614,9.197,3.749,11.299,6.411
		c0.56,0.702,0.849,1.595,0.867,2.681c0.018,1.086-0.079,2.032-0.289,2.837c-0.912,5.853-2.856,17.326-5.833,34.423
		c-0.176,1.051-0.649,2.034-1.419,2.944c-0.771,0.911-1.533,1.612-2.286,2.102c-0.754,0.491-1.708,1.035-2.864,1.628
		c-8.829,4.416-19.516,5.957-32.058,4.625c-8.69-0.946-15.591-3.379-20.706-7.304c-0.526-0.421-0.973-0.885-1.34-1.394
		c-0.368-0.507-0.666-1.119-0.894-1.839c-0.228-0.716-0.386-1.314-0.473-1.786c-0.088-0.472-0.193-1.164-0.315-2.076
		c-0.123-0.909-0.219-1.525-0.289-1.839c-0.315-1.751-0.78-4.379-1.393-7.883c-0.613-3.504-1.104-6.333-1.471-8.489
		c-0.368-2.154-0.78-4.738-1.235-7.752c-0.456-3.012-0.841-5.781-1.156-8.302C13.093,18.462,13.399,17.612,13.908,16.824z"/>
	<path d="M55.714,38.293c-3.469-1.997-6.92-2.225-10.353-0.684c-2.208,0.981-3.968,2.531-5.282,4.65
		c-1.314,2.121-1.918,4.389-1.813,6.807c0.139,3.188,1.498,5.904,4.073,8.146s5.474,3.223,8.698,2.942
		c3.188-0.279,5.851-1.751,7.988-4.414c2.137-2.663,3.013-5.606,2.627-8.829C61.162,43.162,59.183,40.288,55.714,38.293z
		 M53.166,53.322c-2.05,1.332-4.003,1.437-5.86,0.316c-1.366-0.595-2.304-1.612-2.812-3.049c-0.508-1.435-0.518-2.872-0.026-4.309
		c0.49-1.435,1.401-2.453,2.733-3.049c1.261-0.63,2.531-0.842,3.81-0.63c1.279,0.209,2.399,0.831,3.363,1.866
		c0.963,1.035,1.445,2.217,1.445,3.547C56.1,50.222,55.215,51.992,53.166,53.322z"/>
</g>
</svg>
