<?xml version="1.0" encoding="iso-8859-1"?>
<!-- Generator: Adobe Illustrator 17.1.0, SVG Export Plug-In . SVG Version: 6.00 Build 0)  -->
<!DOCTYPE svg PUBLIC "-//W3C//DTD SVG 1.1//EN" "http://www.w3.org/Graphics/SVG/1.1/DTD/svg11.dtd">
<svg version="1.1" id="Capa_1" xmlns="http://www.w3.org/2000/svg" xmlns:xlink="http://www.w3.org/1999/xlink" x="0px" y="0px"
	 viewBox="0 0 100 100" style="enable-background:new 0 0 100 100;" xml:space="preserve">
<g>
	<path style="fill:#1D1D1B;" d="M68.604,47.711c3.151-1.426,5.647-3.566,7.488-6.418c1.841-2.853,2.761-5.987,2.761-9.404
		c0-3.151-0.746-5.995-2.239-8.533c-1.493-2.538-3.358-4.569-5.597-6.095s-4.777-2.529-7.613-3.01
		c-0.462-0.078-0.978-0.148-1.519-0.214V9.53c0-1.657-1.343-3-3-3h-6c-1.657,0-3,1.343-3,3v4h-6.257v-4c0-1.657-1.343-3-3-3h-6
		c-1.657,0-3,1.343-3,3v4H21.337V86.47H31.63v3.5c0,1.657,1.343,3,3,3h6c1.657,0,3-1.343,3-3v-3.5h2.535
		c1.311-0.009,2.547-0.021,3.722-0.034v3.534c0,1.657,1.343,3,3,3h6c1.657,0,3-1.343,3-3v-3.842c0.833-0.047,1.52-0.099,2.041-0.155
		c3.914-0.431,7.206-1.584,9.876-3.458c2.67-1.874,4.776-4.378,6.319-7.513c1.542-3.135,2.313-6.36,2.313-9.677
		c0-4.213-1.194-7.878-3.582-10.996S73.049,49.005,68.604,47.711z M44.523,25.67c6.933,0,11.129,0.083,12.588,0.249
		c2.455,0.299,4.304,1.153,5.548,2.562s1.866,3.242,1.866,5.498c0,2.355-0.722,4.254-2.165,5.697
		c-1.443,1.443-3.425,2.314-5.946,2.612c-1.393,0.166-4.959,0.249-10.697,0.249h-9.652V25.67H44.523z M65.146,70.823
		c-1.377,1.542-3.159,2.513-5.349,2.911c-1.427,0.299-4.793,0.448-10.1,0.448H36.064V54.677h11.891c6.7,0,11.054,0.348,13.061,1.045
		c2.007,0.697,3.541,1.808,4.602,3.334c1.061,1.526,1.592,3.383,1.592,5.573C67.211,67.215,66.523,69.28,65.146,70.823z"/>
</g>
</svg>
