<?xml version="1.0" encoding="iso-8859-1"?>
<!-- Generator: Adobe Illustrator 17.1.0, SVG Export Plug-In . SVG Version: 6.00 Build 0)  -->
<!DOCTYPE svg PUBLIC "-//W3C//DTD SVG 1.1//EN" "http://www.w3.org/Graphics/SVG/1.1/DTD/svg11.dtd">
<svg version="1.1" id="Capa_1" xmlns="http://www.w3.org/2000/svg" xmlns:xlink="http://www.w3.org/1999/xlink" x="0px" y="0px"
	 viewBox="0 0 100 100" style="enable-background:new 0 0 100 100;" xml:space="preserve">
<g>
	<path style="fill:#000100;" d="M73.333,79.208H39.884c-3.358,0-6.082,2.723-6.082,6.081v4.865c0,3.359,2.723,6.081,6.082,6.081
		h33.448c3.359,0,6.082-2.723,6.082-6.081v-4.865C79.414,81.931,76.691,79.208,73.333,79.208z"/>
	<path style="fill:#000100;" d="M75.171,30.051c-1.016-0.88-2.915-1.76-4.242-1.965L49.042,24.7V10.713
		C49.042,7.005,45.63,4,41.422,4s-7.62,3.005-7.62,6.713V30.89v5.15v13.795c0,1.343-1.025,2.066-2.291,1.614l-15.285-5.458
		c-1.265-0.452-2.613,0.228-2.807,1.557c-0.43,2.95-0.454,8.009,3.399,11.428c1.005,0.892,2.938,1.929,4.05,2.682
		c5.093,3.446,9.356,8.438,11.481,11.161c0.826,1.059,2.541,1.951,3.884,1.951h40.746c1.343,0,2.433-1.089,2.433-2.433V36.161
		c0-1.344-0.823-3.146-1.838-4.026L75.171,30.051z"/>
</g>
</svg>
