<?xml version="1.0" encoding="iso-8859-1"?>
<!-- Generator: Adobe Illustrator 17.1.0, SVG Export Plug-In . SVG Version: 6.00 Build 0)  -->
<!DOCTYPE svg PUBLIC "-//W3C//DTD SVG 1.1//EN" "http://www.w3.org/Graphics/SVG/1.1/DTD/svg11.dtd">
<svg version="1.1" id="Capa_1" xmlns="http://www.w3.org/2000/svg" xmlns:xlink="http://www.w3.org/1999/xlink" x="0px" y="0px"
	 viewBox="0 0 100 100" style="enable-background:new 0 0 100 100;" xml:space="preserve">
<g>
	<path style="fill:#1D1D1B;" d="M76.516,6.187c0,0-44.428,0-50.885,0c-6.457,0-6.264,6.264-6.264,6.264v72.357
		c0,6.411,5.197,11.608,11.608,11.608h48.658V20.19h-3.058L76.516,6.187z M27.842,20.19c-3.206,0-5.804-2.599-5.804-5.804v-1.935
		c0-3.112,4.052-3.676,4.052-3.676h46.432c-4.836,4.837-1.161,9.48-1.161,9.48l1.736,1.935H27.842z M73.587,45.147
		c0,3.206-2.599,5.804-5.804,5.804h-28.44c-3.205,0-5.804-2.599-5.804-5.804v-8.706c0-3.206,2.599-5.804,5.804-5.804h28.44
		c3.205,0,5.804,2.599,5.804,5.804V45.147z"/>
</g>
</svg>
