<?xml version="1.0" encoding="iso-8859-1"?>
<!-- Generator: Adobe Illustrator 17.1.0, SVG Export Plug-In . SVG Version: 6.00 Build 0)  -->
<!DOCTYPE svg PUBLIC "-//W3C//DTD SVG 1.1//EN" "http://www.w3.org/Graphics/SVG/1.1/DTD/svg11.dtd">
<svg version="1.1" id="Capa_1" xmlns="http://www.w3.org/2000/svg" xmlns:xlink="http://www.w3.org/1999/xlink" x="0px" y="0px"
	 viewBox="0 0 100 100" style="enable-background:new 0 0 100 100;" xml:space="preserve">
<g>
	<path style="fill:#1D1D1B;" d="M39.82,67.25l-7.07,7.07l0.929,0.929c0.976,0.977,2.256,1.465,3.535,1.465s2.56-0.488,3.535-1.465
		c1.953-1.952,1.953-5.118,0-7.07L39.82,67.25z"/>
	<path style="fill:#1D1D1B;" d="M55.679,51.392l0.929,0.929c1.951,1.953,5.119,1.953,7.07,0c1.953-1.952,1.953-5.118,0-7.07
		l-0.929-0.929L55.679,51.392z"/>
	<path style="fill:#1D1D1B;" d="M32.75,60.18L13.557,40.986l15.857-15.857l19.194,19.193l7.071-7.07L35.406,16.979
		c-1.601-1.602-3.729-2.482-5.992-2.482s-4.393,0.882-5.991,2.482L5.407,34.994c-1.601,1.6-2.482,3.729-2.482,5.992
		c0,2.263,0.882,4.392,2.482,5.991L25.68,67.25L32.75,60.18z"/>
	<path style="fill:#1D1D1B;" d="M74.32,32.75l-7.07,7.07l19.193,19.193L70.586,74.871L51.392,55.678l-7.071,7.07l20.272,20.272
		c1.601,1.602,3.729,2.482,5.992,2.482s4.393-0.882,5.991-2.482l18.016-18.015c1.601-1.6,2.482-3.729,2.482-5.992
		c0-2.263-0.882-4.392-2.482-5.991L74.32,32.75z"/>
	<path style="fill:#1D1D1B;" d="M36.322,47.68c-1.953,1.952-1.953,5.118,0,7.07l0.929,0.929l7.07-7.07l-0.929-0.929
		C41.441,45.727,38.273,45.727,36.322,47.68z"/>
	<path style="fill:#1D1D1B;" d="M59.251,24.751c-1.953,1.952-1.953,5.118,0,7.07l0.929,0.929l7.07-7.07l-0.929-0.929
		C64.37,22.798,61.202,22.798,59.251,24.751z"/>
	<path style="fill:#1D1D1B;" d="M53.911,49.624l7.07-7.07l4.501-4.501l7.07-7.07l9.401-9.401c0.977-0.977,0.977-2.559,0-3.535
		s-2.559-0.977-3.535,0l-9.401,9.401l-7.07,7.07l-4.501,4.501l-7.07,7.07l-4.287,4.287l-7.07,7.07l-4.501,4.501l-7.07,7.07
		l-9.401,9.401c-0.977,0.977-0.977,2.559,0,3.535c0.488,0.488,1.128,0.732,1.768,0.732s1.279-0.244,1.768-0.732l9.401-9.401
		l7.07-7.07l4.501-4.501l7.07-7.07L53.911,49.624z"/>
</g>
</svg>
