<?xml version="1.0" encoding="iso-8859-1"?>
<!-- Generator: Adobe Illustrator 17.1.0, SVG Export Plug-In . SVG Version: 6.00 Build 0)  -->
<!DOCTYPE svg PUBLIC "-//W3C//DTD SVG 1.1//EN" "http://www.w3.org/Graphics/SVG/1.1/DTD/svg11.dtd">
<svg version="1.1" id="Capa_1" xmlns="http://www.w3.org/2000/svg" xmlns:xlink="http://www.w3.org/1999/xlink" x="0px" y="0px"
	 viewBox="0 0 100 100" style="enable-background:new 0 0 100 100;" xml:space="preserve">
<g>
	<path d="M94.25,55.4h-5.09c-0.612-4.592-2.013-8.936-4.067-12.893l4.899-3.343c2.281-1.556,2.868-4.667,1.312-6.948
		c-1.557-2.281-4.668-2.87-6.949-1.312l-4.947,3.376c-3.706-4.13-8.268-7.472-13.403-9.756c0.04-0.462,0.071-0.927,0.071-1.399
		c0-3.847-1.355-7.375-3.608-10.142l1.147-1.147c0.977-0.977,0.977-2.559,0-3.535c-0.976-0.977-2.56-0.977-3.535,0l-1.342,1.342
		C56.222,8.008,53.225,7.049,50,7.049c-3.308,0-6.382,1.002-8.938,2.715L39.6,8.301c-0.976-0.977-2.56-0.977-3.535,0
		c-0.977,0.977-0.977,2.559,0,3.535l1.33,1.33c-2.167,2.74-3.471,6.194-3.471,9.959c0,0.472,0.031,0.937,0.071,1.399
		c-5.915,2.632-11.066,6.672-15.028,11.697l-5.147-3.047c-2.376-1.404-5.443-0.62-6.85,1.756c-1.407,2.376-0.621,5.443,1.756,6.85
		l5.086,3.011c-1.462,3.324-2.475,6.885-2.972,10.609H5.75c-2.761,0-5,2.238-5,5s2.239,5,5,5h5.033
		c0.556,4.549,1.891,8.957,3.938,13.019l-4.713,3.216c-2.281,1.556-2.868,4.667-1.312,6.948c0.968,1.419,2.538,2.183,4.135,2.183
		c0.971,0,1.952-0.282,2.814-0.871l4.666-3.184c0.928,1.058,1.913,2.072,2.958,3.032l3.529,3.244l3.39-3.39l1.974-1.974
		c5.124,3.365,11.251,5.328,17.839,5.328s12.715-1.963,17.839-5.328l1.974,1.974l3.39,3.39l3.529-3.244
		c1.677-1.541,3.197-3.222,4.568-5.007l4.881,2.889c0.799,0.473,1.676,0.698,2.542,0.698c1.709,0,3.374-0.877,4.308-2.454
		c1.407-2.376,0.621-5.443-1.756-6.85l-4.929-2.917c1.448-3.402,2.419-7.004,2.871-10.703h5.033c2.761,0,5-2.238,5-5
		S97.011,55.4,94.25,55.4z M73.349,86.062l-1.518-1.518L58.569,71.282L52.687,65.4l-0.464-0.464L50,62.714l-2.197,2.197l-0.49,0.49
		l-9.086,9.086L28.17,84.544l-1.518,1.518c-0.758-0.697-1.48-1.433-2.173-2.194c-2.244-2.464-4.132-5.254-5.593-8.29
		c-1.519-3.156-2.57-6.577-3.067-10.178c-0.215-1.556-0.337-3.142-0.337-4.757c0-1.783,0.135-3.533,0.396-5.243
		c0.428-2.809,1.198-5.505,2.26-8.049c1.301-3.115,3.044-5.998,5.153-8.571c3.22-3.929,7.289-7.133,11.928-9.334
		c4.481-2.127,9.492-3.321,14.782-3.321c4.092,0,8.017,0.717,11.659,2.024c-0.39,0.45-0.714,0.957-0.953,1.511
		c-0.306,0.709-0.477,1.491-0.477,2.312c0,1.043,0.276,2.021,0.755,2.869c1.003,1.777,2.906,2.978,5.091,2.978
		c1.956,0,3.682-0.964,4.744-2.438c0.353-0.49,0.634-1.034,0.822-1.621c1.281,1.033,2.487,2.155,3.608,3.358
		c2.273,2.438,4.196,5.205,5.692,8.222c1.544,3.117,2.638,6.497,3.181,10.06c0.261,1.71,0.396,3.461,0.396,5.243
		c0,1.615-0.123,3.201-0.337,4.757c-0.392,2.839-1.125,5.566-2.164,8.141c-1.263,3.131-2.967,6.038-5.043,8.635
		C75.866,83.562,74.654,84.862,73.349,86.062z"/>
	<path d="M35.667,38.153c-2.792,0-5.124,1.959-5.705,4.577c-0.091,0.409-0.142,0.833-0.142,1.27c0,3.229,2.618,5.847,5.847,5.847
		c1.479,0,2.825-0.553,3.855-1.459c1.219-1.072,1.992-2.638,1.992-4.388C41.514,40.771,38.896,38.153,35.667,38.153z"/>
	<path d="M71.49,51.79c-1.471-1.214-3.357-1.943-5.414-1.943c-3.659,0-6.77,2.313-7.974,5.554c-0.343,0.923-0.54,1.917-0.54,2.96
		c0,0.246,0.016,0.487,0.037,0.728c0.056,0.663,0.187,1.304,0.387,1.916c0.59,1.806,1.764,3.348,3.304,4.397
		c1.364,0.929,3.011,1.474,4.786,1.474c1.226,0,2.389-0.264,3.442-0.731c0.471-0.209,0.922-0.455,1.344-0.743
		c2.249-1.532,3.727-4.113,3.727-7.04c0-1.043-0.197-2.037-0.539-2.96C73.523,53.981,72.637,52.736,71.49,51.79z"/>
	<path d="M26.049,66.503c-2.082,0-3.77,1.688-3.77,3.77c0,0.913,0.337,1.738,0.877,2.39c0.692,0.836,1.724,1.38,2.894,1.38
		c2.082,0,3.77-1.688,3.77-3.771c0-0.665-0.187-1.281-0.489-1.823C28.687,67.295,27.467,66.503,26.049,66.503z"/>
</g>
</svg>
