<?xml version="1.0" encoding="iso-8859-1"?>
<!-- Generator: Adobe Illustrator 17.1.0, SVG Export Plug-In . SVG Version: 6.00 Build 0)  -->
<!DOCTYPE svg PUBLIC "-//W3C//DTD SVG 1.1//EN" "http://www.w3.org/Graphics/SVG/1.1/DTD/svg11.dtd">
<svg version="1.1" id="Capa_1" xmlns="http://www.w3.org/2000/svg" xmlns:xlink="http://www.w3.org/1999/xlink" x="0px" y="0px"
	 viewBox="0 0 100 100" style="enable-background:new 0 0 100 100;" xml:space="preserve">
<g>
	<path style="fill:#000100;" d="M91.059,25.07c-0.496-0.733-1.163-1.341-1.944-1.765c-0.781-0.424-1.676-0.665-2.627-0.665h-5.473
		v-7.482c0-4.97-4.044-9.014-9.015-9.014s-9.015,4.044-9.015,9.014v7.482h-4.971v-7.482c0-4.97-4.044-9.014-9.015-9.014
		s-9.015,4.044-9.015,9.014v7.482h-4.971v-7.482c0-4.97-4.044-9.014-9.015-9.014s-9.015,4.044-9.015,9.014v7.482h-5.473
		c-0.951,0-1.847,0.241-2.627,0.665c-0.781,0.424-1.448,1.032-1.944,1.765c-0.198,0.293-0.369,0.607-0.508,0.936
		C6.154,26.666,6,27.391,6,28.152v8.253v47.872c0,3.045,2.468,5.513,5.513,5.513h74.975c3.044,0,5.513-2.468,5.513-5.513V36.405
		v-8.253c0-0.761-0.154-1.486-0.433-2.146C91.427,25.677,91.257,25.363,91.059,25.07z M86,83.79H12V41.918h74V83.79z M22.985,22.64
		v-7.482c0-1.662,1.353-3.014,3.015-3.014s3.015,1.352,3.015,3.014v7.482v3v3v0.163c0,1.662-1.353,3.015-3.015,3.015
		s-3.015-1.353-3.015-3.015V28.64v-3V22.64z M45.985,22.64v-7.482c0-1.662,1.353-3.014,3.015-3.014s3.015,1.352,3.015,3.014v7.482v3
		v3v0.163c0,1.662-1.353,3.015-3.015,3.015s-3.015-1.353-3.015-3.015V28.64v-3V22.64z M68.985,22.64v-7.482
		c0-1.662,1.353-3.014,3.015-3.014s3.015,1.352,3.015,3.014v7.482v3v3v0.163c0,1.662-1.353,3.015-3.015,3.015
		s-3.015-1.353-3.015-3.015V28.64v-3V22.64z"/>
	<path style="fill:#000100;" d="M58.068,55h4.946c1.104,0,2-0.895,2-2v-4.946c0-1.105-0.896-2-2-2h-4.946c-1.104,0-2,0.895-2,2V53
		C56.068,54.105,56.964,55,58.068,55z"/>
	<path style="fill:#000100;" d="M71.068,55h4.946c1.104,0,2-0.895,2-2v-4.946c0-1.105-0.896-2-2-2h-4.946c-1.104,0-2,0.895-2,2V53
		C69.068,54.105,69.964,55,71.068,55z"/>
	<path style="fill:#000100;" d="M58.068,67.222h4.946c1.104,0,2-0.895,2-2v-4.946c0-1.105-0.896-2-2-2h-4.946c-1.104,0-2,0.895-2,2
		v4.946C56.068,66.327,56.964,67.222,58.068,67.222z"/>
	<path style="fill:#000100;" d="M71.068,67.222h4.946c1.104,0,2-0.895,2-2v-4.946c0-1.105-0.896-2-2-2h-4.946c-1.104,0-2,0.895-2,2
		v4.946C69.068,66.327,69.964,67.222,71.068,67.222z"/>
	<path style="fill:#000100;" d="M32.944,67.222h4.946c1.104,0,2-0.895,2-2v-4.946c0-1.105-0.896-2-2-2h-4.946c-1.104,0-2,0.895-2,2
		v4.946C30.944,66.327,31.839,67.222,32.944,67.222z"/>
	<path style="fill:#000100;" d="M20.805,67.222h4.945c1.104,0,2-0.895,2-2v-4.946c0-1.105-0.896-2-2-2h-4.945c-1.105,0-2,0.895-2,2
		v4.946C18.805,66.327,19.7,67.222,20.805,67.222z"/>
	<path style="fill:#000100;" d="M32.944,79.555h4.946c1.104,0,2-0.895,2-2V72.61c0-1.105-0.896-2-2-2h-4.946c-1.104,0-2,0.895-2,2
		v4.946C30.944,78.66,31.839,79.555,32.944,79.555z"/>
	<path style="fill:#000100;" d="M20.805,79.555h4.945c1.104,0,2-0.895,2-2V72.61c0-1.105-0.896-2-2-2h-4.945c-1.105,0-2,0.895-2,2
		v4.946C18.805,78.66,19.7,79.555,20.805,79.555z"/>
	<path style="fill:#000100;" d="M45.527,67.222h4.945c1.104,0,2-0.895,2-2v-4.946c0-1.105-0.896-2-2-2h-4.945c-1.104,0-2,0.895-2,2
		v4.946C43.527,66.327,44.423,67.222,45.527,67.222z"/>
</g>
</svg>
