<?xml version="1.0" encoding="iso-8859-1"?>
<!-- Generator: Adobe Illustrator 17.1.0, SVG Export Plug-In . SVG Version: 6.00 Build 0)  -->
<!DOCTYPE svg PUBLIC "-//W3C//DTD SVG 1.1//EN" "http://www.w3.org/Graphics/SVG/1.1/DTD/svg11.dtd">
<svg version="1.1" id="Capa_1" xmlns="http://www.w3.org/2000/svg" xmlns:xlink="http://www.w3.org/1999/xlink" x="0px" y="0px"
	 viewBox="0 0 100 100" style="enable-background:new 0 0 100 100;" xml:space="preserve">
<g>
	<path style="fill:#1D1D1B;" d="M88.042,49.667l-21.515,1.698c-1.411,0.111-2.555,1.064-2.555,2.129s1.144,2.017,2.555,2.129
		l21.515,1.698c1.411,0.111,2.555-0.946,2.555-2.361v-2.931C90.597,50.612,89.453,49.555,88.042,49.667z"/>
	<path style="fill:#1D1D1B;" d="M50.769,95.872h4.364c1.416,0,2.473-1.144,2.361-2.555L55.422,67.07
		c-0.111-1.411-1.218-2.555-2.471-2.555c-1.253,0-2.359,1.144-2.471,2.555l-2.072,26.247C48.296,94.728,49.354,95.872,50.769,95.872
		z"/>
	<path style="fill:#1D1D1B;" d="M60.744,45.7c0.739,0.739,2.21,0.592,3.287-0.327L80.07,31.682c1.077-0.919,1.138-2.476,0.137-3.477
		l-1.967-1.967c-1.001-1.001-2.558-0.94-3.477,0.137L61.071,42.414C60.152,43.49,60.006,44.962,60.744,45.7z"/>
	<path style="fill:#1D1D1B;" d="M64.201,61.444c-1.077-0.919-2.624-0.989-3.457-0.157s-0.762,2.38,0.157,3.457l15.856,18.574
		c0.919,1.077,2.476,1.138,3.477,0.137l2.678-2.678c1.001-1.001,0.94-2.557-0.137-3.477L64.201,61.444z"/>
	<path style="fill:#1D1D1B;" d="M26.471,86.945l18.757-21.973c0.919-1.077,0.887-2.726-0.071-3.685
		c-0.958-0.958-2.608-0.99-3.685-0.071L19.5,79.973c-1.077,0.919-1.138,2.476-0.137,3.477l3.632,3.632
		C23.996,88.083,25.552,88.021,26.471,86.945z"/>
	<path style="fill:#1D1D1B;" d="M57.186,43.318c0.948,0.394,2.239-0.307,2.884-1.567l9.403-18.364
		c0.645-1.26,0.109-2.722-1.198-3.266l-2.441-1.016c-1.307-0.544-2.723,0.106-3.162,1.452l-6.405,19.612
		C55.827,41.513,56.239,42.924,57.186,43.318z"/>
	<path style="fill:#1D1D1B;" d="M88.161,63.78l-21.82-7.126c-1.346-0.439-2.785,0.042-3.215,1.075s0.243,2.393,1.503,3.038
		L85.06,71.228c1.26,0.645,2.723,0.109,3.267-1.198l1.285-3.088C90.156,65.635,89.506,64.219,88.161,63.78z"/>
	<path style="fill:#1D1D1B;" d="M48.716,63.669c-1.211-0.504-2.716,0.109-3.361,1.369L32.689,89.774
		c-0.645,1.26-0.109,2.722,1.198,3.266l4.436,1.846c1.307,0.544,2.722-0.106,3.162-1.452l8.627-26.418
		C50.552,65.672,49.926,64.173,48.716,63.669z"/>
	<path style="fill:#1D1D1B;" d="M63.141,49.293c0.403,0.977,1.821,1.416,3.168,0.981l20.357-6.57
		c1.347-0.435,2.002-1.848,1.462-3.157l-1.095-2.657c-0.539-1.309-2-1.85-3.262-1.209l-19.074,9.683
		C63.435,47.005,62.738,48.317,63.141,49.293z"/>
	<path style="fill:#1D1D1B;" d="M66.926,92.865l3.852-1.588c1.309-0.539,1.85-2,1.209-3.262L60.365,65.122
		c-0.641-1.262-2.08-1.906-3.215-1.439c-1.135,0.468-1.702,1.939-1.267,3.286l7.885,24.433
		C64.204,92.749,65.617,93.404,66.926,92.865z"/>
	<path style="fill:#1D1D1B;" d="M42.761,57.694c-0.422-1.024-1.474-1.658-2.565-1.658c1.006-0.422,1.734-1.421,1.734-2.542
		c0-1.066-0.656-2.03-1.586-2.485c1.029-0.069,1.999-0.71,2.408-1.694l0.047-0.113c0.368-0.885,0.212-1.89-0.313-2.651
		c0.897,0.186,1.875-0.054,2.548-0.726l0.248-0.248c0.649-0.649,0.898-1.583,0.748-2.454c0.746,0.472,1.704,0.601,2.551,0.251
		l0.34-0.14c0.803-0.331,1.376-1.036,1.602-1.841c0.516,0.651,1.309,1.08,2.172,1.08h0.512c1.416,0,2.654-1.144,2.765-2.555
		l2.672-33.849c0.112-1.411-0.946-2.555-2.361-2.555h-6.664c-1.416,0-2.473,1.144-2.361,2.555l2.476,31.365L40.383,8.459
		c-0.435-1.347-1.848-2.002-3.157-1.462l-5.881,2.424c-1.309,0.539-1.85,2-1.209,3.262l14.046,27.669L24.115,16.846
		c-0.919-1.077-2.476-1.138-3.477-0.137l-4.472,4.472c-1.001,1.001-0.94,2.557,0.137,3.477l23.729,20.257l-26.347-13.49
		c-1.26-0.645-2.722-0.109-3.266,1.198l-2.248,5.4c-0.544,1.307,0.106,2.723,1.451,3.162l29.105,9.505l-29.51-2.33
		c-1.411-0.111-2.555,0.946-2.555,2.361v5.547c0,1.416,1.144,2.473,2.555,2.361l29.762-2.35l-27.926,9.013
		c-1.347,0.435-2.002,1.848-1.462,3.157l2.056,4.988c0.54,1.309,2,1.85,3.262,1.209L41.434,61.18
		C42.697,60.539,43.291,58.978,42.761,57.694z"/>
</g>
</svg>
