<?xml version="1.0" encoding="iso-8859-1"?>
<!-- Generator: Adobe Illustrator 17.1.0, SVG Export Plug-In . SVG Version: 6.00 Build 0)  -->
<!DOCTYPE svg PUBLIC "-//W3C//DTD SVG 1.1//EN" "http://www.w3.org/Graphics/SVG/1.1/DTD/svg11.dtd">
<svg version="1.1" id="Capa_1" xmlns="http://www.w3.org/2000/svg" xmlns:xlink="http://www.w3.org/1999/xlink" x="0px" y="0px"
	 viewBox="0 0 100 100" style="enable-background:new 0 0 100 100;" xml:space="preserve">
<g>
	<path style="fill:#000100;" d="M14.318,69.415c1.817,1.817,4.764,1.817,6.582,0l11.74-13.601c1.817-1.817,1.207-3.291-1.363-3.291
		h-7.589c-0.642-8.536,2.4-17.003,8.66-23.263c11.633-11.632,30.559-11.632,42.191,0c5.635,5.635,8.738,13.126,8.738,21.095
		s-3.104,15.46-8.738,21.095c-8.071,8.071-19.807,10.822-30.639,7.179c-3.138-1.06-6.543,0.632-7.6,3.773
		c-1.057,3.141,0.632,6.543,3.773,7.6c4.432,1.492,8.971,2.218,13.462,2.218c10.886,0,21.477-4.274,29.487-12.285
		c7.902-7.901,12.254-18.406,12.254-29.581s-4.352-21.679-12.254-29.581c-16.311-16.311-42.85-16.311-59.16,0
		c-8.566,8.566-12.849,20.077-12.214,31.749H4.872c-2.57,0-3.18,1.473-1.363,3.291L14.318,69.415z"/>
</g>
</svg>
