<?xml version="1.0" encoding="iso-8859-1"?>
<!-- Generator: Adobe Illustrator 17.1.0, SVG Export Plug-In . SVG Version: 6.00 Build 0)  -->
<!DOCTYPE svg PUBLIC "-//W3C//DTD SVG 1.1//EN" "http://www.w3.org/Graphics/SVG/1.1/DTD/svg11.dtd">
<svg version="1.1" id="Layer_1" xmlns="http://www.w3.org/2000/svg" xmlns:xlink="http://www.w3.org/1999/xlink" x="0px" y="0px"
	 viewBox="0 0 64 64" style="enable-background:new 0 0 64 64;" xml:space="preserve">
<g>
	<path d="M7,58h0.5H55h0.5c0.827,0,1.5-0.673,1.5-1.5v-48C57,7.673,56.327,7,55.5,7h-4.042l0.833,1L56,12.45l0.875,1.05L56,14.468
		L51,20h-6l5.719-6.688L46.064,8l-0.876-1h-8.729l0.833,1l4.583,5.5L36,20h-6l5.719-6.688L31.064,8l-0.876-1h-9.729l0.833,1
		l4.583,5.5L20,20h-6l5.719-6.688L15.064,8l-0.876-1H7.5C6.673,7,6,7.673,6,8.5V9v47.5V57C6,57.552,6.448,58,7,58z M56,9
		c0-0.552-0.448-1-1-1h0.5C55.776,8,56,8.225,56,8.5V9z M13,47v-4c0-0.552,0.448-1,1-1h35c0.552,0,1,0.448,1,1v4
		c0,0.552-0.448,1-1,1H14C13.448,48,13,47.552,13,47z M49,32c0.552,0,1,0.448,1,1v4c0,0.552-0.448,1-1,1H14c-0.552,0-1-0.448-1-1v-4
		c0-0.552,0.448-1,1-1H49z"/>
</g>
</svg>
