<?xml version="1.0" encoding="iso-8859-1"?>
<!-- Generator: Adobe Illustrator 17.1.0, SVG Export Plug-In . SVG Version: 6.00 Build 0)  -->
<!DOCTYPE svg PUBLIC "-//W3C//DTD SVG 1.1//EN" "http://www.w3.org/Graphics/SVG/1.1/DTD/svg11.dtd">
<svg version="1.1" id="Capa_1" xmlns="http://www.w3.org/2000/svg" xmlns:xlink="http://www.w3.org/1999/xlink" x="0px" y="0px"
	 viewBox="0 0 100 100" style="enable-background:new 0 0 100 100;" xml:space="preserve">
<g>
	<path style="fill:#000100;" d="M16.5,90.278h28.619v-5v-5H18.5V13.722h44v18.611h5h5V11.722c0-4.411-3.589-8-8-8h-48
		c-4.411,0-8,3.589-8,8v70.556C8.5,86.689,12.089,90.278,16.5,90.278z"/>
	<path style="fill:#000100;" d="M57.5,22.667c0-2.761-2.238-5-5-5h-24c-2.762,0-5,2.239-5,5s2.238,5,5,5h24
		C55.262,27.667,57.5,25.428,57.5,22.667z"/>
	<path style="fill:#000100;" d="M67.5,35.333h-5H48.119v44.945v5v5v3.567h19.518v-4.209V76.291c0-1.657,1.343-3,3-3H72.5h15.691
		V35.333H72.5H67.5z"/>
	<polygon style="fill:#000100;" points="72.5,76.291 70.637,76.291 70.637,87.401 70.637,93.786 70.637,93.845 76.449,88.033 
		88.191,76.291 	"/>
</g>
</svg>
