<?xml version="1.0" encoding="iso-8859-1"?>
<!-- Generator: Adobe Illustrator 17.1.0, SVG Export Plug-In . SVG Version: 6.00 Build 0)  -->
<!DOCTYPE svg PUBLIC "-//W3C//DTD SVG 1.1//EN" "http://www.w3.org/Graphics/SVG/1.1/DTD/svg11.dtd">
<svg version="1.1" id="Capa_1" xmlns="http://www.w3.org/2000/svg" xmlns:xlink="http://www.w3.org/1999/xlink" x="0px" y="0px"
	 viewBox="0 0 100 100" style="enable-background:new 0 0 100 100;" xml:space="preserve">
<g>
	<path style="fill:#1D1D1B;" d="M50,4.25C24.773,4.25,4.25,24.773,4.25,50S24.773,95.75,50,95.75S95.75,75.227,95.75,50
		S75.227,4.25,50,4.25z M50,85.75c-19.713,0-35.75-16.037-35.75-35.75c0-19.712,16.037-35.75,35.75-35.75S85.75,30.288,85.75,50
		C85.75,69.713,69.713,85.75,50,85.75z"/>
	<path style="fill:#1D1D1B;" d="M53.96,50.055V30.88c0-2.141-1.735-3.876-3.875-3.876c-2.141,0-3.876,1.735-3.876,3.876v20.413
		c0,0.061,0.015,0.118,0.018,0.179c-0.051,1.054,0.312,2.124,1.117,2.929l14.435,14.434c1.514,1.514,3.968,1.514,5.481,0
		s1.514-3.968,0-5.481L53.96,50.055z"/>
</g>
</svg>
