<?xml version="1.0" encoding="iso-8859-1"?>
<!-- Generator: Adobe Illustrator 17.1.0, SVG Export Plug-In . SVG Version: 6.00 Build 0)  -->
<!DOCTYPE svg PUBLIC "-//W3C//DTD SVG 1.1//EN" "http://www.w3.org/Graphics/SVG/1.1/DTD/svg11.dtd">
<svg version="1.1" id="Capa_1" xmlns="http://www.w3.org/2000/svg" xmlns:xlink="http://www.w3.org/1999/xlink" x="0px" y="0px"
	 viewBox="0 0 100 100" style="enable-background:new 0 0 100 100;" xml:space="preserve">
<g>
	<path d="M19.662,74.35c0.954,1.493,2.568,2.309,4.218,2.309c0.921,0,1.854-0.254,2.687-0.787c2.327-1.487,3.008-4.579,1.521-6.905
		L16.548,50.903l11.541-18.062c1.487-2.327,0.806-5.418-1.521-6.905c-2.328-1.486-5.418-0.806-6.905,1.521L6.401,48.211
		c-1.049,1.641-1.049,3.743,0,5.384L19.662,74.35z"/>
	<path d="M73.425,75.871c0.834,0.533,1.766,0.787,2.687,0.787c1.649,0,3.264-0.815,4.218-2.309l13.261-20.754
		c1.049-1.641,1.049-3.743,0-5.384L80.331,27.457c-1.486-2.328-4.58-3.009-6.905-1.521c-2.327,1.487-3.008,4.579-1.521,6.905
		l11.541,18.062L71.904,68.966C70.417,71.292,71.098,74.384,73.425,75.871z"/>
	<path d="M32.684,86.793c0.698,0.334,1.434,0.493,2.159,0.493c1.863,0,3.652-1.046,4.512-2.839l30.308-63.201
		c1.194-2.49,0.144-5.477-2.346-6.67c-2.491-1.194-5.477-0.144-6.67,2.346L30.338,80.123C29.144,82.613,30.194,85.6,32.684,86.793z"
		/>
</g>
</svg>
