<?xml version="1.0" encoding="iso-8859-1"?>
<!-- Generator: Adobe Illustrator 17.1.0, SVG Export Plug-In . SVG Version: 6.00 Build 0)  -->
<!DOCTYPE svg PUBLIC "-//W3C//DTD SVG 1.1//EN" "http://www.w3.org/Graphics/SVG/1.1/DTD/svg11.dtd">
<svg version="1.1" id="Capa_1" xmlns="http://www.w3.org/2000/svg" xmlns:xlink="http://www.w3.org/1999/xlink" x="0px" y="0px"
	 viewBox="0 0 100 100" style="enable-background:new 0 0 100 100;" xml:space="preserve">
<g>
	<path style="fill:#1D1D1B;" d="M72.627,39.112H10.317c-0.938,0-1.749,0.343-2.434,1.028c-0.685,0.686-1.028,1.497-1.028,2.434
		v39.809c0,3.318,1.19,6.166,3.57,8.546c2.38,2.38,5.228,3.571,8.546,3.571H57.05c3.317,0,6.166-1.191,8.546-3.571
		c2.38-2.379,3.57-5.227,3.57-8.546v-1.732h3.462c5.733,0,10.628-2.028,14.685-6.085s6.085-8.951,6.085-14.684
		c0-5.734-2.028-10.629-6.085-14.685S78.361,39.112,72.627,39.112z M79.984,67.238c-2.02,2.02-4.472,3.029-7.356,3.029h-3.462
		v-20.77h3.462c2.885,0,5.336,1.011,7.356,3.029c2.019,2.02,3.029,4.473,3.029,7.357C83.013,62.768,82.003,65.219,79.984,67.238z"/>
	<path style="fill:#1D1D1B;" d="M23.376,32.212c2.344,5.923,12.018,3.344,9.643-2.658c-0.666-1.682,2.187-4.125,3.128-5.494
		c1.42-2.064,1.888-4.842,1.624-7.281c-0.547-5.052-3.721-8.524-8.274-10.415c-2.522-1.048-5.496,1.112-6.151,3.492
		c-0.792,2.877,0.977,5.106,3.492,6.151c2.847,1.183-0.689,4.774-1.479,5.844C23.133,24.862,21.944,28.593,23.376,32.212z"/>
	<path style="fill:#1D1D1B;" d="M42.376,32.212c2.344,5.923,12.018,3.344,9.643-2.658c-0.666-1.682,2.187-4.125,3.128-5.494
		c1.42-2.064,1.888-4.842,1.624-7.281c-0.547-5.052-3.721-8.524-8.274-10.415c-2.522-1.048-5.496,1.112-6.151,3.492
		c-0.792,2.877,0.977,5.106,3.492,6.151c2.847,1.183-0.689,4.774-1.479,5.844C42.133,24.862,40.944,28.593,42.376,32.212z"/>
</g>
</svg>
