<?xml version="1.0" encoding="iso-8859-1"?>
<!-- Generator: Adobe Illustrator 17.1.0, SVG Export Plug-In . SVG Version: 6.00 Build 0)  -->
<!DOCTYPE svg PUBLIC "-//W3C//DTD SVG 1.1//EN" "http://www.w3.org/Graphics/SVG/1.1/DTD/svg11.dtd">
<svg version="1.1" id="Capa_1" xmlns="http://www.w3.org/2000/svg" xmlns:xlink="http://www.w3.org/1999/xlink" x="0px" y="0px"
	 viewBox="0 0 100 100" style="enable-background:new 0 0 100 100;" xml:space="preserve">
<g>
	<path style="fill:#000100;" d="M93.07,47.792l-8.031-4.853l5.524-7.585c1.498-1.952,0.732-3.775-1.711-4.072l-9.019-1.325
		l2.183-8.851c0.649-2.374-0.749-3.772-3.123-3.123l-9.11,2.247l-1.457-9.269c-0.321-2.44-2.152-3.188-4.089-1.67l-7.314,5.441
		L52.208,6.93c-1.219-2.138-3.197-2.138-4.417,0l-4.853,8.031l-7.585-5.524c-1.952-1.498-3.775-0.732-4.072,1.711l-1.325,9.019
		l-8.851-2.183c-2.374-0.649-3.772,0.749-3.123,3.123l2.247,9.11l-9.269,1.457c-2.44,0.321-3.188,2.152-1.67,4.089l5.441,7.314
		L6.93,47.792c-2.138,1.22-2.138,3.197,0,4.417l8.031,4.853l-5.524,7.585c-1.498,1.952-0.732,3.775,1.711,4.072l9.019,1.325
		l-2.183,8.851c-0.649,2.374,0.749,3.772,3.123,3.123l9.11-2.247l1.457,9.269c0.321,2.44,2.152,3.188,4.089,1.67l7.314-5.441
		l4.715,7.802c1.219,2.138,3.197,2.138,4.417,0l4.853-8.031l7.585,5.524c1.952,1.498,3.775,0.732,4.072-1.711l1.325-9.019
		l8.851,2.183c2.374,0.649,3.772-0.749,3.123-3.123l-2.247-9.11l9.269-1.457c2.44-0.321,3.188-2.152,1.67-4.089l-5.441-7.314
		l7.802-4.715C95.208,50.989,95.208,49.011,93.07,47.792z"/>
</g>
</svg>
