<?xml version="1.0" encoding="iso-8859-1"?>
<!-- Generator: Adobe Illustrator 17.1.0, SVG Export Plug-In . SVG Version: 6.00 Build 0)  -->
<!DOCTYPE svg PUBLIC "-//W3C//DTD SVG 1.1//EN" "http://www.w3.org/Graphics/SVG/1.1/DTD/svg11.dtd">
<svg version="1.1" id="Capa_1" xmlns="http://www.w3.org/2000/svg" xmlns:xlink="http://www.w3.org/1999/xlink" x="0px" y="0px"
	 viewBox="0 0 100 100" style="enable-background:new 0 0 100 100;" xml:space="preserve">
<g>
	<path style="fill:#000100;" d="M37.013,90.014c1.431,2.24,3.854,3.463,6.327,3.463c1.382,0,2.78-0.382,4.031-1.181
		c3.49-2.23,4.513-6.868,2.282-10.358L29.248,50l20.405-31.938c2.23-3.491,1.208-8.128-2.282-10.358
		c-3.489-2.229-8.128-1.208-10.358,2.282L14.027,45.962c-1.573,2.462-1.573,5.614,0,8.076L37.013,90.014z"/>
	<path style="fill:#000100;" d="M38.013,54.038l22.986,35.976c1.432,2.24,3.854,3.463,6.327,3.463c1.382,0,2.78-0.382,4.031-1.181
		c3.49-2.23,4.512-6.868,2.282-10.358L53.233,50L73.64,18.062c2.229-3.49,1.208-8.128-2.282-10.358
		c-3.489-2.229-8.128-1.208-10.358,2.282L38.013,45.962C36.439,48.424,36.439,51.576,38.013,54.038z"/>
</g>
</svg>
