<?xml version="1.0" encoding="iso-8859-1"?>
<!-- Generator: Adobe Illustrator 17.1.0, SVG Export Plug-In . SVG Version: 6.00 Build 0)  -->
<!DOCTYPE svg PUBLIC "-//W3C//DTD SVG 1.1//EN" "http://www.w3.org/Graphics/SVG/1.1/DTD/svg11.dtd">
<svg version="1.1" id="Capa_1" xmlns="http://www.w3.org/2000/svg" xmlns:xlink="http://www.w3.org/1999/xlink" x="0px" y="0px"
	 viewBox="0 0 100 100" style="enable-background:new 0 0 100 100;" xml:space="preserve">
<g>
	<path d="M69.817,73.425h-7.666V3.15c0-0.525-0.169-0.957-0.506-1.295c-0.339-0.338-0.77-0.507-1.295-0.507H40.63
		c-0.526,0-0.957,0.169-1.295,0.507c-0.339,0.338-0.506,0.77-0.506,1.295v70.275h-8.655c-0.75,0-1.296,0.357-1.632,1.07
		c-0.299,0.714-0.187,1.371,0.336,1.971l19.935,21.623c0.376,0.376,0.827,0.563,1.351,0.563c0.49,0,0.922-0.187,1.296-0.563
		l19.708-21.623c0.488-0.6,0.583-1.257,0.282-1.971C71.15,73.782,70.605,73.425,69.817,73.425z"/>
</g>
</svg>
