<?xml version="1.0" encoding="iso-8859-1"?>
<!-- Generator: Adobe Illustrator 17.1.0, SVG Export Plug-In . SVG Version: 6.00 Build 0)  -->
<!DOCTYPE svg PUBLIC "-//W3C//DTD SVG 1.1//EN" "http://www.w3.org/Graphics/SVG/1.1/DTD/svg11.dtd">
<svg version="1.1" id="Capa_1" xmlns="http://www.w3.org/2000/svg" xmlns:xlink="http://www.w3.org/1999/xlink" x="0px" y="0px"
	 viewBox="0 0 100 100" style="enable-background:new 0 0 100 100;" xml:space="preserve">
<g>
	<path style="fill:#000100;" d="M20.441,77.166h51.143c12.518,0,22.666-10.148,22.666-22.666c0-12.518-10.148-22.666-22.666-22.666
		c-2.181,0-4.283,0.325-6.279,0.9c-4.158-6.969-11.75-11.652-20.455-11.652c-13.16,0-23.828,10.668-23.828,23.828
		c0,0.305,0.034,0.601,0.046,0.903c-0.21-0.008-0.415-0.032-0.627-0.032c-8.666,0-15.691,7.025-15.691,15.692
		S11.775,77.166,20.441,77.166z M36.659,55.242h4.525V38.475c0-0.527,0.427-0.954,0.954-0.954h14.724
		c0.527,0,0.954,0.427,0.954,0.954v16.767h4.525c1.317,0,1.629,0.755,0.698,1.686L51.186,68.78c-0.931,0.931-2.441,0.931-3.372,0
		L35.961,56.928C35.03,55.997,35.343,55.242,36.659,55.242z"/>
</g>
</svg>
