<?xml version="1.0" encoding="iso-8859-1"?>
<!-- Generator: Adobe Illustrator 17.1.0, SVG Export Plug-In . SVG Version: 6.00 Build 0)  -->
<!DOCTYPE svg PUBLIC "-//W3C//DTD SVG 1.1//EN" "http://www.w3.org/Graphics/SVG/1.1/DTD/svg11.dtd">
<svg version="1.1" id="Capa_1" xmlns="http://www.w3.org/2000/svg" xmlns:xlink="http://www.w3.org/1999/xlink" x="0px" y="0px"
	 viewBox="0 0 100 100" style="enable-background:new 0 0 100 100;" xml:space="preserve">
<g>
	<path style="fill:#1D1D1B;" d="M83.032,4.979H16.968c-6.611,0-11.989,5.378-11.989,11.989v66.064
		c0,6.611,5.378,11.989,11.989,11.989h66.064c6.611,0,11.989-5.378,11.989-11.989V16.968C95.021,10.356,89.644,4.979,83.032,4.979z
		 M80.021,80.021H19.979V19.979h60.043V80.021z"/>
	<path style="fill:#1D1D1B;" d="M26.414,42.547l20.357,25.89c1.783,3.125,4.675,3.125,6.458,0L73.585,42.55
		c0.397-0.567,0.826-1.577,0.913-2.264c0.28-2.225,0.502-6.672-2.196-6.672H27.699c-2.698,0-2.477,4.445-2.197,6.669
		C25.588,40.97,26.017,41.98,26.414,42.547z"/>
</g>
</svg>
