<?xml version="1.0" encoding="iso-8859-1"?>
<!-- Generator: Adobe Illustrator 17.1.0, SVG Export Plug-In . SVG Version: 6.00 Build 0)  -->
<!DOCTYPE svg PUBLIC "-//W3C//DTD SVG 1.1//EN" "http://www.w3.org/Graphics/SVG/1.1/DTD/svg11.dtd">
<svg version="1.1" id="Capa_1" xmlns="http://www.w3.org/2000/svg" xmlns:xlink="http://www.w3.org/1999/xlink" x="0px" y="0px"
	 viewBox="0 0 100 100" style="enable-background:new 0 0 100 100;" xml:space="preserve">
<g>
	<path style="fill:#1D1D1B;" d="M30.17,10.578L7.512,25.328c-0.926,0.603-0.977,1.65-0.114,2.339l16.379,13.084L50,24.615
		L33.383,10.767C32.534,10.06,31.096,9.976,30.17,10.578z"/>
	<path style="fill:#1D1D1B;" d="M66.773,74.033L50.106,60.234v-0.108l-0.053,0.054L50,60.126v0.108L33.385,74.03
		c-0.85,0.706-2.288,0.788-3.213,0.184l-6.128-4.003v3.733c0,1.105,0.768,2.46,1.716,3.028c0,0,24.241,14.537,24.241,14.552
		s0.012,0.015,0.027,0s0.038-0.015,0.053,0s0.027,0.015,0.027,0s24.293-14.554,24.293-14.554c0.948-0.567,1.717-1.922,1.717-3.026
		v-3.733l-6.128,4.003C69.063,74.818,67.623,74.737,66.773,74.033z"/>
	<path style="fill:#1D1D1B;" d="M7.512,56.228l22.657,14.75c0.926,0.603,2.364,0.518,3.213-0.189L50,56.941l-26.222-16.19
		L7.397,53.886C6.535,54.577,6.587,55.626,7.512,56.228z"/>
	<path style="fill:#1D1D1B;" d="M92.489,25.327L69.882,10.58c-0.925-0.604-2.364-0.521-3.213,0.185L50,24.615l26.222,16.136
		l16.379-13.084C93.464,26.978,93.414,25.93,92.489,25.327z"/>
	<path style="fill:#1D1D1B;" d="M92.603,53.886L76.222,40.751L51.702,55.89c-0.94,0.58-1.013,1.623-0.163,2.329l15.13,12.572
		c0.85,0.706,2.288,0.789,3.213,0.185L92.489,56.23C93.414,55.626,93.465,54.577,92.603,53.886z"/>
</g>
</svg>
