<?xml version="1.0" encoding="iso-8859-1"?>
<!-- Generator: Adobe Illustrator 17.1.0, SVG Export Plug-In . SVG Version: 6.00 Build 0)  -->
<!DOCTYPE svg PUBLIC "-//W3C//DTD SVG 1.1//EN" "http://www.w3.org/Graphics/SVG/1.1/DTD/svg11.dtd">
<svg version="1.1" id="Capa_1" xmlns="http://www.w3.org/2000/svg" xmlns:xlink="http://www.w3.org/1999/xlink" x="0px" y="0px"
	 viewBox="0 0 100 100" style="enable-background:new 0 0 100 100;" xml:space="preserve">
<g>
	<path d="M77.631,80.045c-0.122-0.566-0.426-0.992-0.914-1.278c-0.528-0.283-1.057-0.324-1.584-0.121l-0.304,0.121
		c-0.163,0.04-0.406,0.102-0.731,0.183c-0.326,0.081-0.7,0.171-1.127,0.274c-0.427,0.102-0.924,0.202-1.493,0.305
		c-0.569,0.102-1.168,0.193-1.797,0.274c-0.63,0.081-1.309,0.152-2.041,0.214c-0.731,0.06-1.462,0.09-2.193,0.09
		c-5.158,0-9.798-1.39-13.92-4.174c-4.123-2.779-7.158-6.548-9.107-11.298h23.575c0.447,0,0.853-0.152,1.219-0.457
		c0.365-0.305,0.588-0.681,0.67-1.128l1.462-6.822c0.122-0.609,0-1.159-0.365-1.644c-0.406-0.488-0.914-0.733-1.523-0.733H39.497
		c-0.122-2.76-0.122-4.892,0-6.396h29.728c1.097,0,1.746-0.526,1.949-1.582l1.462-6.946c0.122-0.566-0.021-1.095-0.427-1.582
		c-0.365-0.488-0.874-0.731-1.523-0.731H42.177c2.03-4.55,5.076-8.122,9.138-10.723c4.061-2.599,8.65-3.898,13.767-3.898
		c0.568,0,1.167,0.019,1.797,0.059c0.629,0.043,1.218,0.093,1.767,0.152c0.548,0.062,1.075,0.121,1.583,0.183
		c0.508,0.062,0.964,0.133,1.371,0.214c0.405,0.081,0.761,0.152,1.066,0.212c0.305,0.062,0.538,0.112,0.701,0.152l0.243,0.062
		c0.527,0.164,1.015,0.112,1.462-0.152c0.446-0.264,0.731-0.659,0.853-1.187L78.545,12c0.122-0.526,0.061-1.014-0.183-1.461
		c-0.365-0.488-0.772-0.792-1.218-0.914c-3.737-0.933-7.676-1.402-11.818-1.402c-9.098,0-17.23,2.601-24.398,7.798
		c-7.168,5.199-12.113,12.062-14.833,20.591h-5.97c-0.569,0-1.036,0.181-1.401,0.547c-0.366,0.366-0.549,0.833-0.549,1.402v6.944
		c0,0.569,0.183,1.035,0.549,1.402c0.365,0.366,0.832,0.547,1.401,0.547h4.082c-0.122,1.951-0.143,4.083-0.061,6.396h-4.021
		c-0.528,0-0.985,0.195-1.371,0.581c-0.386,0.385-0.579,0.842-0.579,1.371v6.882c0,0.531,0.193,0.988,0.579,1.371
		c0.385,0.388,0.842,0.581,1.371,0.581h5.787c2.559,8.976,7.391,16.112,14.498,21.411c7.107,5.299,15.412,7.95,24.916,7.95
		c0.771,0,1.553-0.019,2.345-0.062c0.792-0.04,1.532-0.1,2.224-0.183c0.69-0.079,1.371-0.171,2.041-0.274
		c0.67-0.1,1.279-0.202,1.827-0.305c0.549-0.1,1.066-0.202,1.553-0.305c0.487-0.1,0.923-0.212,1.31-0.336
		c0.385-0.121,0.71-0.212,0.975-0.274c0.263-0.06,0.477-0.131,0.639-0.212l0.304-0.062c0.447-0.162,0.792-0.457,1.036-0.883
		s0.304-0.883,0.183-1.371L77.631,80.045z"/>
</g>
</svg>
