<?xml version="1.0" encoding="iso-8859-1"?>
<!-- Generator: Adobe Illustrator 17.1.0, SVG Export Plug-In . SVG Version: 6.00 Build 0)  -->
<!DOCTYPE svg PUBLIC "-//W3C//DTD SVG 1.1//EN" "http://www.w3.org/Graphics/SVG/1.1/DTD/svg11.dtd">
<svg version="1.1" id="Capa_1" xmlns="http://www.w3.org/2000/svg" xmlns:xlink="http://www.w3.org/1999/xlink" x="0px" y="0px"
	 viewBox="0 0 100 100" style="enable-background:new 0 0 100 100;" xml:space="preserve">
<g>
	<path d="M43.338,75.681c-0.723,0-1.309,0.586-1.309,1.309v13.381c0,0.723,0.586,1.309,1.309,1.309h13.381
		c0.723,0,1.309-0.586,1.309-1.309V76.991c0-0.723-0.586-1.309-1.309-1.309H43.338z"/>
	<path d="M46.811,70.158h6.435c0.723,0,1.366-0.583,1.435-1.303l3.974-41.059V9.518c0-0.723-0.586-1.309-1.309-1.309H42.655
		c-0.723,0-1.309,0.586-1.309,1.309v18.278l4.029,41.06C45.445,69.575,46.088,70.158,46.811,70.158z"/>
</g>
</svg>
