<?xml version="1.0" encoding="iso-8859-1"?>
<!-- Generator: Adobe Illustrator 17.1.0, SVG Export Plug-In . SVG Version: 6.00 Build 0)  -->
<!DOCTYPE svg PUBLIC "-//W3C//DTD SVG 1.1//EN" "http://www.w3.org/Graphics/SVG/1.1/DTD/svg11.dtd">
<svg version="1.1" id="Capa_1" xmlns="http://www.w3.org/2000/svg" xmlns:xlink="http://www.w3.org/1999/xlink" x="0px" y="0px"
	 viewBox="0 0 100 100" style="enable-background:new 0 0 100 100;" xml:space="preserve">
<g>
	<path d="M43.957,53.142c-3.737-0.952-7.447-0.618-11.13,1.004c-3.684,1.624-6.354,4.071-8.011,7.351
		c-1.657,3.348-1.771,6.653-0.344,9.914c1.427,3.261,4.027,5.49,7.799,6.688c3.913,1.268,7.86,1.058,11.844-0.634
		c3.983-1.692,6.768-4.336,8.354-7.932c1.586-3.526,1.542-6.882-0.132-10.073C50.663,56.271,47.87,54.164,43.957,53.142z
		 M38.299,70.273c-0.776,1.2-1.877,2.037-3.305,2.512c-1.428,0.477-2.741,0.434-3.939-0.132c-1.199-0.564-1.956-1.454-2.274-2.671
		c-0.317-1.215-0.088-2.421,0.688-3.621c0.74-1.163,1.798-1.973,3.173-2.433c1.375-0.456,2.661-0.44,3.86,0.054
		c1.234,0.529,2.027,1.411,2.38,2.644C39.232,67.858,39.039,69.075,38.299,70.273z M43.269,63.876
		c-0.247,0.459-0.635,0.785-1.163,0.977c-0.529,0.196-1.04,0.204-1.533,0.027c-1.057-0.492-1.287-1.285-0.687-2.379
		c0.246-0.459,0.625-0.783,1.137-0.979c0.511-0.192,1.013-0.2,1.507-0.025c0.458,0.176,0.767,0.502,0.925,0.977
		C43.613,62.951,43.551,63.418,43.269,63.876z"/>
	<path d="M79.226,50.814c-1.622-1.02-3.437-1.851-5.446-2.485c-0.423-0.14-0.723-0.246-0.899-0.316
		c-0.177-0.07-0.389-0.202-0.635-0.397c-0.247-0.194-0.326-0.413-0.238-0.661c0.087-0.248,0.167-0.599,0.238-1.057
		c1.586-4.055,1.586-7.192,0-9.412c-1.622-2.15-4.318-3.226-8.09-3.226c-3.772,0-8.108,1.041-13.008,3.121l-0.317,0.105
		c-0.211,0.07-0.449,0.132-0.714,0.184c-0.264,0.054-0.521,0.064-0.767,0.027c-0.247-0.035-0.423-0.159-0.529-0.37
		c-0.106-0.211-0.088-0.564,0.053-1.057c1.586-5.11,1.233-8.795-1.058-11.05c-2.609-2.609-6.953-2.733-13.034-0.372
		c-6.081,2.363-12.101,6.523-18.058,12.48c-4.513,4.513-7.993,9.059-10.443,13.642c-2.45,4.583-3.675,8.9-3.675,12.955
		c0,3.807,1.145,7.322,3.437,10.549c2.291,3.226,5.314,5.887,9.068,7.985c3.754,2.099,7.993,3.734,12.717,4.916
		c4.723,1.181,9.571,1.772,14.541,1.772s9.738-0.547,14.303-1.64c4.565-1.093,8.548-2.555,11.95-4.387
		c3.401-1.834,6.372-3.904,8.91-6.213s4.459-4.724,5.764-7.246c1.304-2.52,1.957-4.978,1.957-7.376c0-2.255-0.6-4.309-1.798-6.159
		C82.257,53.274,80.847,51.838,79.226,50.814z M61.961,75.059c-5.165,4.176-11.677,6.672-19.538,7.481
		c-5.147,0.496-9.986,0.124-14.515-1.109c-4.53-1.233-8.205-3.154-11.025-5.765c-2.821-2.607-4.389-5.604-4.706-8.989
		c-0.494-5.145,1.842-9.807,7.006-13.986c5.164-4.176,11.677-6.669,19.538-7.481c5.146-0.494,9.985-0.122,14.515,1.109
		c4.529,1.235,8.204,3.156,11.025,5.765c2.82,2.609,4.389,5.604,4.706,8.989C69.46,66.221,67.125,70.882,61.961,75.059z"/>
	<path d="M78.168,40.689c0.388,0.758,0.986,1.278,1.798,1.559c0.811,0.248,1.594,0.178,2.353-0.211
		c0.757-0.386,1.277-0.987,1.56-1.799c0.669-1.973,0.784-4.044,0.344-6.213c-0.441-2.167-1.401-4.079-2.882-5.736
		c-1.48-1.656-3.261-2.811-5.34-3.464c-2.081-0.651-4.177-0.748-6.292-0.291c-0.846,0.178-1.499,0.626-1.957,1.349
		c-0.458,0.723-0.6,1.508-0.423,2.353c0.141,0.847,0.582,1.5,1.322,1.956c0.74,0.461,1.534,0.601,2.379,0.423
		c2.221-0.456,4.106,0.159,5.658,1.851c1.551,1.692,1.974,3.65,1.269,5.87C77.709,39.148,77.779,39.933,78.168,40.689z"/>
	<path d="M90.911,19.671c-3.067-3.418-6.733-5.79-10.998-7.112c-4.266-1.322-8.566-1.524-12.902-0.609
		c-0.987,0.213-1.754,0.733-2.3,1.562c-0.547,0.828-0.714,1.735-0.502,2.722s0.74,1.756,1.586,2.301s1.762,0.713,2.75,0.502
		c3.067-0.634,6.116-0.485,9.147,0.448c3.031,0.936,5.64,2.619,7.826,5.05c2.186,2.398,3.596,5.182,4.23,8.355
		c0.634,3.173,0.458,6.205-0.529,9.094c-0.283,0.952-0.194,1.869,0.264,2.749c0.458,0.884,1.164,1.481,2.115,1.799
		c0.952,0.316,1.868,0.248,2.75-0.213c0.881-0.456,1.48-1.163,1.798-2.115c1.375-4.052,1.613-8.309,0.714-12.768
		C95.961,26.979,93.978,23.054,90.911,19.671z"/>
</g>
</svg>
