<?xml version="1.0" encoding="iso-8859-1"?>
<!-- Generator: Adobe Illustrator 17.1.0, SVG Export Plug-In . SVG Version: 6.00 Build 0)  -->
<!DOCTYPE svg PUBLIC "-//W3C//DTD SVG 1.1//EN" "http://www.w3.org/Graphics/SVG/1.1/DTD/svg11.dtd">
<svg version="1.1" id="Capa_1" xmlns="http://www.w3.org/2000/svg" xmlns:xlink="http://www.w3.org/1999/xlink" x="0px" y="0px"
	 viewBox="0 0 100 100" style="enable-background:new 0 0 100 100;" xml:space="preserve">
<g>
	<path style="fill:#000100;" d="M88.748,8.057H10.553c-1.705,0-3.086,1.382-3.086,3.087v78.195c0,1.705,1.382,3.087,3.086,3.087
		h15.338V59.713c0-1.105-0.896-2-2-2h-3.162c-1.104,0-2-0.895-2-2v-7.964c0-1.105,0.896-2,2-2h3.162c1.104,0,2-0.895,2-2v-5.203
		c0-5.111,1.207-8.98,3.623-11.606C31.929,24.313,35.903,23,41.436,23h7.562c1.105,0,2,0.895,2,2v7.964c0,1.105-0.895,2-2,2h-3.982
		c-1.095,0-1.973,0.091-2.633,0.274c-0.66,0.183-1.138,0.513-1.432,0.99c-0.295,0.478-0.485,0.962-0.569,1.453
		c-0.084,0.492-0.126,1.187-0.126,2.086v3.982c0,1.105,0.896,2,2,2h6.827c1.104,0,1.906,0.89,1.79,1.989l-0.844,7.986
		c-0.116,1.098-1.105,1.989-2.21,1.989h-5.563c-1.104,0-2,0.895-2,2v32.713h48.492c1.705,0,3.086-1.382,3.086-3.087V11.144
		C91.834,9.439,90.453,8.057,88.748,8.057z"/>
</g>
</svg>
