<?xml version="1.0" encoding="iso-8859-1"?>
<!-- Generator: Adobe Illustrator 17.1.0, SVG Export Plug-In . SVG Version: 6.00 Build 0)  -->
<!DOCTYPE svg PUBLIC "-//W3C//DTD SVG 1.1//EN" "http://www.w3.org/Graphics/SVG/1.1/DTD/svg11.dtd">
<svg version="1.1" id="Capa_1" xmlns="http://www.w3.org/2000/svg" xmlns:xlink="http://www.w3.org/1999/xlink" x="0px" y="0px"
	 viewBox="0 0 100 100" style="enable-background:new 0 0 100 100;" xml:space="preserve">
<g>
	<path d="M26.643,96.765H61.37c0.011,0,0.022-0.002,0.033-0.002c0.013,0,0.026,0.002,0.039,0.002c2.603,0,5.16-1.016,7.073-2.929
		l5.102-5.102L84.02,78.479c1.803-1.778,2.849-4.171,2.958-6.69c0.002-0.048,0.006-0.095,0.007-0.143
		C86.988,71.55,87,71.454,87,71.358V13.235c0-5.523-4.477-10-10-10H26.643c-5.523,0-10,4.477-10,10v73.53
		C16.643,92.288,21.12,96.765,26.643,96.765z M66.572,81.638l-5.127,5.127v-0.073V71.209H77L66.572,81.638z M26.643,13.235H77
		v47.974H61.444c-5.523,0-10,4.477-10,10v15.556H26.643V13.235z"/>
</g>
</svg>
