<?xml version="1.0" encoding="iso-8859-1"?>
<!-- Generator: Adobe Illustrator 17.1.0, SVG Export Plug-In . SVG Version: 6.00 Build 0)  -->
<!DOCTYPE svg PUBLIC "-//W3C//DTD SVG 1.1//EN" "http://www.w3.org/Graphics/SVG/1.1/DTD/svg11.dtd">
<svg version="1.1" id="Layer_1" xmlns="http://www.w3.org/2000/svg" xmlns:xlink="http://www.w3.org/1999/xlink" x="0px" y="0px"
	 viewBox="0 0 64 64" style="enable-background:new 0 0 64 64;" xml:space="preserve">
<g>
	<path d="M52.908,21H16.823c-1.401,0-1.423-0.462-0.049-0.735l36.182-7.058c1.374-0.273,0.998-2.936,0.725-4.31l-0.115-0.611
		c-0.273-1.374-1.607-2.277-2.98-1.999l-39.683,8.03c-1.373,0.278-2.484,1.635-2.482,3.036l0.005,4.333l-0.009,0.578L8.514,51.21
		C8.518,52.61,9.658,54,11.059,54h41.849C54.308,54,55,52.355,55,50.955V23.055C55,21.654,54.308,21,52.908,21z M37.172,39.628
		l-4.217,2.401l-4.217,2.401C27.778,44.976,27,44.524,27,43.419v-4.781v-4.781c0-1.105,0.778-1.557,1.738-1.01l4.217,2.401
		l4.217,2.401C38.132,38.195,38.132,39.081,37.172,39.628z"/>
</g>
</svg>
