<?xml version="1.0" encoding="iso-8859-1"?>
<!-- Generator: Adobe Illustrator 17.1.0, SVG Export Plug-In . SVG Version: 6.00 Build 0)  -->
<!DOCTYPE svg PUBLIC "-//W3C//DTD SVG 1.1//EN" "http://www.w3.org/Graphics/SVG/1.1/DTD/svg11.dtd">
<svg version="1.1" id="Layer_1" xmlns="http://www.w3.org/2000/svg" xmlns:xlink="http://www.w3.org/1999/xlink" x="0px" y="0px"
	 viewBox="0 0 64 64" style="enable-background:new 0 0 64 64;" xml:space="preserve">
<g>
	<path d="M26.041,41.114c1.577,0.508,1.798-0.039,0.896-1.429c-1.541-2.376-2.939-6.7,0.154-13.163
		c3.31-6.995,7.898-9.778,8.725-9.929c0.659-0.12-4.526,7.81-4.769,11.97c-0.11,1.875,2.828,3.281,4.597,2.185
		c2.279-1.413,2.11-5.94,2.053-6.633c-0.067-0.807,4.318,9.999-1.052,15.922c-1.113,1.228-0.977,1.861,0.638,1.489
		c3.16-0.727,7.804-2.852,8.538-9.063c0.707-8.737-7.31-21.04-12.36-26.179c-1.161-1.182-1.733-0.685-1.676,0.971
		c0.085,2.489-0.692,6.359-4.768,10.841c-6.391,7.028-7.828,8.403-8.688,14.216C18.328,35.406,18.236,38.602,26.041,41.114z"/>
	<path d="M13.588,56.406c0.364,1.152,1.42,1.927,2.627,1.927c0.281,0,0.561-0.043,0.832-0.129l15.062-4.759l15.062,4.759
		c0.27,0.085,0.55,0.129,0.831,0.129c1.208,0,2.264-0.774,2.627-1.926l0.68-2.151c0.222-0.703,0.157-1.449-0.183-2.102
		c-0.339-0.653-0.914-1.135-1.615-1.357l-4.51-1.426l0.448-0.142c0.702-0.222,1.276-0.704,1.616-1.357
		c0.339-0.654,0.404-1.4,0.182-2.103l-0.68-2.151c-0.364-1.152-1.42-1.927-2.627-1.927c-0.281,0-0.561,0.043-0.832,0.129
		l-10.999,3.476l-11-3.476c-0.27-0.085-0.55-0.129-0.831-0.129c-1.208,0-2.264,0.774-2.627,1.926l-0.68,2.152
		c-0.458,1.449,0.348,3.001,1.798,3.459l0.448,0.142l-4.509,1.426c-0.702,0.222-1.276,0.704-1.616,1.357
		c-0.339,0.653-0.404,1.399-0.182,2.102L13.588,56.406z"/>
</g>
</svg>
