<?xml version="1.0" encoding="iso-8859-1"?>
<!-- Generator: Adobe Illustrator 17.1.0, SVG Export Plug-In . SVG Version: 6.00 Build 0)  -->
<!DOCTYPE svg PUBLIC "-//W3C//DTD SVG 1.1//EN" "http://www.w3.org/Graphics/SVG/1.1/DTD/svg11.dtd">
<svg version="1.1" id="Capa_1" xmlns="http://www.w3.org/2000/svg" xmlns:xlink="http://www.w3.org/1999/xlink" x="0px" y="0px"
	 viewBox="0 0 100 100" style="enable-background:new 0 0 100 100;" xml:space="preserve">
<g>
	<path style="fill:#1D1D1B;" d="M80.386,8.353c-0.489-1.869-2.398-2.993-4.271-2.5l-19.438,5.084C55.872,8,53.191,5.839,50,5.839
		c-3.824,0-6.924,3.098-6.929,6.921c-8.556-1.725-16.834-0.505-22.638,7.537c-7.252,10.049-2.958,23.557,0.882,33.928
		c1.554,4.195,8.321,2.381,6.75-1.861c-3.055-8.25-6.654-17.56-2.911-26.187c2.322-5.352,6.552-7.119,11.232-7.154
		C33.739,20.823,32,23.858,32,27.299V93h36V27.299c0-0.966-0.145-1.896-0.4-2.78l8.514,2.226c0.297,0.078,0.595,0.115,0.888,0.115
		c1.554,0,2.973-1.042,3.384-2.615c0.489-1.87-0.63-3.783-2.5-4.271L63.832,16.3l14.054-3.676
		C79.756,12.136,80.875,10.223,80.386,8.353z"/>
</g>
</svg>
