<?xml version="1.0" encoding="iso-8859-1"?>
<!-- Generator: Adobe Illustrator 17.1.0, SVG Export Plug-In . SVG Version: 6.00 Build 0)  -->
<!DOCTYPE svg PUBLIC "-//W3C//DTD SVG 1.1//EN" "http://www.w3.org/Graphics/SVG/1.1/DTD/svg11.dtd">
<svg version="1.1" id="Capa_1" xmlns="http://www.w3.org/2000/svg" xmlns:xlink="http://www.w3.org/1999/xlink" x="0px" y="0px"
	 viewBox="0 0 100 100" style="enable-background:new 0 0 100 100;" xml:space="preserve">
<g>
	<path style="fill:#1D1D1B;" d="M77.457,7.35H23.596c-4.451,0-8.257,1.582-11.417,4.74c-3.161,3.162-4.741,6.967-4.741,11.418V77.37
		c0,4.451,1.58,8.258,4.741,11.416c3.16,3.16,6.966,4.743,11.417,4.743h53.861c4.451,0,8.256-1.582,11.417-4.743
		c3.16-3.158,4.741-6.965,4.741-11.416V23.509c0-4.451-1.581-8.256-4.741-11.418C85.713,8.932,81.907,7.35,77.457,7.35z
		 M43.12,58.855c-2.32,2.319-5.125,3.478-8.416,3.478c-3.292,0-6.097-1.159-8.416-3.478c-2.32-2.319-3.479-5.124-3.479-8.416
		s1.159-6.097,3.479-8.416c2.319-2.319,5.124-3.478,8.416-3.478c3.291,0,6.096,1.159,8.416,3.478
		c2.319,2.319,3.479,5.124,3.479,8.416S45.439,56.536,43.12,58.855z M74.764,58.855c-2.32,2.319-5.125,3.478-8.416,3.478
		c-3.292,0-6.097-1.159-8.416-3.478c-2.32-2.319-3.479-5.124-3.479-8.416s1.159-6.097,3.479-8.416
		c2.319-2.319,5.124-3.478,8.416-3.478c3.291,0,6.096,1.159,8.416,3.478c2.319,2.319,3.479,5.124,3.479,8.416
		S77.083,56.536,74.764,58.855z"/>
</g>
</svg>
