<?xml version="1.0" encoding="iso-8859-1"?>
<!-- Generator: Adobe Illustrator 17.1.0, SVG Export Plug-In . SVG Version: 6.00 Build 0)  -->
<!DOCTYPE svg PUBLIC "-//W3C//DTD SVG 1.1//EN" "http://www.w3.org/Graphics/SVG/1.1/DTD/svg11.dtd">
<svg version="1.1" id="Capa_1" xmlns="http://www.w3.org/2000/svg" xmlns:xlink="http://www.w3.org/1999/xlink" x="0px" y="0px"
	 viewBox="0 0 100 100" style="enable-background:new 0 0 100 100;" xml:space="preserve">
<g>
	<path style="fill:#1D1D1B;" d="M93.674,34.705H41.779c0.95,1.484,1.893,3.273,2.614,4.991h31.123c2.553,0,5.548,2.134,5.548,4.767
		l6.051,37.957l10.486-42.782C98.228,36.914,96.469,34.705,93.674,34.705z"/>
	<path style="fill:#1D1D1B;" d="M13.478,86.394h65.824c0.945,0,1.815-0.295,2.531-0.787c1.12-0.769,1.857-2.027,1.857-3.457
		l-5.924-34.859c0-2.344-2.843-4.244-5.266-4.244H42.959c-1.103-2.466-2.869-6.252-4.281-8.342
		c-0.624-0.923-1.179-1.518-1.578-1.518H7.021c-2.746,0-4.972,1.9-4.972,4.244L9.09,82.15C9.09,84.494,11.055,86.394,13.478,86.394z
		 M31.98,43.187c0.178,0.356,0.377,0.768,0.587,1.207c0.371,0.776,0.787,1.671,1.264,2.737l2.647,5.917h6.481h25.642l3.968,23.346
		H19.677h-1.371l-5.228-33.207H31.98z"/>
</g>
</svg>
