<?xml version="1.0" encoding="iso-8859-1"?>
<!-- Generator: Adobe Illustrator 17.1.0, SVG Export Plug-In . SVG Version: 6.00 Build 0)  -->
<!DOCTYPE svg PUBLIC "-//W3C//DTD SVG 1.1//EN" "http://www.w3.org/Graphics/SVG/1.1/DTD/svg11.dtd">
<svg version="1.1" id="Capa_1" xmlns="http://www.w3.org/2000/svg" xmlns:xlink="http://www.w3.org/1999/xlink" x="0px" y="0px"
	 viewBox="0 0 100 100" style="enable-background:new 0 0 100 100;" xml:space="preserve">
<g>
	<path style="fill:#1D1D1B;" d="M91.753,20.135H52.364c0.816,1.893,1.642,3.98,2.418,5.775h38.643c1.52,0,2.897,0.61,3.902,1.597
		V25.71C97.328,22.631,94.832,20.135,91.753,20.135z"/>
	<path style="fill:#1D1D1B;" d="M92.907,28.41c-0.54-0.174-1.114-0.27-1.711-0.27H53.023h-0.47
		c-1.009-2.333-2.102-5.164-3.148-7.413c-0.802-1.723-1.576-3.098-2.266-3.653c-0.212-0.171-0.417-0.27-0.612-0.27H8.316
		c-1.271,0-2.451,0.334-3.442,0.904C3.145,18.703,2,20.421,2,22.379v11.336v5.096v38.466c0,3.079,2.496,5.575,5.575,5.575h83.621
		c2.113,0,3.951-1.176,4.896-2.908c0.432-0.792,0.678-1.7,0.678-2.666v-39.95v-3.611c0-0.597-0.096-1.172-0.27-1.711
		C95.951,30.302,94.608,28.959,92.907,28.41z M86.77,40.483v32.368H12V38.81v-5.096v-6.911h29.156
		c0.345,0.811,0.682,1.629,0.951,2.282c0.43,1.043,0.855,2.073,1.267,3.024l2.608,6.029h1.374h5.195H86.77V40.483z"/>
</g>
</svg>
