<?xml version="1.0" encoding="iso-8859-1"?>
<!-- Generator: Adobe Illustrator 17.1.0, SVG Export Plug-In . SVG Version: 6.00 Build 0)  -->
<!DOCTYPE svg PUBLIC "-//W3C//DTD SVG 1.1//EN" "http://www.w3.org/Graphics/SVG/1.1/DTD/svg11.dtd">
<svg version="1.1" id="Layer_1" xmlns="http://www.w3.org/2000/svg" xmlns:xlink="http://www.w3.org/1999/xlink" x="0px" y="0px"
	 viewBox="0 0 64 64" style="enable-background:new 0 0 64 64;" xml:space="preserve">
<g>
	<path d="M30.942,55.293c1.588,0,29.42-1.099,29.42-5.74s-14.887-2.351-14.875-6.316c-0.012-1.469,6.031-0.978,4.415-3.82
		c-1.425-2.361-20.914-2.076-20.914-2.076S24.893,37.361,20,37.966V21.149c5.61-2.769,20.445-11.361,13.083-10.843
		C26.82,10.747,22.376,8.569,20,6.964V4c0-0.829-0.672-1.5-1.5-1.5S17,3.171,17,4v34.404c-6.535,1.106-13.304,3.362-13.304,7.974
		C3.696,55.293,29.355,55.293,30.942,55.293z M17,42.449V44c0,0.829,0.672,1.5,1.5,1.5S20,44.829,20,44v-1.615
		c2.665,0.229,4.667,1.201,4.667,2.365c0,1.335-2.63,2.417-5.875,2.417c-3.245,0-5.875-1.082-5.875-2.417
		C12.917,43.672,14.632,42.76,17,42.449z"/>
</g>
</svg>
