<?xml version="1.0" encoding="iso-8859-1"?>
<!-- Generator: Adobe Illustrator 17.1.0, SVG Export Plug-In . SVG Version: 6.00 Build 0)  -->
<!DOCTYPE svg PUBLIC "-//W3C//DTD SVG 1.1//EN" "http://www.w3.org/Graphics/SVG/1.1/DTD/svg11.dtd">
<svg version="1.1" id="Capa_1" xmlns="http://www.w3.org/2000/svg" xmlns:xlink="http://www.w3.org/1999/xlink" x="0px" y="0px"
	 viewBox="0 0 100 100" style="enable-background:new 0 0 100 100;" xml:space="preserve">
<g>
	<path style="fill:#000100;" d="M15.522,47.754c1.278,1.656,2.835,3.004,4.672,4.043c1.836,1.039,3.773,1.557,5.81,1.557
		c3.873,0,6.678-1.207,8.415-3.624c1.737-2.416,2.605-5.62,2.605-9.613c0-2.436-0.32-4.992-0.958-7.667
		c-0.639-2.674-1.578-5.271-2.815-7.786c-1.238-2.515-2.915-4.592-5.031-6.229c-2.117-1.637-4.492-2.456-7.127-2.456
		c-3.713,0-6.599,1.378-8.655,4.133c-2.057,2.755-3.084,6.049-3.084,9.883c0,1.878,0.229,3.853,0.689,5.93
		c0.458,2.076,1.168,4.153,2.126,6.228C13.127,44.231,14.244,46.098,15.522,47.754z"/>
	<path style="fill:#000100;" d="M22.89,61.8c0-0.998,0.419-2.715,1.257-5.151c-1.518,0.2-2.915,0.299-4.192,0.299
		c-6.789,0-12.239-2.356-16.352-7.068v25.935c6.029-3.115,13.716-4.812,23.06-5.091C24.147,67.45,22.89,64.475,22.89,61.8z"/>
	<path style="fill:#000100;" d="M23.806,96h19.808c0.399-1.317,0.6-2.735,0.6-4.252c0-0.839-0.09-1.647-0.27-2.426
		c-0.18-0.778-0.37-1.497-0.569-2.156c-0.201-0.659-0.549-1.348-1.048-2.066c-0.5-0.719-0.919-1.328-1.258-1.827
		c-0.339-0.498-0.869-1.087-1.587-1.766c-0.719-0.679-1.268-1.187-1.647-1.528c-0.38-0.338-1.018-0.848-1.917-1.527
		s-1.518-1.138-1.856-1.378c-0.34-0.24-0.999-0.698-1.977-1.378c-0.979-0.679-1.587-1.097-1.827-1.258
		c-0.679-0.08-1.657-0.119-2.935-0.119c-2.197,0-4.333,0.14-6.409,0.419c-5.553,0.745-11.238,2.592-15.018,6.949
		c-0.931,1.073-1.621,2.377-2.292,3.628V96h17.25H23.806z"/>
	<path style="fill:#000100;" d="M75.402,4H23.806h-2.952H3.604v17.969c3.034-3.793,6.679-6.459,10.931-7.996
		c4.253-1.537,9.135-2.306,14.645-2.306h26.174L47.268,15.5h-8.086c0.199,0.4,0.409,0.739,0.629,1.019
		c0.219,0.28,0.419,0.469,0.599,0.569c0.179,0.101,0.429,0.25,0.749,0.449c0.319,0.2,0.599,0.42,0.839,0.659
		c1.956,1.838,3.463,4.203,4.522,7.099c1.058,2.895,1.587,5.8,1.587,8.714c0,2.915-0.46,5.531-1.378,7.846
		c-0.918,2.316-2.027,4.174-3.324,5.571c-1.298,1.398-2.605,2.686-3.923,3.863c-1.317,1.179-2.437,2.406-3.354,3.684
		c-0.919,1.279-1.378,2.636-1.378,4.073c0,1.198,0.439,2.386,1.318,3.563c0.878,1.178,1.986,2.267,3.324,3.265
		s2.775,2.185,4.312,3.563c1.537,1.378,2.975,2.796,4.312,4.252c1.338,1.459,2.446,3.315,3.325,5.571
		c0.878,2.257,1.317,4.702,1.317,7.337c0,3.354-0.779,6.488-2.336,9.403h25.08h2.952h17.25V78.751v-1.955V34.666H80.27v15.334
		h-7.667V34.666H57.271V27h15.333V11.667h7.667V27h15.334v-3.796V21.25V4h-17.25H75.402z"/>
</g>
</svg>
