<?xml version="1.0" encoding="iso-8859-1"?>
<!-- Generator: Adobe Illustrator 17.1.0, SVG Export Plug-In . SVG Version: 6.00 Build 0)  -->
<!DOCTYPE svg PUBLIC "-//W3C//DTD SVG 1.1//EN" "http://www.w3.org/Graphics/SVG/1.1/DTD/svg11.dtd">
<svg version="1.1" id="Capa_1" xmlns="http://www.w3.org/2000/svg" xmlns:xlink="http://www.w3.org/1999/xlink" x="0px" y="0px"
	 viewBox="0 0 100 100" style="enable-background:new 0 0 100 100;" xml:space="preserve">
<g>
	<path style="fill:#000100;" d="M72.721,3.882H39.273c-3.359,0-6.081,2.723-6.081,6.081v4.865c0,3.359,2.723,6.081,6.081,6.081
		h33.448c3.359,0,6.082-2.723,6.082-6.081V9.963C78.803,6.605,76.08,3.882,72.721,3.882z"/>
	<path style="fill:#000100;" d="M76.37,25.349H35.625c-1.344,0-3.058,0.892-3.884,1.951c-2.125,2.723-6.387,7.715-11.481,11.161
		c-1.113,0.753-3.045,1.791-4.05,2.682c-3.854,3.419-3.829,8.478-3.399,11.428c0.194,1.329,1.542,2.009,2.807,1.557l15.284-5.458
		c1.265-0.452,2.291,0.271,2.291,1.614v13.795v5.15v20.177c0,3.708,3.411,6.713,7.619,6.713s7.619-3.005,7.619-6.713V75.418
		l21.887-3.386c1.328-0.205,3.227-1.085,4.242-1.965l2.405-2.084c1.015-0.88,1.838-2.682,1.838-4.026V27.781
		C78.803,26.438,77.714,25.349,76.37,25.349z"/>
</g>
</svg>
