<?xml version="1.0" encoding="iso-8859-1"?>
<!-- Generator: Adobe Illustrator 17.1.0, SVG Export Plug-In . SVG Version: 6.00 Build 0)  -->
<!DOCTYPE svg PUBLIC "-//W3C//DTD SVG 1.1//EN" "http://www.w3.org/Graphics/SVG/1.1/DTD/svg11.dtd">
<svg version="1.1" id="Capa_1" xmlns="http://www.w3.org/2000/svg" xmlns:xlink="http://www.w3.org/1999/xlink" x="0px" y="0px"
	 viewBox="0 0 100 100" style="enable-background:new 0 0 100 100;" xml:space="preserve">
<g>
	<path d="M72.322,9.702C65.203,5.55,57.429,3.473,49,3.473c-8.43,0-16.204,2.077-23.322,6.229
		c-7.119,4.157-12.756,9.793-16.91,16.911c-4.155,7.118-6.231,14.893-6.231,23.321c0,8.432,2.077,16.205,6.231,23.323
		c4.154,7.12,9.79,12.757,16.91,16.909C32.796,94.321,40.57,96.398,49,96.398c8.429,0,16.203-2.077,23.322-6.232
		c7.118-4.152,12.755-9.789,16.91-16.909c4.154-7.118,6.231-14.891,6.231-23.323c0-8.427-2.078-16.202-6.231-23.321
		C85.077,19.496,79.44,13.859,72.322,9.702z M71.959,42.313c-0.343,1.494-0.838,2.682-1.482,3.569L49.302,74.498L28.188,45.881
		c-0.646-0.886-1.14-2.075-1.482-3.569c-0.343-1.491-0.222-3.207,0.363-5.142c0.584-1.936,1.805-3.528,3.66-4.781
		c1.653-1.047,3.348-1.56,5.082-1.541c1.733,0.019,3.216,0.373,4.447,1.059c1.23,0.685,2.329,1.593,3.297,2.722
		c1.452,1.614,3.367,2.42,5.747,2.42c2.42,0,4.356-0.806,5.808-2.42c0.968-1.13,2.066-2.037,3.297-2.722
		c1.23-0.685,2.712-1.04,4.447-1.059c1.734-0.019,3.408,0.494,5.022,1.541c1.895,1.253,3.135,2.845,3.721,4.781
		C72.181,39.106,72.302,40.822,71.959,42.313z"/>
</g>
</svg>
