<?xml version="1.0" encoding="iso-8859-1"?>
<!-- Generator: Adobe Illustrator 17.1.0, SVG Export Plug-In . SVG Version: 6.00 Build 0)  -->
<!DOCTYPE svg PUBLIC "-//W3C//DTD SVG 1.1//EN" "http://www.w3.org/Graphics/SVG/1.1/DTD/svg11.dtd">
<svg version="1.1" id="Capa_1" xmlns="http://www.w3.org/2000/svg" xmlns:xlink="http://www.w3.org/1999/xlink" x="0px" y="0px"
	 viewBox="0 0 100 100" style="enable-background:new 0 0 100 100;" xml:space="preserve">
<g>
	<path style="fill:#1D1D1B;" d="M70.672,11.172c-8.313,0-15.666,5.09-20.172,11.363c-4.506-6.273-11.859-11.363-20.172-11.363
		C16.616,11.172,5.5,22.288,5.5,36c0,1.428,0.127,2.826,0.359,4.188c0,0.003,0,0.005,0,0.008C5.859,68.75,50.5,90.828,50.5,90.828
		S95.141,69.5,95.141,40.196c0-0.003,0-0.005,0-0.008C95.373,38.826,95.5,37.428,95.5,36C95.5,22.288,84.384,11.172,70.672,11.172z"
		/>
</g>
</svg>
