<?xml version="1.0" encoding="iso-8859-1"?>
<!-- Generator: Adobe Illustrator 17.1.0, SVG Export Plug-In . SVG Version: 6.00 Build 0)  -->
<!DOCTYPE svg PUBLIC "-//W3C//DTD SVG 1.1//EN" "http://www.w3.org/Graphics/SVG/1.1/DTD/svg11.dtd">
<svg version="1.1" id="Capa_1" xmlns="http://www.w3.org/2000/svg" xmlns:xlink="http://www.w3.org/1999/xlink" x="0px" y="0px"
	 viewBox="0 0 100 100" style="enable-background:new 0 0 100 100;" xml:space="preserve">
<g>
	<path style="fill:#1D1D1B;" d="M78.721,16.5h-13.63v5.744v2.042c0,2.04-0.764,3.881-2.209,5.325
		c-1.445,1.445-3.287,2.209-5.325,2.209H42.443c-2.038,0-3.879-0.764-5.324-2.208c-1.446-1.445-2.21-3.286-2.21-5.326v-2.042V16.5
		h-13.63c-0.778,0-1.452,0.284-2.02,0.852c-0.568,0.57-0.853,1.243-0.853,2.019v74.675c0,0.777,0.284,1.451,0.853,2.019
		c0.568,0.568,1.241,0.853,2.02,0.853h19.189c-0.07-0.33-0.113-0.67-0.113-1.027v-4.718v-8.36c0-1.304,0.475-2.434,1.431-3.391
		c0.954-0.951,2.084-1.43,3.391-1.43h9.645c1.305,0,2.435,0.48,3.391,1.43c0.954,0.957,1.432,2.087,1.432,3.391v8.36v4.718
		c0,0.357-0.042,0.697-0.113,1.027h19.19c0.777,0,1.451-0.285,2.02-0.853c0.568-0.569,0.853-1.242,0.853-2.019V19.371
		c0-0.777-0.285-1.45-0.853-2.019C80.172,16.784,79.499,16.5,78.721,16.5z M73.878,70.745c-0.345,0.345-0.753,0.517-1.225,0.517
		h-3.485c-0.472,0-0.881-0.172-1.226-0.517c-0.345-0.345-0.517-0.753-0.517-1.225v-3.485c0-0.471,0.172-0.88,0.517-1.225
		c0.345-0.344,0.753-0.518,1.226-0.518h3.485c0.472,0,0.88,0.174,1.225,0.518c0.345,0.346,0.518,0.754,0.518,1.225v3.485
		C74.396,69.992,74.223,70.401,73.878,70.745z M74.396,79.975v3.485c0,0.473-0.173,0.882-0.518,1.225
		c-0.345,0.346-0.753,0.517-1.225,0.517h-3.485c-0.472,0-0.881-0.171-1.226-0.517c-0.345-0.344-0.517-0.752-0.517-1.225v-3.485
		c0-0.471,0.172-0.88,0.517-1.225c0.345-0.344,0.753-0.517,1.226-0.517h3.485c0.472,0,0.88,0.173,1.225,0.517
		C74.223,79.096,74.396,79.504,74.396,79.975z M73.878,56.804c-0.345,0.346-0.753,0.518-1.225,0.518h-3.485
		c-0.472,0-0.881-0.172-1.226-0.518c-0.345-0.344-0.517-0.752-0.517-1.225v-3.484c0-0.472,0.172-0.881,0.517-1.225
		c0.345-0.345,0.753-0.518,1.226-0.518h3.485c0.472,0,0.88,0.173,1.225,0.518c0.345,0.345,0.518,0.753,0.518,1.225v3.484
		C74.396,56.052,74.223,56.461,73.878,56.804z M73.878,42.864c-0.345,0.346-0.753,0.518-1.225,0.518h-3.485
		c-0.472,0-0.881-0.172-1.226-0.518c-0.345-0.344-0.517-0.752-0.517-1.225v-3.485c0-0.471,0.172-0.88,0.517-1.225
		c0.345-0.344,0.753-0.517,1.226-0.517h3.485c0.472,0,0.88,0.173,1.225,0.517c0.345,0.346,0.518,0.754,0.518,1.225v3.485
		C74.396,42.112,74.223,42.521,73.878,42.864z M73.878,28.924c-0.345,0.346-0.753,0.517-1.225,0.517h-3.485
		c-0.472,0-0.881-0.171-1.226-0.517c-0.345-0.344-0.517-0.752-0.517-1.225v-3.485c0-0.471,0.172-0.88,0.517-1.225
		c0.345-0.344,0.753-0.517,1.226-0.517h3.485c0.472,0,0.88,0.173,1.225,0.517c0.345,0.346,0.518,0.754,0.518,1.225v3.485
		C74.396,28.172,74.223,28.581,73.878,28.924z M53.485,38.154c0-0.471,0.172-0.88,0.517-1.225c0.345-0.344,0.753-0.517,1.225-0.517
		h3.485c0.471,0,0.879,0.173,1.225,0.517c0.345,0.346,0.517,0.754,0.517,1.225v3.485c0,0.473-0.172,0.882-0.517,1.225
		c-0.346,0.346-0.754,0.518-1.225,0.518h-3.485c-0.472,0-0.88-0.172-1.225-0.518c-0.345-0.344-0.517-0.752-0.517-1.225V38.154z
		 M53.485,52.095c0-0.472,0.172-0.881,0.517-1.225c0.345-0.345,0.753-0.518,1.225-0.518h3.485c0.471,0,0.879,0.173,1.225,0.518
		c0.345,0.345,0.517,0.753,0.517,1.225v3.484c0,0.473-0.172,0.882-0.517,1.225c-0.346,0.346-0.754,0.518-1.225,0.518h-3.485
		c-0.472,0-0.88-0.172-1.225-0.518c-0.345-0.344-0.517-0.752-0.517-1.225V52.095z M32.058,70.745
		c-0.346,0.345-0.754,0.517-1.226,0.517h-3.485c-0.472,0-0.881-0.172-1.225-0.517c-0.346-0.345-0.518-0.753-0.518-1.225v-3.485
		c0-0.471,0.172-0.88,0.518-1.225c0.344-0.344,0.753-0.518,1.225-0.518h3.485c0.472,0,0.88,0.174,1.226,0.518
		c0.344,0.346,0.517,0.754,0.517,1.225v3.485C32.575,69.992,32.402,70.401,32.058,70.745z M32.575,79.975v3.485
		c0,0.473-0.173,0.882-0.517,1.225c-0.346,0.346-0.754,0.517-1.226,0.517h-3.485c-0.472,0-0.881-0.171-1.225-0.517
		c-0.346-0.344-0.518-0.752-0.518-1.225v-3.485c0-0.471,0.172-0.88,0.518-1.225c0.344-0.344,0.753-0.517,1.225-0.517h3.485
		c0.472,0,0.88,0.173,1.226,0.517C32.402,79.096,32.575,79.504,32.575,79.975z M32.058,56.804c-0.346,0.346-0.754,0.518-1.226,0.518
		h-3.485c-0.472,0-0.881-0.172-1.225-0.518c-0.346-0.344-0.518-0.752-0.518-1.225v-3.484c0-0.472,0.172-0.881,0.518-1.225
		c0.344-0.345,0.753-0.518,1.225-0.518h3.485c0.472,0,0.88,0.173,1.226,0.518c0.344,0.345,0.517,0.753,0.517,1.225v3.484
		C32.575,56.052,32.402,56.461,32.058,56.804z M32.058,42.864c-0.346,0.346-0.754,0.518-1.226,0.518h-3.485
		c-0.472,0-0.881-0.172-1.225-0.518c-0.346-0.344-0.518-0.752-0.518-1.225v-3.485c0-0.471,0.172-0.88,0.518-1.225
		c0.344-0.344,0.753-0.517,1.225-0.517h3.485c0.472,0,0.88,0.173,1.226,0.517c0.344,0.346,0.517,0.754,0.517,1.225v3.485
		C32.575,42.112,32.402,42.521,32.058,42.864z M32.058,28.924c-0.346,0.346-0.754,0.517-1.226,0.517h-3.485
		c-0.472,0-0.881-0.171-1.225-0.517c-0.346-0.344-0.518-0.752-0.518-1.225v-3.485c0-0.471,0.172-0.88,0.518-1.225
		c0.344-0.344,0.753-0.517,1.225-0.517h3.485c0.472,0,0.88,0.173,1.226,0.517c0.344,0.346,0.517,0.754,0.517,1.225v3.485
		C32.575,28.172,32.402,28.581,32.058,28.924z M46.515,69.52c0,0.472-0.173,0.881-0.517,1.225c-0.346,0.345-0.754,0.517-1.226,0.517
		h-3.485c-0.472,0-0.88-0.172-1.225-0.517c-0.345-0.345-0.517-0.753-0.517-1.225v-3.485c0-0.471,0.172-0.88,0.517-1.225
		c0.345-0.344,0.753-0.518,1.225-0.518h3.485c0.471,0,0.88,0.174,1.226,0.518c0.344,0.346,0.517,0.754,0.517,1.225V69.52z
		 M46.515,55.579c0,0.473-0.173,0.882-0.517,1.225c-0.346,0.346-0.754,0.518-1.226,0.518h-3.485c-0.472,0-0.88-0.172-1.225-0.518
		c-0.345-0.344-0.517-0.752-0.517-1.225v-3.484c0-0.472,0.172-0.881,0.517-1.225c0.345-0.345,0.753-0.518,1.225-0.518h3.485
		c0.471,0,0.88,0.173,1.226,0.518c0.344,0.345,0.517,0.753,0.517,1.225V55.579z M46.515,41.639c0,0.473-0.173,0.882-0.517,1.225
		c-0.346,0.346-0.754,0.518-1.226,0.518h-3.485c-0.472,0-0.88-0.172-1.225-0.518c-0.345-0.344-0.517-0.752-0.517-1.225v-3.485
		c0-0.471,0.172-0.88,0.517-1.225c0.345-0.344,0.753-0.517,1.225-0.517h3.485c0.471,0,0.88,0.173,1.226,0.517
		c0.344,0.346,0.517,0.754,0.517,1.225V41.639z M58.713,71.262h-3.485c-0.472,0-0.88-0.172-1.225-0.517
		c-0.345-0.345-0.517-0.753-0.517-1.225v-3.485c0-0.471,0.172-0.88,0.517-1.225c0.345-0.344,0.753-0.518,1.225-0.518h3.485
		c0.471,0,0.879,0.174,1.225,0.518c0.345,0.346,0.517,0.754,0.517,1.225v3.485c0,0.472-0.172,0.881-0.517,1.225
		C59.592,71.09,59.184,71.262,58.713,71.262z"/>
	<path style="fill:#1D1D1B;" d="M39.549,27.748c0.824,0.701,1.783,1.072,2.894,1.072h3.643h7.83h3.642
		c1.11,0,2.069-0.371,2.894-1.072c0.103-0.087,0.211-0.16,0.31-0.258c0.887-0.887,1.331-1.955,1.331-3.204v-2.042V16.5V9.172
		c0-1.249-0.443-2.317-1.331-3.204c-0.887-0.887-1.955-1.331-3.204-1.331H42.443c-1.249,0-2.317,0.444-3.204,1.331
		c-0.887,0.887-1.331,1.955-1.331,3.204V16.5v5.744v2.042c0,1.249,0.443,2.317,1.331,3.204
		C39.338,27.588,39.447,27.66,39.549,27.748z M41.939,16.5V9.675c0-0.272,0.1-0.509,0.299-0.708
		c0.199-0.199,0.436-0.299,0.708-0.299h2.015c0.273,0,0.509,0.1,0.708,0.299c0.199,0.2,0.299,0.436,0.299,0.708v5.038h8.061V9.675
		c0-0.272,0.1-0.509,0.299-0.708c0.199-0.199,0.436-0.299,0.708-0.299h2.015c0.273,0,0.509,0.1,0.708,0.299
		c0.199,0.2,0.299,0.436,0.299,0.708V16.5v5.744v0.228v1.31c0,0.273-0.1,0.509-0.299,0.708c-0.2,0.2-0.436,0.299-0.708,0.299h-2.015
		c-0.273,0-0.509-0.099-0.708-0.299c-0.2-0.199-0.299-0.435-0.299-0.708v-0.817v-0.721v-3.5H45.97v3.5v0.721v0.817
		c0,0.273-0.1,0.509-0.299,0.708c-0.2,0.2-0.436,0.299-0.708,0.299h-2.015c-0.273,0-0.509-0.099-0.708-0.299
		c-0.2-0.199-0.299-0.435-0.299-0.708v-1.31v-0.228V16.5z"/>
</g>
</svg>
