<?xml version="1.0" encoding="iso-8859-1"?>
<!-- Generator: Adobe Illustrator 17.1.0, SVG Export Plug-In . SVG Version: 6.00 Build 0)  -->
<!DOCTYPE svg PUBLIC "-//W3C//DTD SVG 1.1//EN" "http://www.w3.org/Graphics/SVG/1.1/DTD/svg11.dtd">
<svg version="1.1" id="Capa_1" xmlns="http://www.w3.org/2000/svg" xmlns:xlink="http://www.w3.org/1999/xlink" x="0px" y="0px"
	 viewBox="0 0 100 100" style="enable-background:new 0 0 100 100;" xml:space="preserve">
<g>
	<path d="M18.843,85.46l29.285,8.264c0.532,0.15,1.394,0.151,1.925,0.002l29.502-8.268c0.532-0.149,1.002-0.716,1.052-1.266
		l6.782-76.196C87.438,7.446,87.029,7,86.477,7H11.921c-0.552,0-0.96,0.446-0.911,0.996l6.782,76.196
		C17.841,84.742,18.311,85.31,18.843,85.46z M26.166,22.985h46.065c0.552,0,0.959,0.446,0.909,0.996l-0.688,7.523
		c-0.05,0.55-0.539,0.996-1.091,0.996H36.715c-0.552,0-0.963,0.446-0.917,0.997l0.65,7.849c0.046,0.55,0.53,0.997,1.083,0.997
		h33.016c0.552,0,0.959,0.446,0.909,0.996l-2.536,27.586c-0.051,0.55-0.523,1.115-1.056,1.262l-17.592,4.852
		c-0.532,0.147-0.964,0.278-0.964,0.292s-0.049,0.027-0.109,0.027s-0.54-0.119-1.073-0.266l-17.755-4.905
		c-0.532-0.147-0.999-0.713-1.043-1.263L28.29,57.801c-0.043-0.551,0.369-0.997,0.921-0.997h7.515c0.552,0,1.042,0.446,1.093,0.996
		l0.522,5.621c0.051,0.55,0.525,1.113,1.058,1.257l8.726,2.36c0.533,0.144,1.398,0.145,1.931,0.001l8.78-2.362
		c0.533-0.143,1.009-0.705,1.062-1.255l1.004-10.405c0.053-0.55-0.352-0.995-0.904-0.995H28.722c-0.552,0-1.039-0.446-1.088-0.996
		l-2.38-27.044C25.206,23.431,25.614,22.985,26.166,22.985z"/>
</g>
</svg>
