<?xml version="1.0" encoding="iso-8859-1"?>
<!-- Generator: Adobe Illustrator 17.1.0, SVG Export Plug-In . SVG Version: 6.00 Build 0)  -->
<!DOCTYPE svg PUBLIC "-//W3C//DTD SVG 1.1//EN" "http://www.w3.org/Graphics/SVG/1.1/DTD/svg11.dtd">
<svg version="1.1" id="Layer_1" xmlns="http://www.w3.org/2000/svg" xmlns:xlink="http://www.w3.org/1999/xlink" x="0px" y="0px"
	 viewBox="0 0 64 64" style="enable-background:new 0 0 64 64;" xml:space="preserve">
<g>
	<path d="M57,17H6c-1.657,0-3,1.343-3,3v27c0,1.657,1.343,3,3,3h51c1.657,0,3-1.343,3-3V20C60,18.343,58.657,17,57,17z M29,41
		c0,1.657-1.343,3-3,3H12c-1.657,0-3-1.343-3-3V25c0-1.657,1.343-3,3-3h14c1.657,0,3,1.343,3,3V41z M54,43c0,0.552-0.448,1-1,1H35
		c-0.552,0-1-0.448-1-1v-1c0-0.552,0.448-1,1-1h18c0.552,0,1,0.448,1,1V43z M54,33c0,0.552-0.448,1-1,1H35c-0.552,0-1-0.448-1-1v-1
		c0-0.552,0.448-1,1-1h18c0.552,0,1,0.448,1,1V33z M54,24c0,0.552-0.448,1-1,1H35c-0.552,0-1-0.448-1-1v-1c0-0.552,0.448-1,1-1h18
		c0.552,0,1,0.448,1,1V24z"/>
</g>
</svg>
