<?xml version="1.0" encoding="iso-8859-1"?>
<!-- Generator: Adobe Illustrator 17.1.0, SVG Export Plug-In . SVG Version: 6.00 Build 0)  -->
<!DOCTYPE svg PUBLIC "-//W3C//DTD SVG 1.1//EN" "http://www.w3.org/Graphics/SVG/1.1/DTD/svg11.dtd">
<svg version="1.1" id="Capa_1" xmlns="http://www.w3.org/2000/svg" xmlns:xlink="http://www.w3.org/1999/xlink" x="0px" y="0px"
	 viewBox="0 0 100 100" style="enable-background:new 0 0 100 100;" xml:space="preserve">
<g>
	<path style="fill:#000100;" d="M88.474,30.553c-0.557-4.222-2.786-8.743-6.535-12.491c-3.75-3.75-8.271-5.98-12.494-6.536
		c-1.91-0.252-4.46-1.308-5.989-2.481C60.076,6.452,55.303,4.832,50,4.832s-10.076,1.62-13.456,4.213
		c-1.529,1.173-4.079,2.229-5.989,2.481c-4.223,0.556-8.744,2.786-12.494,6.536c-3.749,3.748-5.979,8.269-6.535,12.491
		c-0.252,1.911-1.308,4.462-2.481,5.991C6.452,39.924,4.832,44.697,4.832,50s1.62,10.076,4.213,13.456
		c1.173,1.529,2.229,4.081,2.481,5.991c0.557,4.222,2.786,8.743,6.535,12.491c3.75,3.75,8.271,5.98,12.494,6.536
		c1.911,0.252,4.46,1.308,5.989,2.481c3.38,2.593,8.153,4.213,13.456,4.213s10.076-1.62,13.456-4.213
		c1.529-1.173,4.079-2.229,5.989-2.481c4.223-0.556,8.744-2.786,12.494-6.536c3.749-3.748,5.978-8.269,6.535-12.491
		c0.252-1.91,1.308-4.462,2.481-5.991c2.593-3.38,4.213-8.153,4.213-13.456s-1.62-10.076-4.213-13.456
		C89.782,35.015,88.726,32.463,88.474,30.553z M44.095,18.136c1.421-1.467,3.222-2.202,5.403-2.202c2.182,0,4.016,0.748,5.502,2.246
		c1.487,1.497,2.23,3.361,2.23,5.591c0,2.173-0.728,3.993-2.181,5.46c-1.455,1.468-3.272,2.201-5.452,2.201
		c-2.247,0-4.081-0.718-5.502-2.157c-1.422-1.439-2.131-3.273-2.131-5.504C41.964,21.482,42.673,19.604,44.095,18.136z
		 M58.978,80.066c-0.799,0-1.983-0.088-3.547-0.264c-1.565-0.176-2.747-0.265-3.546-0.265c-1.531,0-3.596,0.142-6.193,0.423
		c-0.666,0.07-1.598,0.106-2.797,0.106c-3.396,0-5.094-1.866-5.094-5.598c0-2.842,1.089-4.265,3.269-4.265c0.409,0,0.748,0,1.021,0
		c0.136,0,0.306,0,0.511,0c0.205,0,0.341,0,0.41,0c1.021,0,1.531-1.224,1.531-3.673V49.395c0-2.448-0.43-3.672-1.289-3.672
		c-0.198,0-0.53,0.044-0.992,0.132c-0.463,0.088-0.826,0.132-1.09,0.132c-2.247,0-3.371-1.585-3.371-4.755
		c0-3.522,1.487-5.284,4.461-5.284c0.661,0,1.884,0.088,3.668,0.264c1.52,0.176,2.742,0.236,3.668,0.176l4.857-0.44
		c1.85,0,2.776,1.054,2.776,3.162v27.405c0,2.461,0.529,3.69,1.587,3.69c0.198,0,0.496,0,0.892,0c0.396,0,0.694,0,0.892,0
		c2.114,0,3.172,1.409,3.172,4.227C63.773,78.188,62.174,80.066,58.978,80.066z"/>
</g>
</svg>
