<?xml version="1.0" encoding="iso-8859-1"?>
<!-- Generator: Adobe Illustrator 17.1.0, SVG Export Plug-In . SVG Version: 6.00 Build 0)  -->
<!DOCTYPE svg PUBLIC "-//W3C//DTD SVG 1.1//EN" "http://www.w3.org/Graphics/SVG/1.1/DTD/svg11.dtd">
<svg version="1.1" id="Capa_1" xmlns="http://www.w3.org/2000/svg" xmlns:xlink="http://www.w3.org/1999/xlink" x="0px" y="0px"
	 viewBox="0 0 100 100" style="enable-background:new 0 0 100 100;" xml:space="preserve">
<g>
	<path style="fill:#000100;" d="M14.216,88.964h71.568c1.274,0,2.306-1.033,2.306-2.306v-9.225c0-1.274-1.033-2.306-2.306-2.306
		H70.439v0.928c0,2.757-2.243,5-5,5H34.561c-2.757,0-5-2.243-5-5v-0.928H14.216c-1.274,0-2.306,1.032-2.306,2.306v9.225
		C11.91,87.931,12.942,88.964,14.216,88.964z"/>
	<path style="fill:#000100;" d="M23.072,40.893h9.489v34.234v0.928c0,1.105,0.896,2,2,2h30.878c1.104,0,2-0.895,2-2v-0.928V40.893
		h9.489c2.761,0,3.417-1.583,1.464-3.536L53.536,12.501c-0.976-0.976-2.256-1.464-3.536-1.464s-2.559,0.488-3.536,1.464
		L21.608,37.357C19.655,39.31,20.311,40.893,23.072,40.893z"/>
</g>
</svg>
