<?xml version="1.0" encoding="iso-8859-1"?>
<!-- Generator: Adobe Illustrator 17.1.0, SVG Export Plug-In . SVG Version: 6.00 Build 0)  -->
<!DOCTYPE svg PUBLIC "-//W3C//DTD SVG 1.1//EN" "http://www.w3.org/Graphics/SVG/1.1/DTD/svg11.dtd">
<svg version="1.1" id="Capa_1" xmlns="http://www.w3.org/2000/svg" xmlns:xlink="http://www.w3.org/1999/xlink" x="0px" y="0px"
	 viewBox="0 0 100 100" style="enable-background:new 0 0 100 100;" xml:space="preserve">
<g>
	<path style="fill:#000100;" d="M55.444,30.072C32.82,36.208,26.437,49.94,25.041,60.309c-0.006,0.047-0.012,0.093-0.018,0.14
		c-0.015,0.117-0.032,0.236-0.046,0.352c0.005-0.002,0.01-0.005,0.015-0.007c0,0.555-0.001,1.111-0.001,1.666
		c0,0.351,0,0.702-0.001,1.054c-0.007,0.046-0.013,0.091-0.02,0.137c-0.025,0.167-0.031,0.333-0.029,0.497
		c-0.073,0.036-0.147,0.071-0.22,0.106c-9.939,4.882-18.088,11.259-20.623,22.14c-0.553,2.372,1.435,3.952,3.289,3.952
		c1.201,0,2.346-0.664,2.705-2.205c1.631-7,7.647-12.836,14.971-17.527c9.014-5.774,20.013-9.814,27.287-12.137
		c10.742-3.431,21.083-8.963,26.14-19.505c0.686-1.431,0.257-2.803-0.616-3.714c0.16-0.538,0.438-0.977,0.823-1.286
		c0.42-0.338,0.954-0.523,1.568-0.538c0.216,0.251,0.421,0.514,0.6,0.799c1.163,1.848,1.283,4.049,0.33,6.037
		c-4.63,9.65-13.766,16.541-27.932,21.065c-12.523,4-21.199,8.194-27.214,12.171C124.724,99.696,89.357,6.07,89.357,6.07
		S94.197,19.561,55.444,30.072z"/>
</g>
</svg>
