<?xml version="1.0" encoding="iso-8859-1"?>
<!-- Generator: Adobe Illustrator 17.1.0, SVG Export Plug-In . SVG Version: 6.00 Build 0)  -->
<!DOCTYPE svg PUBLIC "-//W3C//DTD SVG 1.1//EN" "http://www.w3.org/Graphics/SVG/1.1/DTD/svg11.dtd">
<svg version="1.1" id="Capa_1" xmlns="http://www.w3.org/2000/svg" xmlns:xlink="http://www.w3.org/1999/xlink" x="0px" y="0px"
	 viewBox="0 0 100 100" style="enable-background:new 0 0 100 100;" xml:space="preserve">
<g>
	<path d="M14.367,47.556l14.77,14.77c1.16,1.16,2.101,0.771,2.101-0.87v-5.638h43.463v24.227c0,1.237,1.003,2.24,2.24,2.24h12.322
		c1.237,0,2.24-1.003,2.24-2.24V37.334c0-1.237-1.003-2.24-2.24-2.24h-6.927h-5.395H31.238v-5.638c0-1.641-0.94-2.03-2.101-0.87
		l-14.77,14.77C13.207,44.515,13.207,46.396,14.367,47.556z"/>
	<path d="M21.723,63.74c0.391,0.391,0.902,0.586,1.414,0.586s1.024-0.195,1.414-0.586c0.781-0.781,0.781-2.047,0-2.828l-14.77-14.77
		c-0.378-0.378-0.378-0.995,0-1.373L24.551,30c0.781-0.781,0.781-2.047,0-2.828c-0.78-0.781-2.048-0.781-2.828,0l-14.77,14.77
		c-1.938,1.938-1.938,5.091,0,7.029L21.723,63.74z"/>
</g>
</svg>
