<?xml version="1.0" encoding="iso-8859-1"?>
<!-- Generator: Adobe Illustrator 17.1.0, SVG Export Plug-In . SVG Version: 6.00 Build 0)  -->
<!DOCTYPE svg PUBLIC "-//W3C//DTD SVG 1.1//EN" "http://www.w3.org/Graphics/SVG/1.1/DTD/svg11.dtd">
<svg version="1.1" id="Capa_1" xmlns="http://www.w3.org/2000/svg" xmlns:xlink="http://www.w3.org/1999/xlink" x="0px" y="0px"
	 viewBox="0 0 100 100" style="enable-background:new 0 0 100 100;" xml:space="preserve">
<g>
	<path d="M50,2.351c-26.229,0-47.566,21.338-47.566,47.566S23.771,97.483,50,97.483s47.566-21.338,47.566-47.566
		S76.229,2.351,50,2.351z M50,87.483c-20.714,0-37.566-16.853-37.566-37.566S29.286,12.351,50,12.351s37.566,16.853,37.566,37.566
		S70.714,87.483,50,87.483z"/>
	<path d="M44.624,25.028c0-2.552-1.463-3.158-3.268-1.353L18.382,46.649c-1.805,1.805-1.805,4.731,0,6.536l22.975,22.974
		c1.805,1.805,3.268,1.199,3.268-1.353v-8.77h32.499c1.021,0,1.849-0.828,1.849-1.849v-28.54c0-1.021-0.828-1.849-1.849-1.849
		H44.624V25.028z"/>
</g>
</svg>
