<?xml version="1.0" encoding="iso-8859-1"?>
<!-- Generator: Adobe Illustrator 17.1.0, SVG Export Plug-In . SVG Version: 6.00 Build 0)  -->
<!DOCTYPE svg PUBLIC "-//W3C//DTD SVG 1.1//EN" "http://www.w3.org/Graphics/SVG/1.1/DTD/svg11.dtd">
<svg version="1.1" id="Capa_1" xmlns="http://www.w3.org/2000/svg" xmlns:xlink="http://www.w3.org/1999/xlink" x="0px" y="0px"
	 viewBox="0 0 100 100" style="enable-background:new 0 0 100 100;" xml:space="preserve">
<g>
	<path d="M98.146,39.335c-0.338-0.339-0.77-0.506-1.295-0.506H26.575v-8.655c0-0.75-0.357-1.296-1.07-1.632
		c-0.713-0.299-1.371-0.187-1.971,0.337L1.911,48.813c-0.375,0.376-0.563,0.827-0.563,1.351c0,0.491,0.188,0.922,0.563,1.296
		l21.624,19.709c0.6,0.488,1.257,0.583,1.971,0.282c0.713-0.299,1.07-0.845,1.07-1.632v-7.665h70.276
		c0.525,0,0.957-0.169,1.295-0.506c0.338-0.339,0.507-0.77,0.507-1.296V40.63C98.652,40.105,98.483,39.674,98.146,39.335z"/>
</g>
</svg>
