<?xml version="1.0" encoding="iso-8859-1"?>
<!-- Generator: Adobe Illustrator 17.1.0, SVG Export Plug-In . SVG Version: 6.00 Build 0)  -->
<!DOCTYPE svg PUBLIC "-//W3C//DTD SVG 1.1//EN" "http://www.w3.org/Graphics/SVG/1.1/DTD/svg11.dtd">
<svg version="1.1" id="Capa_1" xmlns="http://www.w3.org/2000/svg" xmlns:xlink="http://www.w3.org/1999/xlink" x="0px" y="0px"
	 viewBox="0 0 100 100" style="enable-background:new 0 0 100 100;" xml:space="preserve">
<g>
	<path style="fill:#1D1D1B;" d="M17.343,92.263l33.084-33.084L60.68,69.432l25.756-25.756L55.324,12.564L29.567,38.32l10.253,10.253
		L6.737,81.657c-2.929,2.929-2.929,7.678,0,10.607C9.666,95.192,14.414,95.192,17.343,92.263z"/>
	<path style="fill:#1D1D1B;" d="M24.061,36.755c0.391,0.391,0.902,0.586,1.414,0.586s1.024-0.195,1.414-0.586l0.557-0.557
		l25.756-25.756l0.557-0.557c0.781-0.781,0.781-2.047,0-2.828l-3.471-3.471C49.898,3.195,49.386,3,48.874,3S47.85,3.195,47.46,3.586
		l-26.87,26.87c-0.781,0.781-0.781,2.047,0,2.828L24.061,36.755z"/>
	<path style="fill:#1D1D1B;" d="M91.943,45.241c-0.391-0.391-0.902-0.586-1.414-0.586s-1.024,0.195-1.414,0.586l-0.557,0.557
		L62.802,71.554l-0.557,0.557c-0.781,0.781-0.781,2.047,0,2.828l3.471,3.471c0.391,0.391,0.902,0.586,1.414,0.586
		s1.024-0.195,1.414-0.586l26.87-26.87c0.781-0.781,0.781-2.047,0-2.828L91.943,45.241z"/>
</g>
</svg>
