<?xml version="1.0" encoding="iso-8859-1"?>
<!-- Generator: Adobe Illustrator 17.1.0, SVG Export Plug-In . SVG Version: 6.00 Build 0)  -->
<!DOCTYPE svg PUBLIC "-//W3C//DTD SVG 1.1//EN" "http://www.w3.org/Graphics/SVG/1.1/DTD/svg11.dtd">
<svg version="1.1" id="Capa_1" xmlns="http://www.w3.org/2000/svg" xmlns:xlink="http://www.w3.org/1999/xlink" x="0px" y="0px"
	 viewBox="0 0 100 100" style="enable-background:new 0 0 100 100;" xml:space="preserve">
<g>
	<path style="fill:#1D1D1B;" d="M68.624,56.762c7.982-12.484,6.527-29.259-4.383-40.169c-12.6-12.6-33.027-12.6-45.627,0
		s-12.6,33.028,0,45.627c10.909,10.909,27.685,12.365,40.168,4.383l25.141,25.141c1.482,1.482,3.885,1.482,5.368,0l4.473-4.473
		c1.482-1.482,1.482-3.886,0-5.368L68.624,56.762z M62,42.667c0,1.105-0.896,2-2,2H23.333c-1.104,0-2-0.895-2-2v-5.333
		c0-1.105,0.896-2,2-2H60c1.104,0,2,0.895,2,2V42.667z"/>
</g>
</svg>
