<?xml version="1.0" encoding="iso-8859-1"?>
<!-- Generator: Adobe Illustrator 17.1.0, SVG Export Plug-In . SVG Version: 6.00 Build 0)  -->
<!DOCTYPE svg PUBLIC "-//W3C//DTD SVG 1.1//EN" "http://www.w3.org/Graphics/SVG/1.1/DTD/svg11.dtd">
<svg version="1.1" id="Capa_1" xmlns="http://www.w3.org/2000/svg" xmlns:xlink="http://www.w3.org/1999/xlink" x="0px" y="0px"
	 viewBox="0 0 100 100" style="enable-background:new 0 0 100 100;" xml:space="preserve">
<g>
	<path style="fill:#1D1D1B;" d="M50,3.606C24.377,3.606,3.606,24.377,3.606,50c0,25.623,20.771,46.394,46.394,46.394
		S96.394,75.623,96.394,50C96.394,24.377,75.623,3.606,50,3.606z M83.146,70.183c-0.845,0.553-1.796,0.818-2.735,0.818
		c-1.63,0-3.227-0.796-4.187-2.261L74.428,66l-5.569-8.5H31.141L25.572,66l-1.795,2.74c-1.513,2.309-4.611,2.955-6.922,1.442
		c-2.31-1.514-2.956-4.613-1.442-6.923l30.406-46.405c0.924-1.41,2.496-2.26,4.182-2.26s3.258,0.85,4.182,2.26L84.588,63.26
		C86.102,65.569,85.456,68.669,83.146,70.183z"/>
	<polygon style="fill:#1D1D1B;" points="37.693,47.5 62.307,47.5 50,28.718 	"/>
</g>
</svg>
