<?xml version="1.0" encoding="iso-8859-1"?>
<!-- Generator: Adobe Illustrator 17.1.0, SVG Export Plug-In . SVG Version: 6.00 Build 0)  -->
<!DOCTYPE svg PUBLIC "-//W3C//DTD SVG 1.1//EN" "http://www.w3.org/Graphics/SVG/1.1/DTD/svg11.dtd">
<svg version="1.1" id="Capa_1" xmlns="http://www.w3.org/2000/svg" xmlns:xlink="http://www.w3.org/1999/xlink" x="0px" y="0px"
	 viewBox="0 0 100 100" style="enable-background:new 0 0 100 100;" xml:space="preserve">
<g>
	<path d="M42.983,25.434c0,0.21,0.086,0.298,0.261,0.261c0.139,0,0.288-0.163,0.444-0.496c0.157-0.329,0.426-0.512,0.81-0.549
		c-0.175,0-0.349,0-0.523,0C43.314,24.757,42.983,25.018,42.983,25.434z"/>
	<path d="M47.53,24.808c0.348-0.104,0.653-0.027,0.915,0.235s0.461,0.376,0.601,0.341c0.209-0.104,0.261-0.261,0.157-0.472
		C48.923,24.461,48.366,24.426,47.53,24.808z"/>
	<path d="M87.513,80.313c-0.104-0.067-0.392-0.235-0.862-0.496c-0.47-0.261-0.845-0.486-1.124-0.68
		c-0.279-0.19-0.645-0.523-1.098-0.992c-0.453-0.47-0.81-0.968-1.071-1.49c-0.261-0.523-0.515-1.227-0.758-2.115
		c-0.244-0.89-0.384-1.872-0.418-2.954c-0.488,0.419-0.758,1.247-0.81,2.483c-0.052,1.239,0.209,2.501,0.784,3.789
		c0.575,1.29,1.437,2.127,2.587,2.509c1.115,0.384,2.012,0.794,2.692,1.229s1.115,0.931,1.307,1.488
		c0.191,0.557-0.131,1.158-0.967,1.803c-0.836,0.645-2.178,1.282-4.024,1.909c-2.544,0.87-4.347,1.611-5.41,2.221
		c-1.063,0.608-2.622,1.766-4.678,3.475c-1.394,1.149-2.875,1.768-4.443,1.856c-1.568,0.086-2.84-0.488-3.815-1.725
		c-0.976-1.237-1.289-2.989-0.941-5.253c0.661-4.353,0.644-7.75-0.052-10.192c-0.558-1.915-0.68-3.606-0.366-5.069
		c0.314-1.464,0.801-2.315,1.463-2.56c0.661-0.243,1.376,0.28,2.143,1.568c0.07,0.174,0.226,0.514,0.47,1.019
		c0.243,0.506,0.444,0.862,0.601,1.072c0.157,0.208,0.392,0.48,0.706,0.81c0.314,0.331,0.706,0.566,1.176,0.704
		c0.47,0.141,1.019,0.227,1.646,0.261c1.184,0.037,2.247-0.208,3.188-0.731c0.941-0.523,1.646-1.107,2.117-1.752
		c0.47-0.643,0.941-1.262,1.411-1.856c0.47-0.59,0.88-0.923,1.228-0.992c0.383-0.069,0.732-0.453,1.045-1.149
		c0.313-0.696,0.522-1.664,0.627-2.901c0.104-1.237,0.017-2.707-0.261-4.416c-0.523-3.032-1.56-6.36-3.11-9.984
		c-1.551-3.622-3.285-6.462-5.2-8.52c-3.449-3.659-5.767-7.456-6.951-11.392c-1.22-4.147-1.743-7.875-1.568-11.186
		c0.174-2.368-0.34-4.939-1.542-7.709s-2.796-4.886-4.782-6.349c-1.254-0.941-2.805-1.664-4.652-2.17
		c-1.847-0.504-3.694-0.739-5.54-0.704c-2.265,0-4.077,0.365-5.436,1.096c-2.788,1.501-4.634,3.32-5.54,5.463
		c-0.906,2.142-1.324,4.781-1.254,7.917c0.139,6.899,0.418,12.301,0.836,16.202c-0.489,1.813-2.649,5.21-6.481,10.192
		c-0.697,0.698-1.377,1.637-2.038,2.822c-0.662,1.186-1.185,2.248-1.568,3.189c-0.384,0.941-0.897,2.299-1.542,4.077
		c-0.645,1.776-1.107,3.032-1.385,3.763c-0.244,0.627-0.627,1.36-1.15,2.195c-0.523,0.837-0.941,1.656-1.254,2.456
		c-0.314,0.802-0.489,1.709-0.523,2.719c-0.035,0.768,0,1.429,0.104,1.984c0.139,0.837,0.4,1.098,0.784,0.784
		c1.568-1.184,3.536-0.486,5.906,2.091c1.672,1.813,4.616,6.029,8.833,12.65c0.348,0.592,0.697,1.227,1.045,1.907
		c0.348,0.68,0.68,1.584,0.993,2.717c0.313,1.133,0.444,2.152,0.392,3.058c-0.052,0.904-0.453,1.742-1.202,2.509
		c-0.75,0.766-1.874,1.254-3.371,1.462c-0.802,0.106-1.769,0.035-2.901-0.208c-1.133-0.245-2.57-0.645-4.312-1.203
		c-1.743-0.557-3.031-0.941-3.868-1.149c-1.22-0.28-2.953-0.637-5.2-1.072c-2.248-0.435-3.72-0.757-4.417-0.966
		c-1.185-0.314-1.829-0.768-1.934-1.36c-0.105-0.488,0.139-1.325,0.732-2.509c0.592-1.186,0.888-2.038,0.888-2.56
		c0.034-0.382,0.017-0.766-0.052-1.149c-0.07-0.384-0.149-0.68-0.235-0.89c-0.087-0.208-0.235-0.523-0.444-0.939
		c-0.209-0.419-0.349-0.733-0.418-0.941c-0.627-1.464-0.715-2.456-0.261-2.979c0.314-0.453,1.062-0.629,2.248-0.523
		c1.777,0.174,3.222-0.088,4.338-0.784c1.846-1.151,2.404-2.997,1.672-5.541c0,1.186-0.209,2.074-0.627,2.666
		c-0.418,0.592-1.15,1.2-2.195,1.829c-0.593,0.349-1.638,0.557-3.136,0.627c-1.499,0.069-2.491,0.312-2.979,0.731
		c-0.349,0.314-0.531,0.784-0.549,1.411c-0.018,0.629,0.061,1.266,0.235,1.909c0.174,0.645,0.348,1.384,0.523,2.221
		c0.174,0.835,0.243,1.533,0.209,2.091c-0.035,0.382-0.349,1.333-0.941,2.848c-0.593,1.515-0.715,2.675-0.366,3.475
		c0.174,0.384,0.47,0.723,0.888,1.021c0.418,0.294,1.001,0.547,1.751,0.757c0.749,0.208,1.437,0.374,2.064,0.496
		c0.627,0.12,1.498,0.278,2.613,0.47c1.115,0.192,2.003,0.357,2.666,0.498c2.229,0.451,4.773,1.201,7.631,2.246
		c2.856,1.045,4.791,1.584,5.802,1.621c0.975,0.035,1.907-0.167,2.796-0.6c0.889-0.437,1.646-0.933,2.273-1.49
		c0.627-0.559,1.559-1.082,2.796-1.568c1.236-0.488,2.622-0.749,4.155-0.784c0.697-0.037,1.707-0.078,3.031-0.131
		c1.324-0.053,2.317-0.078,2.979-0.078c2.996,0,5.261,0.016,6.795,0.051c1.045,0.035,1.864,0.2,2.456,0.496
		c0.592,0.296,0.975,0.637,1.15,1.021c0.174,0.382,0.461,0.825,0.863,1.331c0.4,0.506,0.915,0.915,1.542,1.229
		c1.324,0.627,2.875,0.878,4.652,0.757c1.777-0.122,2.961-0.461,3.554-1.019c0.975-0.941,2.291-2.056,3.946-3.344
		c1.654-1.29,3.144-2.266,4.469-2.928c0.278-0.141,0.749-0.365,1.411-0.68c0.661-0.312,1.219-0.584,1.672-0.811
		c0.453-0.227,1.001-0.514,1.646-0.862c0.644-0.349,1.167-0.672,1.568-0.968c0.4-0.296,0.81-0.637,1.228-1.019
		c0.418-0.384,0.688-0.768,0.81-1.149c0.122-0.384,0.165-0.774,0.13-1.176c-0.035-0.4-0.244-0.819-0.627-1.254
		C88.75,81.161,88.21,80.732,87.513,80.313z M61.119,31.08c0.105-0.067,0.174-0.094,0.209-0.078
		c0.034,0.018,0.104,0.088,0.209,0.208c0.105,0.122,0.2,0.235,0.288,0.341c0.086,0.104,0.209,0.245,0.366,0.416
		c0.157,0.176,0.322,0.314,0.497,0.419c0.209,0.141,0.461,0.235,0.758,0.288c0.296,0.053,0.523,0.141,0.679,0.261
		c0.157,0.122,0.27,0.323,0.34,0.6c0.069,0.384,0.008,0.733-0.183,1.045c-0.192,0.314-0.444,0.455-0.758,0.419
		c-0.627-0.139-1.307-0.688-2.038-1.646S60.631,31.639,61.119,31.08z M54.638,10.776c0.174-0.227,0.278-0.408,0.313-0.549
		c0.069-0.21,0.078-0.427,0.026-0.653s-0.035-0.453,0.052-0.68c0.087-0.225,0.288-0.355,0.601-0.392
		c0.314,0,0.732,0.261,1.254,0.784c0.104,0.069,0.27,0.176,0.497,0.314c0.226,0.139,0.383,0.261,0.47,0.365
		c0.087,0.104,0.131,0.192,0.131,0.261c-0.07,0.174-0.227,0.296-0.47,0.365c-0.244,0.069-0.506,0.104-0.784,0.104
		c-0.279,0-0.436,0.018-0.47,0.053c-0.279,0.104-0.541,0.261-0.784,0.47c-0.244,0.21-0.436,0.365-0.575,0.472
		c-0.14,0.104-0.279,0.104-0.418,0c-0.14-0.21-0.192-0.357-0.157-0.445C54.359,11.159,54.464,11.002,54.638,10.776z M29.342,49.895
		c0.243-0.278,0.418-0.504,0.522-0.68c0.104-0.171,0.2-0.408,0.288-0.704c0.086-0.296,0.165-0.512,0.235-0.653
		c0.07-0.139,0.174-0.192,0.314-0.157c0.069,0.037,0.122,0.069,0.157,0.104c0.034,0.037,0.052,0.08,0.052,0.131
		c0,0.053,0,0.104,0,0.157s-0.009,0.122-0.026,0.208c-0.018,0.09-0.044,0.167-0.078,0.237c-0.035,0.069-0.07,0.174-0.104,0.312
		c-0.035,0.141-0.07,0.261-0.104,0.365c-0.14,0.351-0.358,0.664-0.653,0.941c-0.297,0.28-0.515,0.402-0.653,0.365
		C29.08,50.455,29.098,50.244,29.342,49.895z M63.184,78.302c0.296,1.829,0.409,3.109,0.34,3.84
		c-0.07,1.117-0.305,2.683-0.706,4.704c-0.401,2.021-0.653,3.363-0.758,4.026c-0.732-0.037-1.15-0.306-1.254-0.811
		c-0.104-0.506,0-1.16,0.313-1.96c0.766-2.336,1.167-3.938,1.202-4.808c0.07-1.603-0.104-2.509-0.522-2.719
		c-0.384-0.278-0.976,0.245-1.777,1.568c-1.534,2.509-4.617,4.026-9.251,4.549c-4.181,0.555-7.074-0.071-8.676-1.882
		c-0.349-0.245-0.698-0.288-1.045-0.131c-0.349,0.157-0.575,0.323-0.679,0.496c-0.035,0.069,0,0.174,0.104,0.314
		c0.104,0.139,0.27,0.347,0.496,0.627c0.226,0.278,0.409,0.557,0.549,0.837c1.359,2.368,1.237,3.971-0.366,4.808
		c0-1.605-0.123-2.832-0.366-3.685c-0.244-0.853-0.732-1.795-1.464-2.822c-0.732-1.029-1.237-1.805-1.516-2.327
		c1.045-0.104,1.838-0.504,2.378-1.2c0.54-0.696,0.784-1.445,0.732-2.248c-0.052-0.8-0.358-1.464-0.915-1.987
		c-0.313-0.314-1.934-1.646-4.861-3.997c-2.927-2.352-4.739-3.928-5.436-4.73c-0.14-0.139-0.558-0.488-1.254-1.045
		c-0.697-0.557-1.133-1.045-1.307-1.464c-1.603-3.518-1.777-6.411-0.522-8.677l0.209-0.261c0.174-0.033,0.191,0.28,0.052,0.941
		c-0.209,0.978-0.279,1.952-0.209,2.928c0.139,2.195,0.766,3.832,1.881,4.912c0.732,0.733,1.237,0.68,1.516-0.157
		c0.209-0.278,0.305-1.307,0.287-3.083c-0.018-1.776,0.008-2.979,0.079-3.605c0.278-1.987,1.105-4.443,2.482-7.37
		c1.376-2.928,2.465-4.496,3.267-4.704c-0.627-1.009-0.828-2.107-0.601-3.293c0.226-1.184,0.592-2.195,1.098-3.032
		c0.505-0.835,1.019-1.803,1.542-2.899c0.523-1.098,0.784-2.082,0.784-2.954c0-0.243,0.017-0.419,0.052-0.523
		c0.104-0.312,0.54,0.071,1.307,1.149c1.463,2.162,2.561,3.434,3.293,3.816c0.766,0.419,1.62,0.402,2.561-0.051
		c0.941-0.453,2.099-1.203,3.476-2.248c1.376-1.045,2.552-1.811,3.528-2.301c0.105-0.033,0.27-0.112,0.497-0.235
		c0.226-0.12,0.4-0.208,0.523-0.261c0.122-0.051,0.279-0.131,0.47-0.235c0.191-0.104,0.34-0.192,0.444-0.261
		c0.104-0.069,0.209-0.147,0.313-0.235c0.104-0.088,0.174-0.174,0.209-0.261c0.034-0.088,0.052-0.165,0.052-0.235
		c-0.07-0.314-0.218-0.506-0.444-0.576c-0.227-0.069-0.532-0.026-0.915,0.131c-0.384,0.157-0.81,0.365-1.281,0.627
		c-0.47,0.261-0.993,0.559-1.568,0.888c-0.575,0.333-1.159,0.637-1.751,0.915c-0.593,0.28-1.22,0.523-1.882,0.733
		c-0.662,0.208-1.289,0.331-1.881,0.365c-1.464,0.037-2.631-0.347-3.502-1.149c-0.558-0.523-0.854-0.853-0.889-0.994
		c-0.035-0.139,0.122-0.171,0.471-0.104c1.881,0.245,3.257,0.28,4.129,0.104c0.906-0.139,2.125-0.539,3.658-1.2
		c0.314-0.139,1.106-0.48,2.378-1.021c1.271-0.539,2.256-0.915,2.953-1.123c0.418-0.104,0.706-0.269,0.862-0.496
		s0.209-0.435,0.157-0.627c-0.052-0.192-0.166-0.341-0.34-0.445c-0.384-0.208-0.731-0.069-1.045,0.419
		c-0.175,0.312-0.541,0.619-1.098,0.915c-0.558,0.296-1.071,0.523-1.542,0.68c-0.47,0.155-1.072,0.339-1.803,0.547
		c-0.732,0.21-1.133,0.333-1.202,0.367c-1.917,0.592-3.694,0.853-5.331,0.784c-0.767-0.035-1.385-0.147-1.855-0.341
		c-0.47-0.19-0.793-0.419-0.967-0.68c-0.175-0.261-0.453-0.59-0.836-0.992c-0.384-0.4-0.819-0.739-1.307-1.019
		c-0.349-0.174-0.479-0.488-0.392-0.941c0.086-0.453,0.357-0.923,0.81-1.411c0.034-0.035,0.392-0.251,1.072-0.653
		c0.679-0.4,1.158-0.811,1.437-1.229c0.313-0.486,0.854-0.992,1.62-1.515c0.034-0.139,0.06-0.523,0.078-1.149
		c0.017-0.629-0.149-1.307-0.497-2.04c-0.349-0.731-0.819-1.096-1.411-1.096c-0.836-0.035-1.429,0.208-1.777,0.731
		c-0.349,0.523-0.506,1.168-0.47,1.933c0.034,0.664,0.2,1.247,0.497,1.752c0.296,0.506,0.566,0.757,0.81,0.757
		c0.383-0.035,0.505,0.104,0.366,0.419c-0.209,0.384-0.489,0.627-0.836,0.731c-0.244,0.071-0.514-0.165-0.81-0.704
		c-0.296-0.539-0.523-1.192-0.679-1.96s-0.218-1.413-0.183-1.935c0.069-1.078,0.357-2.115,0.862-3.109
		c0.505-0.992,1.228-1.472,2.169-1.437c0.975,0.037,1.759,0.627,2.352,1.778c0.592,1.149,0.871,2.717,0.836,4.704
		c0.104,0.245,0.374,0.331,0.81,0.261c0.435-0.069,1.01-0.08,1.725-0.027c0.714,0.051,1.228,0.235,1.542,0.549
		c0.034,0,0.052-0.261,0.052-0.784c-0.627-4.392,0.923-6.725,4.652-7.005c0.557,0.104,1.027,0.235,1.411,0.392
		c0.383,0.157,0.792,0.419,1.228,0.784c0.435,0.365,0.801,0.898,1.098,1.595c0.295,0.698,0.531,1.568,0.706,2.613
		c0,0.176,0,0.821,0,1.933c0,1.117-0.227,1.744-0.68,1.882c-0.731,0.245-1.254,0.235-1.568-0.027
		c-0.313-0.261-0.279-0.723,0.104-1.384c0.348-0.872,0.279-1.882-0.209-3.032c-0.488-1.149-1.377-1.672-2.666-1.568
		c-0.871,0.035-1.499,0.506-1.882,1.411c-0.384,0.906-0.523,1.795-0.418,2.666c0.104,0.872,0.296,1.323,0.575,1.358
		c0.209,0.037,0.827,0.314,1.855,0.837c1.028,0.523,1.803,0.835,2.326,0.941c1.359,0.278,2.134,0.715,2.326,1.307
		c0.191,0.592,0.113,1.454-0.235,2.587c-0.349,1.133-0.453,2.064-0.314,2.795c0.139,0.768,0.4,1.464,0.784,2.091
		c0.383,0.629,0.792,1.203,1.228,1.725c0.435,0.523,0.949,1.501,1.542,2.928c0.592,1.429,1.132,3.224,1.62,5.384
		c0.034,0.035,0.165,0.155,0.392,0.365c0.226,0.208,0.452,0.47,0.679,0.784c0.226,0.312,0.497,0.741,0.81,1.28
		c0.313,0.541,0.653,1.333,1.019,2.378c0.366,1.045,0.706,2.248,1.019,3.606c0.383,1.605,0.583,3.469,0.601,5.592
		c0.017,2.127,0.157,3.581,0.418,4.365c0.261,0.784,0.932,1.107,2.012,0.968c1.359-0.069,2.229-0.8,2.613-2.197
		c1.15-4.04,0.209-8.885-2.822-14.528c-1.15-2.197-2.143-3.642-2.979-4.338c1.219,0.696,2.474,2.003,3.763,3.92
		c1.289,1.917,2.108,3.71,2.457,5.384c0.034,0.174,0.131,0.637,0.287,1.384c0.157,0.749,0.243,1.186,0.261,1.307
		c0.017,0.122,0.086,0.48,0.209,1.072c0.122,0.592,0.183,0.976,0.183,1.149c0,0.176,0.017,0.514,0.052,1.019
		c0.034,0.506,0.026,0.898-0.026,1.176c-0.052,0.28-0.104,0.653-0.157,1.125c-0.052,0.47-0.14,0.923-0.261,1.358
		c-0.123,0.437-0.253,0.915-0.392,1.437c1.916,0.837,2.875,1.568,2.875,2.195c-0.732-0.59-1.777-0.982-3.136-1.176
		c-1.359-0.19-2.622-0.008-3.789,0.549c-1.168,0.559-1.769,1.482-1.803,2.771c-1.254,0-2.143,0.314-2.666,0.941
		c-0.767,0.906-1.168,2.133-1.202,3.685C62.757,74.785,62.887,76.473,63.184,78.302z M41.624,21.568
		c-0.104-0.035-0.192-0.139-0.261-0.314c0-0.312,0.157-0.433,0.47-0.365c0.209,0.071,0.409,0.333,0.601,0.784
		c0.191,0.455,0.235,0.978,0.131,1.568c0,0.104-0.052,0.157-0.157,0.157c-0.384,0-0.523-0.347-0.418-1.045
		C42.095,21.829,41.972,21.568,41.624,21.568z M55.161,22.405l-0.105,0.155c-0.279,0.176-0.418,0.21-0.418,0.106
		c-0.14-0.941-0.453-1.48-0.941-1.621c-0.07-0.035-0.14-0.069-0.209-0.104c-0.244-0.21-0.123-0.331,0.366-0.365
		c0.104-0.035,0.261,0.016,0.47,0.155c0.209,0.141,0.4,0.359,0.575,0.653C55.074,21.682,55.161,22.021,55.161,22.405z"/>
</g>
</svg>
