<?xml version="1.0" encoding="iso-8859-1"?>
<!-- Generator: Adobe Illustrator 17.1.0, SVG Export Plug-In . SVG Version: 6.00 Build 0)  -->
<!DOCTYPE svg PUBLIC "-//W3C//DTD SVG 1.1//EN" "http://www.w3.org/Graphics/SVG/1.1/DTD/svg11.dtd">
<svg version="1.1" id="Capa_1" xmlns="http://www.w3.org/2000/svg" xmlns:xlink="http://www.w3.org/1999/xlink" x="0px" y="0px"
	 viewBox="0 0 100 100" style="enable-background:new 0 0 100 100;" xml:space="preserve">
<g>
	<path style="fill:#000100;" d="M18.678,92.069h62.644c3.117,0,5.644-2.527,5.644-5.644V40.713c0-3.117-2.527-5.644-5.644-5.644
		h-1.084C79.968,18.62,66.512,5.319,50,5.319S20.032,18.62,19.763,35.069h-1.084c-3.117,0-5.644,2.527-5.644,5.644v45.713
		C13.035,89.542,15.561,92.069,18.678,92.069z M55.483,63.868v13.701c0,2.761-2.239,5-5,5h-0.967c-2.761,0-5-2.239-5-5V63.868
		c-2.935-1.833-4.895-5.083-4.895-8.799c0-5.731,4.646-10.378,10.378-10.378s10.378,4.646,10.378,10.378
		C60.378,58.785,58.418,62.035,55.483,63.868z M50,17.319c9.894,0,17.956,7.919,18.225,17.75H31.775
		C32.044,25.239,40.106,17.319,50,17.319z"/>
</g>
</svg>
