<?xml version="1.0" encoding="iso-8859-1"?>
<!-- Generator: Adobe Illustrator 17.1.0, SVG Export Plug-In . SVG Version: 6.00 Build 0)  -->
<!DOCTYPE svg PUBLIC "-//W3C//DTD SVG 1.1//EN" "http://www.w3.org/Graphics/SVG/1.1/DTD/svg11.dtd">
<svg version="1.1" id="Capa_1" xmlns="http://www.w3.org/2000/svg" xmlns:xlink="http://www.w3.org/1999/xlink" x="0px" y="0px"
	 viewBox="0 0 100 100" style="enable-background:new 0 0 100 100;" xml:space="preserve">
<g>
	<path style="fill:#1D1D1B;" d="M15.374,92.837l52.248-51.248L57.25,31.218L5.003,82.466c-1.172,1.172-1.172,3.071,0,4.243
		l6.128,6.128C12.302,94.008,14.202,94.008,15.374,92.837z"/>
	<path style="fill:#1D1D1B;" d="M86.869,5.842c-0.586-0.586-1.354-0.879-2.121-0.879s-1.535,0.293-2.121,0.879L59.372,29.097
		l10.371,10.371l23.255-23.255c1.172-1.172,1.172-3.071,0-4.243L86.869,5.842z M69.743,35.225l-6.128-6.128L84.745,7.964
		c0,0,0.001,0,0.003,0l6.128,6.128L69.743,35.225z"/>
</g>
</svg>
