<?xml version="1.0" encoding="iso-8859-1"?>
<!-- Generator: Adobe Illustrator 17.1.0, SVG Export Plug-In . SVG Version: 6.00 Build 0)  -->
<!DOCTYPE svg PUBLIC "-//W3C//DTD SVG 1.1//EN" "http://www.w3.org/Graphics/SVG/1.1/DTD/svg11.dtd">
<svg version="1.1" id="Capa_1" xmlns="http://www.w3.org/2000/svg" xmlns:xlink="http://www.w3.org/1999/xlink" x="0px" y="0px"
	 viewBox="0 0 100 100" style="enable-background:new 0 0 100 100;" xml:space="preserve">
<g>
	<path style="fill:#000100;" d="M69.841,4.523H30.159c-1.437,0-2.602,1.165-2.602,2.602v85.91c0,1.031,0.6,1.923,1.47,2.344
		c0.142,0.069,0.306,0.099,0.48,0.099c0.537,0,1.167-0.288,1.536-0.609L50,78.398l18.957,16.471
		c0.369,0.321,0.999,0.609,1.536,0.609c0.174,0,0.337-0.03,0.479-0.099c0.87-0.421,1.47-1.312,1.47-2.344V7.125
		C72.443,5.688,71.278,4.523,69.841,4.523z M62.443,75.962l-5.884-5.112c-1.881-1.634-4.22-2.451-6.559-2.451
		s-4.678,0.817-6.559,2.451l-5.884,5.112V14.523h24.886V75.962z"/>
</g>
</svg>
