<?xml version="1.0" encoding="iso-8859-1"?>
<!-- Generator: Adobe Illustrator 17.1.0, SVG Export Plug-In . SVG Version: 6.00 Build 0)  -->
<!DOCTYPE svg PUBLIC "-//W3C//DTD SVG 1.1//EN" "http://www.w3.org/Graphics/SVG/1.1/DTD/svg11.dtd">
<svg version="1.1" id="Capa_1" xmlns="http://www.w3.org/2000/svg" xmlns:xlink="http://www.w3.org/1999/xlink" x="0px" y="0px"
	 viewBox="0 0 100 100" style="enable-background:new 0 0 100 100;" xml:space="preserve">
<g>
	<path style="fill:#1D1D1B;" d="M89.638,25.86c-1.954-2.417-4.396-4.296-7.326-5.638c-2.93-1.341-6.068-2.01-9.412-2.01H11.522
		c-1.105,0-1.62,0.811-1.152,1.812l5.904,12.618c0.468,1,0.66,2.687,0.429,3.767L7.407,79.832c-0.231,1.08,0.477,1.956,1.581,1.956
		h12.589c1.105,0,2.187-0.876,2.419-1.956l9.295-43.424c0.231-1.08,1.314-1.956,2.419-1.956h10.205c1.105,0,1.813,0.876,1.581,1.956
		l-9.295,43.424c-0.231,1.08,0.477,1.956,1.581,1.956h12.589c1.105,0,2.187-0.876,2.419-1.956l9.295-43.424
		c0.231-1.08,1.314-1.956,2.419-1.956h6.394c1.854,0,3.228,0.545,4.123,1.639c0.927,1.059,1.175,2.516,0.745,4.369l-8.423,39.37
		c-0.231,1.08,0.477,1.956,1.582,1.956h12.589c1.105,0,2.188-0.875,2.42-1.955l7.725-35.943c0.695-3.279,0.695-6.498,0-9.66
		C92.966,31.068,91.625,28.278,89.638,25.86z"/>
</g>
</svg>
