<?xml version="1.0" encoding="iso-8859-1"?>
<!-- Generator: Adobe Illustrator 17.1.0, SVG Export Plug-In . SVG Version: 6.00 Build 0)  -->
<!DOCTYPE svg PUBLIC "-//W3C//DTD SVG 1.1//EN" "http://www.w3.org/Graphics/SVG/1.1/DTD/svg11.dtd">
<svg version="1.1" id="Capa_1" xmlns="http://www.w3.org/2000/svg" xmlns:xlink="http://www.w3.org/1999/xlink" x="0px" y="0px"
	 viewBox="0 0 100 100" style="enable-background:new 0 0 100 100;" xml:space="preserve">
<g>
	<path style="fill:#1D1D1B;" d="M18.014,42.771v7.109c0,6.207,1.575,11.8,4.718,16.782l5.194-5.194
		c-1.868-3.482-2.804-7.344-2.804-11.587v-7.109c0-0.961-0.353-1.794-1.055-2.499c-0.704-0.703-1.537-1.054-2.499-1.054
		c-0.963,0-1.796,0.351-2.499,1.054C18.365,40.977,18.014,41.81,18.014,42.771z"/>
	<path style="fill:#1D1D1B;" d="M67.771,21.448c0-4.887-1.741-9.07-5.22-12.551C59.07,5.417,54.887,3.677,50,3.677
		c-4.887,0-9.071,1.74-12.55,5.219c-3.48,3.482-5.22,7.664-5.22,12.551V49.88c0,2.212,0.375,4.271,1.088,6.195l34.452-34.452V21.448
		z"/>
	<path style="fill:#1D1D1B;" d="M62.551,62.431c3.479-3.479,5.22-7.664,5.22-12.551v-7.043L43.982,66.625
		c1.874,0.67,3.874,1.024,6.018,1.024C54.887,67.65,59.07,65.912,62.551,62.431z"/>
	<path style="fill:#1D1D1B;" d="M78.433,39.218c-0.963,0-1.796,0.351-2.499,1.054c-0.704,0.705-1.055,1.538-1.055,2.499v7.109
		c0,6.85-2.435,12.709-7.302,17.577C62.708,72.325,56.849,74.758,50,74.758c-4.179,0-7.987-0.911-11.428-2.723l-5.206,5.206
		c3.897,2.397,8.255,3.869,13.08,4.402v7.332H32.23c-0.963,0-1.796,0.349-2.499,1.054c-0.704,0.703-1.055,1.536-1.055,2.499
		c0,0.961,0.351,1.794,1.055,2.499c0.703,0.703,1.536,1.054,2.499,1.054h35.541c0.962,0,1.795-0.351,2.499-1.054
		c0.703-0.705,1.055-1.538,1.055-2.499c0-0.963-0.352-1.796-1.055-2.499c-0.704-0.705-1.537-1.054-2.499-1.054H53.554v-7.332
		c8.033-0.887,14.78-4.358,20.242-10.412c5.46-6.052,8.191-13.169,8.191-21.352v-7.109c0-0.961-0.352-1.794-1.055-2.499
		C80.228,39.569,79.395,39.218,78.433,39.218z"/>
	<path style="fill:#1D1D1B;" d="M81.965,10.965L67.771,25.159L34.436,58.493l-5.173,5.173l-5.09,5.09L10.965,81.965
		c-1.953,1.952-1.953,5.118,0,7.07C11.94,90.012,13.221,90.5,14.5,90.5s2.56-0.488,3.535-1.465l13.218-13.218l5.104-5.104
		l5.178-5.178L67.771,39.3l21.265-21.265c1.953-1.952,1.953-5.118,0-7.07C87.084,9.012,83.916,9.012,81.965,10.965z"/>
</g>
</svg>
