<?xml version="1.0" encoding="iso-8859-1"?>
<!-- Generator: Adobe Illustrator 17.1.0, SVG Export Plug-In . SVG Version: 6.00 Build 0)  -->
<!DOCTYPE svg PUBLIC "-//W3C//DTD SVG 1.1//EN" "http://www.w3.org/Graphics/SVG/1.1/DTD/svg11.dtd">
<svg version="1.1" id="Capa_1" xmlns="http://www.w3.org/2000/svg" xmlns:xlink="http://www.w3.org/1999/xlink" x="0px" y="0px"
	 viewBox="0 0 100 100" style="enable-background:new 0 0 100 100;" xml:space="preserve">
<g>
	<path style="fill:#1D1D1B;" d="M83.032,4.979H16.968c-6.611,0-11.989,5.378-11.989,11.989v66.064
		c0,6.611,5.378,11.989,11.989,11.989h66.064c6.611,0,11.989-5.378,11.989-11.989V16.968C95.021,10.356,89.644,4.979,83.032,4.979z
		 M80.021,80.021H19.979V19.979h60.043V80.021z"/>
	<path style="fill:#1D1D1B;" d="M25.152,58h49.695c1.657,0,3-1.343,3-3V45c0-1.657-1.343-3-3-3H25.152c-1.657,0-3,1.343-3,3v10
		C22.152,56.657,23.496,58,25.152,58z"/>
</g>
</svg>
