<?xml version="1.0" encoding="iso-8859-1"?>
<!-- Generator: Adobe Illustrator 17.1.0, SVG Export Plug-In . SVG Version: 6.00 Build 0)  -->
<!DOCTYPE svg PUBLIC "-//W3C//DTD SVG 1.1//EN" "http://www.w3.org/Graphics/SVG/1.1/DTD/svg11.dtd">
<svg version="1.1" id="Capa_1" xmlns="http://www.w3.org/2000/svg" xmlns:xlink="http://www.w3.org/1999/xlink" x="0px" y="0px"
	 viewBox="0 0 100 100" style="enable-background:new 0 0 100 100;" xml:space="preserve">
<g>
	<path d="M89.966,63.832c-1.153-1.15-2.491-1.394-4.015-0.723c-4.09,1.895-8.328,2.843-12.714,2.843
		c-5.502,0-10.576-1.355-15.223-4.071c-4.647-2.712-8.327-6.393-11.041-11.039c-2.714-4.646-4.071-9.721-4.071-15.223
		c0-4.276,0.845-8.336,2.537-12.185c1.691-3.847,4.135-7.221,7.333-10.12c1.227-1.152,1.506-2.49,0.836-4.014
		c-0.633-1.525-1.766-2.248-3.402-2.176c-5.688,0.224-11.078,1.496-16.171,3.82c-5.094,2.324-9.471,5.38-13.132,9.172
		c-3.662,3.792-6.562,8.281-8.699,13.466C10.068,38.767,9,44.204,9,49.891c0,5.801,1.134,11.34,3.402,16.617
		c2.267,5.28,5.316,9.835,9.145,13.662c3.829,3.831,8.383,6.877,13.662,9.146c5.278,2.265,10.818,3.4,16.617,3.4
		c8.327,0,16.013-2.259,23.058-6.774c7.044-4.518,12.314-10.549,15.809-18.094c0.297-0.671,0.38-1.377,0.251-2.119
		C90.811,64.986,90.486,64.354,89.966,63.832z"/>
</g>
</svg>
