<?xml version="1.0" encoding="iso-8859-1"?>
<!-- Generator: Adobe Illustrator 17.1.0, SVG Export Plug-In . SVG Version: 6.00 Build 0)  -->
<!DOCTYPE svg PUBLIC "-//W3C//DTD SVG 1.1//EN" "http://www.w3.org/Graphics/SVG/1.1/DTD/svg11.dtd">
<svg version="1.1" id="Layer_1" xmlns="http://www.w3.org/2000/svg" xmlns:xlink="http://www.w3.org/1999/xlink" x="0px" y="0px"
	 viewBox="0 0 64 64" style="enable-background:new 0 0 64 64;" xml:space="preserve">
<g>
	<path d="M37.429,51C38.773,51,39,49.979,39,48.635v-9.841c0-0.599-0.265-1.102-0.835-1.285c-1.741-0.56-3.003-2.181-3.003-4.109
		c0-1.928,1.262-3.549,3.003-4.109C38.735,29.107,39,28.605,39,28.006v-8.572C39,18.089,38.773,17,37.429,17H9.444
		C8.772,17,8,17.545,8,18.217v31.635C8,50.524,8.772,51,9.444,51H37.429z M16.668,37.665C17.498,37.517,18,37.644,19,37.968v-5.226
		v-3.7v-0.365c0.031-0.301,0.433-0.478,0.968-0.616l8.064-2.088C28.567,25.833,29,25.987,29,26.314s0,0.593,0,0.593v2.958
		c0,0,0,7.714,0,7.747c0,1.527-0.991,2.457-2.605,2.745c-1.691,0.301-3.187-0.535-3.424-1.868c-0.237-1.333,0.989-2.658,2.68-2.959
		C26.48,35.383,27,35.51,28,35.833v-4.608c0-0.552-0.432-0.883-0.966-0.74l-6.069,1.636C20.432,32.265,20,32.829,20,33.382v6.265
		l-0.016,0.212c-0.065,1.72-0.9,2.345-2.515,2.632c-1.691,0.301-3.235-0.535-3.473-1.868C13.76,39.291,14.977,37.966,16.668,37.665z
		"/>
	<path d="M41.188,17.899C40.636,17.872,40,18.323,40,18.875v9.318c0,0.552,0.694,1.096,1.186,1.347
		c1.373,0.702,2.439,2.124,2.439,3.772c0,1.648-1.129,3.07-2.502,3.772C40.631,37.336,40,37.879,40,38.432v10.703
		c0,0.552,0.699,1.003,1.25,0.976c9.463-0.464,16.125-7.497,16.125-16.105C57.375,25.397,50.651,18.364,41.188,17.899z"/>
</g>
</svg>
