<?xml version="1.0" encoding="iso-8859-1"?>
<!-- Generator: Adobe Illustrator 17.1.0, SVG Export Plug-In . SVG Version: 6.00 Build 0)  -->
<!DOCTYPE svg PUBLIC "-//W3C//DTD SVG 1.1//EN" "http://www.w3.org/Graphics/SVG/1.1/DTD/svg11.dtd">
<svg version="1.1" id="Capa_1" xmlns="http://www.w3.org/2000/svg" xmlns:xlink="http://www.w3.org/1999/xlink" x="0px" y="0px"
	 viewBox="0 0 100 100" style="enable-background:new 0 0 100 100;" xml:space="preserve">
<g>
	<path style="fill:#1D1D1B;" d="M90.747,7H34.728c-2.716,0-4.918,2.202-4.918,4.918v13.115c0,2.716,2.202,4.918,4.918,4.918h56.019
		c2.716,0,4.918-2.202,4.918-4.918V11.918C95.665,9.202,93.463,7,90.747,7z"/>
	<path style="fill:#1D1D1B;" d="M90.747,37.864H34.728c-2.716,0-4.918,2.202-4.918,4.918v13.115c0,2.716,2.202,4.918,4.918,4.918
		h56.019c2.716,0,4.918-2.202,4.918-4.918V42.782C95.665,40.066,93.463,37.864,90.747,37.864z"/>
	<path style="fill:#1D1D1B;" d="M90.747,70.049H34.728c-2.716,0-4.918,2.202-4.918,4.918v13.115c0,2.716,2.202,4.918,4.918,4.918
		h56.019c2.716,0,4.918-2.202,4.918-4.918V74.967C95.665,72.251,93.463,70.049,90.747,70.049z"/>
	<path style="fill:#1D1D1B;" d="M7.683,17.426c1.624-0.536,3.091-1.32,4.374-2.336v13.586c0,0.276,0.224,0.5,0.5,0.5h3.894
		c0.276,0,0.5-0.224,0.5-0.5V8.276c0-0.276-0.224-0.5-0.5-0.5h-3.159c-0.211,0-0.399,0.133-0.471,0.332
		c-0.409,1.141-1.18,2.159-2.29,3.023c-1.139,0.888-2.202,1.498-3.159,1.811c-0.206,0.067-0.345,0.259-0.345,0.475v3.534
		c0,0.161,0.077,0.311,0.207,0.405C7.363,17.45,7.532,17.476,7.683,17.426z"/>
	<path style="fill:#1D1D1B;" d="M10.533,50.414c-2.236,2.075-3.697,3.704-4.468,4.979c-0.773,1.281-1.244,2.658-1.399,4.091
		c-0.016,0.142,0.03,0.282,0.125,0.388c0.095,0.105,0.23,0.166,0.372,0.166h13.65c0.276,0,0.5-0.224,0.5-0.5v-3.617
		c0-0.276-0.224-0.5-0.5-0.5H12.04c0.067-0.083,0.138-0.166,0.212-0.249c0.315-0.356,1.089-1.099,2.299-2.208
		c1.24-1.138,2.116-2.03,2.605-2.651c0.737-0.94,1.286-1.856,1.63-2.723c0.35-0.882,0.527-1.823,0.527-2.797
		c0-1.743-0.631-3.222-1.876-4.396c-1.236-1.166-2.941-1.757-5.068-1.757c-1.934,0-3.574,0.505-4.877,1.502
		c-1.326,1.016-2.124,2.684-2.369,4.958c-0.015,0.132,0.024,0.265,0.108,0.369s0.206,0.169,0.339,0.183l3.881,0.388
		c0.133,0.012,0.27-0.029,0.373-0.116S9.991,45.71,10,45.575c0.065-1.009,0.298-1.723,0.688-2.122
		c0.387-0.393,0.904-0.584,1.584-0.584c0.691,0,1.208,0.181,1.58,0.553c0.372,0.373,0.553,0.912,0.553,1.649
		c0,0.682-0.242,1.39-0.717,2.102C13.313,47.722,12.252,48.813,10.533,50.414z"/>
	<path style="fill:#1D1D1B;" d="M17.13,90.372c1.398-1.348,2.107-3.003,2.107-4.919c0-1.34-0.39-2.504-1.157-3.459
		c-0.539-0.671-1.209-1.178-2.002-1.515c1.49-1.082,2.244-2.463,2.244-4.117c0-1.384-0.526-2.637-1.563-3.725
		c-1.248-1.318-2.919-1.986-4.965-1.986c-1.186,0-2.275,0.228-3.238,0.678c-0.979,0.457-1.757,1.097-2.308,1.902
		C5.709,74.017,5.303,75.07,5.04,76.36c-0.026,0.133,0.001,0.271,0.078,0.382c0.076,0.112,0.195,0.188,0.328,0.21l3.59,0.609
		c0.134,0.021,0.273-0.01,0.385-0.093c0.109-0.083,0.181-0.207,0.196-0.343c0.088-0.766,0.327-1.346,0.711-1.723
		c0.378-0.37,0.821-0.55,1.355-0.55c0.541,0,0.956,0.151,1.268,0.463c0.312,0.312,0.464,0.732,0.464,1.282
		c0,0.659-0.216,1.168-0.661,1.557c-0.429,0.375-1.072,0.565-1.913,0.565l-0.155-0.002c-0.005,0-0.01,0-0.014,0
		c-0.25,0-0.462,0.185-0.495,0.433l-0.43,3.174c-0.022,0.167,0.04,0.333,0.167,0.444c0.126,0.11,0.301,0.149,0.463,0.104
		c1.526-0.428,2.465-0.389,3.211,0.425c0.443,0.482,0.658,1.133,0.658,1.99c0,0.916-0.228,1.613-0.695,2.132
		c-0.455,0.504-0.997,0.75-1.659,0.75c-0.619,0-1.132-0.204-1.566-0.622c-0.439-0.424-0.715-1.065-0.82-1.905
		c-0.034-0.274-0.291-0.47-0.557-0.435l-3.77,0.457c-0.272,0.033-0.467,0.28-0.437,0.553c0.208,1.829,0.974,3.333,2.274,4.471
		c1.299,1.135,2.948,1.71,4.902,1.71C13.984,92.397,15.737,91.716,17.13,90.372z"/>
</g>
</svg>
