<?xml version="1.0" encoding="iso-8859-1"?>
<!-- Generator: Adobe Illustrator 17.1.0, SVG Export Plug-In . SVG Version: 6.00 Build 0)  -->
<!DOCTYPE svg PUBLIC "-//W3C//DTD SVG 1.1//EN" "http://www.w3.org/Graphics/SVG/1.1/DTD/svg11.dtd">
<svg version="1.1" id="Capa_1" xmlns="http://www.w3.org/2000/svg" xmlns:xlink="http://www.w3.org/1999/xlink" x="0px" y="0px"
	 viewBox="0 0 100 100" style="enable-background:new 0 0 100 100;" xml:space="preserve">
<g>
	<path style="fill:#1D1D1B;" d="M28.226,58.211c1.779,1.779,3.22,1.182,3.22-1.334v-8.643h32.029c1.006,0,1.822-0.816,1.822-1.822
		V18.285c0-1.006-0.816-1.822-1.822-1.822H31.446V7.82c0-2.515-1.441-3.113-3.22-1.334L5.584,29.128
		c-1.779,1.779-1.779,4.662,0,6.441L28.226,58.211z"/>
	<path style="fill:#1D1D1B;" d="M71.907,41.634c-1.778-1.779-3.22-1.181-3.22,1.334v8.643H36.657c-1.006,0-1.822,0.816-1.822,1.822
		v28.127c0,1.006,0.816,1.822,1.822,1.822h32.029v8.643c0,2.515,1.442,3.113,3.22,1.334l22.643-22.642
		c1.778-1.779,1.778-4.662,0-6.441L71.907,41.634z"/>
</g>
</svg>
