<?xml version="1.0" encoding="iso-8859-1"?>
<!-- Generator: Adobe Illustrator 17.1.0, SVG Export Plug-In . SVG Version: 6.00 Build 0)  -->
<!DOCTYPE svg PUBLIC "-//W3C//DTD SVG 1.1//EN" "http://www.w3.org/Graphics/SVG/1.1/DTD/svg11.dtd">
<svg version="1.1" id="Capa_1" xmlns="http://www.w3.org/2000/svg" xmlns:xlink="http://www.w3.org/1999/xlink" x="0px" y="0px"
	 viewBox="0 0 100 100" style="enable-background:new 0 0 100 100;" xml:space="preserve">
<g>
	<path style="fill:#1D1D1B;" d="M83.032,4.979H16.968c-6.611,0-11.989,5.378-11.989,11.989v66.064
		c0,6.611,5.378,11.989,11.989,11.989h66.064c6.611,0,11.989-5.378,11.989-11.989V16.968C95.021,10.356,89.644,4.979,83.032,4.979z
		 M80.021,80.021H19.979V19.979h60.043V80.021z"/>
	<path style="fill:#1D1D1B;" d="M73.64,35.662c0.733-0.734,0.756-1.901,0.051-2.606l-7.667-7.667
		c-0.344-0.344-0.797-0.515-1.256-0.515c-0.483,0-0.974,0.189-1.35,0.566l-6.976,6.975l10.222,10.222L73.64,35.662z"/>
	<polygon style="fill:#1D1D1B;" points="31.456,72.372 32.544,73.461 36.335,72.966 65.233,44.068 55.012,33.846 26.113,62.744 
		25.619,66.536 26.707,67.624 	"/>
	<polygon style="fill:#1D1D1B;" points="28.79,73.95 30.042,73.787 25.293,69.038 25.13,70.29 24.967,71.54 24.581,74.498 
		27.54,74.113 	"/>
</g>
</svg>
