<?xml version="1.0" encoding="iso-8859-1"?>
<!-- Generator: Adobe Illustrator 17.1.0, SVG Export Plug-In . SVG Version: 6.00 Build 0)  -->
<!DOCTYPE svg PUBLIC "-//W3C//DTD SVG 1.1//EN" "http://www.w3.org/Graphics/SVG/1.1/DTD/svg11.dtd">
<svg version="1.1" id="Capa_1" xmlns="http://www.w3.org/2000/svg" xmlns:xlink="http://www.w3.org/1999/xlink" x="0px" y="0px"
	 viewBox="0 0 100 100" style="enable-background:new 0 0 100 100;" xml:space="preserve">
<g>
	<path style="fill:#1D1D1B;" d="M26.511,6.787H13.089c-3.846,0-6.974,3.128-6.974,6.974v13.422c0,3.846,3.128,6.974,6.974,6.974
		h13.422c3.846,0,6.974-3.128,6.974-6.974V13.761C33.485,9.915,30.357,6.787,26.511,6.787z"/>
	<path style="fill:#1D1D1B;" d="M56.711,6.787H43.289c-3.846,0-6.974,3.128-6.974,6.974v13.422c0,3.846,3.128,6.974,6.974,6.974
		h13.422c3.846,0,6.974-3.128,6.974-6.974V13.761C63.685,9.915,60.557,6.787,56.711,6.787z"/>
	<path style="fill:#1D1D1B;" d="M86.911,6.787H73.489c-3.846,0-6.974,3.128-6.974,6.974v13.422c0,3.846,3.128,6.974,6.974,6.974
		h13.422c3.846,0,6.974-3.128,6.974-6.974V13.761C93.885,9.915,90.756,6.787,86.911,6.787z"/>
	<path style="fill:#1D1D1B;" d="M26.511,36.315H13.089c-3.846,0-6.974,3.128-6.974,6.974v13.422c0,3.846,3.128,6.974,6.974,6.974
		h13.422c3.846,0,6.974-3.128,6.974-6.974V43.289C33.485,39.443,30.357,36.315,26.511,36.315z"/>
	<path style="fill:#1D1D1B;" d="M56.711,36.315H43.289c-3.846,0-6.974,3.128-6.974,6.974v13.422c0,3.846,3.128,6.974,6.974,6.974
		h13.422c3.846,0,6.974-3.128,6.974-6.974V43.289C63.685,39.443,60.557,36.315,56.711,36.315z"/>
	<path style="fill:#1D1D1B;" d="M86.911,36.315H73.489c-3.846,0-6.974,3.128-6.974,6.974v13.422c0,3.846,3.128,6.974,6.974,6.974
		h13.422c3.846,0,6.974-3.128,6.974-6.974V43.289C93.885,39.443,90.756,36.315,86.911,36.315z"/>
	<path style="fill:#1D1D1B;" d="M26.511,65.844H13.089c-3.846,0-6.974,3.128-6.974,6.974v13.422c0,3.846,3.128,6.975,6.974,6.975
		h13.422c3.846,0,6.974-3.129,6.974-6.975V72.817C33.485,68.972,30.357,65.844,26.511,65.844z"/>
	<path style="fill:#1D1D1B;" d="M56.711,65.844H43.289c-3.846,0-6.974,3.128-6.974,6.974v13.422c0,3.846,3.128,6.975,6.974,6.975
		h13.422c3.846,0,6.974-3.129,6.974-6.975V72.817C63.685,68.972,60.557,65.844,56.711,65.844z"/>
	<path style="fill:#1D1D1B;" d="M86.911,65.844H73.489c-3.846,0-6.974,3.128-6.974,6.974v13.422c0,3.846,3.128,6.975,6.974,6.975
		h13.422c3.846,0,6.974-3.129,6.974-6.975V72.817C93.885,68.972,90.756,65.844,86.911,65.844z"/>
</g>
</svg>
