<?xml version="1.0" encoding="iso-8859-1"?>
<!-- Generator: Adobe Illustrator 17.1.0, SVG Export Plug-In . SVG Version: 6.00 Build 0)  -->
<!DOCTYPE svg PUBLIC "-//W3C//DTD SVG 1.1//EN" "http://www.w3.org/Graphics/SVG/1.1/DTD/svg11.dtd">
<svg version="1.1" id="Capa_1" xmlns="http://www.w3.org/2000/svg" xmlns:xlink="http://www.w3.org/1999/xlink" x="0px" y="0px"
	 viewBox="0 0 100 100" style="enable-background:new 0 0 100 100;" xml:space="preserve">
<g>
	<path style="fill:#1D1D1B;" d="M29.667,96.667h40.667c2.761,0,5-2.239,5-5V8.333c0-2.761-2.239-5-5-5H29.667c-2.761,0-5,2.239-5,5
		v83.333C24.667,94.428,26.905,96.667,29.667,96.667z M38.958,93.003c-0.276,0-0.5-0.224-0.5-0.5c0-0.968-0.788-1.756-1.756-1.756
		h-4.613c-0.968,0-1.756,0.788-1.756,1.756c0,0.276-0.224,0.5-0.5,0.5s-0.5-0.224-0.5-0.5c0-1.52,1.236-2.756,2.756-2.756h4.613
		c1.52,0,2.756,1.236,2.756,2.756C39.458,92.779,39.235,93.003,38.958,93.003z M67.625,93.312h-4.042c-0.276,0-0.5-0.224-0.5-0.5
		s0.224-0.5,0.5-0.5h4.042c0.276,0,0.5,0.224,0.5,0.5S67.901,93.312,67.625,93.312z M70.167,93.003c-0.276,0-0.5-0.224-0.5-0.5
		c0-0.968-0.788-1.756-1.756-1.756h-4.613c-0.968,0-1.756,0.788-1.756,1.756c0,0.276-0.224,0.5-0.5,0.5s-0.5-0.224-0.5-0.5
		c0-1.52,1.236-2.756,2.756-2.756h4.613c1.52,0,2.756,1.236,2.756,2.756C70.667,92.779,70.443,93.003,70.167,93.003z M27.833,13.833
		h44.333v72.333H27.833V13.833z"/>
</g>
</svg>
