<?xml version="1.0" encoding="iso-8859-1"?>
<!-- Generator: Adobe Illustrator 17.1.0, SVG Export Plug-In . SVG Version: 6.00 Build 0)  -->
<!DOCTYPE svg PUBLIC "-//W3C//DTD SVG 1.1//EN" "http://www.w3.org/Graphics/SVG/1.1/DTD/svg11.dtd">
<svg version="1.1" id="Capa_1" xmlns="http://www.w3.org/2000/svg" xmlns:xlink="http://www.w3.org/1999/xlink" x="0px" y="0px"
	 viewBox="0 0 100 100" style="enable-background:new 0 0 100 100;" xml:space="preserve">
<g>
	<path style="fill:#1D1D1B;" d="M73.75,9.03C66.501,4.799,58.584,2.684,50,2.684c-8.585,0-16.502,2.115-23.751,6.346
		C19,13.261,13.26,19.001,9.03,26.249c-4.231,7.25-6.346,15.167-6.346,23.751c0,9.57,2.607,18.257,7.824,26.06
		c5.216,7.805,12.054,13.575,20.516,17.312c-0.165-4.395,0.102-8.029,0.801-10.904l6.099-25.753c-1.027-2.012-1.54-4.517-1.54-7.516
		c0-3.491,0.883-6.408,2.649-8.748c1.765-2.342,3.922-3.513,6.469-3.513c2.053,0,3.635,0.677,4.744,2.034
		c1.109,1.355,1.664,3.06,1.664,5.113c0,1.274-0.237,2.825-0.708,4.652c-0.473,1.828-1.089,3.943-1.848,6.346
		c-0.76,2.402-1.304,4.322-1.633,5.76c-0.576,2.505-0.103,4.651,1.417,6.438c1.519,1.787,3.532,2.68,6.038,2.68
		c4.395,0,7.999-2.443,10.813-7.331c2.813-4.888,4.22-10.823,4.22-17.806c0-5.38-1.735-9.755-5.206-13.123
		c-3.471-3.367-8.308-5.052-14.509-5.052c-6.942,0-12.559,2.229-16.85,6.684c-4.292,4.457-6.438,9.787-6.438,15.987
		c0,3.697,1.048,6.799,3.142,9.304c0.698,0.822,0.924,1.704,0.678,2.648c-0.083,0.247-0.247,0.863-0.493,1.848
		s-0.411,1.623-0.493,1.91c-0.329,1.315-1.109,1.726-2.342,1.232c-3.163-1.314-5.566-3.593-7.208-6.838
		c-1.643-3.244-2.464-7.002-2.464-11.274c0-2.752,0.441-5.504,1.324-8.256c0.883-2.752,2.258-5.411,4.128-7.979
		c1.868-2.565,4.107-4.836,6.716-6.807c2.608-1.972,5.781-3.552,9.519-4.745c3.737-1.19,7.763-1.786,12.076-1.786
		c5.832,0,11.069,1.294,15.71,3.881c4.641,2.588,8.184,5.936,10.628,10.043c2.443,4.107,3.666,8.501,3.666,13.185
		c0,6.161-1.069,11.706-3.204,16.635c-2.136,4.929-5.155,8.8-9.057,11.613c-3.903,2.813-8.339,4.22-13.308,4.22
		c-2.506,0-4.847-0.585-7.024-1.756c-2.178-1.171-3.677-2.557-4.498-4.159c-1.848,7.269-2.957,11.604-3.327,12.999
		c-0.781,2.917-2.383,6.284-4.806,10.104c4.395,1.314,8.872,1.971,13.431,1.971c8.584,0,16.501-2.115,23.75-6.345
		c7.249-4.231,12.989-9.971,17.22-17.221c4.23-7.249,6.346-15.165,6.346-23.75c0-8.585-2.116-16.501-6.346-23.751
		C86.74,19.001,80.999,13.261,73.75,9.03z"/>
</g>
</svg>
