<?xml version="1.0" encoding="iso-8859-1"?>
<!-- Generator: Adobe Illustrator 17.1.0, SVG Export Plug-In . SVG Version: 6.00 Build 0)  -->
<!DOCTYPE svg PUBLIC "-//W3C//DTD SVG 1.1//EN" "http://www.w3.org/Graphics/SVG/1.1/DTD/svg11.dtd">
<svg version="1.1" id="Layer_1" xmlns="http://www.w3.org/2000/svg" xmlns:xlink="http://www.w3.org/1999/xlink" x="0px" y="0px"
	 viewBox="0 0 64 64" style="enable-background:new 0 0 64 64;" xml:space="preserve">
<g>
	<path d="M32.446,7.596c-5.757,0-11.161,3.279-13.847,8.368c-1.391,2.637-1.995,5.656-1.74,8.627
		c0.323,3.744,2.033,6.547,4.225,9.471c4.822,6.43,7.786,14.059,10.639,21.537c0.409,1.072,1.073,1.071,1.482-0.001
		c2.794-7.314,5.697-14.73,10.31-21.097c1.958-2.703,3.741-5.146,4.339-8.531c0.558-3.162,0.124-6.471-1.246-9.376
		C44.049,11.166,38.451,7.596,32.446,7.596z M32.446,27.9c-2.702,0-4.958-2.257-4.958-4.959c0-2.703,2.256-4.959,4.958-4.959
		c2.703,0,4.96,2.256,4.96,4.959C37.406,25.643,35.149,27.9,32.446,27.9z"/>
</g>
</svg>
