<?xml version="1.0" encoding="iso-8859-1"?>
<!-- Generator: Adobe Illustrator 17.1.0, SVG Export Plug-In . SVG Version: 6.00 Build 0)  -->
<!DOCTYPE svg PUBLIC "-//W3C//DTD SVG 1.1//EN" "http://www.w3.org/Graphics/SVG/1.1/DTD/svg11.dtd">
<svg version="1.1" id="Capa_1" xmlns="http://www.w3.org/2000/svg" xmlns:xlink="http://www.w3.org/1999/xlink" x="0px" y="0px"
	 viewBox="0 0 100 100" style="enable-background:new 0 0 100 100;" xml:space="preserve">
<g>
	<path style="fill:#1D1D1B;" d="M95.604,35.22c-0.258-2.843-0.629-5.383-1.111-7.624c-0.551-2.514-1.749-4.634-3.592-6.356
		c-1.844-1.722-3.989-2.721-6.435-2.998c-7.649-0.862-19.21-1.292-34.681-1.292c-15.472,0-27.032,0.43-34.681,1.292
		c-2.447,0.277-4.583,1.276-6.409,2.998c-1.827,1.722-3.016,3.842-3.566,6.356c-0.517,2.241-0.904,4.781-1.163,7.624
		c-0.258,2.843-0.405,5.195-0.439,7.056c-0.035,1.859-0.051,4.444-0.051,7.753c0,3.307,0.017,5.891,0.051,7.753
		c0.034,1.859,0.181,4.212,0.439,7.054c0.259,2.843,0.628,5.385,1.111,7.624c0.551,2.518,1.749,4.636,3.592,6.358
		c1.843,1.724,3.988,2.724,6.435,2.998c7.649,0.862,19.209,1.292,34.681,1.292c15.471,0,27.031-0.43,34.681-1.292
		c2.446-0.275,4.582-1.274,6.409-2.998c1.826-1.722,3.015-3.84,3.566-6.358c0.517-2.239,0.904-4.781,1.163-7.624
		c0.258-2.843,0.405-5.195,0.439-7.054c0.034-1.861,0.052-4.446,0.052-7.753c0-3.309-0.018-5.893-0.052-7.753
		C96.009,40.414,95.862,38.062,95.604,35.22z M68.082,52.819L41.619,69.358c-0.483,0.345-1.068,0.517-1.757,0.517
		c-0.517,0-1.051-0.137-1.602-0.414c-1.137-0.62-1.706-1.583-1.706-2.893V33.489c0-1.308,0.568-2.275,1.706-2.895
		c1.171-0.62,2.291-0.583,3.359,0.103l26.463,16.539c1.034,0.588,1.551,1.518,1.551,2.792
		C69.632,51.305,69.115,52.235,68.082,52.819z"/>
</g>
</svg>
