<?xml version="1.0" encoding="iso-8859-1"?>
<!-- Generator: Adobe Illustrator 17.1.0, SVG Export Plug-In . SVG Version: 6.00 Build 0)  -->
<!DOCTYPE svg PUBLIC "-//W3C//DTD SVG 1.1//EN" "http://www.w3.org/Graphics/SVG/1.1/DTD/svg11.dtd">
<svg version="1.1" id="Capa_1" xmlns="http://www.w3.org/2000/svg" xmlns:xlink="http://www.w3.org/1999/xlink" x="0px" y="0px"
	 viewBox="0 0 100 100" style="enable-background:new 0 0 100 100;" xml:space="preserve">
<g>
	<path style="fill:#1D1D1B;" d="M84.292,5.349H14.478c-5.373,0-9.744,4.371-9.744,9.744v69.814c0,5.373,4.371,9.744,9.744,9.744
		h69.814c5.373,0,9.745-4.371,9.745-9.744V15.093C94.037,9.72,89.665,5.349,84.292,5.349z M84.037,84.651H14.734V15.349h69.303
		V84.651z"/>
	<path style="fill:#1D1D1B;" d="M30.44,77.896L73.161,53.52c3.407-1.944,3.407-5.096,0-7.04L30.44,22.104
		c-3.407-1.944-6.169-0.34-6.169,3.583v48.626C24.27,78.236,27.032,79.84,30.44,77.896z"/>
</g>
</svg>
