<?xml version="1.0" encoding="iso-8859-1"?>
<!-- Generator: Adobe Illustrator 17.1.0, SVG Export Plug-In . SVG Version: 6.00 Build 0)  -->
<!DOCTYPE svg PUBLIC "-//W3C//DTD SVG 1.1//EN" "http://www.w3.org/Graphics/SVG/1.1/DTD/svg11.dtd">
<svg version="1.1" id="Capa_1" xmlns="http://www.w3.org/2000/svg" xmlns:xlink="http://www.w3.org/1999/xlink" x="0px" y="0px"
	 viewBox="0 0 100 100" style="enable-background:new 0 0 100 100;" xml:space="preserve">
<g>
	<path style="fill:#000100;" d="M3.685,96.333h92.667V3.667H3.685V96.333z M13.79,48.884c0-4.426,3.588-8.014,8.014-8.014h19.085
		V21.785c0-4.426,3.588-8.014,8.014-8.014h2.232c4.427,0,8.014,3.588,8.014,8.014V40.87h19.085c4.426,0,8.014,3.588,8.014,8.014
		v2.232c0,4.426-3.588,8.014-8.014,8.014H59.148v19.085c0,4.426-3.588,8.014-8.014,8.014h-2.232c-4.426,0-8.014-3.588-8.014-8.014
		V59.13H21.803c-4.426,0-8.014-3.588-8.014-8.014V48.884z"/>
</g>
</svg>
