<?xml version="1.0" encoding="iso-8859-1"?>
<!-- Generator: Adobe Illustrator 17.1.0, SVG Export Plug-In . SVG Version: 6.00 Build 0)  -->
<!DOCTYPE svg PUBLIC "-//W3C//DTD SVG 1.1//EN" "http://www.w3.org/Graphics/SVG/1.1/DTD/svg11.dtd">
<svg version="1.1" id="Capa_1" xmlns="http://www.w3.org/2000/svg" xmlns:xlink="http://www.w3.org/1999/xlink" x="0px" y="0px"
	 viewBox="0 0 100 100" style="enable-background:new 0 0 100 100;" xml:space="preserve">
<g>
	<path style="fill:#1D1D1B;" d="M87.339,30.006c-0.54-4.099-2.704-8.486-6.344-12.125c-3.638-3.638-8.024-5.802-12.122-6.342
		c-1.854-0.245-4.33-1.27-5.814-2.408C59.778,6.615,55.146,5.042,50,5.042s-9.778,1.573-13.059,4.089
		c-1.484,1.138-3.96,2.163-5.814,2.408c-4.098,0.54-8.484,2.704-12.122,6.342c-3.64,3.639-5.804,8.026-6.344,12.125
		c-0.244,1.854-1.269,4.329-2.407,5.812c-2.517,3.28-4.089,7.912-4.089,13.059c0,5.146,1.572,9.779,4.089,13.059
		c1.139,1.484,2.163,3.958,2.407,5.812c0.54,4.099,2.704,8.486,6.344,12.125c3.638,3.638,8.024,5.802,12.122,6.342
		c1.854,0.245,4.33,1.27,5.814,2.408c3.28,2.516,7.912,4.089,13.059,4.089s9.778-1.573,13.059-4.089
		c1.484-1.138,3.96-2.163,5.814-2.408c4.098-0.54,8.484-2.704,12.122-6.342c3.64-3.639,5.804-8.026,6.344-12.125
		c0.244-1.854,1.269-4.329,2.407-5.812c2.517-3.28,4.089-7.912,4.089-13.059c0-5.146-1.572-9.779-4.089-13.059
		C88.607,34.335,87.583,31.86,87.339,30.006z M72.123,55.544H56.667V71c0,3.682-2.985,6.667-6.667,6.667S43.333,74.682,43.333,71
		V55.544H27.877c-3.682,0-6.666-2.985-6.666-6.667s2.984-6.667,6.666-6.667h15.456V26.755c0-3.682,2.985-6.667,6.667-6.667
		s6.667,2.985,6.667,6.667v15.456h15.456c3.682,0,6.666,2.985,6.666,6.667S75.805,55.544,72.123,55.544z"/>
</g>
</svg>
