<?xml version="1.0" encoding="iso-8859-1"?>
<!-- Generator: Adobe Illustrator 17.1.0, SVG Export Plug-In . SVG Version: 6.00 Build 0)  -->
<!DOCTYPE svg PUBLIC "-//W3C//DTD SVG 1.1//EN" "http://www.w3.org/Graphics/SVG/1.1/DTD/svg11.dtd">
<svg version="1.1" id="Capa_1" xmlns="http://www.w3.org/2000/svg" xmlns:xlink="http://www.w3.org/1999/xlink" x="0px" y="0px"
	 viewBox="0 0 100 100" style="enable-background:new 0 0 100 100;" xml:space="preserve">
<g>
	<path d="M25.838,58.108l16.176,0l0,16.176c0,2.036,1.65,3.686,3.686,3.686h8.6c2.036,0,3.686-1.65,3.686-3.686l0-16.176l16.176,0
		c2.036,0,3.686-1.65,3.686-3.686v-8.6c0-2.036-1.65-3.686-3.686-3.686l-16.176,0l0-16.176c0-2.036-1.65-3.686-3.686-3.686h-8.6
		c-2.036,0-3.686,1.65-3.686,3.686l0,16.176l-16.176,0c-2.036,0-3.686,1.65-3.686,3.686v8.6
		C22.152,56.458,23.802,58.108,25.838,58.108z"/>
	<path d="M83.032,4.979H16.968c-6.611,0-11.989,5.378-11.989,11.989v66.064c0,6.611,5.378,11.989,11.989,11.989h66.064
		c6.611,0,11.989-5.378,11.989-11.989V16.968C95.021,10.356,89.643,4.979,83.032,4.979z M80.021,80.021H19.979V19.979h60.043V80.021
		z"/>
</g>
</svg>
