<?xml version="1.0" encoding="iso-8859-1"?>
<!-- Generator: Adobe Illustrator 17.1.0, SVG Export Plug-In . SVG Version: 6.00 Build 0)  -->
<!DOCTYPE svg PUBLIC "-//W3C//DTD SVG 1.1//EN" "http://www.w3.org/Graphics/SVG/1.1/DTD/svg11.dtd">
<svg version="1.1" id="Capa_1" xmlns="http://www.w3.org/2000/svg" xmlns:xlink="http://www.w3.org/1999/xlink" x="0px" y="0px"
	 viewBox="0 0 100 100" style="enable-background:new 0 0 100 100;" xml:space="preserve">
<g>
	<path style="fill:#1D1D1B;" d="M86.857,32.431h-12.05V14.488c0-4.108-3.342-7.45-7.45-7.45H32.643c-4.108,0-7.45,3.342-7.45,7.45
		v17.943h-12.05C9.75,32.431,7,35.181,7,38.573v40.543h18.193v5.017v3h3h43.614h3v-3v-5.017H93V38.573
		C93,35.181,90.25,32.431,86.857,32.431z M71.807,79.116v5.017H28.193v-5.017V69.39h43.614V79.116z M28.193,32.431V14.488
		c0-2.458,1.993-4.45,4.45-4.45h34.714c2.458,0,4.45,1.993,4.45,4.45v17.943v21.472H28.193V32.431z M82.353,67.342
		c-1.81,0-3.276-1.467-3.276-3.276s1.467-3.276,3.276-3.276c1.809,0,3.276,1.467,3.276,3.276S84.162,67.342,82.353,67.342z"/>
</g>
</svg>
