<?xml version="1.0" encoding="iso-8859-1"?>
<!-- Generator: Adobe Illustrator 17.1.0, SVG Export Plug-In . SVG Version: 6.00 Build 0)  -->
<!DOCTYPE svg PUBLIC "-//W3C//DTD SVG 1.1//EN" "http://www.w3.org/Graphics/SVG/1.1/DTD/svg11.dtd">
<svg version="1.1" id="Capa_1" xmlns="http://www.w3.org/2000/svg" xmlns:xlink="http://www.w3.org/1999/xlink" x="0px" y="0px"
	 viewBox="0 0 100 100" style="enable-background:new 0 0 100 100;" xml:space="preserve">
<g>
	<path d="M15.288,90.75h14.931c-2.168-2.327-3.505-5.439-3.505-8.871c0-7.196,5.833-13.029,13.029-13.029
		s13.029,5.833,13.029,13.029c0,3.432-1.337,6.544-3.505,8.871h14.931c3.335,0,6.038-2.703,6.038-6.038V70.911
		c2.119,1.491,4.697,2.375,7.485,2.375c7.196,0,13.029-5.833,13.029-13.029s-5.833-13.029-13.029-13.029
		c-2.788,0-5.366,0.883-7.485,2.375V35.802c0-3.335-2.703-6.038-6.038-6.038H50.397c1.491-2.119,2.375-4.697,2.375-7.485
		c0-7.196-5.833-13.029-13.029-13.029s-13.029,5.833-13.029,13.029c0,2.788,0.883,5.366,2.375,7.485H15.288
		c-3.335,0-6.038,2.703-6.038,6.038v48.91C9.25,88.047,11.953,90.75,15.288,90.75z"/>
</g>
</svg>
