<?xml version="1.0" encoding="iso-8859-1"?>
<!-- Generator: Adobe Illustrator 17.1.0, SVG Export Plug-In . SVG Version: 6.00 Build 0)  -->
<!DOCTYPE svg PUBLIC "-//W3C//DTD SVG 1.1//EN" "http://www.w3.org/Graphics/SVG/1.1/DTD/svg11.dtd">
<svg version="1.1" id="Capa_1" xmlns="http://www.w3.org/2000/svg" xmlns:xlink="http://www.w3.org/1999/xlink" x="0px" y="0px"
	 viewBox="0 0 100 100" style="enable-background:new 0 0 100 100;" xml:space="preserve">
<g>
	<path style="fill:#1D1D1B;" d="M19.059,82.026h13.132c1.29,0,2.335-1.045,2.335-2.335V66.559c0-1.289-1.045-2.335-2.335-2.335
		H19.059c-1.29,0-2.335,1.045-2.335,2.335v13.132C16.724,80.98,17.77,82.026,19.059,82.026z"/>
	<path style="fill:#1D1D1B;" d="M32.191,16.724H19.059c-1.29,0-2.335,1.045-2.335,2.335v13.132c0,1.289,1.045,2.335,2.335,2.335
		h13.132c1.29,0,2.335-1.045,2.335-2.335V19.059C34.526,17.77,33.48,16.724,32.191,16.724z"/>
	<path style="fill:#1D1D1B;" d="M79.691,16.724H66.559c-1.29,0-2.335,1.045-2.335,2.335v13.132c0,1.289,1.045,2.335,2.335,2.335
		h13.132c1.29,0,2.335-1.045,2.335-2.335V19.059C82.026,17.77,80.98,16.724,79.691,16.724z"/>
	<path style="fill:#1D1D1B;" d="M76.474,43h11.498c1.396,0,2.527-1.132,2.527-2.527V10.777c0-1.396-1.132-2.527-2.527-2.527H58.277
		c-0.767,0-1.445,0.349-1.909,0.888h-9.856v13H43V10.777c0-1.396-1.132-2.527-2.527-2.527H10.777c-1.396,0-2.527,1.131-2.527,2.527
		v29.695C8.25,41.868,9.382,43,10.777,43h15.261v12.75H10.777c-1.396,0-2.527,1.131-2.527,2.527v29.695
		c0,1.396,1.132,2.527,2.527,2.527h29.695c1.396,0,2.527-1.132,2.527-2.527V76.224h4v7.974h16.974v-7.974h4.487v12.974h16.975
		V72.224h-8.487v-3.25h13.564V52H76.474V43z M60.75,13.25H85.5V38H60.75V13.25z M55.75,38.276h-3.263V26.112h3.263V38.276z
		 M13.25,38V13.25H38V38H13.25z M38,85.5H13.25V60.75H38V85.5z M43,59.25v-0.973c0-0.014-0.004-0.026-0.004-0.04h0.017V41.263
		h-0.151C42.944,41.013,43,40.75,43,40.473v-1.361h5.5V55.25h11v4H43z"/>
</g>
</svg>
