<?xml version="1.0" encoding="iso-8859-1"?>
<!-- Generator: Adobe Illustrator 17.1.0, SVG Export Plug-In . SVG Version: 6.00 Build 0)  -->
<!DOCTYPE svg PUBLIC "-//W3C//DTD SVG 1.1//EN" "http://www.w3.org/Graphics/SVG/1.1/DTD/svg11.dtd">
<svg version="1.1" id="Capa_1" xmlns="http://www.w3.org/2000/svg" xmlns:xlink="http://www.w3.org/1999/xlink" x="0px" y="0px"
	 viewBox="0 0 100 100" style="enable-background:new 0 0 100 100;" xml:space="preserve">
<g>
	<path style="fill:#1D1D1B;" d="M88.475,30.555c-0.557-4.223-2.787-8.744-6.536-12.494c-3.749-3.749-8.269-5.978-12.491-6.535
		c-1.911-0.252-4.462-1.308-5.991-2.481C60.076,6.452,55.303,4.832,50,4.832s-10.076,1.62-13.456,4.213
		c-1.529,1.173-4.08,2.229-5.991,2.481c-4.223,0.557-8.742,2.786-12.491,6.535c-3.749,3.75-5.979,8.271-6.536,12.494
		c-0.251,1.911-1.308,4.46-2.48,5.989C6.452,39.924,4.832,44.697,4.832,50c0,5.303,1.62,10.076,4.213,13.456
		c1.173,1.529,2.229,4.079,2.48,5.989c0.557,4.223,2.787,8.744,6.536,12.494c3.749,3.749,8.269,5.978,12.491,6.535
		c1.911,0.252,4.462,1.308,5.991,2.481c3.38,2.593,8.153,4.213,13.456,4.213s10.076-1.62,13.456-4.213
		c1.529-1.173,4.08-2.229,5.991-2.481c4.223-0.557,8.742-2.786,12.491-6.535c3.749-3.75,5.979-8.271,6.536-12.494
		c0.251-1.911,1.308-4.46,2.48-5.989c2.593-3.38,4.213-8.153,4.213-13.456c0-5.303-1.62-10.076-4.213-13.456
		C89.782,35.015,88.726,32.466,88.475,30.555z M55.407,75.615c0,1.105-0.896,2-2,2h-6.479c-1.104,0-2-0.895-2-2v-6.479
		c0-1.105,0.896-2,2-2h6.479c1.104,0,2,0.895,2,2V75.615z M67.658,44.648c-1.306,2.064-4.096,4.873-8.372,8.428
		c-2.213,1.84-3.587,3.319-4.121,4.438c-0.4,0.839-0.638,2.174-0.71,4.005c-0.043,1.104-0.913,1.999-2.018,1.999h-5.51
		c-1.104,0-2.01-0.56-2.021-1.25c-0.01-0.64-0.016-1.056-0.016-1.249c0-3.083,0.51-5.619,1.529-7.608
		c1.02-1.989,3.058-4.226,6.116-6.713c3.058-2.486,4.885-4.115,5.481-4.885c0.92-1.218,1.38-2.561,1.38-4.028
		c0-2.039-0.813-3.785-2.442-5.24s-3.822-2.182-6.582-2.182c-1.896,0-3.569,0.385-5.023,1.155c-0.976,0.517-2.354,1.692-3.019,2.574
		c-0.742,0.984-1.343,2.168-1.803,3.552c-0.349,1.048-1.411,1.82-2.508,1.684l-5.651-0.701c-1.097-0.136-1.944-1.143-1.748-2.23
		c0.65-3.6,2.467-6.718,5.45-9.353c3.518-3.108,8.136-4.662,13.854-4.662c6.017,0,10.802,1.573,14.357,4.718
		c3.555,3.145,5.333,6.806,5.333,10.983C69.616,40.397,68.963,42.585,67.658,44.648z"/>
</g>
</svg>
