<?xml version="1.0" encoding="iso-8859-1"?>
<!-- Generator: Adobe Illustrator 17.1.0, SVG Export Plug-In . SVG Version: 6.00 Build 0)  -->
<!DOCTYPE svg PUBLIC "-//W3C//DTD SVG 1.1//EN" "http://www.w3.org/Graphics/SVG/1.1/DTD/svg11.dtd">
<svg version="1.1" id="Capa_1" xmlns="http://www.w3.org/2000/svg" xmlns:xlink="http://www.w3.org/1999/xlink" x="0px" y="0px"
	 viewBox="0 0 100 100" style="enable-background:new 0 0 100 100;" xml:space="preserve">
<g>
	<path style="fill:#1D1D1B;" d="M58.688,76.235H41.851c-0.552,0-1,0.448-1,1v16.837c0,0.552,0.448,1,1,1h16.838c0.552,0,1-0.448,1-1
		V77.235C59.688,76.682,59.241,76.235,58.688,76.235z"/>
	<path style="fill:#1D1D1B;" d="M73.612,12.162C67.738,6.966,59.753,4.331,49.88,4.331c-9.396,0-17.108,2.604-22.922,7.741
		c-5.832,5.152-9.02,11.512-9.474,18.904c-0.032,0.527,0.351,0.989,0.875,1.054l15.459,1.917c0.042,0.005,0.083,0.008,0.124,0.008
		c0.465,0,0.876-0.324,0.977-0.789c1.026-4.75,2.91-8.314,5.601-10.593c2.677-2.268,6.068-3.418,10.079-3.418
		c4.16,0,7.494,1.094,9.91,3.251c2.416,2.158,3.591,4.668,3.591,7.673c0,2.153-0.659,4.073-2.015,5.869
		c-0.617,0.796-2.624,2.784-8.641,7.676c-4.999,4.064-8.392,7.801-10.086,11.105c-1.703,3.323-2.567,7.589-2.567,12.68
		c0,0.485,0.02,1.804,0.06,4.033c0.01,0.545,0.455,0.982,1,0.982h15.28c0.268,0,0.525-0.108,0.713-0.299s0.291-0.45,0.287-0.718
		c-0.077-4.456,0.284-7.551,1.071-9.199c0.792-1.658,2.931-3.943,6.358-6.793c7.017-5.834,11.484-10.34,13.658-13.776
		c2.19-3.463,3.301-7.191,3.301-11.08C82.518,23.579,79.521,17.39,73.612,12.162z"/>
</g>
</svg>
