<?xml version="1.0" encoding="iso-8859-1"?>
<!-- Generator: Adobe Illustrator 17.1.0, SVG Export Plug-In . SVG Version: 6.00 Build 0)  -->
<!DOCTYPE svg PUBLIC "-//W3C//DTD SVG 1.1//EN" "http://www.w3.org/Graphics/SVG/1.1/DTD/svg11.dtd">
<svg version="1.1" id="Layer_1" xmlns="http://www.w3.org/2000/svg" xmlns:xlink="http://www.w3.org/1999/xlink" x="0px" y="0px"
	 viewBox="0 0 64 64" style="enable-background:new 0 0 64 64;" xml:space="preserve">
<g>
	<path d="M54,26h-8v2v1h8c1.657,0,3,1.343,3,3v17c0,1.657-1.343,3-3,3H24c-1.657,0-3-1.343-3-3v-6h-2h-1v6c0,3.308,2.692,6,6,6h30
		c3.308,0,6-2.692,6-6V32C60,28.692,57.308,26,54,26z"/>
	<path d="M10.5,40H18h1h2h19.5c1.657,0,2.5-1.843,2.5-3.5V29v-1v-2v-6.5c0-1.657-0.843-2.5-2.5-2.5H40H10.5
		C8.843,17,7,17.843,7,19.5v17C7,38.157,8.843,40,10.5,40z"/>
</g>
</svg>
