<?xml version="1.0" encoding="iso-8859-1"?>
<!-- Generator: Adobe Illustrator 17.1.0, SVG Export Plug-In . SVG Version: 6.00 Build 0)  -->
<!DOCTYPE svg PUBLIC "-//W3C//DTD SVG 1.1//EN" "http://www.w3.org/Graphics/SVG/1.1/DTD/svg11.dtd">
<svg version="1.1" id="Capa_1" xmlns="http://www.w3.org/2000/svg" xmlns:xlink="http://www.w3.org/1999/xlink" x="0px" y="0px"
	 viewBox="0 0 100 100" style="enable-background:new 0 0 100 100;" xml:space="preserve">
<g>
	<path style="fill:#1D1D1B;" d="M64.586,50L44.18,81.938c-2.23,3.491-1.208,8.128,2.282,10.358c1.251,0.799,2.649,1.181,4.031,1.181
		c2.474,0,4.896-1.224,6.327-3.463l22.986-35.976c1.573-2.462,1.573-5.614,0-8.076L56.82,9.986
		c-2.23-3.491-6.868-4.512-10.358-2.282c-3.491,2.23-4.512,6.868-2.282,10.358L64.586,50z"/>
	<path style="fill:#1D1D1B;" d="M26.507,93.477c2.474,0,4.896-1.224,6.327-3.463L55.82,54.038c1.573-2.462,1.573-5.614,0-8.076
		L32.834,9.986c-2.231-3.491-6.868-4.512-10.358-2.282c-3.491,2.23-4.512,6.868-2.282,10.358L40.6,50L20.194,81.938
		c-2.23,3.491-1.208,8.128,2.282,10.358C23.727,93.096,25.125,93.477,26.507,93.477z"/>
</g>
</svg>
