<?xml version="1.0" encoding="iso-8859-1"?>
<!-- Generator: Adobe Illustrator 17.1.0, SVG Export Plug-In . SVG Version: 6.00 Build 0)  -->
<!DOCTYPE svg PUBLIC "-//W3C//DTD SVG 1.1//EN" "http://www.w3.org/Graphics/SVG/1.1/DTD/svg11.dtd">
<svg version="1.1" id="Capa_1" xmlns="http://www.w3.org/2000/svg" xmlns:xlink="http://www.w3.org/1999/xlink" x="0px" y="0px"
	 viewBox="0 0 100 100" style="enable-background:new 0 0 100 100;" xml:space="preserve">
<g>
	<path style="fill:#1D1D1B;" d="M88.475,30.555c-0.557-4.223-2.787-8.744-6.536-12.494c-3.749-3.749-8.269-5.978-12.491-6.535
		c-1.911-0.252-4.462-1.308-5.991-2.481C60.076,6.452,55.303,4.832,50,4.832s-10.076,1.62-13.456,4.213
		c-1.529,1.173-4.08,2.229-5.991,2.481c-4.223,0.557-8.742,2.786-12.491,6.535c-3.749,3.75-5.979,8.271-6.536,12.494
		c-0.251,1.911-1.308,4.46-2.48,5.989C6.452,39.924,4.832,44.697,4.832,50c0,5.303,1.62,10.076,4.213,13.456
		c1.173,1.529,2.229,4.079,2.48,5.989c0.557,4.223,2.787,8.744,6.536,12.494c3.749,3.749,8.269,5.978,12.491,6.535
		c1.911,0.252,4.462,1.308,5.991,2.481c3.38,2.593,8.153,4.213,13.456,4.213s10.076-1.62,13.456-4.213
		c1.529-1.173,4.08-2.229,5.991-2.481c4.223-0.557,8.742-2.786,12.491-6.535c3.749-3.75,5.979-8.271,6.536-12.494
		c0.251-1.911,1.308-4.46,2.48-5.989c2.593-3.38,4.213-8.153,4.213-13.456c0-5.303-1.62-10.076-4.213-13.456
		C89.782,35.015,88.726,32.466,88.475,30.555z M75.188,52.779L55.65,72.317c-1.535,1.535-2.779,1.019-2.779-1.151v-7.458H25.233
		c-0.868,0-1.572-0.704-1.572-1.572V37.865c0-0.868,0.704-1.572,1.572-1.572h27.638v-7.458c0-2.171,1.244-2.686,2.779-1.151
		l19.537,19.538C76.723,48.756,76.723,51.244,75.188,52.779z"/>
</g>
</svg>
