<?xml version="1.0" encoding="iso-8859-1"?>
<!-- Generator: Adobe Illustrator 17.1.0, SVG Export Plug-In . SVG Version: 6.00 Build 0)  -->
<!DOCTYPE svg PUBLIC "-//W3C//DTD SVG 1.1//EN" "http://www.w3.org/Graphics/SVG/1.1/DTD/svg11.dtd">
<svg version="1.1" id="Layer_1" xmlns="http://www.w3.org/2000/svg" xmlns:xlink="http://www.w3.org/1999/xlink" x="0px" y="0px"
	 viewBox="0 0 64 64" style="enable-background:new 0 0 64 64;" xml:space="preserve">
<g>
	<path d="M9,18.5V24h4v-5.5c0-4.136,3.813-7.5,8.5-7.5H27V7h-5.5C14.607,7,9,12.159,9,18.5z"/>
	<path d="M13,41.5V37H9v4.5C9,48.159,14.841,54,21.5,54H27v-4h-5.5C17.051,50,13,45.948,13,41.5z"/>
	<path d="M52,41.5c0,4.687-3.364,8.5-7.5,8.5H39v4h5.5C50.841,54,56,48.393,56,41.5V37h-4V41.5z"/>
	<path d="M44.5,7H39v4h5.5c4.416,0,7.5,3.084,7.5,7.5V24h4v-5.5C56,11.837,51.164,7,44.5,7z"/>
</g>
</svg>
