<?xml version="1.0" encoding="iso-8859-1"?>
<!-- Generator: Adobe Illustrator 17.1.0, SVG Export Plug-In . SVG Version: 6.00 Build 0)  -->
<!DOCTYPE svg PUBLIC "-//W3C//DTD SVG 1.1//EN" "http://www.w3.org/Graphics/SVG/1.1/DTD/svg11.dtd">
<svg version="1.1" id="Capa_1" xmlns="http://www.w3.org/2000/svg" xmlns:xlink="http://www.w3.org/1999/xlink" x="0px" y="0px"
	 viewBox="0 0 100 100" style="enable-background:new 0 0 100 100;" xml:space="preserve">
<g>
	<path style="fill:#1D1D1B;" d="M50,95.562c25.19,0,45.61-20.42,45.61-45.61c0-25.19-20.42-45.61-45.61-45.61
		S4.39,24.762,4.39,49.952C4.39,75.141,24.81,95.562,50,95.562z M71.659,37.288c4.535,0,8.21,3.676,8.21,8.21s-3.676,8.21-8.21,8.21
		c-4.534,0-8.21-3.676-8.21-8.21S67.125,37.288,71.659,37.288z M51.428,58.777c8.686,0,18.399,7.013,18.399,16.399
		c0,2.761-2.238,5-5,5s-5-2.239-5-5c0-3.05-4.396-6.399-8.399-6.399h-2.855c-4.004,0-8.399,3.349-8.399,6.399c0,2.761-2.238,5-5,5
		s-5-2.239-5-5c0-9.386,9.714-16.399,18.399-16.399H51.428z M28.341,37.288c4.534,0,8.21,3.676,8.21,8.21s-3.676,8.21-8.21,8.21
		c-4.535,0-8.21-3.676-8.21-8.21S23.807,37.288,28.341,37.288z"/>
</g>
</svg>
