<?xml version="1.0" encoding="iso-8859-1"?>
<!-- Generator: Adobe Illustrator 17.1.0, SVG Export Plug-In . SVG Version: 6.00 Build 0)  -->
<!DOCTYPE svg PUBLIC "-//W3C//DTD SVG 1.1//EN" "http://www.w3.org/Graphics/SVG/1.1/DTD/svg11.dtd">
<svg version="1.1" id="Capa_1" xmlns="http://www.w3.org/2000/svg" xmlns:xlink="http://www.w3.org/1999/xlink" x="0px" y="0px"
	 viewBox="0 0 100 100" style="enable-background:new 0 0 100 100;" xml:space="preserve">
<g>
	<path style="fill:#1D1D1B;" d="M50.131,4c-25.19,0-45.61,20.42-45.61,45.61c0,25.19,20.42,45.61,45.61,45.61
		s45.61-20.42,45.61-45.61C95.741,24.42,75.321,4,50.131,4z M20.262,45.157c0-4.534,3.676-8.21,8.21-8.21
		c4.534,0,8.21,3.676,8.21,8.21s-3.676,8.21-8.21,8.21C23.938,53.367,20.262,49.691,20.262,45.157z M63.58,73.667H36.42
		c-2.762,0-5-2.238-5-5s2.238-5,5-5h27.16c2.762,0,5,2.238,5,5S66.342,73.667,63.58,73.667z M71.79,53.367
		c-4.534,0-8.21-3.676-8.21-8.21s3.676-8.21,8.21-8.21c4.534,0,8.21,3.676,8.21,8.21S76.324,53.367,71.79,53.367z"/>
</g>
</svg>
