<?xml version="1.0" encoding="iso-8859-1"?>
<!-- Generator: Adobe Illustrator 17.1.0, SVG Export Plug-In . SVG Version: 6.00 Build 0)  -->
<!DOCTYPE svg PUBLIC "-//W3C//DTD SVG 1.1//EN" "http://www.w3.org/Graphics/SVG/1.1/DTD/svg11.dtd">
<svg version="1.1" id="Capa_1" xmlns="http://www.w3.org/2000/svg" xmlns:xlink="http://www.w3.org/1999/xlink" x="0px" y="0px"
	 viewBox="0 0 100 100" style="enable-background:new 0 0 100 100;" xml:space="preserve">
<g>
	<path style="fill:#1D1D1B;" d="M84.069,5.151H18.261c-0.991,0-1.848,0.362-2.571,1.085c-0.724,0.725-1.086,1.582-1.086,2.571
		v43.872c0,3.276,0.637,6.522,1.914,9.74c1.276,3.218,2.856,6.074,4.742,8.569c1.885,2.495,4.131,4.923,6.741,7.283
		c2.608,2.361,5.017,4.322,7.226,5.884c2.208,1.56,4.513,3.035,6.912,4.427c2.399,1.388,4.103,2.33,5.113,2.827
		c1.009,0.493,1.818,0.875,2.428,1.143c0.457,0.228,0.951,0.341,1.485,0.341c0.533,0,1.028-0.114,1.485-0.341
		c0.609-0.268,1.418-0.649,2.428-1.143c1.009-0.498,2.713-1.439,5.113-2.827c2.399-1.392,4.703-2.867,6.912-4.427
		c2.208-1.562,4.617-3.523,7.226-5.884c2.608-2.361,4.856-4.789,6.741-7.283c1.885-2.495,3.465-5.351,4.742-8.569
		c1.276-3.218,1.914-6.464,1.914-9.74V8.806c0-0.989-0.363-1.845-1.086-2.571C85.915,5.512,85.058,5.151,84.069,5.151z
		 M78.323,51.738c0,2.433-0.474,4.845-1.422,7.236c-0.948,2.39-2.122,4.512-3.522,6.365c-1.4,1.853-3.07,3.657-5.007,5.411
		c-1.938,1.754-3.728,3.211-5.368,4.371c-1.641,1.159-3.352,2.254-5.135,3.289c-1.782,1.031-3.049,1.731-3.798,2.1
		c-0.75,0.366-1.351,0.65-1.803,0.849c-0.339,0.169-0.707,0.254-1.103,0.254c-0.396,0-0.764-0.085-1.103-0.254
		c-0.453-0.199-1.054-0.482-1.803-0.849c-0.75-0.37-2.016-1.069-3.798-2.1c-1.782-1.034-3.494-2.13-5.135-3.289
		c-1.641-1.16-3.431-2.617-5.368-4.371c-1.938-1.754-3.607-3.557-5.007-5.411c-1.401-1.853-2.575-3.975-3.522-6.365
		c-0.948-2.39-1.422-4.802-1.422-7.236V19.148c0-0.734,0.269-1.371,0.806-1.91c0.537-0.537,1.174-0.806,1.91-0.806h48.885
		c0.735,0,1.372,0.269,1.91,0.806c0.537,0.539,0.806,1.175,0.806,1.91V51.738z"/>
</g>
</svg>
