<?xml version="1.0" encoding="iso-8859-1"?>
<!-- Generator: Adobe Illustrator 17.1.0, SVG Export Plug-In . SVG Version: 6.00 Build 0)  -->
<!DOCTYPE svg PUBLIC "-//W3C//DTD SVG 1.1//EN" "http://www.w3.org/Graphics/SVG/1.1/DTD/svg11.dtd">
<svg version="1.1" id="Capa_1" xmlns="http://www.w3.org/2000/svg" xmlns:xlink="http://www.w3.org/1999/xlink" x="0px" y="0px"
	 viewBox="0 0 100 100" style="enable-background:new 0 0 100 100;" xml:space="preserve">
<g>
	<path d="M90.209,49.999c0-5.444-1.057-10.651-3.17-15.62c-2.113-4.969-4.969-9.252-8.567-12.851
		c-3.598-3.599-7.882-6.454-12.851-8.567C60.652,10.848,55.445,9.791,50,9.791c-2.78,0-5.636,0.306-8.567,0.915
		c-3.961-3.045-8.416-4.569-13.365-4.569c-6.054,0-11.223,2.142-15.507,6.425s-6.426,9.451-6.426,15.506
		c0,4.951,1.522,9.406,4.569,13.364c-0.61,2.934-0.914,5.79-0.914,8.567c0,5.446,1.057,10.653,3.17,15.622
		c2.113,4.969,4.969,9.252,8.567,12.851c3.598,3.599,7.882,6.454,12.851,8.567c4.969,2.113,10.176,3.17,15.621,3.17
		c2.779,0,5.635-0.306,8.567-0.915c3.96,3.045,8.415,4.569,13.365,4.569c6.054,0,11.223-2.142,15.507-6.425
		c4.284-4.284,6.426-9.453,6.426-15.506c0-4.951-1.523-9.404-4.569-13.366C89.904,55.637,90.209,52.781,90.209,49.999z
		 M71.247,67.049c-1.257,2.227-2.942,4.009-5.055,5.341c-2.113,1.332-4.446,2.352-6.997,3.054c-2.552,0.705-5.217,1.058-7.996,1.058
		c-6.435,0-11.976-1.247-16.621-3.742c-4.646-2.494-6.968-5.493-6.968-8.996c0-1.713,0.485-3.141,1.457-4.284
		c0.971-1.142,2.407-1.713,4.312-1.713c1.104,0,2.132,0.306,3.084,0.915c0.951,0.609,1.828,1.341,2.627,2.198
		c0.8,0.857,1.665,1.714,2.599,2.57c0.933,0.857,2.17,1.591,3.713,2.2c1.542,0.609,3.284,0.913,5.226,0.913
		c2.474,0,4.474-0.484,5.997-1.455c1.522-0.973,2.285-2.2,2.285-3.686c0-1.522-0.61-2.664-1.828-3.427
		c-0.838-0.531-2.97-1.216-6.397-2.055l-8.339-2.057c-2.285-0.531-4.246-1.151-5.883-1.856c-1.638-0.703-3.161-1.626-4.569-2.769
		c-1.409-1.142-2.475-2.579-3.198-4.313c-0.724-1.731-1.085-3.759-1.085-6.084c0-2.778,0.637-5.225,1.913-7.338
		c1.275-2.113,2.97-3.771,5.083-4.969c2.113-1.2,4.388-2.095,6.825-2.686c2.436-0.589,4.949-0.884,7.539-0.884
		c3.655,0,7.12,0.437,10.395,1.312c3.274,0.877,5.978,2.162,8.11,3.855c2.132,1.696,3.198,3.59,3.198,5.685
		c0,1.713-0.543,3.179-1.628,4.397c-1.085,1.218-2.523,1.827-4.312,1.827c-0.99,0-1.904-0.228-2.741-0.685
		c-0.838-0.457-1.599-1.008-2.285-1.658c-0.685-0.645-1.409-1.285-2.17-1.912c-0.762-0.629-1.79-1.171-3.084-1.629
		c-1.295-0.457-2.761-0.685-4.398-0.685c-5.483,0-8.224,1.468-8.224,4.397c0,0.649,0.143,1.22,0.428,1.713
		c0.286,0.498,0.6,0.897,0.942,1.2c0.343,0.306,0.914,0.609,1.713,0.913c0.8,0.306,1.465,0.527,1.999,0.658
		c0.533,0.134,1.371,0.332,2.513,0.6l5.94,1.37c1.865,0.419,3.531,0.857,4.998,1.314c1.465,0.457,3.036,1.104,4.712,1.941
		c1.675,0.839,3.065,1.771,4.17,2.8c1.104,1.026,2.027,2.331,2.77,3.911c0.743,1.582,1.114,3.324,1.114,5.227
		C73.132,62.319,72.503,64.822,71.247,67.049z"/>
</g>
</svg>
