<?xml version="1.0" encoding="iso-8859-1"?>
<!-- Generator: Adobe Illustrator 17.1.0, SVG Export Plug-In . SVG Version: 6.00 Build 0)  -->
<!DOCTYPE svg PUBLIC "-//W3C//DTD SVG 1.1//EN" "http://www.w3.org/Graphics/SVG/1.1/DTD/svg11.dtd">
<svg version="1.1" id="Capa_1" xmlns="http://www.w3.org/2000/svg" xmlns:xlink="http://www.w3.org/1999/xlink" x="0px" y="0px"
	 viewBox="0 0 100 100" style="enable-background:new 0 0 100 100;" xml:space="preserve">
<g>
	<path style="fill:#1D1D1B;" d="M50,4.341c-25.19,0-45.61,20.42-45.61,45.61c0,25.19,20.42,45.61,45.61,45.61
		s45.61-20.42,45.61-45.61C95.61,24.762,75.19,4.341,50,4.341z M20.131,45.498c0-4.534,3.676-8.21,8.21-8.21
		c4.534,0,8.21,3.676,8.21,8.21s-3.676,8.21-8.21,8.21C23.807,53.708,20.131,50.032,20.131,45.498z M51.428,82.177h-2.855
		c-8.686,0-18.399-7.013-18.399-16.399c0-2.761,2.238-5,5-5s5,2.239,5,5c0,3.05,4.396,6.399,8.399,6.399h2.855
		c4.004,0,8.399-3.349,8.399-6.399c0-2.761,2.238-5,5-5s5,2.239,5,5C69.827,75.164,60.113,82.177,51.428,82.177z M71.659,53.708
		c-4.534,0-8.21-3.676-8.21-8.21s3.676-8.21,8.21-8.21c4.535,0,8.21,3.676,8.21,8.21S76.193,53.708,71.659,53.708z"/>
</g>
</svg>
