<?xml version="1.0" encoding="iso-8859-1"?>
<!-- Generator: Adobe Illustrator 17.1.0, SVG Export Plug-In . SVG Version: 6.00 Build 0)  -->
<!DOCTYPE svg PUBLIC "-//W3C//DTD SVG 1.1//EN" "http://www.w3.org/Graphics/SVG/1.1/DTD/svg11.dtd">
<svg version="1.1" id="Capa_1" xmlns="http://www.w3.org/2000/svg" xmlns:xlink="http://www.w3.org/1999/xlink" x="0px" y="0px"
	 viewBox="0 0 100 100" style="enable-background:new 0 0 100 100;" xml:space="preserve">
<g>
	<path style="fill:#1D1D1B;" d="M55.847,68.827h-8.643V5.798c0-1.006-0.816-1.822-1.822-1.822H17.255
		c-1.006,0-1.822,0.816-1.822,1.822v63.029H6.79c-2.515,0-3.113,1.442-1.334,3.221L28.098,94.69c1.779,1.779,4.662,1.779,6.441,0
		l22.642-22.642C58.96,70.269,58.363,68.827,55.847,68.827z"/>
	<path style="fill:#1D1D1B;" d="M82.08,44.012c-0.152-0.379-0.52-0.628-0.928-0.628h-5.327c-0.412,0-0.782,0.253-0.932,0.637
		l-9.718,24.95c-0.12,0.308-0.08,0.655,0.106,0.927c0.186,0.273,0.495,0.436,0.825,0.436h5.344c0.421,0,0.796-0.263,0.94-0.659
		l1.82-5.009h8.585l1.932,5.026c0.148,0.386,0.52,0.641,0.933,0.641h5.48c0.332,0,0.642-0.165,0.828-0.44
		c0.186-0.275,0.224-0.624,0.1-0.932L82.08,44.012z M80.428,58.463h-3.941l1.951-5.36L80.428,58.463z"/>
	<path style="fill:#1D1D1B;" d="M67.489,27.46v4.544c0,0.552,0.448,1,1,1h20.27c0.552,0,1-0.448,1-1v-4.204c0-0.552-0.448-1-1-1
		H76.665l12.343-15.202c0.145-0.178,0.224-0.401,0.224-0.63V7.054c0-0.552-0.448-1-1-1H69.97c-0.552,0-1,0.448-1,1v4.221
		c0,0.552,0.448,1,1,1h9.528L67.712,26.831C67.568,27.009,67.489,27.231,67.489,27.46z"/>
</g>
</svg>
