<?xml version="1.0" encoding="iso-8859-1"?>
<!-- Generator: Adobe Illustrator 17.1.0, SVG Export Plug-In . SVG Version: 6.00 Build 0)  -->
<!DOCTYPE svg PUBLIC "-//W3C//DTD SVG 1.1//EN" "http://www.w3.org/Graphics/SVG/1.1/DTD/svg11.dtd">
<svg version="1.1" id="Capa_1" xmlns="http://www.w3.org/2000/svg" xmlns:xlink="http://www.w3.org/1999/xlink" x="0px" y="0px"
	 viewBox="0 0 100 100" style="enable-background:new 0 0 100 100;" xml:space="preserve">
<g>
	<path style="fill:#1D1D1B;" d="M66.297,56.473c0.412-4.803,0.629-9.046,0.653-12.728c-0.023-8.165-1.248-15.188-3.671-21.065
		c-2.425-5.878-6.484-11.664-12.18-17.36c-0.297-0.297-0.669-0.44-1.115-0.429c-0.446,0.012-0.829,0.178-1.149,0.498
		c-5.969,5.97-10.086,11.711-12.352,17.222c-2.264,5.513-3.407,12.558-3.43,21.134c0.023,3.684,0.241,7.926,0.652,12.728
		c-16.296,0-7.17,35.989-7.17,35.989c0.184,0.733,0.687,1.122,1.51,1.167l4.391,0c0.412,0,0.777-0.16,1.097-0.481
		c0.137-0.137,0.229-0.251,0.275-0.342l6.553-12.385l19.28-0.001l6.553,12.386c0.297,0.526,0.754,0.8,1.372,0.823l4.392,0.001
		c0.456-0.046,0.823-0.206,1.097-0.481c0.206-0.206,0.343-0.434,0.412-0.686C73.468,92.463,82.094,56.473,66.297,56.473z
		 M53.294,55.472c-0.915,0.915-2.012,1.374-3.292,1.373c-1.281,0-2.378-0.457-3.294-1.373s-1.373-2.013-1.373-3.294
		c-0.001-1.281,0.457-2.379,1.372-3.294c0.915-0.914,2.013-1.372,3.294-1.372c1.281,0,2.378,0.457,3.294,1.373
		c0.915,0.915,1.372,2.013,1.373,3.294C54.667,53.461,54.208,54.557,53.294,55.472z M53.294,42.472
		c-0.915,0.915-2.012,1.374-3.292,1.373c-1.281,0-2.378-0.457-3.294-1.373s-1.373-2.013-1.373-3.294
		c-0.001-1.281,0.457-2.379,1.372-3.294c0.915-0.914,2.013-1.372,3.294-1.372c1.281,0,2.378,0.457,3.294,1.373
		c0.915,0.915,1.372,2.013,1.373,3.294C54.667,40.461,54.208,41.557,53.294,42.472z M53.294,29.472
		c-0.915,0.915-2.012,1.374-3.292,1.373c-1.281,0-2.378-0.457-3.294-1.373s-1.373-2.013-1.373-3.294
		c-0.001-1.281,0.457-2.379,1.372-3.294c0.915-0.914,2.013-1.372,3.294-1.372c1.281,0,2.378,0.457,3.294,1.373
		c0.915,0.915,1.372,2.013,1.373,3.294C54.667,27.461,54.208,28.557,53.294,29.472z"/>
</g>
</svg>
