<?xml version="1.0" encoding="iso-8859-1"?>
<!-- Generator: Adobe Illustrator 17.1.0, SVG Export Plug-In . SVG Version: 6.00 Build 0)  -->
<!DOCTYPE svg PUBLIC "-//W3C//DTD SVG 1.1//EN" "http://www.w3.org/Graphics/SVG/1.1/DTD/svg11.dtd">
<svg version="1.1" id="Capa_1" xmlns="http://www.w3.org/2000/svg" xmlns:xlink="http://www.w3.org/1999/xlink" x="0px" y="0px"
	 viewBox="0 0 100 100" style="enable-background:new 0 0 100 100;" xml:space="preserve">
<g>
	<path style="fill:#000100;" d="M92.246,30.3H71.711v26.496c0,3.858-3.139,6.997-6.997,6.997h-31.62v8.872
		c0,2.207,1.79,3.997,3.997,3.997h31.065l12.981,10.842c1.694,1.415,2.605,0.833,2.035-1.299l-2.536-9.479
		c-0.006-0.022-0.018-0.042-0.024-0.064h11.634c2.208,0,3.997-1.789,3.997-3.997V34.297C96.243,32.09,94.454,30.3,92.246,30.3z"/>
	<path style="fill:#000100;" d="M63.714,59.793c2.208,0,3.997-1.789,3.997-3.997V30.3V17.428c0-0.848-0.268-1.631-0.718-2.278
		c-0.722-1.037-1.919-1.719-3.279-1.719H8.56c-2.208,0-3.997,1.789-3.997,3.997v38.368c0,1.359,0.682,2.556,1.718,3.278
		c0.647,0.451,1.431,0.719,2.279,0.719h6.109c-0.006,0.022-0.018,0.042-0.023,0.064l-0.25,0.936l-2.286,8.543
		c-0.36,1.344-0.131,2.072,0.512,2.072c0.098,0,0.208-0.019,0.324-0.053c0.332-0.098,0.735-0.333,1.198-0.72l12.981-10.842h5.97
		H63.714z M14.669,49.793h-0.106V23.431h43.148V30.3v19.493H33.095h-5.97h-3.627H14.669z"/>
</g>
</svg>
