<?xml version="1.0" encoding="iso-8859-1"?>
<!-- Generator: Adobe Illustrator 17.1.0, SVG Export Plug-In . SVG Version: 6.00 Build 0)  -->
<!DOCTYPE svg PUBLIC "-//W3C//DTD SVG 1.1//EN" "http://www.w3.org/Graphics/SVG/1.1/DTD/svg11.dtd">
<svg version="1.1" id="Capa_1" xmlns="http://www.w3.org/2000/svg" xmlns:xlink="http://www.w3.org/1999/xlink" x="0px" y="0px"
	 viewBox="0 0 100 100" style="enable-background:new 0 0 100 100;" xml:space="preserve">
<g>
	<path style="fill:#1D1D1B;" d="M89.425,32.099L69.822,27.6L57.521,8.63c-1.794-2.767-4.552-4.354-7.567-4.354
		c-3.015,0-5.773,1.587-7.567,4.354L30.085,27.6l-19.603,4.499c-3.298,0.757-5.731,2.854-6.677,5.754
		c-0.946,2.9-0.216,6.029,2.002,8.584L20.315,63.15L18.11,83.882c-0.296,2.783,0.486,5.366,2.203,7.275
		c2.274,2.528,5.904,3.459,9.469,2.378l20.172-6.122l20.173,6.123c0.991,0.3,1.991,0.452,2.973,0.452
		c2.546,0,4.853-1.006,6.495-2.831c1.716-1.908,2.499-4.491,2.203-7.275L79.592,63.15l14.508-16.714
		c2.217-2.556,2.947-5.684,2.001-8.584C95.156,34.953,92.723,32.856,89.425,32.099z M67.107,59.227l2.292,21.548l-19.445-5.902
		l-19.445,5.902l2.292-21.548L18.368,42.601l19.14-4.393l12.445-19.191l12.446,19.191l19.14,4.393L67.107,59.227z"/>
</g>
</svg>
