<?xml version="1.0" encoding="iso-8859-1"?>
<!-- Generator: Adobe Illustrator 17.1.0, SVG Export Plug-In . SVG Version: 6.00 Build 0)  -->
<!DOCTYPE svg PUBLIC "-//W3C//DTD SVG 1.1//EN" "http://www.w3.org/Graphics/SVG/1.1/DTD/svg11.dtd">
<svg version="1.1" id="Capa_1" xmlns="http://www.w3.org/2000/svg" xmlns:xlink="http://www.w3.org/1999/xlink" x="0px" y="0px"
	 viewBox="0 0 100 100" style="enable-background:new 0 0 100 100;" xml:space="preserve">
<g>
	<path d="M5.005,65.154L5.006,75.39c0,2.003,0.725,3.73,2.174,5.179c1.448,1.448,3.175,2.172,5.179,2.173l73.728-0.041
		c2.002,0,3.729-0.723,5.178-2.172s2.172-3.175,2.174-5.179l-0.041-10.196c-3.034,0-5.632-1.084-7.799-3.251
		c-2.167-2.167-3.251-4.765-3.25-7.798c-0.002-3.032,1.083-5.632,3.25-7.8c2.166-2.166,4.764-3.249,7.798-3.249V32.901
		c0.001-2.005-0.724-3.732-2.172-5.18c-1.449-1.449-3.176-2.173-5.18-2.172l-73.645-0.041c-2.005,0.001-3.731,0.725-5.18,2.173
		c-1.45,1.45-2.174,3.176-2.173,5.179l-0.04,10.195c3.032,0.001,5.631,1.084,7.798,3.251c2.166,2.166,3.249,4.766,3.251,7.798
		c-0.001,3.033-1.085,5.634-3.25,7.8C10.637,64.071,8.038,65.154,5.005,65.154z M31.217,48.872l10.824-2.484l6.711-10.349
		c0.689-1.063,1.806-1.063,2.496,0l6.711,10.349l10.824,2.484c1.235,0.283,1.562,1.288,0.732,2.245l-7.99,9.205l1.222,11.492
		c0.134,1.26-0.74,1.982-1.952,1.615L50,70.151l-10.796,3.277c-1.212,0.368-2.086-0.355-1.952-1.615l1.222-11.492l-7.99-9.205
		C29.655,50.161,29.982,49.156,31.217,48.872z"/>
</g>
</svg>
