<?xml version="1.0" encoding="iso-8859-1"?>
<!-- Generator: Adobe Illustrator 17.1.0, SVG Export Plug-In . SVG Version: 6.00 Build 0)  -->
<!DOCTYPE svg PUBLIC "-//W3C//DTD SVG 1.1//EN" "http://www.w3.org/Graphics/SVG/1.1/DTD/svg11.dtd">
<svg version="1.1" id="Capa_1" xmlns="http://www.w3.org/2000/svg" xmlns:xlink="http://www.w3.org/1999/xlink" x="0px" y="0px"
	 viewBox="0 0 100 100" style="enable-background:new 0 0 100 100;" xml:space="preserve">
<g>
	<path style="fill:#1D1D1B;" d="M70.641,75.562c0.174-0.325,0.156-0.719-0.048-1.026L48.282,40.959l20.283-31.67
		c0.197-0.308,0.211-0.699,0.035-1.019c-0.175-0.321-0.512-0.52-0.877-0.52H52.202c-0.348,0-0.671,0.181-0.853,0.478L39.161,28.161
		L26.714,8.22c-0.183-0.293-0.503-0.47-0.848-0.47H10.208c-0.366,0-0.703,0.2-0.878,0.522s-0.16,0.714,0.039,1.021l20.191,31.175
		L7.244,74.542c-0.201,0.307-0.218,0.7-0.043,1.023c0.175,0.323,0.512,0.525,0.88,0.525h16.064c0.34,0,0.657-0.173,0.841-0.459
		l13.91-21.633l13.866,21.632c0.184,0.287,0.501,0.46,0.842,0.46H69.76C70.128,76.09,70.467,75.887,70.641,75.562z"/>
	<path style="fill:#1D1D1B;" d="M84.882,80.639c1.873-1.718,3.142-3.01,3.879-3.949c1.105-1.406,1.928-2.782,2.447-4.088
		c0.529-1.334,0.797-2.757,0.797-4.229c0-2.651-0.96-4.9-2.853-6.687c-1.877-1.771-4.457-2.669-7.669-2.669
		c-2.915,0-5.393,0.765-7.365,2.274c-2.02,1.545-3.232,4.071-3.602,7.506c-0.029,0.265,0.05,0.53,0.218,0.737
		s0.412,0.338,0.677,0.365l5.734,0.573c0.033,0.003,0.067,0.005,0.1,0.005c0.236,0,0.465-0.083,0.646-0.237
		c0.207-0.175,0.334-0.427,0.351-0.698c0.091-1.405,0.418-2.432,0.945-2.969c0.519-0.529,1.223-0.786,2.153-0.786
		c0.948,0,1.651,0.242,2.15,0.741c0.499,0.499,0.741,1.235,0.741,2.252c0,0.954-0.343,1.952-1.02,2.968
		c-0.367,0.537-1.472,1.805-4.621,4.738c-3.32,3.081-5.495,5.507-6.646,7.413c-1.163,1.926-1.871,3.996-2.104,6.154
		c-0.031,0.282,0.06,0.564,0.25,0.776s0.46,0.332,0.744,0.332h20.171c0.552,0,1-0.448,1-1v-5.345c0-0.552-0.448-1-1-1h-9.442
		C82.056,83.276,83.172,82.208,84.882,80.639z"/>
</g>
</svg>
