<?xml version="1.0" encoding="iso-8859-1"?>
<!-- Generator: Adobe Illustrator 17.1.0, SVG Export Plug-In . SVG Version: 6.00 Build 0)  -->
<!DOCTYPE svg PUBLIC "-//W3C//DTD SVG 1.1//EN" "http://www.w3.org/Graphics/SVG/1.1/DTD/svg11.dtd">
<svg version="1.1" id="Capa_1" xmlns="http://www.w3.org/2000/svg" xmlns:xlink="http://www.w3.org/1999/xlink" x="0px" y="0px"
	 viewBox="0 0 100 100" style="enable-background:new 0 0 100 100;" xml:space="preserve">
<g>
	<path style="fill:#1D1D1B;" d="M50.848,56.57L71.131,24.9c0.197-0.308,0.21-0.699,0.035-1.019c-0.176-0.321-0.512-0.52-0.877-0.52
		H54.768c-0.348,0-0.671,0.181-0.853,0.478L41.726,43.772L29.279,23.831c-0.183-0.293-0.503-0.47-0.848-0.47H12.773
		c-0.366,0-0.704,0.2-0.878,0.522c-0.175,0.322-0.16,0.714,0.039,1.021l20.19,31.175L9.81,90.153
		c-0.201,0.307-0.218,0.7-0.043,1.023c0.175,0.323,0.513,0.525,0.88,0.525h16.064c0.34,0,0.657-0.173,0.841-0.459l13.91-21.633
		L55.329,91.24c0.184,0.287,0.501,0.46,0.842,0.46h16.155c0.369,0,0.707-0.203,0.881-0.527s0.155-0.719-0.048-1.026L50.848,56.57z"
		/>
	<path style="fill:#1D1D1B;" d="M86.374,28.363c1.873-1.718,3.141-3.01,3.878-3.949c1.105-1.407,1.929-2.782,2.447-4.088
		c0.529-1.335,0.797-2.758,0.797-4.229c0-2.651-0.96-4.9-2.853-6.687c-1.877-1.771-4.458-2.669-7.67-2.669
		c-2.915,0-5.393,0.765-7.365,2.274c-2.02,1.545-3.231,4.071-3.602,7.506c-0.029,0.265,0.05,0.53,0.218,0.737
		c0.168,0.207,0.412,0.338,0.677,0.365l5.734,0.573c0.033,0.003,0.066,0.005,0.1,0.005c0.236,0,0.465-0.083,0.646-0.237
		c0.207-0.175,0.334-0.427,0.352-0.698c0.091-1.405,0.417-2.432,0.944-2.969c0.519-0.529,1.223-0.786,2.153-0.786
		c0.947,0,1.65,0.242,2.149,0.741c0.499,0.499,0.741,1.235,0.741,2.252c0,0.955-0.343,1.953-1.02,2.968
		c-0.367,0.537-1.472,1.804-4.621,4.738c-3.319,3.08-5.494,5.505-6.646,7.413c-1.163,1.926-1.871,3.997-2.104,6.154
		c-0.031,0.282,0.061,0.564,0.25,0.775c0.19,0.211,0.46,0.332,0.744,0.332h20.171c0.552,0,1-0.448,1-1v-5.345c0-0.552-0.448-1-1-1
		h-9.442C83.548,31,84.664,29.932,86.374,28.363z"/>
</g>
</svg>
