<?xml version="1.0" encoding="iso-8859-1"?>
<!-- Generator: Adobe Illustrator 17.1.0, SVG Export Plug-In . SVG Version: 6.00 Build 0)  -->
<!DOCTYPE svg PUBLIC "-//W3C//DTD SVG 1.1//EN" "http://www.w3.org/Graphics/SVG/1.1/DTD/svg11.dtd">
<svg version="1.1" id="Capa_1" xmlns="http://www.w3.org/2000/svg" xmlns:xlink="http://www.w3.org/1999/xlink" x="0px" y="0px"
	 viewBox="0 0 100 100" style="enable-background:new 0 0 100 100;" xml:space="preserve">
<g>
	<path d="M50,3.5C24.36,3.5,3.5,24.36,3.5,50S24.36,96.5,50,96.5S96.5,75.64,96.5,50S75.64,3.5,50,3.5z M50,86.5
		c-20.126,0-36.5-16.374-36.5-36.5S29.874,13.5,50,13.5S86.5,29.874,86.5,50S70.126,86.5,50,86.5z"/>
	<path d="M50,22.08c-15.395,0-27.92,12.525-27.92,27.92S34.605,77.92,50,77.92S77.92,65.395,77.92,50S65.395,22.08,50,22.08z
		 M50,67.92c-9.881,0-17.92-8.039-17.92-17.92S40.119,32.08,50,32.08S67.92,40.119,67.92,50S59.881,67.92,50,67.92z"/>
	<circle cx="50" cy="50" r="10.61"/>
</g>
</svg>
