<?xml version="1.0" encoding="iso-8859-1"?>
<!-- Generator: Adobe Illustrator 17.1.0, SVG Export Plug-In . SVG Version: 6.00 Build 0)  -->
<!DOCTYPE svg PUBLIC "-//W3C//DTD SVG 1.1//EN" "http://www.w3.org/Graphics/SVG/1.1/DTD/svg11.dtd">
<svg version="1.1" id="Capa_1" xmlns="http://www.w3.org/2000/svg" xmlns:xlink="http://www.w3.org/1999/xlink" x="0px" y="0px"
	 viewBox="0 0 100 100" style="enable-background:new 0 0 100 100;" xml:space="preserve">
<g>
	<path style="fill:#1D1D1B;" d="M83.5,12.125h-33c-2.348,0-4.25,1.903-4.25,4.25c0,2.347,1.902,4.25,4.25,4.25h33
		c2.348,0,4.25-1.903,4.25-4.25C87.75,14.028,85.848,12.125,83.5,12.125z"/>
	<path style="fill:#1D1D1B;" d="M83.5,34.125h-59c-2.348,0-4.25,1.903-4.25,4.25c0,2.347,1.902,4.25,4.25,4.25h59
		c2.348,0,4.25-1.903,4.25-4.25C87.75,36.028,85.848,34.125,83.5,34.125z"/>
	<path style="fill:#1D1D1B;" d="M83.5,56.125h-51c-2.348,0-4.25,1.903-4.25,4.25c0,2.347,1.902,4.25,4.25,4.25h51
		c2.348,0,4.25-1.903,4.25-4.25C87.75,58.028,85.848,56.125,83.5,56.125z"/>
	<path style="fill:#1D1D1B;" d="M83.5,79.375h-67c-2.348,0-4.25,1.903-4.25,4.25c0,2.347,1.902,4.25,4.25,4.25h67
		c2.348,0,4.25-1.903,4.25-4.25C87.75,81.278,85.848,79.375,83.5,79.375z"/>
</g>
</svg>
