<?xml version="1.0" encoding="iso-8859-1"?>
<!-- Generator: Adobe Illustrator 17.1.0, SVG Export Plug-In . SVG Version: 6.00 Build 0)  -->
<!DOCTYPE svg PUBLIC "-//W3C//DTD SVG 1.1//EN" "http://www.w3.org/Graphics/SVG/1.1/DTD/svg11.dtd">
<svg version="1.1" id="Capa_1" xmlns="http://www.w3.org/2000/svg" xmlns:xlink="http://www.w3.org/1999/xlink" x="0px" y="0px"
	 viewBox="0 0 100 100" style="enable-background:new 0 0 100 100;" xml:space="preserve">
<g>
	<path style="fill:#1D1D1B;" d="M17.359,31.888c0,5.804,3.819,6.431,5.461,6.431c2.589,0,5.675-1.432,5.675-8.251
		c0-1.175-0.039-2.129-0.115-2.836l-0.429-3.959c-0.065-0.581-0.097-1.75-0.097-3.476c0-4.144,1.914-5.992,6.207-5.992h3.317
		c4.367,0,6.314,1.88,6.314,6.096v43.461c0,6.532-2.798,6.532-3.851,6.532c-0.464,0-1.23-0.083-2.344-0.253
		c-1.284-0.196-2.172-0.287-2.793-0.287c-3.13,0-4.926,1.794-4.926,4.923c0,1.577,0.605,5.246,6.208,5.246h0.749l0.354-0.042
		c0.231-0.057,0.355-0.062,0.397-0.062l5.557-0.764c1.973-0.273,4.316-0.412,6.965-0.412c2.433,0,4.63,0.139,6.533,0.412
		l5.244,0.749l0.194,0.015c0.104,0.005,0.264,0.035,0.482,0.077l0.928,0.027c5.702,0,6.317-3.669,6.317-5.246
		c0-1.311-0.503-2.508-1.457-3.466c-0.968-0.967-2.135-1.457-3.469-1.457c-0.624,0-1.512,0.091-2.794,0.287
		c-1.115,0.17-1.881,0.253-2.343,0.253c-1.083,0-3.96,0-3.96-6.532l-0.002-36.31l0.429-7.495c0.119-2.168,0.615-3.689,1.475-4.521
		c0.841-0.817,2.398-1.231,4.628-1.231h2.997c6.166,0,6.957,3.16,6.957,5.914c0,1.253-0.107,3.148-0.317,5.633
		c-0.219,2.609-0.325,4.531-0.325,5.875c0,5.981,3.489,6.875,5.568,6.875c3.607,0,5.675-2.147,5.675-5.89
		c0-0.486-0.045-1.606-0.436-5.707c-0.208-2.226-0.313-3.87-0.313-4.887v-1.112c0.211-2.179,0.405-4.23,0.582-6.138
		c0.187-2.042,0.274-3.345,0.274-4.1v-0.214c0-2.198-0.889-5.886-6.844-5.886c-1.685,0-4.018,0.095-6.924,0.281
		c-3.302,0.189-5.546,0.281-6.889,0.281C55.554,4.86,52.143,4.917,50.81,4.917L38.708,4.918c-8.256-0.433-8.682-0.431-8.754-0.431
		c-3.622-0.212-5.989-0.32-7.033-0.32c-3.533,0-5.56,2.183-5.562,5.989v0v0.005l1.101,0l-1.07,0.142
		c0.017,0.128,0.083,0.851,0.329,4.768c0.117,1.911,0.176,3.753,0.176,5.476c0,0.62-0.055,2.239-0.319,6.431
		C17.432,29.264,17.359,30.917,17.359,31.888z M17.469,10.158l1.017,0l-0.003,0L17.469,10.158z"/>
	<path style="fill:#1D1D1B;" d="M75.636,76.427c-0.737-0.737-1.335-0.49-1.335,0.553v5.739H24.423V76.98
		c0-1.043-0.598-1.291-1.335-0.553l-8.457,8.457c-0.738,0.737-0.738,1.933,0,2.671l8.457,8.457c0.737,0.737,1.335,0.49,1.335-0.553
		V89.72H74.3v5.739c0,1.043,0.598,1.291,1.335,0.553l8.457-8.457c0.738-0.737,0.738-1.933,0-2.671L75.636,76.427z"/>
</g>
</svg>
