<?xml version="1.0" encoding="iso-8859-1"?>
<!-- Generator: Adobe Illustrator 17.1.0, SVG Export Plug-In . SVG Version: 6.00 Build 0)  -->
<!DOCTYPE svg PUBLIC "-//W3C//DTD SVG 1.1//EN" "http://www.w3.org/Graphics/SVG/1.1/DTD/svg11.dtd">
<svg version="1.1" id="Capa_1" xmlns="http://www.w3.org/2000/svg" xmlns:xlink="http://www.w3.org/1999/xlink" x="0px" y="0px"
	 viewBox="0 0 100 100" style="enable-background:new 0 0 100 100;" xml:space="preserve">
<g>
	<path style="fill:#1D1D1B;" d="M87.488,15.455H14.756c-2.872,0-5.208,2.336-5.208,5.208s2.336,5.208,5.208,5.208h72.732
		c2.872,0,5.208-2.336,5.208-5.208S90.359,15.455,87.488,15.455z"/>
	<path style="fill:#1D1D1B;" d="M87.488,34.649H51.756c-2.872,0-5.208,2.336-5.208,5.208s2.336,5.208,5.208,5.208h35.732
		c2.872,0,5.208-2.336,5.208-5.208S90.359,34.649,87.488,34.649z"/>
	<path style="fill:#1D1D1B;" d="M87.488,53.844H51.756c-2.872,0-5.208,2.336-5.208,5.208s2.336,5.208,5.208,5.208h35.732
		c2.872,0,5.208-2.336,5.208-5.208S90.359,53.844,87.488,53.844z"/>
	<path style="fill:#1D1D1B;" d="M87.488,74.129H14.756c-2.872,0-5.208,2.336-5.208,5.208s2.336,5.209,5.208,5.209h72.732
		c2.872,0,5.208-2.337,5.208-5.209S90.359,74.129,87.488,74.129z"/>
	<path style="fill:#1D1D1B;" d="M12.506,52.009l24.387,13.914c1.945,1.11,3.521,0.194,3.521-2.045V36.121
		c0-2.239-1.577-3.155-3.521-2.045L12.506,47.991C10.562,49.1,10.562,50.9,12.506,52.009z"/>
</g>
</svg>
