<?xml version="1.0" encoding="iso-8859-1"?>
<!-- Generator: Adobe Illustrator 17.1.0, SVG Export Plug-In . SVG Version: 6.00 Build 0)  -->
<!DOCTYPE svg PUBLIC "-//W3C//DTD SVG 1.1//EN" "http://www.w3.org/Graphics/SVG/1.1/DTD/svg11.dtd">
<svg version="1.1" id="Capa_1" xmlns="http://www.w3.org/2000/svg" xmlns:xlink="http://www.w3.org/1999/xlink" x="0px" y="0px"
	 viewBox="0 0 100 100" style="enable-background:new 0 0 100 100;" xml:space="preserve">
<g>
	<path style="fill:#1D1D1B;" d="M86.366,12.722H13.634c-2.872,0-5.208,2.336-5.208,5.208s2.336,5.208,5.208,5.208h72.732
		c2.872,0,5.208-2.336,5.208-5.208S89.238,12.722,86.366,12.722z"/>
	<path style="fill:#1D1D1B;" d="M86.366,31.917H50.634c-2.872,0-5.208,2.336-5.208,5.208s2.336,5.208,5.208,5.208h35.732
		c2.872,0,5.208-2.336,5.208-5.208S89.238,31.917,86.366,31.917z"/>
	<path style="fill:#1D1D1B;" d="M86.366,51.111H50.634c-2.872,0-5.208,2.336-5.208,5.208s2.336,5.208,5.208,5.208h35.732
		c2.872,0,5.208-2.336,5.208-5.208S89.238,51.111,86.366,51.111z"/>
	<path style="fill:#1D1D1B;" d="M86.366,71.397H13.634c-2.872,0-5.208,2.336-5.208,5.208s2.336,5.208,5.208,5.208h72.732
		c2.872,0,5.208-2.336,5.208-5.208S89.238,71.397,86.366,71.397z"/>
	<path style="fill:#1D1D1B;" d="M13.447,63.191l24.387-13.914c1.945-1.11,1.945-2.909,0-4.019L13.447,31.344
		c-1.944-1.11-3.521-0.194-3.521,2.045v27.757C9.926,63.385,11.503,64.301,13.447,63.191z"/>
</g>
</svg>
