<?xml version="1.0" encoding="iso-8859-1"?>
<!-- Generator: Adobe Illustrator 17.1.0, SVG Export Plug-In . SVG Version: 6.00 Build 0)  -->
<!DOCTYPE svg PUBLIC "-//W3C//DTD SVG 1.1//EN" "http://www.w3.org/Graphics/SVG/1.1/DTD/svg11.dtd">
<svg version="1.1" id="Layer_1" xmlns="http://www.w3.org/2000/svg" xmlns:xlink="http://www.w3.org/1999/xlink" x="0px" y="0px"
	 viewBox="0 0 64 64" style="enable-background:new 0 0 64 64;" xml:space="preserve">
<g>
	<path d="M44.849,5h-24C17.372,5,15,5,15,9v31c0,5.938,2.622,5.938,5.849,6h1.512l-8.595,13h4.542l6.167-9.333l16.917,0.271
		L47.349,59h5.13l-8.478-13h0.848C49.122,46,49,42.761,49,40V9C49,6.239,47.61,5,44.849,5z M27,8c0-0.552,0.448-1,1-1h8
		c0.552,0,1,0.448,1,1v2c0,0.552-0.448,1-1,1h-8c-0.552,0-1-0.448-1-1V8z M20,15.432C20,13.125,22.192,13,23.849,13h19
		C44.506,13,45,13.463,45,15.432v4.753C45,24.021,45.143,25,42.849,25h-19C21.185,25.021,20,24.479,20,20.185V15.432z M23.036,41.5
		c-1.76,0-3.188-1.427-3.188-3.188c0-1.76,1.427-3.188,3.188-3.188s3.188,1.427,3.188,3.188C26.224,40.073,24.797,41.5,23.036,41.5z
		 M42.036,41.5c-1.76,0-3.188-1.427-3.188-3.188c0-1.76,1.427-3.188,3.188-3.188s3.188,1.427,3.188,3.188
		C45.224,40.073,43.797,41.5,42.036,41.5z"/>
</g>
</svg>
