<?xml version="1.0" encoding="iso-8859-1"?>
<!-- Generator: Adobe Illustrator 17.1.0, SVG Export Plug-In . SVG Version: 6.00 Build 0)  -->
<!DOCTYPE svg PUBLIC "-//W3C//DTD SVG 1.1//EN" "http://www.w3.org/Graphics/SVG/1.1/DTD/svg11.dtd">
<svg version="1.1" id="Capa_1" xmlns="http://www.w3.org/2000/svg" xmlns:xlink="http://www.w3.org/1999/xlink" x="0px" y="0px"
	 viewBox="0 0 100 100" style="enable-background:new 0 0 100 100;" xml:space="preserve">
<g>
	<path d="M2.5,97.5h95v-95h-95V97.5z M25.16,32.316c0-0.552,0.426-1.142,0.943-1.335c2.768-1.035,5.16-2.392,7.174-4.073
		c2.285-1.957,4.104-4.267,5.458-6.926c1.245-2.447,2.134-5.545,2.668-9.295c0.078-0.547,0.579-0.991,1.131-0.991h9.475
		c0.552,0,1,0.448,1,1v18.36c0,0.552,0.448,1,1,1h17.172c0.552,0,1,0.448,1,1v10.666c0,0.552-0.448,1-1,1H54.009
		c-0.552,0-1,0.448-1,1v19.642c0,4.619,0.256,7.626,0.77,9.025c0.466,1.309,1.375,2.359,2.729,3.149
		c1.725,1.074,3.778,1.61,6.157,1.61c3.734,0,7.508-1.13,11.323-3.393c0.475-0.282,0.852-0.076,0.852,0.476v10.663
		c0,0.552-0.405,1.19-0.908,1.418c-3.214,1.454-6.036,2.457-8.468,3.012c-2.893,0.653-5.902,0.979-9.026,0.979
		c-3.639,0-6.904-0.465-9.796-1.399c-2.846-0.932-5.272-2.26-7.277-3.988c-1.959-1.681-3.336-3.499-4.128-5.458
		c-0.794-2.006-1.19-4.827-1.19-8.468V43.723c0-0.552-0.448-1-1-1H26.16c-0.552,0-1-0.448-1-1V32.316z"/>
</g>
</svg>
