<?xml version="1.0" encoding="iso-8859-1"?>
<!-- Generator: Adobe Illustrator 17.1.0, SVG Export Plug-In . SVG Version: 6.00 Build 0)  -->
<!DOCTYPE svg PUBLIC "-//W3C//DTD SVG 1.1//EN" "http://www.w3.org/Graphics/SVG/1.1/DTD/svg11.dtd">
<svg version="1.1" id="Capa_1" xmlns="http://www.w3.org/2000/svg" xmlns:xlink="http://www.w3.org/1999/xlink" x="0px" y="0px"
	 viewBox="0 0 100 100" style="enable-background:new 0 0 100 100;" xml:space="preserve">
<g>
	<path style="fill:#000100;" d="M40.977,13.206H59.19h3v3v55.036v1.252l-0.89,0.88l-8.965,8.875h15.812V58.731c0-1.657,1.343-3,3-3
		h23.519V3.853h-53.69V13.206z"/>
	<polygon style="fill:#000100;" points="71.147,82.172 71.147,82.25 78.91,74.487 94.667,58.731 71.147,58.731 	"/>
	<path style="fill:#000100;" d="M32.671,71.084c0-1.657,1.343-3,3-3h5.306H59.19V16.206H40.977H5.5v78.397h27.171V71.084z"/>
	<polygon style="fill:#000100;" points="35.671,71.084 35.671,94.525 35.671,94.603 43.454,86.82 48.024,82.25 59.19,71.084 
		40.977,71.084 	"/>
</g>
</svg>
