<?xml version="1.0" encoding="iso-8859-1"?>
<!-- Generator: Adobe Illustrator 17.1.0, SVG Export Plug-In . SVG Version: 6.00 Build 0)  -->
<!DOCTYPE svg PUBLIC "-//W3C//DTD SVG 1.1//EN" "http://www.w3.org/Graphics/SVG/1.1/DTD/svg11.dtd">
<svg version="1.1" id="Capa_1" xmlns="http://www.w3.org/2000/svg" xmlns:xlink="http://www.w3.org/1999/xlink" x="0px" y="0px"
	 viewBox="0 0 100 100" style="enable-background:new 0 0 100 100;" xml:space="preserve">
<g>
	<path style="fill:#1D1D1B;" d="M45.426,50.877l-25.132,0c-1.975,0-2.443,1.132-1.047,2.528l4.797,4.797L6.269,75.977
		c-0.559,0.558-0.559,1.464,0,2.022l15.609,15.61c0.559,0.558,1.464,0.558,2.022,0l17.775-17.775l4.797,4.797
		C47.868,82.026,49,81.558,49,79.583V54.452C49,52.478,47.399,50.877,45.426,50.877z"/>
	<path style="fill:#1D1D1B;" d="M78.122,6.146c-0.559-0.558-1.464-0.558-2.022,0L58.324,23.921l-4.797-4.797
		C52.132,17.728,51,18.197,51,20.171v25.131c0,1.974,1.601,3.575,3.574,3.575l25.132,0c1.975,0,2.443-1.132,1.047-2.528
		l-4.797-4.797l17.775-17.775c0.559-0.558,0.559-1.464,0-2.022L78.122,6.146z"/>
</g>
</svg>
