<?xml version="1.0" encoding="iso-8859-1"?>
<!-- Generator: Adobe Illustrator 17.1.0, SVG Export Plug-In . SVG Version: 6.00 Build 0)  -->
<!DOCTYPE svg PUBLIC "-//W3C//DTD SVG 1.1//EN" "http://www.w3.org/Graphics/SVG/1.1/DTD/svg11.dtd">
<svg version="1.1" id="Capa_1" xmlns="http://www.w3.org/2000/svg" xmlns:xlink="http://www.w3.org/1999/xlink" x="0px" y="0px"
	 viewBox="0 0 100 100" style="enable-background:new 0 0 100 100;" xml:space="preserve">
<g>
	<path style="fill:#000100;" d="M16.067,14.565h3.221c0.552,0,2.231,0,2.841,4.756c0.038,0.343,0.102,1.958,0.102,8.914v5.868
		c0,2.641-0.111,6.587-0.332,11.729c-0.222,5.208-0.334,9.196-0.334,11.855c0,5.736,0.626,9.889,1.906,12.678
		c4.021,9.04,12.965,13.623,26.584,13.623c11.062,0,19.063-3.458,23.775-10.268c2.048-2.908,3.404-6.359,4.036-10.292
		c0.308-2.232,0.458-5.704,0.458-10.613V33.438c0-11.2,0.401-15.269,0.738-16.71c0.358-1.537,1.126-2.163,2.65-2.163h2.331
		c5.466,0,6.056-3.69,6.056-5.276s-0.601-5.276-6.167-5.276c-0.336,0-1.001,0.034-2.889,0.325l-4.781,0.719
		c-1.247,0.192-2.852,0.29-4.769,0.29c-2,0-3.801-0.107-5.353-0.319l-6.547-0.888c-0.593-0.083-1.187-0.126-1.764-0.126
		c-5.767,0-6.389,3.806-6.389,5.442c0,1.345,0.489,2.54,1.454,3.553c0.971,1.019,2.197,1.558,3.548,1.558
		c0.658,0,1.687-0.091,3.14-0.278c0.885-0.11,1.559-0.166,2.001-0.166c1.552,0,3.421,0.502,4.108,4.455
		c0.057,0.287,0.188,1.764,0.188,9.263v28.519c-0.07,3.902-0.512,7.138-1.313,9.617c-0.736,2.269-2.338,4.042-4.896,5.418
		c-2.65,1.429-5.925,2.153-9.729,2.153c-2.895,0-5.761-0.595-8.527-1.772c-2.822-1.181-4.749-2.804-5.729-4.825
		c-1.043-2.15-1.572-5.742-1.572-10.675v-17.05l0.665-8.941l0.004-7.188c0.087-4.036,0.368-5.671,0.594-6.348
		c0.782-2.426,2.2-2.737,3.348-2.737c0.507,0,1.326,0.087,2.434,0.259c1.268,0.199,2.215,0.295,2.898,0.295
		c3.424,0,5.388-1.923,5.388-5.276c0-1.586-0.59-5.276-6.054-5.276c-1.11,0-2.165,0.082-3.126,0.241
		c-4.05,0.651-7.669,0.981-10.758,0.981c-3.022,0-6.342-0.292-9.862-0.869c-1.412-0.235-2.766-0.354-4.022-0.354
		c-3.637,0-5.723,1.923-5.723,5.276C9.9,10.875,10.501,14.565,16.067,14.565z"/>
	<path style="fill:#000100;" d="M14,96.667h72c2.762,0,5-2.239,5-5s-2.238-5-5-5H14c-2.762,0-5,2.239-5,5S11.238,96.667,14,96.667z"
		/>
</g>
</svg>
