<?xml version="1.0" encoding="iso-8859-1"?>
<!-- Generator: Adobe Illustrator 17.1.0, SVG Export Plug-In . SVG Version: 6.00 Build 0)  -->
<!DOCTYPE svg PUBLIC "-//W3C//DTD SVG 1.1//EN" "http://www.w3.org/Graphics/SVG/1.1/DTD/svg11.dtd">
<svg version="1.1" id="Capa_1" xmlns="http://www.w3.org/2000/svg" xmlns:xlink="http://www.w3.org/1999/xlink" x="0px" y="0px"
	 viewBox="0 0 100 100" style="enable-background:new 0 0 100 100;" xml:space="preserve">
<g>
	<path style="fill:#1D1D1B;" d="M18.062,55.772L50,35.366l31.938,20.406c1.251,0.799,2.649,1.181,4.031,1.181
		c2.474,0,4.896-1.224,6.327-3.463c2.23-3.491,1.208-8.128-2.282-10.358L54.038,20.146c-2.463-1.573-5.613-1.573-8.076,0
		L9.985,43.131c-3.49,2.23-4.513,6.868-2.282,10.358C9.934,56.981,14.572,58,18.062,55.772z"/>
	<path style="fill:#1D1D1B;" d="M18.062,79.758L50,59.352l31.938,20.406c1.251,0.799,2.649,1.181,4.031,1.181
		c2.474,0,4.896-1.224,6.327-3.463c2.23-3.491,1.208-8.128-2.282-10.358L54.038,44.131c-2.463-1.573-5.613-1.573-8.076,0
		L9.985,67.117c-3.49,2.23-4.513,6.868-2.282,10.358C9.934,80.967,14.572,81.986,18.062,79.758z"/>
</g>
</svg>
