<?xml version="1.0" encoding="iso-8859-1"?>
<!-- Generator: Adobe Illustrator 17.1.0, SVG Export Plug-In . SVG Version: 6.00 Build 0)  -->
<!DOCTYPE svg PUBLIC "-//W3C//DTD SVG 1.1//EN" "http://www.w3.org/Graphics/SVG/1.1/DTD/svg11.dtd">
<svg version="1.1" id="Capa_1" xmlns="http://www.w3.org/2000/svg" xmlns:xlink="http://www.w3.org/1999/xlink" x="0px" y="0px"
	 viewBox="0 0 100 100" style="enable-background:new 0 0 100 100;" xml:space="preserve">
<g>
	<path d="M50,2.557c-26.228,0-47.566,21.338-47.566,47.566S23.772,97.689,50,97.689s47.566-21.338,47.566-47.566
		S76.228,2.557,50,2.557z M50,87.689c-20.714,0-37.566-16.853-37.566-37.566S29.286,12.557,50,12.557s37.566,16.853,37.566,37.566
		S70.714,87.689,50,87.689z"/>
	<path d="M53.268,18.504c-1.805-1.805-4.731-1.805-6.536,0L23.758,41.479c-1.805,1.805-1.199,3.268,1.353,3.268h8.77v32.499
		c0,1.021,0.828,1.849,1.849,1.849h28.54c1.021,0,1.849-0.828,1.849-1.849V44.747h8.77c2.552,0,3.158-1.463,1.353-3.268
		L53.268,18.504z"/>
</g>
</svg>
