<?xml version="1.0" encoding="iso-8859-1"?>
<!-- Generator: Adobe Illustrator 17.1.0, SVG Export Plug-In . SVG Version: 6.00 Build 0)  -->
<!DOCTYPE svg PUBLIC "-//W3C//DTD SVG 1.1//EN" "http://www.w3.org/Graphics/SVG/1.1/DTD/svg11.dtd">
<svg version="1.1" id="Capa_1" xmlns="http://www.w3.org/2000/svg" xmlns:xlink="http://www.w3.org/1999/xlink" x="0px" y="0px"
	 viewBox="0 0 100 100" style="enable-background:new 0 0 100 100;" xml:space="preserve">
<g>
	<path style="fill:#1D1D1B;" d="M76,44.75h-8.621C62.938,49.224,56.787,52,50,52s-12.938-2.776-17.379-7.25H24c-2.761,0-5,2.239-5,5
		v39c0,2.761,2.239,5,5,5h52c2.761,0,5-2.239,5-5v-39C81,46.989,78.761,44.75,76,44.75z"/>
	<path style="fill:#1D1D1B;" d="M37.206,44.75C40.784,47.408,45.201,49,50,49s9.216-1.592,12.794-4.25
		C68.067,40.832,71.5,34.575,71.5,27.5C71.5,15.626,61.874,6,50,6s-21.5,9.626-21.5,21.5C28.5,34.575,31.933,40.832,37.206,44.75z"
		/>
</g>
</svg>
