<?xml version="1.0" encoding="iso-8859-1"?>
<!-- Generator: Adobe Illustrator 17.1.0, SVG Export Plug-In . SVG Version: 6.00 Build 0)  -->
<!DOCTYPE svg PUBLIC "-//W3C//DTD SVG 1.1//EN" "http://www.w3.org/Graphics/SVG/1.1/DTD/svg11.dtd">
<svg version="1.1" id="Layer_1" xmlns="http://www.w3.org/2000/svg" xmlns:xlink="http://www.w3.org/1999/xlink" x="0px" y="0px"
	 viewBox="0 0 64 64" style="enable-background:new 0 0 64 64;" xml:space="preserve">
<g>
	<path d="M57,24H6c-1.105,0-2,0.895-2,2v23c0,1.105,0.895,2,2,2h51c1.105,0,2-0.895,2-2V26C59,24.895,58.105,24,57,24z M8,38
		c0,0.276-0.224,0.5-0.5,0.5S7,38.276,7,38v-3c0-0.276,0.224-0.5,0.5-0.5S8,34.724,8,35V38z M52,47c0,1.105-0.895,2-2,2H38.388
		c0-5.652-1.576-9.832-7.006-9.832c-5.43,0-7.006,4.18-7.006,9.832H12c-1.105,0-2-0.895-2-2V28c0-1.105,0.895-2,2-2h38
		c1.105,0,2,0.895,2,2V47z M55.312,39.188c-1.036,0-1.875-0.839-1.875-1.875s0.839-1.875,1.875-1.875s1.875,0.839,1.875,1.875
		S56.348,39.188,55.312,39.188z"/>
	<circle cx="31.617" cy="34.458" r="4.298"/>
</g>
</svg>
