<?xml version="1.0" encoding="iso-8859-1"?>
<!-- Generator: Adobe Illustrator 17.1.0, SVG Export Plug-In . SVG Version: 6.00 Build 0)  -->
<!DOCTYPE svg PUBLIC "-//W3C//DTD SVG 1.1//EN" "http://www.w3.org/Graphics/SVG/1.1/DTD/svg11.dtd">
<svg version="1.1" id="Capa_1" xmlns="http://www.w3.org/2000/svg" xmlns:xlink="http://www.w3.org/1999/xlink" x="0px" y="0px"
	 viewBox="0 0 100 100" style="enable-background:new 0 0 100 100;" xml:space="preserve">
<g>
	<path style="fill:#1D1D1B;" d="M65.428,30.532L40.394,55.566l-5.821-5.821c-1.202-1.202-3.151-1.202-4.354,0l-4.354,4.354
		c-1.202,1.202-1.202,3.152,0,4.354l7.998,7.998l4.354,4.354c1.202,1.202,3.151,1.202,4.354,0l4.354-4.354l27.212-27.211
		c1.202-1.202,1.202-3.152,0-4.354l-4.354-4.354C68.579,29.329,66.63,29.329,65.428,30.532z"/>
	<path style="fill:#1D1D1B;" d="M50,2.833C23.992,2.833,2.833,23.992,2.833,50S23.992,97.167,50,97.167S97.167,76.008,97.167,50
		S76.008,2.833,50,2.833z M50,82.167c-17.737,0-32.167-14.43-32.167-32.167c0-17.737,14.43-32.167,32.167-32.167
		S82.167,32.263,82.167,50C82.167,67.737,67.737,82.167,50,82.167z"/>
</g>
</svg>
