<?xml version="1.0" encoding="iso-8859-1"?>
<!-- Generator: Adobe Illustrator 17.1.0, SVG Export Plug-In . SVG Version: 6.00 Build 0)  -->
<!DOCTYPE svg PUBLIC "-//W3C//DTD SVG 1.1//EN" "http://www.w3.org/Graphics/SVG/1.1/DTD/svg11.dtd">
<svg version="1.1" id="Capa_1" xmlns="http://www.w3.org/2000/svg" xmlns:xlink="http://www.w3.org/1999/xlink" x="0px" y="0px"
	 viewBox="0 0 100 100" style="enable-background:new 0 0 100 100;" xml:space="preserve">
<g>
	<path d="M3.667,96.333h92.667V3.667H3.667V96.333z M9.216,34.179c1.923-1.347,4.869-3.798,8.836-7.36
		c3.967-3.556,7.249-6.106,9.846-7.644c3.365-1.969,6.419-2.572,9.161-1.803c1.298,0.386,2.512,1.347,3.643,2.885
		c1.129,1.538,1.984,3.198,2.561,4.976c0.529,1.685,1.346,5.627,2.452,11.831c0.144,0.961,0.348,2.682,0.613,5.156
		c0.264,2.477,0.505,4.497,0.721,6.058c0.216,1.567,0.673,3.319,1.371,5.266c0.697,1.947,1.598,3.499,2.705,4.652
		c2.067,2.215,4.159,2.55,6.275,1.012c1.346-1.012,3.053-3.39,5.121-7.143c2.26-4.373,3.51-7.81,3.751-10.312
		c0.336-3.654-0.301-6.035-1.912-7.143c-1.612-1.104-4.34-1.491-8.187-1.152c0.769-2.356,1.839-4.556,3.21-6.602
		c1.37-2.043,2.801-3.725,4.292-5.049c1.49-1.321,3.041-2.488,4.652-3.497c1.61-1.012,2.993-1.744,4.147-2.201
		c1.154-0.456,2.139-0.758,2.958-0.902c6.492-0.961,10.988,0.121,13.488,3.246c1.779,2.26,2.284,5.435,1.515,9.521
		c-0.674,3.511-2.657,8.957-5.951,16.337c-3.294,7.382-7.442,14.415-12.442,21.098c-5.723,7.698-11.734,13.395-18.033,17.097
		c-1.635,1.009-3.462,1.767-5.482,2.271c-2.02,0.504-4.064,0.468-6.131-0.107c-2.934-1.251-5.41-4.257-7.429-9.016
		c-1.01-2.454-2.38-7.191-4.112-14.212c-1.731-6.779-3.006-11.273-3.823-13.488c-0.241-0.623-0.541-1.598-0.902-2.922
		c-0.361-1.319-0.721-2.474-1.082-3.46c-0.361-0.986-0.806-1.913-1.334-2.778c-0.818-1.392-1.816-2.113-2.994-2.164
		c-1.179-0.048-2.573,0.206-4.184,0.758c-1.612,0.555-2.921,0.758-3.931,0.611c-0.577-0.093-1.094-0.575-1.551-1.443
		c-0.458-0.865-1.071-1.488-1.839-1.874V34.179z"/>
</g>
</svg>
