<?xml version="1.0" encoding="iso-8859-1"?>
<!-- Generator: Adobe Illustrator 17.1.0, SVG Export Plug-In . SVG Version: 6.00 Build 0)  -->
<!DOCTYPE svg PUBLIC "-//W3C//DTD SVG 1.1//EN" "http://www.w3.org/Graphics/SVG/1.1/DTD/svg11.dtd">
<svg version="1.1" id="Capa_1" xmlns="http://www.w3.org/2000/svg" xmlns:xlink="http://www.w3.org/1999/xlink" x="0px" y="0px"
	 viewBox="0 0 100 100" style="enable-background:new 0 0 100 100;" xml:space="preserve">
<g>
	<path style="fill:#000100;" d="M47.5,52.5H29.34c0.194,6.603,1.152,12.856,2.687,18.384c4.377-3.316,9.694-5.448,15.473-5.93V52.5z
		"/>
	<path style="fill:#000100;" d="M70.66,52.5H52.5v12.454c5.78,0.482,11.096,2.614,15.473,5.93
		C69.508,65.356,70.466,59.103,70.66,52.5z"/>
	<path style="fill:#000100;" d="M47.5,34.38c-5.711-0.477-10.972-2.561-15.319-5.81C30.556,34.23,29.54,40.678,29.34,47.5H47.5
		V34.38z"/>
	<path style="fill:#000100;" d="M67.819,28.569c-4.347,3.249-9.608,5.334-15.319,5.81V47.5h18.16
		C70.46,40.678,69.444,34.23,67.819,28.569z"/>
	<path style="fill:#000100;" d="M47.5,92.494V69.967c-5.263,0.529-10.042,2.712-13.819,6.015
		C37.012,84.84,41.955,91.039,47.5,92.494z"/>
	<path style="fill:#000100;" d="M26.578,86.45c3.168,2.04,6.615,3.683,10.277,4.848c-2.678-2.913-5.032-6.702-6.956-11.175
		C28.505,82.044,27.38,84.17,26.578,86.45z"/>
	<path style="fill:#000100;" d="M73.226,13.425c-3.114-1.982-6.494-3.582-10.081-4.722c2.595,2.823,4.889,6.463,6.78,10.756
		C71.289,17.625,72.404,15.596,73.226,13.425z"/>
	<path style="fill:#000100;" d="M75.668,47.5h17.589c-0.713-12.518-6.736-23.612-15.855-31.066
		c-1.337,3.101-3.185,5.932-5.438,8.386C74.125,31.436,75.447,39.153,75.668,47.5z"/>
	<path style="fill:#000100;" d="M36.855,8.702c-3.587,1.141-6.967,2.741-10.081,4.722c0.822,2.172,1.936,4.2,3.301,6.034
		C31.966,15.165,34.26,11.525,36.855,8.702z"/>
	<path style="fill:#000100;" d="M28.037,24.82c-2.253-2.454-4.101-5.285-5.438-8.386C13.479,23.888,7.456,34.982,6.744,47.5h17.589
		C24.553,39.153,25.875,31.436,28.037,24.82z"/>
	<path style="fill:#000100;" d="M93.256,52.5H75.668c-0.215,8.14-1.479,15.68-3.546,22.185c2.302,2.546,4.167,5.49,5.487,8.714
		C86.613,75.948,92.549,64.924,93.256,52.5z"/>
	<path style="fill:#000100;" d="M63.145,91.298c3.662-1.165,7.109-2.808,10.277-4.848c-0.802-2.279-1.927-4.406-3.321-6.327
		C68.176,84.595,65.823,88.385,63.145,91.298z"/>
	<path style="fill:#000100;" d="M47.5,29.366V7.506c-5.44,1.427-10.3,7.421-13.627,16.011C37.619,26.727,42.326,28.847,47.5,29.366z
		"/>
	<path style="fill:#000100;" d="M52.5,7.506v21.86c5.174-0.52,9.881-2.639,13.627-5.849C62.8,14.927,57.94,8.933,52.5,7.506z"/>
	<path style="fill:#000100;" d="M22.391,83.399c1.321-3.224,3.186-6.169,5.487-8.714C25.811,68.18,24.547,60.64,24.332,52.5H6.744
		C7.451,64.924,13.387,75.948,22.391,83.399z"/>
	<path style="fill:#000100;" d="M66.319,75.982c-3.777-3.303-8.556-5.486-13.819-6.015v22.527
		C58.045,91.039,62.988,84.84,66.319,75.982z"/>
</g>
</svg>
