<?xml version="1.0" encoding="iso-8859-1"?>
<!-- Generator: Adobe Illustrator 17.1.0, SVG Export Plug-In . SVG Version: 6.00 Build 0)  -->
<!DOCTYPE svg PUBLIC "-//W3C//DTD SVG 1.1//EN" "http://www.w3.org/Graphics/SVG/1.1/DTD/svg11.dtd">
<svg version="1.1" id="Capa_1" xmlns="http://www.w3.org/2000/svg" xmlns:xlink="http://www.w3.org/1999/xlink" x="0px" y="0px"
	 viewBox="0 0 100 100" style="enable-background:new 0 0 100 100;" xml:space="preserve">
<g>
	<path style="fill:#000100;" d="M55.259,38.879c2.653-8.046,0.803-17.252-5.597-23.651c-6.566-6.566-16.086-8.35-24.276-5.384
		c-0.737,0.267-0.87,0.973-0.316,1.527l14.358,14.358c0.554,0.554,0.792,1.602,0.531,2.341l-2.195,6.216
		c-0.261,0.739-1.071,1.549-1.81,1.81l-6.219,2.197c-0.739,0.261-1.787,0.023-2.341-0.531L13.038,23.405
		c-0.554-0.554-1.26-0.421-1.526,0.315c-2.964,8.189-1.179,17.708,5.385,24.273c6.4,6.4,15.605,8.25,23.651,5.597l34.051,34.05
		c2.032,2.032,5.327,2.032,7.359,0l7.352-7.352c2.032-2.032,2.032-5.327,0-7.359L55.259,38.879z M79.803,81.324
		c-2.02,0-3.657-1.637-3.657-3.657s1.637-3.657,3.657-3.657s3.657,1.637,3.657,3.657S81.823,81.324,79.803,81.324z"/>
</g>
</svg>
