<?xml version="1.0" encoding="iso-8859-1"?>
<!-- Generator: Adobe Illustrator 17.1.0, SVG Export Plug-In . SVG Version: 6.00 Build 0)  -->
<!DOCTYPE svg PUBLIC "-//W3C//DTD SVG 1.1//EN" "http://www.w3.org/Graphics/SVG/1.1/DTD/svg11.dtd">
<svg version="1.1" id="Capa_1" xmlns="http://www.w3.org/2000/svg" xmlns:xlink="http://www.w3.org/1999/xlink" x="0px" y="0px"
	 viewBox="0 0 100 100" style="enable-background:new 0 0 100 100;" xml:space="preserve">
<g>
	<path style="fill:#1D1D1B;" d="M59.032,57.756c-1.412,0-2.746,0.784-4.001,2.353v-9.474h-3.942v29.008h3.942v-2.119
		c1.294,1.609,2.627,2.413,4.001,2.413c1.608,0,2.647-0.823,3.118-2.471c0.274-0.825,0.412-2.255,0.412-4.296v-8.591
		c0-2.078-0.138-3.53-0.412-4.353C61.679,58.578,60.64,57.756,59.032,57.756z M58.679,73.465c0,1.924-0.569,2.882-1.707,2.882
		c-0.667,0-1.314-0.313-1.941-0.94V62.226c0.627-0.625,1.274-0.94,1.941-0.94c1.137,0,1.707,0.981,1.707,2.942V73.465z"/>
	<path style="fill:#1D1D1B;" d="M71.505,57.756c-2,0-3.57,0.747-4.707,2.236c-0.785,1.057-1.177,2.747-1.177,5.059v7.592
		c0,2.314,0.412,3.999,1.236,5.059c1.137,1.492,2.726,2.236,4.766,2.236c2.079,0,3.648-0.784,4.707-2.354
		c0.471-0.706,0.765-1.489,0.883-2.354c0.078-0.547,0.117-1.393,0.117-2.531v-0.529h-4.001c0,0.432,0,0.853,0,1.264
		c0,0.411-0.01,0.735-0.029,0.972c-0.02,0.234-0.029,0.372-0.029,0.411c-0.235,1.021-0.824,1.528-1.765,1.528c-1.334,0-2-1-2-2.999
		v-3.825h7.825V65.05c0-2.273-0.412-3.96-1.235-5.059C75.036,58.503,73.506,57.756,71.505,57.756z M73.388,66.287h-3.883v-2.002
		c0-2,0.647-2.999,1.941-2.999c1.295,0,1.942,1,1.942,2.999V66.287z"/>
	<path style="fill:#1D1D1B;" d="M43.792,74.524c-0.863,1.216-1.687,1.823-2.471,1.823c-0.55,0-0.844-0.294-0.882-0.883
		c-0.04-0.076-0.059-0.588-0.059-1.528V58.05h-3.883v17.063c0,1.492,0.118,2.549,0.353,3.176c0.353,1.101,1.177,1.648,2.471,1.648
		c1.451,0,2.942-0.883,4.472-2.648v2.354h3.942V58.05h-3.942V74.524z"/>
	<path style="fill:#1D1D1B;" d="M48.912,35.868c1.255,0,1.883-1.002,1.883-3.002v-9.18c0-2.039-0.628-3.059-1.883-3.059
		c-1.256,0-1.883,1.02-1.883,3.059v9.18C47.029,34.866,47.656,35.868,48.912,35.868z"/>
	<polygon style="fill:#1D1D1B;" points="22.258,54.754 26.847,54.754 26.847,79.643 31.201,79.643 31.201,54.754 35.908,54.754 
		35.908,50.635 22.258,50.635 	"/>
	<path style="fill:#1D1D1B;" d="M78.037,4.33H21.552c-4.668,0-8.659,1.659-11.974,4.971c-3.315,3.317-4.972,7.307-4.972,11.975
		V77.76c0,4.668,1.657,8.66,4.972,11.972c3.314,3.314,7.305,4.974,11.974,4.974h56.485c4.667,0,8.658-1.659,11.973-4.974
		c3.314-3.312,4.972-7.304,4.972-11.972V21.276c0-4.668-1.658-8.658-4.972-11.975C86.695,5.989,82.704,4.33,78.037,4.33z
		 M57.973,17.392h3.942v16.003c0,0.942,0.02,1.453,0.059,1.531c0.039,0.63,0.353,0.942,0.941,0.942c0.784,0,1.608-0.607,2.471-1.825
		V17.392h3.942v21.77h-3.942v-2.354c-1.609,1.765-3.119,2.648-4.531,2.648c-1.256,0-2.099-0.529-2.53-1.588
		c-0.235-0.706-0.353-1.784-0.353-3.236V17.392z M43.086,24.452c0-2.273,0.412-3.981,1.236-5.118
		c1.059-1.489,2.589-2.236,4.589-2.236c1.921,0,3.451,0.747,4.589,2.236c0.824,1.138,1.235,2.845,1.235,5.118v7.649
		c0,2.353-0.412,4.061-1.235,5.118c-1.138,1.492-2.668,2.236-4.589,2.236c-2,0-3.53-0.745-4.589-2.236
		c-0.824-1.135-1.236-2.841-1.236-5.118V24.452z M32.496,9.92l3.119,11.473l3-11.473h4.413l-5.295,17.417v11.825h-4.354V27.337
		c-0.432-2.158-1.334-5.256-2.707-9.297c-0.275-0.901-0.727-2.255-1.354-4.061c-0.628-1.802-1.099-3.156-1.412-4.059H32.496z
		 M80.979,80.937c-0.393,1.689-1.227,3.119-2.501,4.296c-1.275,1.177-2.756,1.864-4.442,2.059
		c-5.374,0.588-13.455,0.883-24.241,0.883c-10.788,0-18.868-0.294-24.241-0.883c-1.687-0.195-3.168-0.883-4.442-2.059
		c-1.275-1.177-2.109-2.606-2.5-4.296c-0.785-3.294-1.177-8.394-1.177-15.298c0-6.785,0.392-11.885,1.177-15.298
		c0.392-1.724,1.226-3.165,2.5-4.323c1.274-1.158,2.775-1.834,4.501-2.032c5.334-0.588,13.395-0.883,24.183-0.883
		c10.826,0,18.906,0.294,24.241,0.883c1.687,0.198,3.178,0.873,4.472,2.032c1.295,1.158,2.138,2.599,2.53,4.323
		c0.745,3.257,1.118,8.355,1.118,15.298C82.155,72.543,81.763,77.643,80.979,80.937z"/>
</g>
</svg>
